<svg width="24" height="24" viewBox="0 0 24 24" fill="none" xmlns="http://www.w3.org/2000/svg">
<path d="M14.4301 5.18001C14.2401 5.18001 14.0501 5.25 13.9001 5.40001C13.6101 5.69001 13.6101 6.17 13.9001 6.46L19.4401 12L13.9001 17.54C13.6101 17.83 13.6101 18.31 13.9001 18.6C14.1901 18.89 14.6701 18.89 14.9601 18.6L21.0301 12.53C21.3201 12.24 21.3201 11.76 21.0301 11.47L14.9601 5.40001C14.8101 5.25 14.6201 5.18001 14.4301 5.18001Z" fill="white"/>
<path d="M20.33 11.25L3.5 11.25C3.09 11.25 2.75 11.59 2.75 12C2.75 12.41 3.09 12.75 3.5 12.75L20.33 12.75C20.74 12.75 21.08 12.41 21.08 12C21.08 11.59 20.74 11.25 20.33 11.25Z" fill="white"/>
</svg>
