<svg width="24" height="25" viewBox="0 0 24 25" fill="none" xmlns="http://www.w3.org/2000/svg">
<path d="M14.4299 19.3191C14.2399 19.3191 14.0499 19.2491 13.8999 19.0991C13.6099 18.8091 13.6099 18.3291 13.8999 18.0391L19.4399 12.4991L13.8999 6.95914C13.6099 6.66914 13.6099 6.18914 13.8999 5.89914C14.1899 5.60914 14.6699 5.60914 14.9599 5.89914L21.0299 11.9691C21.3199 12.2591 21.3199 12.7391 21.0299 13.0291L14.9599 19.0991C14.8099 19.2491 14.6199 19.3191 14.4299 19.3191Z" fill="#1B1B1B"/>
<path d="M20.33 13.25H3.5C3.09 13.25 2.75 12.91 2.75 12.5C2.75 12.09 3.09 11.75 3.5 11.75H20.33C20.74 11.75 21.08 12.09 21.08 12.5C21.08 12.91 20.74 13.25 20.33 13.25Z" fill="#1B1B1B"/>
</svg>
