<svg width="52" height="52" viewBox="0 0 52 52" fill="none" xmlns="http://www.w3.org/2000/svg">
<path d="M47.6019 39V41.1666C47.6019 44.7416 47.6019 47.6666 41.1019 47.6666H10.7686C4.26855 47.6666 4.26855 44.7416 4.26855 41.1666V39C4.26855 37.8083 5.24355 36.8333 6.43522 36.8333H45.4352C46.6269 36.8333 47.6019 37.8083 47.6019 39Z" fill="#0C0507"/>
<path d="M31.2216 11.2233C31.33 10.79 31.395 10.3783 31.4166 9.92333C31.4816 7.40999 29.9433 5.19999 27.5166 4.54999C23.8766 3.55333 20.5833 6.28333 20.5833 9.74999C20.5833 10.27 20.6483 10.7467 20.7783 11.2233C12.9566 12.8917 7.08496 19.8467 7.08496 28.1667V31.4167C7.08496 32.6083 8.05996 33.5833 9.25163 33.5833H42.7266C43.9183 33.5833 44.8933 32.6083 44.8933 31.4167V28.1667C44.8933 19.8467 39.0433 12.9133 31.2216 11.2233ZM32.5 25.4583H19.5C18.6116 25.4583 17.875 24.7217 17.875 23.8333C17.875 22.945 18.6116 22.2083 19.5 22.2083H32.5C33.3883 22.2083 34.125 22.945 34.125 23.8333C34.125 24.7217 33.3883 25.4583 32.5 25.4583Z" fill="#0C0507"/>
</svg>
