<svg id="Layer_1" data-name="Layer 1" xmlns="http://www.w3.org/2000/svg" viewBox="0 0 218.44 155.65"><defs><style>.cls-1,.cls-3{fill:#a6a6a6;}.cls-1,.cls-14,.cls-15,.cls-4,.cls-5{isolation:isolate;}.cls-1,.cls-2{opacity:0.17;}.cls-4,.cls-5,.cls-6{fill:#6e6e76;}.cls-14,.cls-15,.cls-4{opacity:0.6;}.cls-5{opacity:0.8;}.cls-7{fill:#ababab;}.cls-8{fill:#969696;}.cls-14,.cls-9{fill:#8a8a8a;}.cls-10{fill:#737373;}.cls-11{fill:#707070;}.cls-12{fill:#303030;}.cls-13{fill:#fff;}.cls-15{fill:#696969;}</style></defs><circle id="Ellipse_2" data-name="Ellipse 2" class="cls-1" cx="103.23" cy="72.53" r="72.53"/><g id="Group_13" data-name="Group 13" class="cls-2"><g id="Group_12" data-name="Group 12"><path id="Path_36" data-name="Path 36" class="cls-3" d="M136.28,124a82.48,82.48,0,0,0,37.07-36.22C180,75,183.34,60.34,182,46s-7.6-28.37-18.09-38.27a26,26,0,0,0-9-6,12.86,12.86,0,0,0-10.53.58l-2.13,1.3h0c-5,3.09-9.06,5.44-15.31,7.24-7.15,2.06-14.63,2.64-22,3.81l-2.22.37.42.08-.74.12.32-.2C90.8,17.15,79.09,21,68.9,27.44l0,0-.1.06,0,0c-.55.34-1.09.69-1.63,1.05l-1.58,1.1-.23.17L63.8,31l-.09.07c-9.55,7.4-17.12,17.55-20.17,29.2-3.4,13-1,27.12,5.57,38.8,9.52,17,27.6,28.24,46.9,31.2l.46.22a65.88,65.88,0,0,0,17.18.25,71.46,71.46,0,0,0,22.46-6.63.85.85,0,0,0,0-.17l.07,0M170,48.41v.19h0" transform="translate(0)"/></g></g><g id="Group_14" data-name="Group 14"><path id="Path_37" data-name="Path 37" class="cls-4" d="M138.27,104.43c9.85-3,14.64-6.67,23.1-12.71,4.14-3,2.81-7.42,5.75-11.59.41-.59.1-4.11.48-4.72l-38.85-13.9-6,22V109C128,107.48,133.13,106,138.27,104.43Z" transform="translate(0)"/><path id="Path_38" data-name="Path 38" class="cls-5" d="M135.41,64.48v-27s-.27-2.32,2.55-2.32a3.43,3.43,0,0,1,3.34,2.76l.75,29.4" transform="translate(0)"/><path id="Path_39" data-name="Path 39" class="cls-6" d="M167.27,78.06c.67-1.21-.24-.57-.16-.69q.62-.89,1.2-1.8L128.76,61.51l7.44,5.8Z" transform="translate(0)"/><path id="Path_40" data-name="Path 40" class="cls-5" d="M122.8,83.48l6-22,7.44,5.79v46.54H122.8Z" transform="translate(0)"/></g><path id="Path_41" data-name="Path 41" class="cls-7" d="M116.73,57.45l4.61,1.48-2.7,4.16,7,39.27-30.14,18.1L67.36,101.13l2.48-26-2.48-.78,4.28-4.84-6.3-4.38L74.45,52.1V43.33l-4.56-1.24,14-26.87,31.82,13.49-3.53,4.78.84,12,7.78,2.76" transform="translate(0)"/><path id="Path_42" data-name="Path 42" class="cls-8" d="M85.32,23v90.47l-18-12.35,2.48-26-2.48-.78,4.28-5.9-6.3-3.32L74.45,52.1V43.33l-4.56-1.24,14-26.87Z" transform="translate(0)"/><path id="Path_43" data-name="Path 43" class="cls-9" d="M65.34,65.14l6.3,4.39L85.33,47.39V35.64h0L74.45,52.09Z" transform="translate(0)"/><path id="Path_44" data-name="Path 44" class="cls-9" d="M74.45,43.33l10.87-21-1.43-7.08-14,26.87,4.56,1.24" transform="translate(0)"/><path id="Path_45" data-name="Path 45" class="cls-10" d="M118.64,63.09" transform="translate(0)"/><path id="Path_46" data-name="Path 46" class="cls-10" d="M85.33,52.88,69.84,76.22l-2.48-1.86,18-27.23Z" transform="translate(0)"/><path id="Path_47" data-name="Path 47" class="cls-7" d="M116.73,59.52" transform="translate(0)"/><g id="Group_15" data-name="Group 15"><path id="Path_48" data-name="Path 48" class="cls-6" d="M77.54,109.58,69.6,60.68h1.2s.88-15.1-5.59-15.1a3.81,3.81,0,0,0-3,1.36L51.71,49.1s-4.39,1.76-3.36,11.1l5.44,1.2L50.35,80.45l-4,22.15,14.12,6Z" transform="translate(0)"/></g><path id="Path_49" data-name="Path 49" class="cls-11" d="M72.54,51.57,82.76,27.25,70.54,49.44,46.35,25,68.92,52,53.37,83.53,70.83,54.38,98.39,81Z" transform="translate(0)"/><path id="Path_50" data-name="Path 50" class="cls-12" d="M139.91,111" transform="translate(0)"/><path id="Path_51" data-name="Path 51" class="cls-12" d="M136.33,80.55h-6.24v-4.3l-3.9-3.9-1.25-42.63h-5.58l-1.25,42.63-3.9,3.9v4.3H108v32.56l14.18-2,14.17,2Z" transform="translate(0)"/><path id="Path_52" data-name="Path 52" class="cls-13" d="M47.55,60l10.06,2.18-6.2,3" transform="translate(0)"/><path id="Path_53" data-name="Path 53" class="cls-9" d="M69.84,75.15" transform="translate(0)"/><path id="Path_54" data-name="Path 54" class="cls-14" d="M85.32,22.29l26.86,11.19,3.54-4.77L83.89,15.22Z" transform="translate(0)"/><path id="Path_55" data-name="Path 55" class="cls-15" d="M85.32,47.13l36,11.8-2.7,4.16L85.32,52.87" transform="translate(0)"/><path id="Path_56" data-name="Path 56" class="cls-14" d="M120.8,48.23,85.33,35.64V47.13l31.4,10.32Z" transform="translate(0)"/><ellipse id="Ellipse_3" data-name="Ellipse 3" class="cls-13" cx="100.38" cy="40.58" rx="7.25" ry="10.07" transform="translate(6.36 94.27) rotate(-51.74)"/><path id="Path_57" data-name="Path 57" class="cls-13" d="M113.61,34.17l-7.12-3,7.87,7.14" transform="translate(0)"/><path id="Path_58" data-name="Path 58" class="cls-13" d="M125.11,35.64h-3.77l4.71,4" transform="translate(0)"/><path class="cls-13" d="M66.31,82.6a2.21,2.21,0,0,0,1.53-1.19c.66-1.29.18-2.8-1.7-3.77l-4.25-2.2a.19.19,0,0,0-.25.08l-4.13,8a.21.21,0,0,0,.08.26L61.89,86c2,1,3.62.73,4.44-.86a2.45,2.45,0,0,0,0-2.47ZM64.48,84c-.34.67-.93.78-2,.24l-2.38-1.23,1.05-2,2.34,1.21C64.54,82.78,64.8,83.43,64.48,84Zm1.39-3.45c-.23.44-.72.68-1.55.25l-2.4-1.25.87-1.69,2.27,1.18C65.94,79.54,66.12,80.12,65.87,80.59Z" transform="translate(0)"/><path class="cls-13" d="M71.1,83.92l.68-1.77,5,1.94a.26.26,0,0,0,.28-.13l.49-1.24a.28.28,0,0,0-.13-.29L70.62,79.8a.2.2,0,0,0-.24.11l-3.23,8.37a.2.2,0,0,0,.11.24l6.92,2.67a.27.27,0,0,0,.28-.13l.48-1.25a.28.28,0,0,0-.12-.28l-5.12-2,.76-2,4.6,1.77a.25.25,0,0,0,.28-.12L75.82,86a.26.26,0,0,0-.13-.28Z" transform="translate(0)"/><path class="cls-13" d="M82.61,83.74c-2.66-.71-4.41.37-4.83,1.93-.37,1.36.38,2.46,2.18,3.1l2.3.82c.88.32,1.09.78,1,1.2-.17.65-1,1-2.41.63s-1.95-1-1.89-1.84h0a.26.26,0,0,0-.24-.3l-1.47-.39h0a.28.28,0,0,0-.34.2l0,.12c-.39,1.49.78,3.21,3.53,3.94,2.92.78,4.56-.47,4.94-1.89C85.63,90,85.09,88.72,83,88l-2.28-.82c-.81-.28-1-.66-.89-1.07.17-.66,1-1,2.28-.64s1.7,1,1.65,1.55a.08.08,0,0,0,0,0,.24.24,0,0,0,.22.26l1.49.4h0a.27.27,0,0,0,.33-.19C86.23,86.08,85.37,84.48,82.61,83.74Z" transform="translate(0)"/><path class="cls-13" d="M95.9,86.53l-8.74-1.41a.27.27,0,0,0-.25.18l-.21,1.32a.27.27,0,0,0,.18.25l3.32.54L89,94.7a.2.2,0,0,0,.16.21l1.72.28a.2.2,0,0,0,.21-.16l1.18-7.28,3.32.53a.25.25,0,0,0,.25-.18l.22-1.32A.27.27,0,0,0,95.9,86.53Z" transform="translate(0)"/><path class="cls-13" d="M105,86.8h-.34a5.16,5.16,0,1,0,5.46,4.85v-.27A4.86,4.86,0,0,0,105,86.8Zm0,7.85a3,3,0,0,1-3-3h0v-.22A3,3,0,0,1,105,88.57a3,3,0,0,1,0,6.08Z" transform="translate(0)"/><path class="cls-13" d="M119.08,87.58l-.14-1.33a.28.28,0,0,0-.24-.2l-7,.75a.19.19,0,0,0-.16.2l1,8.93a.2.2,0,0,0,.21.16l1.73-.18a.21.21,0,0,0,.17-.21l-.35-3.25,4.52-.49a.27.27,0,0,0,.2-.24l-.15-1.33a.26.26,0,0,0-.24-.19l-4.52.48-.25-2.32,5-.54A.28.28,0,0,0,119.08,87.58Z" transform="translate(0)"/><g id="Group_19" data-name="Group 19"><path id="Path_65" data-name="Path 65" class="cls-13" d="M108,145.22c-68.9,0-106.4-40.3-108-42L31.18,74.45l-.12-.14c.06.07,6.94,7.18,19.89,14.13,17.08,9.17,36.26,13.82,57,13.82,19.84,0,38.4-6.29,55.17-18.7a98.19,98.19,0,0,0,20.32-19.88l-.07.11,35.06,23.9C216.85,90,178.77,145.22,108,145.22Z" transform="translate(0)"/></g><g id="Group_20" data-name="Group 20"><path id="Path_66" data-name="Path 66" class="cls-6" d="M36.63,111.11l8.58,5a.63.63,0,0,1,.19.72l-2.35,4a.63.63,0,0,1-.72.19l-14-8.17a.47.47,0,0,1-.16-.61L39,93.54a.5.5,0,0,1,.62-.17l5.07,2.95a.49.49,0,0,1,.16.62Z" transform="translate(0)"/><path id="Path_67" data-name="Path 67" class="cls-6" d="M73.27,120.85c-2.46,6.87-9.41,9-15.86,6.71s-10.46-8.37-8-15.24,9.42-9,15.86-6.72S75.73,114,73.27,120.85ZM55.78,114.6A5.9,5.9,0,1,0,63.34,111a5.74,5.74,0,0,0-7.43,3.25C55.86,114.36,55.82,114.48,55.78,114.6Z" transform="translate(0)"/><path id="Path_68" data-name="Path 68" class="cls-6" d="M85.92,124.51C85,123.33,84,121.68,84,121.68l-.14,0-1.51,11.6a.48.48,0,0,1-.51.39L76,132.9a.49.49,0,0,1-.39-.51l2.79-21.48a.49.49,0,0,1,.5-.39l5,.66,8.32,10.94a28.34,28.34,0,0,1,1.75,2.57l.11,0,1.5-11.56a.5.5,0,0,1,.51-.39l5.81.76a.47.47,0,0,1,.39.5L99.58,135.5a.48.48,0,0,1-.5.39l-5-.65Z" transform="translate(0)"/><path id="Path_69" data-name="Path 69" class="cls-6" d="M107.38,136.05a.48.48,0,0,1-.49-.4l-2-21.56a.49.49,0,0,1,.41-.49l9.73-.92c7.37-.7,13,3.18,13.67,10s-3.35,11.65-11.47,12.42Zm4.7-17.36,1,11.08,3.48-.33c3.93-.37,5.64-2.68,5.31-6.09s-2.91-5.31-6.4-5Z" transform="translate(0)"/><path id="Path_70" data-name="Path 70" class="cls-6" d="M155.55,114c2.34,6.91-1.79,12.91-8.27,15.1s-13.4-.07-15.74-7,1.78-12.91,8.27-15.1S153.21,107.11,155.55,114ZM138,120a5.9,5.9,0,1,0,3.69-7.52,5.74,5.74,0,0,0-3.81,7.17l.12.35Z" transform="translate(0)"/><path id="Path_71" data-name="Path 71" class="cls-6" d="M167.72,109c-1.44-.35-3.25-1-3.25-1l-.13.08,6,10a.5.5,0,0,1-.15.62l-5,3a.49.49,0,0,1-.62-.16L153.4,103a.5.5,0,0,1,.15-.62l4.35-2.62,13.32,3.38a31.14,31.14,0,0,1,3,.93l.1-.06-6-10a.5.5,0,0,1,.15-.62l5-3a.49.49,0,0,1,.62.16l11.18,18.54a.48.48,0,0,1-.15.62l-4.35,2.62Z" transform="translate(0)"/></g><g id="Group_22" data-name="Group 22"><g id="Group_21" data-name="Group 21"><path id="Path_72" data-name="Path 72" class="cls-6" d="M185.47,78.37a4.93,4.93,0,1,1-4.93,4.93h0a4.92,4.92,0,0,1,4.91-4.93Zm0,8.9a4,4,0,1,0-4-4h0a3.94,3.94,0,0,0,3.9,4Zm1-3.29v0a2.16,2.16,0,0,1,.37.37l.88,1.06v.07h-1.09l-1.15-1.39h-1v1.39h-.95V81h2.27a1.65,1.65,0,0,1,1.85,1.43,1.11,1.11,0,0,1,0,.17A1.49,1.49,0,0,1,186.51,84Zm-2-2.23v1.6h1.2c.65,0,1-.27,1-.8s-.33-.81-1.07-.81Z" transform="translate(0)"/></g></g><g id="Group_23" data-name="Group 23"><path id="Path_73" data-name="Path 73" class="cls-6" d="M66.05,147.29a.28.28,0,0,1,.26.31h0c0,.87.51,1.56,2,1.95s2.39,0,2.57-.71c.11-.45-.11-.94-1.06-1.26l-2.46-.85c-1.93-.66-2.75-1.83-2.38-3.29.42-1.68,2.29-2.85,5.14-2.13s3.9,2.45,3.5,4a.29.29,0,0,1-.35.21h0l-1.6-.4a.27.27,0,0,1-.24-.28v0c0-.59-.37-1.28-1.79-1.64s-2.25,0-2.43.73c-.11.43.1.83,1,1.12l2.45.84c2.21.77,2.81,2.13,2.47,3.47-.38,1.51-2.12,2.88-5.25,2.08-3-.75-4.23-2.57-3.83-4.17l0-.12a.3.3,0,0,1,.36-.22h0Z" transform="translate(0)"/><path id="Path_74" data-name="Path 74" class="cls-6" d="M85.92,149.66a5.52,5.52,0,1,1-4.94-6l.35,0A5.2,5.2,0,0,1,86,149.38,2.7,2.7,0,0,1,85.92,149.66Zm-8.64-1.43A3.25,3.25,0,1,0,81,145.54a3.14,3.14,0,0,0-3.7,2.47,1.43,1.43,0,0,0,0,.22Z" transform="translate(0)"/><path id="Path_75" data-name="Path 75" class="cls-6" d="M96.07,145.69a.21.21,0,0,1,.21-.18l1.86.14a.21.21,0,0,1,.19.21l-.38,5c-.24,3.22-2.4,4.78-5.45,4.55s-5-2.09-4.71-5.32l.38-5a.21.21,0,0,1,.21-.18l1.86.14a.22.22,0,0,1,.19.21l-.38,5c-.16,2.06.78,3.14,2.59,3.27s2.9-.78,3-2.84Z" transform="translate(0)"/><path id="Path_76" data-name="Path 76" class="cls-6" d="M99.57,147.58a.28.28,0,0,1-.23-.23v-1.43a.29.29,0,0,1,.23-.24l9.46-.05a.28.28,0,0,1,.23.23v1.43a.29.29,0,0,1-.23.24l-3.6,0,0,7.89a.22.22,0,0,1-.2.2h-1.87a.21.21,0,0,1-.2-.2l0-7.89Z" transform="translate(0)"/><path id="Path_77" data-name="Path 77" class="cls-6" d="M121.38,154.46a.22.22,0,0,1-.18.22l-1.86.16a.21.21,0,0,1-.21-.19l-.3-3.53-5.73.49.3,3.54a.2.2,0,0,1-.18.21l-1.86.16a.19.19,0,0,1-.21-.18l-.83-9.55a.23.23,0,0,1,.18-.22l1.86-.16a.23.23,0,0,1,.22.18l.35,4.13,5.73-.49-.36-4.13a.23.23,0,0,1,.18-.22l1.86-.16a.23.23,0,0,1,.22.18Z" transform="translate(0)"/><path id="Path_78" data-name="Path 78" class="cls-6" d="M139.39,151.3l-1.34.3-3.43-4.84c-.17-.25-.39-.63-.39-.63h0s0,.43-.07.73L133,152.71l-1.35.3-6.44-8.5a1.74,1.74,0,0,1-.11-.18c0-.05,0-.1.11-.13l2-.43c.2-.05.23-.05.38.14l3.22,4.17a12,12,0,0,1,.84,1.3h.06a10.29,10.29,0,0,1,.14-1.23l1-5.63,1-.23,3.3,4.67a11.32,11.32,0,0,1,.64,1.05h.07a13.35,13.35,0,0,1,.2-1.53l1.16-5.15c.06-.22.09-.24.28-.28l1.95-.44c.1,0,.14,0,.15.07a.5.5,0,0,1,0,.21Z" transform="translate(0)"/><path id="Path_79" data-name="Path 79" class="cls-6" d="M146.55,144.91l.7,2.15,5.57-1.82a.29.29,0,0,1,.3.15l.44,1.36a.28.28,0,0,1-.15.29l-7.53,2.46a.21.21,0,0,1-.25-.12l-3-9.12a.22.22,0,0,1,.12-.25l7.44-2.43a.29.29,0,0,1,.3.15l.44,1.36a.27.27,0,0,1-.15.29l-5.47,1.79.63,1.93,5-1.63a.27.27,0,0,1,.29.15l.45,1.36a.28.28,0,0,1-.15.29Z" transform="translate(0)"/><path id="Path_80" data-name="Path 80" class="cls-6" d="M155.79,142.53a.29.29,0,0,1,.4.1h0c.47.72,1.34.94,2.8.34s1.91-1.44,1.64-2.1c-.18-.43-.65-.69-1.6-.39l-2.49.79c-1.94.62-3.3.17-3.87-1.22-.65-1.6.14-3.66,2.87-4.78s4.58-.35,5.2,1.12a.3.3,0,0,1-.17.38h0l-1.52.63a.26.26,0,0,1-.36-.08l0,0c-.31-.5-1.05-.81-2.4-.26s-1.8,1.36-1.53,2c.17.41.58.61,1.45.32l2.47-.78c2.23-.7,3.52,0,4.05,1.3.6,1.45,0,3.58-3,4.81-2.81,1.16-4.92.46-5.55-1.07l0-.12a.3.3,0,0,1,.16-.39h0Z" transform="translate(0)"/><path id="Path_81" data-name="Path 81" class="cls-6" d="M161.25,135.15a.27.27,0,0,1-.31-.1l-.64-1.28a.3.3,0,0,1,.1-.31l8.47-4.21a.28.28,0,0,1,.31.1l.64,1.29a.27.27,0,0,1-.1.31l-3.22,1.6,3.51,7.06a.22.22,0,0,1-.09.27l-1.67.83a.22.22,0,0,1-.27-.09l-3.51-7.07Z" transform="translate(0)"/></g></svg>