<svg width="48" height="48" viewBox="0 0 48 48" fill="none" xmlns="http://www.w3.org/2000/svg">
<circle cx="24" cy="24" r="24" fill="#121212"/>
<path d="M28 34.75H20C15.38 34.75 14.52 32.6 14.3 30.51L13.55 22.5C13.44 21.45 13.41 19.9 14.45 18.74C15.35 17.74 16.84 17.26 19 17.26H29C31.17 17.26 32.66 17.75 33.55 18.74C34.59 19.9 34.56 21.45 34.45 22.51L33.7 30.5C33.48 32.6 32.62 34.75 28 34.75ZM19 18.75C17.31 18.75 16.15 19.08 15.56 19.74C15.07 20.28 14.91 21.11 15.04 22.35L15.79 30.36C15.96 31.94 16.39 33.25 20 33.25H28C31.6 33.25 32.04 31.94 32.21 30.35L32.96 22.36C33.09 21.11 32.93 20.28 32.44 19.74C31.85 19.08 30.69 18.75 29 18.75H19Z" fill="white"/>
<path d="M28 18.75C27.59 18.75 27.25 18.41 27.25 18V17.2C27.25 15.42 27.25 14.75 24.8 14.75H23.2C20.75 14.75 20.75 15.42 20.75 17.2V18C20.75 18.41 20.41 18.75 20 18.75C19.59 18.75 19.25 18.41 19.25 18V17.2C19.25 15.44 19.25 13.25 23.2 13.25H24.8C28.75 13.25 28.75 15.44 28.75 17.2V18C28.75 18.41 28.41 18.75 28 18.75Z" fill="white"/>
<path d="M24 28.75C21.25 28.75 21.25 27.05 21.25 26.03V25C21.25 23.59 21.59 23.25 23 23.25H25C26.41 23.25 26.75 23.59 26.75 25V26C26.75 27.04 26.75 28.75 24 28.75ZM22.75 24.75C22.75 24.83 22.75 24.92 22.75 25V26.03C22.75 27.06 22.75 27.25 24 27.25C25.25 27.25 25.25 27.09 25.25 26.02V25C25.25 24.92 25.25 24.83 25.25 24.75C25.17 24.75 25.08 24.75 25 24.75H23C22.92 24.75 22.83 24.75 22.75 24.75Z" fill="white"/>
<path d="M26 26.77C25.63 26.77 25.3 26.49 25.26 26.11C25.21 25.7 25.5 25.32 25.91 25.27C28.55 24.94 31.08 23.94 33.21 22.39C33.54 22.14 34.01 22.22 34.26 22.56C34.5 22.89 34.43 23.36 34.09 23.61C31.75 25.31 28.99 26.4 26.09 26.77C26.06 26.77 26.03 26.77 26 26.77Z" fill="white"/>
<path d="M22 26.7799C21.97 26.7799 21.94 26.7799 21.91 26.7799C19.17 26.4699 16.5 25.4699 14.19 23.8899C13.85 23.6599 13.76 23.1899 13.99 22.8499C14.22 22.5099 14.69 22.4199 15.03 22.6499C17.14 24.0899 19.57 24.9999 22.07 25.2899C22.48 25.3399 22.78 25.7099 22.73 26.1199C22.7 26.4999 22.38 26.7799 22 26.7799Z" fill="white"/>
</svg>
