<svg width="42" height="42" viewBox="0 0 42 42" fill="none" xmlns="http://www.w3.org/2000/svg">
<path d="M5.32317 0.867571C2.3707 3.68423 0.374401 6.34328 0 9.38505C0.0781212 15.6294 5.72305 22.8719 12.3725 29.5148C15.6724 32.8113 19.2294 36.0898 22.7068 38.4685C26.1843 40.847 29.5822 42.3817 32.6458 41.9171C35.64 41.5763 38.9669 38.2523 41.1293 36.5576C42.2937 35.5932 42.2937 32.9345 41.1084 31.9041L35.4941 26.2954C34.04 25.1347 32.1255 25.0766 30.6076 25.8592C29.2376 26.8092 27.8695 27.8681 26.6986 28.7046C25.4621 29.2915 24.206 28.3731 23.2677 27.7076C21.6676 26.5637 19.919 24.8193 18.5058 23.4075C17.0819 21.985 15.3045 20.3365 14.1601 18.7959C13.2789 17.6268 12.7404 16.3651 13.2454 15.1603C14.1778 13.8707 15.1697 12.5952 16.0733 11.2963C16.7596 9.7273 16.808 7.6691 15.678 6.49767L10.0638 0.888512C8.48735 -0.353152 6.84296 -0.231272 5.32285 0.86805L5.32317 0.867571ZM9.12849 1.84413L14.7427 7.43233C15.4686 8.46981 15.2789 9.56959 14.9092 10.6522L12.1851 14.3705C11.1057 16.2743 12.0195 18.1178 13.0998 19.5849C14.3595 21.2804 16.1522 22.9671 17.5496 24.3631C18.9642 25.7763 20.7565 27.563 22.4984 28.8088C23.9609 29.8328 26.0837 30.8717 27.5305 29.7436C28.7851 28.8493 30.0277 27.9313 31.2734 27.0222C32.4592 26.5019 33.5321 26.5884 34.5379 27.2301L40.1731 32.8597C40.8609 33.8014 40.6967 34.6818 40.194 35.5811C37.6364 37.5872 34.975 40.2463 32.4384 40.5876C29.9696 40.9526 26.8022 39.6566 23.456 37.3677C20.1008 35.0728 16.582 31.8501 13.3091 28.5806C6.75885 22.0362 1.42544 14.8259 1.33187 9.40682C1.75597 7.11242 3.63839 4.57468 6.23933 1.82457C7.30145 1.09633 8.14312 1.21911 9.12942 1.84503L9.12849 1.84413Z" fill="white"/>
</svg>
