<svg width="32" height="32" viewBox="0 0 32 32" fill="none" xmlns="http://www.w3.org/2000/svg">
<path d="M20.9494 22.364L9.63567 11.0503C9.24912 10.6637 9.24912 10.0226 9.63567 9.63606C10.0222 9.24951 10.6633 9.24951 11.0499 9.63606L22.3636 20.9498C22.7501 21.3363 22.7501 21.9774 22.3636 22.364C21.977 22.7505 21.3359 22.7505 20.9494 22.364Z" fill="#1B1B1B"/>
<path d="M9.63641 22.364C9.24986 21.9774 9.24986 21.3363 9.63641 20.9498L20.9501 9.63606C21.3367 9.24951 21.9778 9.24951 22.3643 9.63606C22.7509 10.0226 22.7509 10.6637 22.3643 11.0503L11.0506 22.364C10.6641 22.7505 10.023 22.7505 9.63641 22.364Z" fill="#1B1B1B"/>
</svg>
