<svg width="25" height="24" viewBox="0 0 25 24" fill="none" xmlns="http://www.w3.org/2000/svg">
<path d="M16.2123 16.7735L7.72699 8.28826C7.43708 7.99834 7.43708 7.51751 7.72699 7.2276C8.01691 6.93768 8.49774 6.93768 8.78765 7.2276L17.2729 15.7129C17.5628 16.0028 17.5628 16.4836 17.2729 16.7735C16.983 17.0635 16.5022 17.0635 16.2123 16.7735Z" fill="white"/>
<path d="M7.72706 16.7735C7.43715 16.4836 7.43715 16.0028 7.72706 15.7129L16.2123 7.2276C16.5023 6.93768 16.9831 6.93768 17.273 7.2276C17.5629 7.51751 17.5629 7.99834 17.273 8.28826L8.78772 16.7735C8.49781 17.0635 8.01698 17.0635 7.72706 16.7735Z" fill="white"/>
</svg>
