<svg width="24" height="24" viewBox="0 0 24 24" fill="none" xmlns="http://www.w3.org/2000/svg">
<path fill-rule="evenodd" clip-rule="evenodd" d="M9.62393 1.75259C11.033 0.615796 13.0372 0.615796 14.4463 1.75259L14.4477 1.75372L21.2311 7.26007C21.9891 7.85185 22.437 8.75818 22.4499 9.72164L22.4501 9.72972L22.45 18.8899C22.45 21.2107 20.5817 23.1 18.2674 23.1H16.2826L16.2684 23.0998C15.2486 23.0757 14.4419 22.237 14.4421 21.22C14.4421 21.2199 14.4421 21.22 14.4421 21.22V17.9899C14.4421 17.494 14.0444 17.0999 13.5634 17.0999H10.5885C10.1106 17.104 9.71743 17.4969 9.71744 17.9899V21.21C9.71744 21.274 9.7074 21.3358 9.6888 21.3936C9.59705 22.3478 8.79798 23.1 7.81739 23.1H5.83258C3.51828 23.1 1.64999 21.2107 1.64999 18.8899V9.7339C1.65936 8.76885 2.10802 7.86029 2.86899 7.26997L9.62393 1.75259ZM8.51744 21.0563V17.9899C8.51741 16.8454 9.43531 15.9076 10.5821 15.8999L10.5862 15.8999L13.5634 15.8999C14.7158 15.8999 15.6421 16.8399 15.6421 17.9899V21.22C15.642 21.5916 15.9336 21.8884 16.2909 21.9H18.2674C19.9103 21.9 21.25 20.5567 21.25 18.8899V9.73409C21.2408 9.13247 20.96 8.56921 20.4894 8.20339L20.4794 8.19562L13.6928 2.68653C13.6926 2.68634 13.693 2.68673 13.6928 2.68653C12.7239 1.90543 11.3478 1.90468 10.3788 2.68544C10.3783 2.6858 10.3779 2.68617 10.3774 2.68653L3.62196 8.20437L3.60883 8.21478C3.13733 8.57844 2.85666 9.14169 2.84999 9.74283V18.8899C2.84999 20.5567 4.18966 21.9 5.83258 21.9H7.81739C8.18874 21.9 8.49759 21.5954 8.49759 21.21C8.49759 21.1569 8.50449 21.1054 8.51744 21.0563Z" fill="#14121F"/>
</svg>
