<svg width="24" height="24" viewBox="0 0 24 24" fill="none" xmlns="http://www.w3.org/2000/svg">
<path d="M0.835938 23.5511C0.835938 23.6619 0.791902 23.7682 0.713517 23.8466C0.635133 23.925 0.528821 23.969 0.417969 23.969C0.307117 23.969 0.200805 23.925 0.12242 23.8466C0.0440359 23.7682 0 23.6619 0 23.5511C0 21.469 0.761719 20.3225 1.74414 19.6683C2.72656 19.014 3.83789 18.887 4.67383 18.8069C5.54388 18.7392 6.38473 18.4624 7.125 18.0003C7.90058 17.4665 8.45911 16.6724 8.69922 15.762C7.89062 15.0647 7.22656 14.4534 7.07227 13.0393C6.88483 13.0358 6.70137 12.9847 6.53906 12.8909C6.35502 12.7689 6.1974 12.611 6.0756 12.4268C5.9538 12.2426 5.87031 12.0358 5.83008 11.8186C5.70924 11.2897 5.68345 10.7434 5.75391 10.2054C5.75805 10.1691 5.76725 10.1336 5.78125 10.0999C5.95508 9.62138 6.20508 9.42997 6.5293 9.40263L6.44531 9.34599C6.31836 7.75224 6.69141 4.98857 4.96094 4.46318C8.22461 0.418253 11.998 -1.78097 14.832 1.81669C18.2012 1.99443 19.5781 7.28544 16.9961 9.61357L16.9844 9.71513C17.0486 9.7001 17.1139 9.6903 17.1797 9.68583C17.389 9.66558 17.5998 9.70556 17.7871 9.80107C17.8905 9.85541 17.9819 9.92988 18.0561 10.0201C18.1302 10.1104 18.1855 10.2145 18.2188 10.3265C18.2977 10.609 18.2916 10.9086 18.2012 11.1878C18.0703 11.5921 17.918 12.0276 17.7656 12.4241C17.7205 12.6052 17.6209 12.7681 17.4805 12.8909L17.4453 12.9163C17.2659 13.0317 17.0513 13.0794 16.8398 13.0511H16.8184C16.7734 14.2347 16.2539 14.8694 15.5293 15.5765C15.8496 16.7054 16.377 17.3987 17.0078 17.8401C17.6758 18.305 18.4805 18.5042 19.2871 18.639C20.0938 18.7737 21.1875 18.9632 22.1543 19.6409C23.1211 20.3186 23.9355 21.4983 24 23.5472C23.9971 23.6536 23.9537 23.755 23.8786 23.8305C23.8034 23.906 23.7023 23.95 23.5959 23.9535C23.4894 23.957 23.3857 23.9197 23.3058 23.8493C23.2259 23.7788 23.1759 23.6806 23.166 23.5745C23.1113 21.8479 22.4707 20.885 21.6777 20.3284C20.8848 19.7718 19.8594 19.5862 19.1504 19.4671C18.2402 19.3147 17.3262 19.0765 16.5293 18.5296C15.7667 17.9841 15.1949 17.2127 14.8945 16.3245L14.875 16.3421C14.4061 16.7285 13.864 17.0161 13.2812 17.1878C12.8966 17.3197 12.4925 17.3857 12.0859 17.3831C11.9239 17.3821 11.7621 17.3703 11.6016 17.3479C10.7791 17.2773 9.99668 16.9616 9.35547 16.4417C9.02102 17.3575 8.40581 18.1443 7.59766 18.6897C6.74542 19.2274 5.77582 19.5511 4.77148 19.6331C4.02344 19.7132 3.01367 19.8284 2.2168 20.3616C1.41992 20.8948 0.849609 21.8069 0.849609 23.5472L0.835938 23.5511ZM11.6953 16.5198C11.7949 16.5296 11.8906 16.5335 11.998 16.5335C12.3354 16.5333 12.6711 16.4873 12.9961 16.3968C13.5103 16.2104 13.9771 15.9129 14.3633 15.5257L14.6367 15.2659C15.4785 14.4651 16.0859 13.887 15.9688 12.4866C15.9625 12.393 15.9864 12.2999 16.0371 12.221C16.0675 12.1743 16.1069 12.1342 16.1529 12.103C16.199 12.0718 16.2509 12.0501 16.3054 12.0392C16.36 12.0282 16.4162 12.0283 16.4708 12.0394C16.5253 12.0505 16.5771 12.0724 16.623 12.1038C16.6709 12.1357 16.7219 12.1626 16.7754 12.1839C16.8123 12.1981 16.8511 12.2067 16.8906 12.2093C16.9512 12.2093 16.957 12.2347 16.9668 12.2327C16.9668 12.2327 16.9668 12.2034 16.9883 12.1565L17.4102 10.9573C17.4519 10.8355 17.4613 10.7049 17.4375 10.5784C17.4325 10.5603 17.4215 10.5444 17.4062 10.5335C17.3576 10.5156 17.3052 10.5103 17.2539 10.5179C17.0565 10.5399 16.8695 10.6178 16.7148 10.7425C16.648 10.793 16.5675 10.8224 16.4837 10.8266C16.4 10.8308 16.3169 10.8097 16.2453 10.7661C16.1737 10.7225 16.1169 10.6584 16.0822 10.5821C16.0475 10.5058 16.0365 10.4208 16.0508 10.3382C16.3535 8.58036 16.2168 7.42997 15.8438 6.65263C15.5518 6.06489 15.0796 5.58585 14.4961 5.28544C13.2227 6.25028 12.3203 6.36747 11.4219 6.4788C10.6895 6.56864 9.95898 6.65849 8.99609 7.3245C8.58514 7.59069 8.27027 7.98154 8.09766 8.43974C7.93831 8.95076 7.92613 9.49633 8.0625 10.014C8.07869 10.0914 8.07329 10.1718 8.04688 10.2464C8.00858 10.3506 7.93058 10.4354 7.82992 10.4822C7.72927 10.5291 7.61416 10.5342 7.50977 10.4964L7.20898 10.387C6.88672 10.2737 6.65625 10.2171 6.57422 10.3733C6.52513 10.7888 6.54759 11.2096 6.64062 11.6175C6.67221 11.8343 6.7828 12.0319 6.95117 12.1722C6.99387 12.1949 7.04146 12.207 7.08984 12.2073C7.16943 12.2055 7.24835 12.1923 7.32422 12.1683C7.36449 12.1543 7.40662 12.1464 7.44922 12.1448C7.50402 12.1435 7.55853 12.1531 7.60962 12.1729C7.66072 12.1927 7.70739 12.2225 7.74696 12.2604C7.78652 12.2983 7.81821 12.3437 7.84018 12.3939C7.86215 12.4442 7.87399 12.4982 7.875 12.553C7.91016 13.9808 8.54883 14.5315 9.32422 15.1995L9.65625 15.4886C10.2192 16.0269 10.9285 16.387 11.6953 16.5237V16.5198Z" fill="#14121F"/>
</svg>
