<svg width="24" height="24" viewBox="0 0 24 24" fill="none" xmlns="http://www.w3.org/2000/svg">
<path fill-rule="evenodd" clip-rule="evenodd" d="M19.6073 13.6642H17.2073C16.8641 13.6642 16.6358 13.4354 16.6358 13.0927C16.6358 12.7499 16.8645 12.5212 17.2073 12.5212H19.6073C20.1784 12.5212 20.7499 12.4072 21.3214 12.2924C21.6641 12.1784 21.8929 12.064 22.1213 11.9496C22.35 11.8356 22.4644 11.4925 22.4644 11.2641C22.4644 11.0354 22.35 10.8066 22.2356 10.5783C21.6641 9.89277 20.6355 9.43565 19.2641 8.97852C19.1498 8.97852 19.1498 8.86415 19.0354 8.86415C18.6926 8.6354 18.4643 8.29265 18.3499 7.9499C18.3499 7.4924 18.5786 7.14964 18.9214 6.92127C19.7213 5.77827 20.1784 4.75002 20.0644 3.83539C19.95 3.26426 19.7213 2.80714 19.2641 2.46401C18.4643 1.89251 17.3216 1.89251 16.6354 2.46401C16.1786 2.80714 15.9499 3.26426 15.8355 3.83539C15.7215 4.74964 16.1786 5.77827 16.9785 6.92127C17.2073 7.15002 17.0929 7.49277 16.8641 7.72115C16.6354 7.9499 16.2926 7.83552 16.0643 7.60714C14.9213 6.23539 14.4641 4.86402 14.6929 3.60702C14.8073 2.80714 15.2644 2.00689 15.9499 1.54976C17.0929 0.635512 18.8074 0.635512 19.95 1.54976C20.6355 2.12126 21.0926 2.80714 21.207 3.60702C21.3214 4.86402 20.8643 6.23577 19.8356 7.60714C19.7213 7.72114 19.7213 7.83552 19.6069 7.83552C19.6069 7.83552 19.7213 7.83552 19.7213 7.9499C21.207 8.40702 22.35 9.09252 23.0355 9.8924C23.3786 10.2355 23.607 10.807 23.607 11.3785C23.607 11.689 23.5348 11.9952 23.3959 12.2728C23.2571 12.5505 23.0555 12.792 22.8071 12.9783C22.4644 13.207 22.1213 13.4358 21.6641 13.5498C20.9786 13.5498 20.2928 13.6642 19.6073 13.6642Z" fill="#14121F"/>
<path fill-rule="evenodd" clip-rule="evenodd" d="M7.14976 13.6641H4.74975C3.94988 13.6641 3.26438 13.5497 2.69288 13.3213C2.23538 13.207 1.89263 12.9782 1.54988 12.7498C1.09275 12.4071 0.75 11.7212 0.75 11.1497C0.75 10.5782 0.97875 10.1211 1.3215 9.66395C2.12138 8.86407 3.264 8.29257 4.74975 7.83545C4.74975 7.83545 4.86413 7.83545 4.86413 7.72107C4.86413 7.72107 4.74975 7.60707 4.74975 7.49232C3.60713 6.12169 3.036 4.63594 3.26475 3.49294C3.37875 2.69307 3.83588 1.89281 4.52175 1.43569C5.66476 0.521437 7.37888 0.521437 8.52188 1.43569C9.20739 2.00719 9.66451 2.69307 9.77889 3.49294C9.89326 4.74994 9.43614 6.1217 8.40751 7.49307C8.17876 7.72182 7.83601 7.72182 7.60763 7.60745C7.37888 7.3787 7.26451 7.03595 7.49326 6.8072C8.40751 5.66457 8.75026 4.52157 8.63588 3.72169C8.63588 3.15019 8.29313 2.69307 7.83601 2.34994C7.03613 1.77881 6.00751 1.77881 5.20726 2.34994C4.75013 2.69307 4.40738 3.15019 4.40738 3.60732C4.293 4.52157 4.75013 5.54982 5.55038 6.69282C5.77913 7.03595 6.12188 7.3787 6.00751 7.72145C6.00751 8.17895 5.66476 8.40732 5.32163 8.6357C5.32163 8.6357 5.20763 8.75007 5.09288 8.75007C3.83588 9.32157 2.92163 9.7787 2.23613 10.4646C2.12175 10.6933 2.00738 10.9217 2.00738 11.1501C2.00738 11.4928 2.12175 11.7216 2.35013 11.836C2.57888 11.95 2.80763 12.0647 3.15038 12.1787C3.6075 12.4075 4.179 12.5215 4.75013 12.5215H7.15013C7.49326 12.5215 7.72163 12.7502 7.72163 13.093C7.72163 13.4357 7.49288 13.6645 7.15013 13.6645L7.14976 13.6641Z" fill="#14121F"/>
<path fill-rule="evenodd" clip-rule="evenodd" d="M14.5785 23.6069H9.89289C8.86426 23.6069 7.95001 23.4925 7.14976 23.1498C6.57863 22.921 6.12151 22.6926 5.77838 22.3499C5.09288 22.0071 4.74976 21.2069 4.74976 20.407C4.74976 19.7211 4.97851 19.1496 5.43563 18.5785C6.34988 17.5499 7.83563 16.7496 9.89289 16.0641L10.2356 15.7214L9.89289 15.3783C8.40714 13.4358 7.72163 11.7213 7.95001 10.1211C8.17876 9.09251 8.63551 8.17863 9.54976 7.49238C11.0355 6.46413 13.3215 6.46413 14.6929 7.49238C15.6071 8.17863 16.1786 9.09251 16.2926 10.1211C16.5214 11.7213 15.8355 13.5498 14.4641 15.3786C14.1214 15.7214 14.1214 15.8354 14.1214 15.8354C14.1214 15.8354 14.3501 15.9498 14.4641 16.0641C16.5214 16.7496 18.0071 17.5499 18.9214 18.5785C19.3785 19.0356 19.6073 19.7211 19.6073 20.407C19.6073 21.2069 19.2641 22.0071 18.6926 22.4643C18.3499 22.807 17.8928 23.0354 17.3213 23.2641C16.407 23.4929 15.4928 23.6069 14.5785 23.6069ZM12.1785 7.72113C11.4926 7.72113 10.8071 7.94988 10.2356 8.29263C9.54976 8.75013 9.20701 9.43563 9.09264 10.2355C8.97864 11.4925 9.55014 12.9783 10.6928 14.5784C11.0355 14.9211 11.3786 15.2643 11.2643 15.8354C11.2643 16.2929 10.8068 16.6356 10.4644 16.9784C10.4644 16.9784 10.35 17.0928 10.2356 17.0928C8.29314 17.6643 7.03576 18.4641 6.12151 19.3784C6.00713 19.6071 5.89276 20.0643 5.89276 20.407C5.89276 20.8641 6.12151 21.3213 6.46426 21.5496C6.69301 21.7784 7.14976 22.0071 7.60726 22.1211C8.29276 22.3499 9.09264 22.4643 9.89289 22.4643H14.5785C15.3784 22.4643 16.1786 22.3499 16.8641 22.1211C17.3216 22.0071 17.6644 21.7784 18.0071 21.5496C18.3499 21.3213 18.5786 20.8641 18.5786 20.407C18.5786 20.0643 18.4643 19.6071 18.1211 19.3784C17.3213 18.4641 15.9499 17.7783 14.0074 17.0928C13.8926 17.0928 13.8926 16.9784 13.7786 16.9784C13.4355 16.6356 12.9784 16.2925 12.9784 15.8354C12.9784 15.3783 13.3215 14.9211 13.6643 14.5784C14.8073 13.0926 15.3784 11.4925 15.2644 10.2355C15.15 9.43563 14.8069 8.86413 14.1214 8.29301C13.5499 7.94988 12.8644 7.72113 12.1785 7.72113Z" fill="#14121F"/>
</svg>
