<svg width="24" height="24" viewBox="0 0 24 24" fill="none" xmlns="http://www.w3.org/2000/svg">
<path fill-rule="evenodd" clip-rule="evenodd" d="M19.6681 1.76333C19.07 1.51568 18.429 1.38829 17.7817 1.38844C17.1344 1.38859 16.4934 1.51628 15.8954 1.76421C15.2975 2.01214 14.7542 2.37546 14.2967 2.8334L12.8213 4.30881C12.5695 4.56056 12.1614 4.56056 11.9096 4.30881C11.6579 4.05707 11.6579 3.64891 11.9096 3.39717L13.3846 1.92219C13.9618 1.34453 14.6473 0.886024 15.4016 0.573265C16.1561 0.260468 16.9647 0.0993724 17.7814 0.0991823C18.5981 0.0989922 19.4068 0.259712 20.1614 0.572157C20.9159 0.884603 21.6015 1.34265 22.179 1.92014C22.7565 2.49763 23.2146 3.18323 23.527 3.93779C23.8395 4.69235 24.0002 5.50108 24 6.31777C23.9998 7.13446 23.8387 7.94311 23.5259 8.69752C23.2131 9.45185 22.7548 10.1372 22.1772 10.7143C22.1771 10.7144 22.1773 10.7143 22.1772 10.7143L18.595 14.2965C18.0177 14.8738 17.3324 15.3318 16.5781 15.6442C15.8238 15.9566 15.0153 16.1174 14.1989 16.1174C13.3824 16.1174 12.574 15.9566 11.8197 15.6442C11.0654 15.3318 10.38 14.8738 9.80268 14.2965C9.55094 14.0447 9.55094 13.6366 9.80268 13.3848C10.0544 13.1331 10.4626 13.1331 10.7143 13.3848C11.1719 13.8424 11.7152 14.2054 12.313 14.4531C12.9109 14.7007 13.5517 14.8282 14.1989 14.8282C14.846 14.8282 15.4868 14.7007 16.0847 14.4531C16.6826 14.2054 17.2258 13.8424 17.6834 13.3848L21.2656 9.8027C21.7235 9.34518 22.087 8.8017 22.335 8.20373C22.5829 7.60576 22.7106 6.9648 22.7107 6.31747C22.7109 5.67014 22.5835 5.02912 22.3358 4.43103C22.0882 3.83295 21.7251 3.28951 21.2674 2.83178C20.8097 2.37405 20.2662 2.01099 19.6681 1.76333Z" fill="#14121F"/>
<path fill-rule="evenodd" clip-rule="evenodd" d="M9.90029 9.27101C9.25315 9.27101 8.61235 9.39847 8.01447 9.64612C7.41659 9.89377 6.87335 10.2568 6.41575 10.7143L2.8336 14.2965C2.37566 14.754 2.01213 15.2975 1.76419 15.8955C1.51626 16.4934 1.38857 17.1344 1.38842 17.7817C1.38827 18.4291 1.51566 19.0701 1.76332 19.6682C2.01097 20.2662 2.37403 20.8097 2.83177 21.2674C3.2895 21.7251 3.83293 22.0882 4.43102 22.3359C5.0291 22.5835 5.67012 22.7109 6.31745 22.7108C6.96479 22.7106 7.60575 22.5829 8.20372 22.335C8.80169 22.0871 9.34495 21.7237 9.80247 21.2658L11.2777 19.7906C11.5294 19.5389 11.9376 19.5389 12.1893 19.7906C12.441 20.0424 12.441 20.4505 12.1893 20.7023L10.7145 22.177C10.7145 22.1771 10.7146 22.1769 10.7145 22.177C10.1374 22.7547 9.45183 23.2132 8.69751 23.5259C7.9431 23.8387 7.13444 23.9998 6.31775 24C5.50107 24.0002 4.69234 23.8395 3.93778 23.527C3.18322 23.2146 2.49761 22.7565 1.92013 22.1791C1.34264 21.6016 0.884588 20.916 0.572142 20.1614C0.259696 19.4068 0.0989769 18.5981 0.099167 17.7814C0.0993571 16.9647 0.260453 16.1561 0.57325 15.4017C0.886009 14.6473 1.3443 13.962 1.92196 13.3849C1.92203 13.3848 1.92189 13.3849 1.92196 13.3849L5.50411 9.80271C6.08142 9.22539 6.76679 8.76744 7.52109 8.455C8.27539 8.14256 9.08384 7.98175 9.90029 7.98175C10.7167 7.98175 11.5252 8.14256 12.2795 8.455C13.0338 8.76744 13.7192 9.22539 14.2965 9.80271C14.5482 10.0545 14.5482 10.4626 14.2965 10.7143C14.0447 10.9661 13.6366 10.9661 13.3848 10.7143C12.9272 10.2568 12.384 9.89377 11.7861 9.64612C11.1882 9.39847 10.5474 9.27101 9.90029 9.27101Z" fill="#14121F"/>
</svg>
