<svg width="24" height="24" viewBox="0 0 24 24" fill="none" xmlns="http://www.w3.org/2000/svg">
<path d="M8.70755 16.2993C10.0318 19.0591 14.0493 19.1509 15.3052 16.2973C14.9458 15.9126 14.6177 15.4555 14.3247 15.0473L14.3169 15.0376C13.7056 15.5239 12.9654 15.8325 11.9986 15.8305C10.9575 15.8286 10.1724 15.4302 9.52981 14.8423C9.49075 14.8071 9.45364 14.7719 9.41653 14.7348C9.32473 14.9907 9.20755 15.2973 9.08255 15.5825C8.96341 15.8559 8.83255 16.1137 8.70755 16.2993ZM15.7544 16.0669C17.2134 17.0141 20.5337 17.2602 21.8247 17.979C22.2622 18.2231 22.6568 18.5337 22.9751 18.9536C23.6372 19.8286 24.9927 23.0044 22.7954 23.1723H18.6626L19.1704 17.4848C18.1021 17.2759 16.9634 17.02 15.7837 16.3696C15.7212 16.3696 15.6978 16.3969 15.606 16.479C14.7837 19.6177 9.74075 20.0786 8.33841 16.4087C7.2388 16.9634 6.1177 17.2798 4.83841 17.477L5.63528 23.1743H1.20364C-0.993626 23.0063 0.361843 19.8305 1.02395 18.9555C1.34231 18.5356 1.73684 18.2251 2.17434 17.9809C3.48489 17.2466 6.89895 17.0063 8.31692 16.0161C8.42044 15.8598 8.53372 15.6313 8.64114 15.3852C8.80325 15.0141 8.95169 14.6079 9.04739 14.3305C8.65091 13.8637 8.31106 13.3364 7.98489 12.8188L6.94778 11.1684C6.87356 11.1626 6.79934 11.1469 6.72317 11.1255C5.87747 10.8598 5.17239 8.97703 5.31106 8.08836C5.38919 7.58445 5.56887 7.40281 5.85598 7.29343C5.84231 7.25242 5.8345 7.20945 5.8345 7.16257V5.26414C5.8345 4.55125 6.04934 3.85007 6.39505 3.21336C6.77591 2.51609 7.31692 1.895 7.90872 1.42234C9.1177 0.463356 10.6841 -0.0171127 12.2427 0.000465411C13.7876 0.0160904 15.3286 0.52195 16.5064 1.52195C17.0747 2.00437 17.5552 2.63718 17.8892 3.3364C18.2154 4.01804 18.4048 4.76414 18.4048 5.49656V7.06297C18.4048 7.28562 18.2251 7.46531 18.0025 7.46531C17.7798 7.46531 17.6001 7.28562 17.6001 7.06297V5.49656C17.6001 4.88328 17.44 4.25632 17.1665 3.68211C16.8814 3.08445 16.4712 2.54539 15.9868 2.13523C14.9536 1.25828 13.5982 0.816872 12.2349 0.8032C10.854 0.787575 9.47122 1.20945 8.40872 2.05711C7.89505 2.46726 7.4263 3.00242 7.09817 3.60203C6.81497 4.12351 6.63919 4.69382 6.63919 5.26804V7.08054L6.65091 7.07664L6.98294 7.48875C6.95559 6.78172 6.95364 6.02781 6.98489 5.36179C7.00833 5.12937 7.0513 4.8989 7.1177 4.66648C7.39114 3.68601 8.08059 2.89695 8.93216 2.35398C11.1372 0.949684 14.3443 1.1489 16.1704 3.12351C16.7661 3.76804 17.1411 4.62351 17.2212 5.75632L17.1548 8.54344C17.4517 8.63328 17.6431 8.82273 17.7212 9.12937C17.8072 9.46726 17.7134 9.94578 17.4263 10.5962C17.4204 10.6079 17.4146 10.6196 17.4087 10.6313L16.1841 12.6469C15.7349 13.3872 15.2779 14.1294 14.6841 14.7153L14.7212 14.7661C15.0318 15.1997 15.3853 15.6919 15.7544 16.0669ZM7.54348 8.93406L8.01614 10.2309C8.06692 10.3794 8.08255 10.5102 8.06106 10.6216L8.06497 10.6177C8.79934 11.4302 9.70364 12.018 10.7896 12.3657C10.8443 12.2407 10.9204 12.1294 11.0318 12.0434C11.3638 11.7876 12.3345 11.811 12.6353 12.0591C12.8872 12.268 12.8911 12.7446 12.7036 12.9946C12.315 13.5141 10.6997 13.0766 10.1587 12.9028C9.27981 12.6216 8.48294 11.9321 7.75833 11.3247L8.49466 12.4946C8.9263 13.1802 9.37747 13.8774 9.93801 14.3911C10.4771 14.8852 11.1314 15.2173 11.9986 15.2212C12.9361 15.2231 13.6216 14.8755 14.1782 14.3559C14.7564 13.8149 15.2134 13.0708 15.6646 12.3305L16.8736 10.3384C17.0982 9.82468 17.1822 9.47898 17.1294 9.27781C17.0982 9.15672 16.9654 9.09812 16.7407 9.08836C16.6919 9.0864 16.6431 9.0864 16.5943 9.0864C16.5396 9.08836 16.4829 9.09226 16.4243 9.09812C16.3931 9.10008 16.3618 9.09812 16.3306 9.09226C16.2232 9.09812 16.1118 9.09031 15.9986 9.07468L16.4126 7.2407C13.3384 7.72507 11.0396 5.44187 7.78958 6.78367L8.02395 8.94578C7.89309 8.95164 7.76809 8.94773 7.65286 8.93015C7.61575 8.9282 7.57864 8.93211 7.54348 8.93406Z" fill="#14121F"/>
</svg>
