<svg width="88" height="88" viewBox="0 0 88 88" fill="none" xmlns="http://www.w3.org/2000/svg">
<path d="M66.258 83.7891C58.6439 83.7891 51.0126 83.7891 43.3986 83.7891C38.2767 83.7891 33.1548 83.7891 28.033 83.7891C26.4345 83.7891 24.8533 83.7891 23.2548 83.7891C22.258 83.7891 21.2267 83.8578 20.247 83.6C17.6689 82.9125 16.0017 80.5578 15.9845 77.9281C15.9845 77.2406 15.9845 76.5703 15.9845 75.8828C15.9845 72.4969 15.9845 69.1109 15.9845 65.725C15.9845 54.9828 15.9845 44.2406 15.9845 33.4984C15.9845 25.9187 15.9845 18.3219 15.9845 10.7422C15.9845 9.64219 16.0361 8.55937 16.5173 7.52812C17.583 5.29375 19.7486 4.21094 22.1376 4.21094C25.9017 4.21094 29.683 4.21094 33.447 4.21094C38.8267 4.21094 44.1892 4.21094 49.5689 4.21094C52.972 4.21094 56.6673 3.88437 59.9845 4.77812C67.0658 6.70312 71.9986 13.2688 72.0501 20.5906C72.0673 22.6359 72.0501 24.6812 72.0501 26.7266C72.0501 36.9531 72.0501 47.1969 72.0501 57.4234C72.0501 64.2812 72.1533 71.1391 72.0501 77.9797C71.9814 81.1937 69.4548 83.7375 66.258 83.7891C64.608 83.8234 64.5908 86.4016 66.258 86.3672C70.383 86.2984 73.958 83.2734 74.508 79.1312C74.6111 78.3062 74.5939 77.4812 74.5939 76.6562C74.5939 73.1156 74.5939 69.5922 74.5939 66.0516C74.5939 60.6031 74.5939 55.1719 74.5939 49.7234C74.5939 44.2062 74.5939 38.7062 74.5939 33.1891C74.5939 29.5453 74.5939 25.8844 74.5939 22.2406C74.5939 21.6906 74.5939 21.1406 74.5939 20.5906C74.5767 16.6719 73.3736 12.7703 71.0705 9.57344C68.733 6.35937 65.5017 3.93594 61.7548 2.62969C59.572 1.87344 57.2861 1.63281 55.0001 1.63281C50.8408 1.63281 46.6986 1.63281 42.5392 1.63281C37.1595 1.63281 31.797 1.63281 26.4173 1.63281C24.9908 1.63281 23.5642 1.63281 22.1376 1.63281C19.4392 1.63281 16.8955 2.66406 15.2111 4.82969C13.2173 7.35625 13.3892 10.2266 13.3892 13.2C13.3892 17.0844 13.3892 20.9859 13.3892 24.8703C13.3892 30.3016 13.3892 35.7328 13.3892 41.1812C13.3892 46.8531 13.3892 52.5422 13.3892 58.2141C13.3892 62.7344 13.3892 67.2547 13.3892 71.7922C13.3892 73.8547 13.372 75.9172 13.3892 77.9797C13.4236 81.2453 15.2798 84.2875 18.2876 85.6281C19.7658 86.2812 21.2611 86.3844 22.8423 86.3844C26.7267 86.3844 30.6111 86.3844 34.4955 86.3844C40.133 86.3844 45.7876 86.3844 51.4251 86.3844C55.722 86.3844 60.0189 86.3844 64.3158 86.3844C64.9689 86.3844 65.6048 86.3844 66.258 86.3844C67.9251 86.3672 67.9251 83.7891 66.258 83.7891Z" fill="#24323F"/>
<path d="M50.9266 2.92188C50.9266 5.1047 50.9266 7.27032 50.9266 9.45313C50.9266 10.8281 50.9266 12.2031 50.9266 13.5953C50.9266 14.575 50.8922 15.5719 51.1672 16.5344C51.7688 18.7172 53.5391 20.5047 55.7219 21.0891C56.6156 21.3297 57.5266 21.3297 58.4375 21.3297C61.1531 21.3297 63.8688 21.3297 66.5844 21.3297C68.8359 21.3297 71.0703 21.3297 73.3219 21.3297C74.9891 21.3297 74.9891 18.7516 73.3219 18.7516C68.7672 18.7516 64.2125 18.7516 59.675 18.7516C57.5094 18.7516 55.2406 18.9234 54.0203 16.6891C53.5219 15.7953 53.5391 14.8672 53.5391 13.9047C53.5391 12.6844 53.5391 11.4469 53.5391 10.2266C53.5391 7.80313 53.5391 5.36251 53.5391 2.93907C53.5047 1.27188 50.9266 1.27188 50.9266 2.92188ZM24.6641 13.8188C31.2469 13.8188 37.8297 13.8188 44.4125 13.8188C45.3578 13.8188 46.2859 13.8188 47.2313 13.8188C48.8984 13.8188 48.8984 11.2406 47.2313 11.2406C40.6484 11.2406 34.0656 11.2406 27.4828 11.2406C26.5375 11.2406 25.6094 11.2406 24.6641 11.2406C22.9969 11.2406 22.9969 13.8188 24.6641 13.8188ZM24.0969 51.5281C28.7719 51.5281 33.4297 51.5281 38.1047 51.5281C45.5297 51.5281 52.9547 51.5281 60.3969 51.5281C62.0813 51.5281 63.7828 51.5281 65.4672 51.5281C67.1344 51.5281 67.1344 48.95 65.4672 48.95C60.7922 48.95 56.1344 48.95 51.4594 48.95C44.0344 48.95 36.6094 48.95 29.1672 48.95C27.4828 48.95 25.7813 48.95 24.0969 48.95C22.4297 48.95 22.4297 51.5281 24.0969 51.5281ZM24.0969 62.0125C28.7719 62.0125 33.4297 62.0125 38.1047 62.0125C45.5297 62.0125 52.9547 62.0125 60.3969 62.0125C62.0813 62.0125 63.7828 62.0125 65.4672 62.0125C67.1344 62.0125 67.1344 59.4344 65.4672 59.4344C60.7922 59.4344 56.1344 59.4344 51.4594 59.4344C44.0344 59.4344 36.6094 59.4344 29.1672 59.4344C27.4828 59.4344 25.7813 59.4344 24.0969 59.4344C22.4297 59.4344 22.4297 62.0125 24.0969 62.0125ZM24.0969 72.4969C28.7719 72.4969 33.4297 72.4969 38.1047 72.4969C45.5297 72.4969 52.9547 72.4969 60.3969 72.4969C62.0813 72.4969 63.7828 72.4969 65.4672 72.4969C67.1344 72.4969 67.1344 69.9188 65.4672 69.9188C60.7922 69.9188 56.1344 69.9188 51.4594 69.9188C44.0344 69.9188 36.6094 69.9188 29.1672 69.9188C27.4828 69.9188 25.7813 69.9188 24.0969 69.9188C22.4297 69.9188 22.4297 72.4969 24.0969 72.4969Z" fill="#24323F"/>
<path d="M38.1047 42.5781H24.0969C22.4297 42.5781 22.4297 40 24.0969 40H29.1672H51.4594H65.4672C67.1344 40 67.1344 42.5781 65.4672 42.5781H60.3969H38.1047Z" fill="#24323F"/>
<path d="M38.1047 33.0781H24.0969C22.4297 33.0781 22.4297 30.5 24.0969 30.5H29.1672H51.4594H65.4672C67.1344 30.5 67.1344 33.0781 65.4672 33.0781H60.3969H38.1047Z" fill="#24323F"/>
<path d="M43.6719 23.1125H24.6641C22.9969 23.1125 22.9969 20.5344 24.6641 20.5344H29.7344H28.0266H47.0344C48.7016 20.5344 48.7016 23.1125 47.0344 23.1125H41.9641H43.6719Z" fill="#24323F"/>
</svg>
