<svg width="48" height="34" viewBox="0 0 48 34" fill="none" xmlns="http://www.w3.org/2000/svg">
<path d="M43.3596 0.943359H5.11399C3.88367 0.945053 2.70372 1.43442 1.83372 2.30442C0.96371 3.17477 0.473957 4.35438 0.472656 5.58504V29.1823C0.474011 30.413 0.963719 31.5926 1.83372 32.4629C2.70372 33.3329 3.88367 33.8223 5.11399 33.824H43.3596C44.5899 33.8223 45.7699 33.3329 46.6399 32.4629C47.5099 31.5926 47.9997 30.413 48.001 29.1823V5.58504C47.9996 4.35438 47.5099 3.17477 46.6399 2.30442C45.7699 1.43441 44.5899 0.945007 43.3596 0.943359ZM43.3596 2.24824C44.0224 2.24824 44.6702 2.44704 45.2192 2.81854L30.5518 17.486C28.8754 19.1586 26.6036 20.0981 24.2351 20.0981C21.8669 20.0981 19.595 19.1586 17.9187 17.486L3.25477 2.81854C3.80408 2.44771 4.45163 2.24993 5.11434 2.25061L43.3596 2.24824ZM1.77788 29.1825V5.58522C1.77721 4.92889 1.97092 4.28745 2.33498 3.74151L16.1216 17.5281L2.45549 31.1951C2.01591 30.6163 1.77783 29.9095 1.77851 29.1827L1.77788 29.1825ZM5.11469 32.5193H5.11435C4.52305 32.5196 3.94194 32.3621 3.4319 32.0624L17.0451 18.4501C18.9622 20.3391 21.5459 21.3985 24.2376 21.3985C26.9293 21.3985 29.513 20.3391 31.4301 18.4501L45.0433 32.0624C44.5333 32.3621 43.9521 32.5196 43.3608 32.5193H5.11469ZM46.6964 29.1825H46.6961C46.6968 29.9092 46.4587 30.616 46.0191 31.1948L32.353 17.5278L46.1396 3.74125C46.5037 4.28718 46.6974 4.92857 46.6967 5.58496L46.6964 29.1825Z" fill="white"/>
</svg>
