<svg width="408" height="84" viewBox="0 0 408 84" fill="none" xmlns="http://www.w3.org/2000/svg">
<path d="M25.1686 82.9912C8.15571 82.9912 5.36919 76.3181 5.36914 70.1216H25.1686V82.9912Z" fill="#03A4F5"/>
<g filter="url(#filter0_d_5918_59067)">
<path d="M40.4328 5.76685H388.924C393.298 5.76685 396.844 9.31266 396.844 13.6866V46.3828C396.844 59.5047 386.306 70.1422 373.184 70.1422C311.92 70.1422 144.868 70.1422 29.6902 70.1422C5.3468 70.1422 5.37523 72.1229 5.37523 72.1229C5.37523 72.1229 4.39287 37.0159 13.2777 20.1275C20.5722 6.26204 40.4328 5.76685 40.4328 5.76685Z" fill="#03A4F5"/>
</g>
<path d="M58.2038 33.7189C58.2038 34.6748 57.9423 35.5765 57.4193 36.4242C56.9143 37.2719 56.1658 37.9572 55.1738 38.4803C54.1819 39.0033 53.0186 39.2648 51.684 39.2648C49.7542 39.2648 48.1761 38.8049 46.9496 37.8851C45.7232 36.9653 45.11 35.6938 45.11 34.0706H48.4105C48.4827 34.9002 48.7893 35.5585 49.3303 36.0455C49.8714 36.5324 50.6559 36.7759 51.684 36.7759C52.7481 36.7759 53.5777 36.5054 54.1729 35.9643C54.7861 35.4232 55.0927 34.7289 55.0927 33.8812C55.0927 33.2139 54.9033 32.6909 54.5246 32.3121C54.1639 31.9153 53.7039 31.6177 53.1448 31.4193C52.5857 31.2029 51.8192 30.9775 50.8453 30.743C49.6189 30.4544 48.6269 30.1569 47.8694 29.8503C47.112 29.5256 46.4627 29.0206 45.9216 28.3353C45.3805 27.6319 45.11 26.685 45.11 25.4947C45.11 24.4125 45.3805 23.4567 45.9216 22.627C46.4627 21.7974 47.2202 21.1571 48.1941 20.7062C49.168 20.2553 50.2862 20.0299 51.5487 20.0299C53.3883 20.0299 54.8672 20.4628 55.9854 21.3285C57.1217 22.1942 57.7529 23.4476 57.8792 25.0889H54.4705C54.3983 24.3675 54.0917 23.7633 53.5506 23.2763C53.0096 22.7893 52.2882 22.5459 51.3864 22.5459C50.4485 22.5459 49.691 22.7803 49.1139 23.2492C48.5368 23.7182 48.2482 24.4125 48.2482 25.3324C48.2482 25.9997 48.4285 26.5407 48.7893 26.9556C49.168 27.3523 49.6369 27.6589 50.196 27.8754C50.7551 28.0738 51.5307 28.2902 52.5226 28.5246C53.731 28.8132 54.7139 29.1198 55.4714 29.4445C56.2289 29.7511 56.8692 30.247 57.3922 30.9324C57.9333 31.5997 58.2038 32.5285 58.2038 33.7189ZM69.6884 23.9256C70.7705 23.9256 71.7444 24.1691 72.6101 24.656C73.4939 25.143 74.1882 25.8644 74.6932 26.8203C75.2163 27.7762 75.4778 28.9304 75.4778 30.2831V39.0754H72.4208V30.743C72.4208 29.4084 72.0871 28.3894 71.4198 27.686C70.7525 26.9646 69.8417 26.6039 68.6874 26.6039C67.5331 26.6039 66.6133 26.9646 65.928 27.686C65.2606 28.3894 64.927 29.4084 64.927 30.743V39.0754H61.8429V19.056H64.927V26.5227C65.4139 25.675 66.0632 25.0348 66.8748 24.6019C67.7045 24.151 68.6423 23.9256 69.6884 23.9256ZM85.4175 23.9256C86.5899 23.9256 87.6179 24.1961 88.5016 24.7372C89.4034 25.2602 90.0978 25.9546 90.5847 26.8203V24.1691H93.6959V39.0754H90.5847V36.2889C90.0797 37.2088 89.3854 37.9482 88.5016 38.5073C87.6179 39.0484 86.5899 39.3189 85.4175 39.3189C84.119 39.3189 82.9286 38.9943 81.8465 38.345C80.7824 37.6777 79.9347 36.7579 79.3035 35.5856C78.6903 34.3952 78.3837 33.0516 78.3837 31.5546C78.3837 30.0577 78.6903 28.7321 79.3035 27.5778C79.9347 26.4235 80.7824 25.5307 81.8465 24.8995C82.9286 24.2502 84.119 23.9256 85.4175 23.9256ZM86.0668 26.6039C85.2733 26.6039 84.5338 26.8022 83.8485 27.199C83.1631 27.5778 82.604 28.1459 82.1712 28.9034C81.7563 29.6428 81.5489 30.5266 81.5489 31.5546C81.5489 32.5826 81.7563 33.4844 82.1712 34.2599C82.604 35.0355 83.1631 35.6306 83.8485 36.0455C84.5518 36.4422 85.2913 36.6406 86.0668 36.6406C86.8604 36.6406 87.5999 36.4422 88.2852 36.0455C88.9706 35.6487 89.5206 35.0715 89.9355 34.3141C90.3683 33.5385 90.5847 32.6367 90.5847 31.6087C90.5847 30.5807 90.3683 29.6879 89.9355 28.9304C89.5206 28.173 88.9706 27.5958 88.2852 27.199C87.5999 26.8022 86.8604 26.6039 86.0668 26.6039ZM105.592 23.9256C106.674 23.9256 107.648 24.1691 108.514 24.656C109.398 25.143 110.092 25.8644 110.597 26.8203C111.12 27.7762 111.382 28.9304 111.382 30.2831V39.0754H108.325V30.743C108.325 29.4084 107.991 28.3894 107.324 27.686C106.656 26.9646 105.745 26.6039 104.591 26.6039C103.437 26.6039 102.517 26.9646 101.832 27.686C101.164 28.3894 100.831 29.4084 100.831 30.743V39.0754H97.7467V24.1691H100.831V26.5227C101.318 25.675 101.967 25.0348 102.779 24.6019C103.608 24.151 104.546 23.9256 105.592 23.9256ZM128.977 31.2029C128.977 31.726 128.941 32.2129 128.869 32.6638H117.453C117.525 33.9083 117.94 34.9002 118.697 35.6397C119.473 36.3611 120.438 36.7218 121.592 36.7218C123.269 36.7218 124.45 36.0274 125.136 34.6387H128.463C128.013 36.0094 127.192 37.1366 126.002 38.0204C124.811 38.8861 123.341 39.3189 121.592 39.3189C120.167 39.3189 118.905 39.0033 117.804 38.3721C116.704 37.7228 115.839 36.821 115.207 35.6667C114.594 34.4944 114.287 33.1417 114.287 31.6087C114.287 30.0757 114.594 28.7321 115.207 27.5778C115.839 26.4055 116.713 25.5037 117.831 24.8724C118.968 24.2412 120.266 23.9256 121.727 23.9256C123.134 23.9256 124.387 24.2322 125.488 24.8454C126.588 25.4586 127.444 26.3153 128.058 27.4155C128.671 28.5156 128.977 29.7781 128.977 31.2029ZM125.758 30.5536C125.74 29.3272 125.334 28.3533 124.541 27.6319C123.747 26.8924 122.764 26.5227 121.592 26.5227C120.492 26.5227 119.554 26.8924 118.778 27.6319C118.021 28.3533 117.588 29.3272 117.48 30.5536H125.758ZM143.207 36.7218H149.565V39.0754H140.123V20.2734H143.207V36.7218ZM165.806 31.2029C165.806 31.726 165.77 32.2129 165.698 32.6638H154.281C154.353 33.9083 154.768 34.9002 155.526 35.6397C156.301 36.3611 157.266 36.7218 158.42 36.7218C160.098 36.7218 161.279 36.0274 161.964 34.6387H165.292C164.841 36.0094 164.02 37.1366 162.83 38.0204C161.64 38.8861 160.17 39.3189 158.42 39.3189C156.995 39.3189 155.733 39.0033 154.633 38.3721C153.533 37.7228 152.667 36.821 152.036 35.6667C151.423 34.4944 151.116 33.1417 151.116 31.6087C151.116 30.0757 151.423 28.7321 152.036 27.5778C152.667 26.4055 153.542 25.5037 154.66 24.8724C155.796 24.2412 157.095 23.9256 158.556 23.9256C159.962 23.9256 161.216 24.2322 162.316 24.8454C163.416 25.4586 164.273 26.3153 164.886 27.4155C165.499 28.5156 165.806 29.7781 165.806 31.2029ZM162.587 30.5536C162.568 29.3272 162.163 28.3533 161.369 27.6319C160.576 26.8924 159.593 26.5227 158.42 26.5227C157.32 26.5227 156.382 26.8924 155.607 27.6319C154.849 28.3533 154.416 29.3272 154.308 30.5536H162.587ZM188.86 24.1691L184.234 39.0754H180.988L177.985 28.0647L174.982 39.0754H171.736L167.082 24.1691H170.221L173.332 36.1537L176.497 24.1691H179.716L182.746 36.0996L185.83 24.1691H188.86ZM190.759 20.2193C190.759 19.6602 190.949 19.1912 191.327 18.8125C191.706 18.4338 192.175 18.2444 192.734 18.2444C193.275 18.2444 193.735 18.4338 194.114 18.8125C194.493 19.1912 194.682 19.6602 194.682 20.2193C194.682 20.7784 194.493 21.2473 194.114 21.626C193.735 22.0048 193.275 22.1942 192.734 22.1942C192.175 22.1942 191.706 22.0048 191.327 21.626C190.949 21.2473 190.759 20.7784 190.759 20.2193ZM194.249 24.1691V39.0754H191.165V24.1691H194.249ZM203.52 23.9256C205.179 23.9256 206.514 24.3584 207.524 25.2241C208.552 26.0718 209.102 27.2351 209.174 28.714H206.009C205.954 27.9746 205.693 27.3974 205.224 26.9826C204.773 26.5678 204.133 26.3604 203.303 26.3604C202.474 26.3604 201.824 26.5498 201.355 26.9285C200.886 27.2892 200.652 27.7581 200.652 28.3353C200.652 28.8042 200.805 29.1829 201.112 29.4715C201.419 29.7601 201.806 29.9855 202.275 30.1478C202.762 30.2921 203.411 30.4544 204.223 30.6348C205.323 30.8873 206.207 31.1398 206.874 31.3923C207.56 31.6448 208.146 32.0596 208.633 32.6367C209.12 33.1959 209.363 33.9624 209.363 34.9363C209.363 35.784 209.111 36.5414 208.606 37.2088C208.119 37.8761 207.433 38.3991 206.55 38.7779C205.666 39.1386 204.665 39.3189 203.547 39.3189C201.815 39.3189 200.418 38.9041 199.353 38.0745C198.289 37.2448 197.703 36.0635 197.595 34.5305H200.787C200.841 35.2699 201.112 35.8471 201.599 36.2619C202.086 36.6767 202.735 36.8841 203.547 36.8841C204.412 36.8841 205.089 36.7038 205.576 36.3431C206.081 35.9643 206.333 35.4773 206.333 34.8822C206.333 34.3952 206.171 34.0075 205.846 33.7189C205.54 33.4303 205.143 33.2139 204.656 33.0696C204.169 32.9073 203.511 32.7359 202.681 32.5556C201.599 32.3031 200.724 32.0596 200.057 31.8251C199.39 31.5727 198.812 31.1759 198.325 30.6348C197.857 30.0937 197.622 29.3633 197.622 28.4435C197.622 27.6138 197.857 26.8564 198.325 26.171C198.794 25.4857 199.471 24.9446 200.354 24.5478C201.256 24.133 202.311 23.9256 203.52 23.9256Z" fill="white"/>
<path d="M50.3828 49.3705V50.8038H46.5209V53.2324H49.4671V54.6657H46.5209V58.6338H44.6496V49.3705H50.3828ZM56.4739 49.2378C57.3498 49.2378 58.1461 49.4413 58.8627 49.8482C59.5882 50.2552 60.1589 50.8215 60.5747 51.547C60.9994 52.2636 61.2117 53.0731 61.2117 53.9756C61.2117 54.8869 60.9994 55.7053 60.5747 56.4308C60.1589 57.1474 59.5882 57.7092 58.8627 58.1162C58.1372 58.5232 57.3409 58.7267 56.4739 58.7267C55.6068 58.7267 54.8106 58.5232 54.0851 58.1162C53.3596 57.7092 52.7845 57.1474 52.3598 56.4308C51.944 55.7053 51.7361 54.8869 51.7361 53.9756C51.7361 53.0731 51.944 52.2636 52.3598 51.547C52.7845 50.8215 53.3596 50.2552 54.0851 49.8482C54.8106 49.4413 55.6068 49.2378 56.4739 49.2378ZM56.4739 50.9498C55.9165 50.9498 55.421 51.0736 54.9875 51.3213C54.5628 51.5691 54.231 51.923 53.9922 52.383C53.7533 52.8431 53.6338 53.374 53.6338 53.9756C53.6338 54.5772 53.7533 55.1081 53.9922 55.5681C54.231 56.0282 54.5628 56.3865 54.9875 56.6431C55.421 56.8908 55.9165 57.0147 56.4739 57.0147C57.0313 57.0147 57.5223 56.8908 57.947 56.6431C58.3717 56.3865 58.7034 56.0326 58.9423 55.5814C59.1812 55.1213 59.3006 54.5861 59.3006 53.9756C59.3006 53.3651 59.1812 52.8343 58.9423 52.383C58.7034 51.923 58.3717 51.5691 57.947 51.3213C57.5223 51.0736 57.0313 50.9498 56.4739 50.9498ZM64.9294 49.3705V55.0771C64.9294 55.7141 65.0887 56.1963 65.4072 56.5237C65.7345 56.851 66.199 57.0147 66.8006 57.0147C67.4023 57.0147 67.8668 56.851 68.1941 56.5237C68.5215 56.1963 68.6852 55.7141 68.6852 55.0771V49.3705H70.5431V55.0771C70.5431 55.8645 70.3662 56.5325 70.0123 57.0811C69.6672 57.6296 69.2072 58.041 68.6321 58.3153C68.0658 58.5896 67.4421 58.7267 66.7608 58.7267C66.0884 58.7267 65.4691 58.5896 64.9029 58.3153C64.3455 58.041 63.8987 57.6296 63.5625 57.0811C63.2263 56.5325 63.0582 55.8645 63.0582 55.0771V49.3705H64.9294ZM80.8281 58.6338H78.9569L74.7632 52.2105V58.6338H72.8919V49.3439H74.7632L78.9569 55.7672V49.3439H80.8281V58.6338ZM91.3395 54.0154C91.3395 54.9444 91.1316 55.7584 90.7158 56.4573C90.3 57.1474 89.716 57.6827 88.964 58.0631C88.212 58.4436 87.3449 58.6338 86.3628 58.6338H83.2176V49.3705H86.3628C87.3449 49.3705 88.212 49.5651 88.964 49.9544C89.716 50.3349 90.3 50.8746 90.7158 51.5735C91.1316 52.2725 91.3395 53.0864 91.3395 54.0154ZM86.3628 57.2138C87.3361 57.2138 88.0925 56.9262 88.6322 56.3511C89.1719 55.7761 89.4418 54.9975 89.4418 54.0154C89.4418 53.0333 89.1719 52.2548 88.6322 51.6797C88.0925 51.1046 87.3361 50.817 86.3628 50.817H85.0888V57.2138H86.3628ZM95.0775 50.7772V53.2059H98.1564V54.6392H95.0775V57.2005H98.5545V58.6338H93.2062V49.3439H98.5545V50.7772H95.0775ZM105.56 58.6338L103.344 54.9444H102.733V58.6338H100.862V49.3705H104.273C104.989 49.3705 105.6 49.4988 106.104 49.7553C106.608 50.0031 106.985 50.3393 107.232 50.764C107.489 51.1798 107.617 51.6443 107.617 52.1574C107.617 52.7414 107.44 53.2855 107.086 53.7898C106.732 54.2941 106.175 54.6392 105.414 54.8249L107.776 58.6338H105.56ZM102.733 53.5111H104.273C104.742 53.5111 105.1 53.3917 105.348 53.1528C105.595 52.905 105.719 52.5733 105.719 52.1574C105.719 51.7416 105.595 51.4142 105.348 51.1754C105.1 50.9276 104.742 50.8038 104.273 50.8038H102.733V53.5111ZM120.135 58.6338L119.113 57.227C118.883 57.6694 118.538 58.0322 118.078 58.3153C117.627 58.5896 117.131 58.7267 116.591 58.7267C116.061 58.7267 115.574 58.6028 115.132 58.3551C114.689 58.0985 114.34 57.7535 114.083 57.3199C113.827 56.8776 113.698 56.3865 113.698 55.8468C113.698 55.3514 113.8 54.9002 114.003 54.4932C114.207 54.0862 114.481 53.7588 114.826 53.5111C115.18 53.2545 115.565 53.0953 115.981 53.0333C115.707 52.6352 115.508 52.2901 115.384 51.9982C115.26 51.7062 115.198 51.4142 115.198 51.1223C115.198 50.7153 115.295 50.3393 115.49 49.9942C115.693 49.6403 115.99 49.3572 116.379 49.1449C116.777 48.9237 117.246 48.8131 117.786 48.8131C118.325 48.8131 118.79 48.9148 119.179 49.1183C119.577 49.3218 119.878 49.5872 120.082 49.9146C120.294 50.2331 120.4 50.5782 120.4 50.9498C120.4 51.2417 120.347 51.4939 120.241 51.7062H118.449C118.529 51.5558 118.569 51.3833 118.569 51.1886C118.569 50.9586 118.494 50.7684 118.343 50.618C118.202 50.4676 118.016 50.3924 117.786 50.3924C117.556 50.3924 117.37 50.4676 117.228 50.618C117.087 50.7684 117.016 50.9498 117.016 51.1621C117.016 51.3125 117.043 51.4585 117.096 51.6C117.158 51.7328 117.264 51.9009 117.414 52.1043L122.311 58.6338H120.135ZM116.605 57.2005C116.967 57.2005 117.277 57.0678 117.534 56.8024C117.799 56.5281 117.932 56.2007 117.932 55.8203C117.932 55.4398 117.799 55.1213 117.534 54.8648C117.277 54.5993 116.967 54.4666 116.605 54.4666C116.242 54.4666 115.932 54.5993 115.676 54.8648C115.419 55.1213 115.291 55.4398 115.291 55.8203C115.291 56.2007 115.419 56.5281 115.676 56.8024C115.932 57.0678 116.242 57.2005 116.605 57.2005ZM132.388 49.2378C133.396 49.2378 134.29 49.4943 135.069 50.0075C135.856 50.5207 136.418 51.2417 136.754 52.1707H134.511C134.095 51.3567 133.388 50.9498 132.388 50.9498C131.83 50.9498 131.335 51.0736 130.901 51.3213C130.477 51.5691 130.145 51.923 129.906 52.383C129.667 52.8431 129.548 53.374 129.548 53.9756C129.548 54.5772 129.667 55.1081 129.906 55.5681C130.145 56.0282 130.477 56.3865 130.901 56.6431C131.335 56.8908 131.83 57.0147 132.388 57.0147C133.379 57.0147 134.087 56.6077 134.511 55.7937H136.754C136.418 56.7227 135.856 57.4438 135.069 57.957C134.29 58.4613 133.396 58.7134 132.388 58.7134C131.521 58.7134 130.725 58.5143 129.999 58.1162C129.274 57.7092 128.698 57.1474 128.274 56.4308C127.858 55.7053 127.65 54.8869 127.65 53.9756C127.65 53.0731 127.858 52.2636 128.274 51.547C128.698 50.8215 129.274 50.2552 129.999 49.8482C130.725 49.4413 131.521 49.2378 132.388 49.2378ZM140.637 50.7772V53.2059H143.716V54.6392H140.637V57.2005H144.114V58.6338H138.765V49.3439H144.114V50.7772H140.637ZM150.641 49.2378C151.517 49.2378 152.314 49.4413 153.03 49.8482C153.756 50.2552 154.326 50.8215 154.742 51.547C155.167 52.2636 155.379 53.0731 155.379 53.9756C155.379 54.8869 155.167 55.7053 154.742 56.4308C154.326 57.1474 153.756 57.7092 153.03 58.1162C152.305 58.5232 151.509 58.7267 150.641 58.7267C149.774 58.7267 148.978 58.5232 148.253 58.1162C147.527 57.7092 146.952 57.1474 146.527 56.4308C146.112 55.7053 145.904 54.8869 145.904 53.9756C145.904 53.0731 146.112 52.2636 146.527 51.547C146.952 50.8215 147.527 50.2552 148.253 49.8482C148.978 49.4413 149.774 49.2378 150.641 49.2378ZM150.641 50.9498C150.084 50.9498 149.589 51.0736 149.155 51.3213C148.73 51.5691 148.399 51.923 148.16 52.383C147.921 52.8431 147.801 53.374 147.801 53.9756C147.801 54.5772 147.921 55.1081 148.16 55.5681C148.399 56.0282 148.73 56.3865 149.155 56.6431C149.589 56.8908 150.084 57.0147 150.641 57.0147C151.199 57.0147 151.69 56.8908 152.115 56.6431C152.539 56.3865 152.871 56.0326 153.11 55.5814C153.349 55.1213 153.468 54.5861 153.468 53.9756C153.468 53.3651 153.349 52.8343 153.11 52.383C152.871 51.923 152.539 51.5691 152.115 51.3213C151.69 51.0736 151.199 50.9498 150.641 50.9498ZM158.327 57.4261C158.54 58.01 158.646 58.5409 158.646 59.0187C158.646 59.576 158.5 60.0228 158.208 60.359C157.925 60.6953 157.487 60.8634 156.894 60.8634V60.1202C157.124 60.1202 157.292 60.0671 157.398 59.9609C157.504 59.8547 157.558 59.6689 157.558 59.4035V59.1514H156.695V57.4261H158.327ZM170.677 49.3705V50.8038H166.815V53.2324H169.761V54.6657H166.815V58.6338H164.943V49.3705H170.677ZM174.419 57.2138H177.391V58.6338H172.547V49.3705H174.419V57.2138ZM184.531 56.8953H180.921L180.324 58.6338H178.346L181.624 49.3439H183.841L187.105 58.6338H185.128L184.531 56.8953ZM184.053 55.462L182.726 51.6L181.412 55.462H184.053ZM193.025 49.2378C194.034 49.2378 194.928 49.4943 195.706 50.0075C196.494 50.5207 197.055 51.2417 197.392 52.1707H195.149C194.733 51.3567 194.025 50.9498 193.025 50.9498C192.468 50.9498 191.973 51.0736 191.539 51.3213C191.114 51.5691 190.783 51.923 190.544 52.383C190.305 52.8431 190.185 53.374 190.185 53.9756C190.185 54.5772 190.305 55.1081 190.544 55.5681C190.783 56.0282 191.114 56.3865 191.539 56.6431C191.973 56.8908 192.468 57.0147 193.025 57.0147C193.715 57.0147 194.277 56.8289 194.711 56.4573C195.153 56.0769 195.427 55.5681 195.534 54.9311H192.455V53.5111H197.538V54.9311C197.44 55.577 197.188 56.1919 196.781 56.7758C196.374 57.3509 195.843 57.8198 195.189 58.1826C194.543 58.5365 193.822 58.7134 193.025 58.7134C192.158 58.7134 191.362 58.5143 190.637 58.1162C189.911 57.7092 189.336 57.1474 188.911 56.4308C188.495 55.7053 188.288 54.8869 188.288 53.9756C188.288 53.0731 188.495 52.2636 188.911 51.547C189.336 50.8215 189.911 50.2552 190.637 49.8482C191.362 49.4413 192.158 49.2378 193.025 49.2378ZM205.893 55.9397C205.893 56.4352 205.755 56.8953 205.481 57.3199C205.216 57.7446 204.831 58.0852 204.327 58.3418C203.831 58.5984 203.252 58.7267 202.588 58.7267C201.571 58.7267 200.752 58.4922 200.133 58.0233C199.514 57.5455 199.204 56.8776 199.204 56.0194H201.195C201.23 56.4175 201.363 56.7227 201.593 56.9351C201.832 57.1386 202.163 57.2403 202.588 57.2403C203.013 57.2403 203.349 57.1297 203.597 56.9085C203.844 56.6873 203.968 56.3998 203.968 56.0459C203.968 55.7628 203.88 55.5327 203.703 55.3558C203.535 55.1788 203.322 55.0417 203.066 54.9444C202.818 54.8471 202.464 54.7365 202.004 54.6126C201.411 54.4622 200.929 54.3074 200.558 54.1481C200.186 53.9889 199.867 53.7411 199.602 53.4049C199.337 53.0599 199.204 52.5954 199.204 52.0115C199.204 51.4541 199.341 50.9674 199.615 50.5516C199.898 50.1269 200.288 49.804 200.783 49.5828C201.279 49.3528 201.84 49.2378 202.469 49.2378C203.433 49.2378 204.207 49.459 204.791 49.9013C205.375 50.3349 205.693 50.9984 205.747 51.892H203.703C203.667 51.5381 203.535 51.2594 203.305 51.0559C203.075 50.8436 202.778 50.7374 202.415 50.7374C202.035 50.7374 201.725 50.8347 201.487 51.0294C201.256 51.2152 201.141 51.5027 201.141 51.892C201.141 52.184 201.225 52.4229 201.394 52.6087C201.571 52.7856 201.787 52.9227 202.044 53.0201C202.3 53.1174 202.654 53.2236 203.106 53.3386C203.698 53.489 204.181 53.6438 204.552 53.8031C204.924 53.9623 205.238 54.2145 205.494 54.5595C205.76 54.8957 205.893 55.3558 205.893 55.9397ZM215.806 49.3705V58.6338H213.935V54.6657H209.954V58.6338H208.083V49.3705H209.954V53.2324H213.935V49.3705H215.806ZM220.072 49.3705V58.6338H218.201V49.3705H220.072ZM224.332 54.9444V58.6338H222.461V49.3705H225.872C226.588 49.3705 227.199 49.4988 227.703 49.7553C228.208 50.0031 228.584 50.3393 228.831 50.764C229.088 51.1798 229.216 51.6443 229.216 52.1574C229.216 52.6087 229.106 53.0466 228.884 53.4713C228.672 53.8871 228.314 54.2366 227.809 54.5197C227.314 54.8028 226.668 54.9444 225.872 54.9444H224.332ZM225.872 53.5111C226.341 53.5111 226.699 53.3917 226.947 53.1528C227.195 52.905 227.318 52.5733 227.318 52.1574C227.318 51.7416 227.195 51.4142 226.947 51.1754C226.699 50.9276 226.341 50.8038 225.872 50.8038H224.332V53.5111H225.872ZM237.272 57.2138H240.245V58.6338H235.401V49.3705H237.272V57.2138ZM243.748 49.3705V55.0771C243.748 55.7141 243.907 56.1963 244.226 56.5237C244.553 56.851 245.018 57.0147 245.619 57.0147C246.221 57.0147 246.686 56.851 247.013 56.5237C247.34 56.1963 247.504 55.7141 247.504 55.0771V49.3705H249.362V55.0771C249.362 55.8645 249.185 56.5325 248.831 57.0811C248.486 57.6296 248.026 58.041 247.451 58.3153C246.885 58.5896 246.261 58.7267 245.58 58.7267C244.907 58.7267 244.288 58.5896 243.722 58.3153C243.164 58.041 242.717 57.6296 242.381 57.0811C242.045 56.5325 241.877 55.8645 241.877 55.0771V49.3705H243.748ZM256.395 54.0021L259.289 58.6338H257.178L255.267 55.5814L253.489 58.6338H251.379L254.285 54.0021L251.379 49.3705H253.489L255.4 52.4229L257.192 49.3705H259.289L256.395 54.0021ZM263.194 49.3705V55.0771C263.194 55.7141 263.353 56.1963 263.672 56.5237C263.999 56.851 264.464 57.0147 265.065 57.0147C265.667 57.0147 266.131 56.851 266.459 56.5237C266.786 56.1963 266.95 55.7141 266.95 55.0771V49.3705H268.808V55.0771C268.808 55.8645 268.631 56.5325 268.277 57.0811C267.932 57.6296 267.472 58.041 266.897 58.3153C266.331 58.5896 265.707 58.7267 265.026 58.7267C264.353 58.7267 263.734 58.5896 263.168 58.3153C262.61 58.041 262.163 57.6296 261.827 57.0811C261.491 56.5325 261.323 55.8645 261.323 55.0771V49.3705H263.194ZM275.855 58.6338L273.638 54.9444H273.028V58.6338H271.157V49.3705H274.567C275.284 49.3705 275.894 49.4988 276.399 49.7553C276.903 50.0031 277.279 50.3393 277.527 50.764C277.783 51.1798 277.912 51.6443 277.912 52.1574C277.912 52.7414 277.735 53.2855 277.381 53.7898C277.027 54.2941 276.47 54.6392 275.709 54.8249L278.071 58.6338H275.855ZM273.028 53.5111H274.567C275.036 53.5111 275.395 53.3917 275.642 53.1528C275.89 52.905 276.014 52.5733 276.014 52.1574C276.014 51.7416 275.89 51.4142 275.642 51.1754C275.395 50.9276 275.036 50.8038 274.567 50.8038H273.028V53.5111ZM287.512 49.3705L284.38 55.4487V58.6338H282.509V55.4487L279.377 49.3705H281.474L283.451 53.7367L285.415 49.3705H287.512ZM295.347 50.7772V53.2059H298.426V54.6392H295.347V57.2005H298.824V58.6338H293.476V49.3439H298.824V50.7772H295.347ZM305.817 54.0021L308.71 58.6338H306.6L304.689 55.5814L302.91 58.6338H300.8L303.707 54.0021L300.8 49.3705H302.91L304.821 52.4229L306.613 49.3705H308.71L305.817 54.0021ZM312.642 54.9444V58.6338H310.771V49.3705H314.181C314.898 49.3705 315.509 49.4988 316.013 49.7553C316.517 50.0031 316.893 50.3393 317.141 50.764C317.397 51.1798 317.526 51.6443 317.526 52.1574C317.526 52.6087 317.415 53.0466 317.194 53.4713C316.982 53.8871 316.623 54.2366 316.119 54.5197C315.624 54.8028 314.978 54.9444 314.181 54.9444H312.642ZM314.181 53.5111C314.65 53.5111 315.009 53.3917 315.256 53.1528C315.504 52.905 315.628 52.5733 315.628 52.1574C315.628 51.7416 315.504 51.4142 315.256 51.1754C315.009 50.9276 314.65 50.8038 314.181 50.8038H312.642V53.5111H314.181ZM321.205 50.7772V53.2059H324.284V54.6392H321.205V57.2005H324.682V58.6338H319.334V49.3439H324.682V50.7772H321.205ZM335.112 54.0154C335.112 54.9444 334.904 55.7584 334.488 56.4573C334.072 57.1474 333.488 57.6827 332.736 58.0631C331.984 58.4436 331.117 58.6338 330.135 58.6338H326.99V49.3705H330.135C331.117 49.3705 331.984 49.5651 332.736 49.9544C333.488 50.3349 334.072 50.8746 334.488 51.5735C334.904 52.2725 335.112 53.0864 335.112 54.0154ZM330.135 57.2138C331.108 57.2138 331.865 56.9262 332.404 56.3511C332.944 55.7761 333.214 54.9975 333.214 54.0154C333.214 53.0333 332.944 52.2548 332.404 51.6797C331.865 51.1046 331.108 50.817 330.135 50.817H328.861V57.2138H330.135ZM338.85 49.3705V58.6338H336.978V49.3705H338.85ZM347.556 49.3705V50.8038H345.047V58.6338H343.189V50.8038H340.694V49.3705H347.556ZM351.258 49.3705V58.6338H349.387V49.3705H351.258ZM357.867 49.2378C358.743 49.2378 359.54 49.4413 360.256 49.8482C360.982 50.2552 361.552 50.8215 361.968 51.547C362.393 52.2636 362.605 53.0731 362.605 53.9756C362.605 54.8869 362.393 55.7053 361.968 56.4308C361.552 57.1474 360.982 57.7092 360.256 58.1162C359.531 58.5232 358.734 58.7267 357.867 58.7267C357 58.7267 356.204 58.5232 355.479 58.1162C354.753 57.7092 354.178 57.1474 353.753 56.4308C353.337 55.7053 353.13 54.8869 353.13 53.9756C353.13 53.0731 353.337 52.2636 353.753 51.547C354.178 50.8215 354.753 50.2552 355.479 49.8482C356.204 49.4413 357 49.2378 357.867 49.2378ZM357.867 50.9498C357.31 50.9498 356.815 51.0736 356.381 51.3213C355.956 51.5691 355.625 51.923 355.386 52.383C355.147 52.8431 355.027 53.374 355.027 53.9756C355.027 54.5772 355.147 55.1081 355.386 55.5681C355.625 56.0282 355.956 56.3865 356.381 56.6431C356.815 56.8908 357.31 57.0147 357.867 57.0147C358.425 57.0147 358.916 56.8908 359.34 56.6431C359.765 56.3865 360.097 56.0326 360.336 55.5814C360.575 55.1213 360.694 54.5861 360.694 53.9756C360.694 53.3651 360.575 52.8343 360.336 52.383C360.097 51.923 359.765 51.5691 359.34 51.3213C358.916 51.0736 358.425 50.9498 357.867 50.9498ZM372.414 58.6338H370.543L366.349 52.2105V58.6338H364.478V49.3439H366.349L370.543 55.7672V49.3439H372.414V58.6338ZM381.293 55.9397C381.293 56.4352 381.156 56.8953 380.882 57.3199C380.617 57.7446 380.232 58.0852 379.727 58.3418C379.232 58.5984 378.652 58.7267 377.989 58.7267C376.971 58.7267 376.153 58.4922 375.534 58.0233C374.914 57.5455 374.605 56.8776 374.605 56.0194H376.595C376.631 56.4175 376.764 56.7227 376.994 56.9351C377.232 57.1386 377.564 57.2403 377.989 57.2403C378.414 57.2403 378.75 57.1297 378.998 56.9085C379.245 56.6873 379.369 56.3998 379.369 56.0459C379.369 55.7628 379.281 55.5327 379.104 55.3558C378.936 55.1788 378.723 55.0417 378.467 54.9444C378.219 54.8471 377.865 54.7365 377.405 54.6126C376.812 54.4622 376.33 54.3074 375.958 54.1481C375.587 53.9889 375.268 53.7411 375.003 53.4049C374.737 53.0599 374.605 52.5954 374.605 52.0115C374.605 51.4541 374.742 50.9674 375.016 50.5516C375.299 50.1269 375.689 49.804 376.184 49.5828C376.68 49.3528 377.241 49.2378 377.869 49.2378C378.834 49.2378 379.608 49.459 380.192 49.9013C380.776 50.3349 381.094 50.9984 381.147 51.892H379.104C379.068 51.5381 378.936 51.2594 378.706 51.0559C378.476 50.8436 378.179 50.7374 377.816 50.7374C377.436 50.7374 377.126 50.8347 376.887 51.0294C376.657 51.2152 376.542 51.5027 376.542 51.892C376.542 52.184 376.626 52.4229 376.795 52.6087C376.971 52.7856 377.188 52.9227 377.445 53.0201C377.701 53.1174 378.055 53.2236 378.507 53.3386C379.099 53.489 379.581 53.6438 379.953 53.8031C380.325 53.9623 380.639 54.2145 380.895 54.5595C381.161 54.8957 381.293 55.3558 381.293 55.9397Z" fill="white"/>
<defs>
<filter id="filter0_d_5918_59067" x="0.393149" y="0.816977" width="407.34" height="82.1958" filterUnits="userSpaceOnUse" color-interpolation-filters="sRGB">
<feFlood flood-opacity="0" result="BackgroundImageFix"/>
<feColorMatrix in="SourceAlpha" type="matrix" values="0 0 0 0 0 0 0 0 0 0 0 0 0 0 0 0 0 0 127 0" result="hardAlpha"/>
<feOffset dx="2.96992" dy="2.96992"/>
<feGaussianBlur stdDeviation="3.9599"/>
<feComposite in2="hardAlpha" operator="out"/>
<feColorMatrix type="matrix" values="0 0 0 0 0 0 0 0 0 0 0 0 0 0 0 0 0 0 0.25 0"/>
<feBlend mode="normal" in2="BackgroundImageFix" result="effect1_dropShadow_5918_59067"/>
<feBlend mode="normal" in="SourceGraphic" in2="effect1_dropShadow_5918_59067" result="shape"/>
</filter>
</defs>
</svg>
