<svg width="20" height="20" viewBox="0 0 20 20" fill="none" xmlns="http://www.w3.org/2000/svg">
<g clip-path="url(#clip0_5343_36841)">
<path d="M19.9905 10.1878C19.9905 9.36841 19.9224 8.77047 19.7752 8.15039H10.1992V11.8487H15.8201C15.7068 12.7678 15.0948 14.1519 13.7349 15.082L13.7159 15.2058L16.7436 17.4976L16.9534 17.5181C18.8798 15.7796 19.9905 13.2218 19.9905 10.1878Z" fill="#4285F4"/>
<path d="M10.1992 19.9322C12.953 19.9322 15.2648 19.0463 16.9534 17.5183L13.7349 15.0822C12.8737 15.669 11.7177 16.0787 10.1992 16.0787C7.50211 16.0787 5.21297 14.3403 4.39695 11.9375L4.27734 11.9474L1.12906 14.3281L1.08789 14.4399C2.76508 17.6954 6.21016 19.9322 10.1992 19.9322Z" fill="#34A853"/>
<path d="M4.39695 11.9363C4.18164 11.3163 4.05703 10.6518 4.05703 9.96535C4.05703 9.27878 4.18164 8.61443 4.38562 7.99435L4.37992 7.86229L1.19219 5.44336L1.08789 5.49183C0.396641 6.84275 0 8.35977 0 9.96535C0 11.5709 0.396641 13.0879 1.08789 14.4388L4.39695 11.9363Z" fill="#FBBC05"/>
<path d="M10.1992 3.85336C12.1144 3.85336 13.4062 4.66168 14.1429 5.33718L17.0213 2.59107C15.2535 0.985496 12.953 0 10.1992 0C6.21016 0 2.76508 2.23672 1.08789 5.49214L4.38562 7.99466C5.21297 5.59183 7.50211 3.85336 10.1992 3.85336Z" fill="#EB4335"/>
</g>
<defs>
<clipPath id="clip0_5343_36841">
<rect width="20" height="20" fill="white"/>
</clipPath>
</defs>
</svg>
