<svg width="190" height="77" viewBox="0 0 190 77" fill="none" xmlns="http://www.w3.org/2000/svg">
<path d="M11.1777 36.5594L7.94931 31.279L25.3889 2.75438L31.578 2.75438L11.1777 36.5594Z" fill="#46E178"/>
<path d="M16.4835 45.1914L13.2553 39.9112L35.5344 2.75517L41.7232 2.75509L16.4835 45.1914Z" fill="#46E178"/>
<path d="M21.5841 36.5594L24.7248 31.2789L41.3786 31.2789L44.6067 36.5593L21.5841 36.5594Z" fill="#46E178"/>
<path d="M16.4528 45.19L13.2245 39.9095L46.658 39.9097L49.886 45.1901L16.4528 45.19Z" fill="#46E178"/>
<path d="M59.0127 13.7886H63.784V28.1748L62.6629 29.2957H72.4638L71.026 33.7794H59.0127V13.7886Z" fill="#46E178"/>
<path d="M87.683 29.4098V33.7794H73.9409V13.7886H87.3451V18.1579H78.4247V21.5278H87.1163V25.7545H78.4247V29.4098H87.683Z" fill="#46E178"/>
<path d="M94.7313 18.2721H88.8262V13.7886H105.12V18.2721H99.2151V33.7794H94.7313V18.2721Z" fill="#46E178"/>
<path d="M122.087 29.2957V33.7794H106.368V30.2383L115.254 18.2721H106.602V13.7886H121.697V17.3297L112.811 29.2957H122.087Z" fill="#46E178"/>
<path d="M189.393 29.4098V33.7794H175.651V13.7886H189.055V18.1579H180.135V21.5278H188.827V25.7545H180.135V29.4098H189.393Z" fill="#46E178"/>
<path d="M152.889 13.7886H147.743V33.7794H152.889V13.7886Z" fill="#46E178"/>
<path d="M174.315 13.7886L166.806 33.7794H161.739L154.256 13.7886H159.817L164.467 26.8113L169.221 13.7886H174.315Z" fill="#46E178"/>
<path d="M132.55 13.7886H137.321V28.1748L136.2 29.2957H146L144.563 33.7794H132.55V13.7886Z" fill="#46E178"/>
<path d="M43.432 64.4065C43.432 63.0945 43.608 61.8412 43.96 60.6465C44.312 59.4412 44.8027 58.3585 45.432 57.3985C46.072 56.4385 46.8133 55.6492 47.656 55.0305H49.208V55.1745C47.736 56.3265 46.6373 57.7132 45.912 59.3345C45.1973 60.9452 44.84 62.6358 44.84 64.4065C44.84 66.1878 45.1973 67.8892 45.912 69.5105C46.6373 71.1318 47.736 72.5132 49.208 73.6545V73.7985H47.656C46.8133 73.1798 46.072 72.3905 45.432 71.4305C44.8027 70.4705 44.312 69.3878 43.96 68.1825C43.608 66.9772 43.432 65.7185 43.432 64.4065ZM57.9848 59.7665V60.9345H55.0568V70.8545H53.6008V60.9345H50.6728V59.7665H57.9848ZM63.5191 61.9265C64.2658 61.9265 64.9165 62.1025 65.4711 62.4545C66.0365 62.8065 66.4631 63.2652 66.7511 63.8305V62.0705H68.2231V70.8545H66.7511V69.0625C66.4631 69.6385 66.0365 70.1078 65.4711 70.4705C64.9165 70.8225 64.2658 70.9985 63.5191 70.9985C62.7298 70.9985 62.0151 70.8065 61.3751 70.4225C60.7458 70.0278 60.2445 69.4838 59.8711 68.7905C59.5085 68.0865 59.3271 67.2918 59.3271 66.4065C59.3271 65.5212 59.5085 64.7425 59.8711 64.0705C60.2445 63.3878 60.7458 62.8598 61.3751 62.4865C62.0151 62.1132 62.7298 61.9265 63.5191 61.9265ZM63.7751 63.1905C63.2525 63.1905 62.7618 63.3185 62.3031 63.5745C61.8551 63.8305 61.4925 64.2038 61.2151 64.6945C60.9485 65.1745 60.8151 65.7452 60.8151 66.4065C60.8151 67.0678 60.9485 67.6545 61.2151 68.1665C61.4925 68.6678 61.8551 69.0572 62.3031 69.3345C62.7618 69.6118 63.2525 69.7505 63.7751 69.7505C64.3085 69.7505 64.7991 69.6172 65.2471 69.3505C65.7058 69.0838 66.0685 68.7052 66.3351 68.2145C66.6125 67.7132 66.7511 67.1318 66.7511 66.4705C66.7511 65.8092 66.6125 65.2332 66.3351 64.7425C66.0685 64.2412 65.7058 63.8572 65.2471 63.5905C64.7991 63.3238 64.3085 63.1905 63.7751 63.1905ZM72.0779 59.0145V70.8545H70.6219V59.0145H72.0779ZM82.4493 66.1025C82.4493 66.4118 82.4279 66.6998 82.3853 66.9665H75.3932C75.4359 67.8412 75.7079 68.5345 76.2093 69.0465C76.7213 69.5478 77.3719 69.7985 78.1613 69.7985C78.7586 69.7985 79.2599 69.6652 79.6653 69.3985C80.0813 69.1318 80.3853 68.7798 80.5773 68.3425H82.1453C81.8679 69.1105 81.3879 69.7452 80.7053 70.2465C80.0333 70.7478 79.1853 70.9985 78.1613 70.9985C77.3399 70.9985 76.6039 70.8118 75.9533 70.4385C75.3133 70.0652 74.8119 69.5372 74.4493 68.8545C74.0866 68.1612 73.9053 67.3665 73.9053 66.4705C73.9053 65.5638 74.0866 64.7692 74.4493 64.0865C74.8119 63.3932 75.3239 62.8598 75.9853 62.4865C76.6466 62.1132 77.4093 61.9265 78.2733 61.9265C79.0946 61.9265 79.8199 62.1078 80.4493 62.4705C81.0786 62.8332 81.5693 63.3292 81.9213 63.9585C82.2733 64.5878 82.4493 65.3025 82.4493 66.1025ZM80.9293 65.9105C80.9293 65.3452 80.8066 64.8545 80.5613 64.4385C80.3159 64.0118 79.9799 63.6865 79.5533 63.4625C79.1373 63.2385 78.6733 63.1265 78.1613 63.1265C77.4039 63.1265 76.7693 63.3772 76.2573 63.8785C75.7453 64.3692 75.4626 65.0465 75.4093 65.9105H80.9293ZM88.5825 61.9265C89.2118 61.9265 89.7825 62.0705 90.2945 62.3585C90.8172 62.6358 91.2278 63.0572 91.5265 63.6225C91.8358 64.1772 91.9905 64.8545 91.9905 65.6545V70.8545H90.5505V65.8945C90.5505 65.0092 90.3372 64.3372 89.9105 63.8785C89.4838 63.4198 88.8918 63.1905 88.1345 63.1905C87.3878 63.1905 86.7958 63.4198 86.3585 63.8785C85.9318 64.3372 85.7185 65.0092 85.7185 65.8945V70.8545H84.2625V62.0705H85.7185V63.4945C86.0065 62.9825 86.4012 62.5932 86.9025 62.3265C87.4038 62.0598 87.9638 61.9265 88.5825 61.9265ZM98.3894 69.6705V70.8545H96.9174C96.1707 70.8545 95.6 70.6732 95.2054 70.3105C94.8214 69.9478 94.6294 69.3772 94.6294 68.5985V63.2545H93.4934V62.0705H94.6294V59.8945H96.1014V62.0705H98.3734V63.2545H96.1014V68.5985C96.1014 68.9932 96.1814 69.2705 96.3414 69.4305C96.5014 69.5905 96.784 69.6705 97.1894 69.6705H98.3894ZM107.818 61.9265C108.767 61.9265 109.519 62.1772 110.074 62.6785C110.628 63.1692 110.932 63.8465 110.986 64.7105H109.482C109.46 64.2198 109.295 63.8252 108.986 63.5265C108.676 63.2278 108.25 63.0785 107.706 63.0785C107.151 63.0785 106.714 63.2118 106.394 63.4785C106.084 63.7345 105.93 64.0598 105.93 64.4545C105.93 64.7852 106.026 65.0518 106.218 65.2545C106.42 65.4465 106.666 65.5905 106.954 65.6865C107.252 65.7825 107.652 65.8838 108.154 65.9905C108.794 66.1398 109.306 66.2892 109.69 66.4385C110.084 66.5772 110.42 66.8172 110.698 67.1585C110.975 67.4892 111.114 67.9425 111.114 68.5185C111.114 68.9985 110.975 69.4305 110.698 69.8145C110.42 70.1878 110.031 70.4812 109.53 70.6945C109.028 70.8972 108.452 70.9985 107.802 70.9985C106.82 70.9985 106.031 70.7532 105.434 70.2625C104.847 69.7718 104.527 69.0945 104.474 68.2305H105.978C105.999 68.7212 106.17 69.1158 106.49 69.4145C106.82 69.7025 107.258 69.8465 107.802 69.8465C108.399 69.8465 108.858 69.7238 109.178 69.4785C109.508 69.2332 109.674 68.9078 109.674 68.5025C109.674 68.1718 109.572 67.9105 109.37 67.7185C109.178 67.5158 108.932 67.3665 108.634 67.2705C108.335 67.1638 107.924 67.0518 107.402 66.9345C106.772 66.7958 106.26 66.6572 105.866 66.5185C105.482 66.3692 105.151 66.1398 104.874 65.8305C104.607 65.5212 104.474 65.0945 104.474 64.5505C104.474 64.0705 104.607 63.6332 104.874 63.2385C105.151 62.8332 105.54 62.5132 106.042 62.2785C106.554 62.0438 107.146 61.9265 107.818 61.9265ZM117.072 61.9265C117.904 61.9265 118.656 62.1132 119.328 62.4865C120 62.8598 120.528 63.3932 120.912 64.0865C121.306 64.7798 121.504 65.5745 121.504 66.4705C121.504 67.3558 121.301 68.1452 120.896 68.8385C120.49 69.5212 119.941 70.0545 119.248 70.4385C118.554 70.8118 117.786 70.9985 116.944 70.9985C116.122 70.9985 115.381 70.8118 114.72 70.4385C114.069 70.0652 113.557 69.5372 113.184 68.8545C112.821 68.1612 112.64 67.3665 112.64 66.4705C112.64 65.5638 112.832 64.7692 113.216 64.0865C113.61 63.3932 114.144 62.8598 114.816 62.4865C115.488 62.1132 116.24 61.9265 117.072 61.9265ZM117.024 63.1265C116.49 63.1265 116.005 63.2545 115.568 63.5105C115.13 63.7665 114.778 64.1452 114.512 64.6465C114.256 65.1478 114.128 65.7558 114.128 66.4705C114.128 67.1745 114.25 67.7772 114.496 68.2785C114.752 68.7798 115.093 69.1585 115.52 69.4145C115.946 69.6705 116.421 69.7985 116.944 69.7985C117.477 69.7985 117.973 69.6705 118.432 69.4145C118.901 69.1478 119.28 68.7638 119.568 68.2625C119.856 67.7612 120 67.1638 120 66.4705C120 65.7665 119.861 65.1638 119.584 64.6625C119.317 64.1505 118.954 63.7665 118.496 63.5105C118.048 63.2545 117.557 63.1265 117.024 63.1265ZM130.973 62.0705V70.8545H129.517V69.4465C129.229 69.9585 128.834 70.3478 128.333 70.6145C127.832 70.8705 127.272 70.9985 126.653 70.9985C126.024 70.9985 125.448 70.8598 124.925 70.5825C124.413 70.2945 124.002 69.8732 123.693 69.3185C123.394 68.7638 123.245 68.0865 123.245 67.2865V62.0705H124.685V67.0465C124.685 67.9212 124.898 68.5932 125.325 69.0625C125.762 69.5212 126.354 69.7505 127.101 69.7505C127.848 69.7505 128.434 69.5212 128.861 69.0625C129.298 68.5932 129.517 67.9212 129.517 67.0465V62.0705H130.973ZM134.828 63.5585C135.351 62.4705 136.241 61.9265 137.5 61.9265V63.4465H137.116C136.369 63.4465 135.799 63.6438 135.404 64.0385C135.02 64.4225 134.828 65.0945 134.828 66.0545V70.8545H133.372V62.0705H134.828V63.5585ZM142.943 61.9265C143.999 61.9265 144.857 62.1718 145.519 62.6625C146.191 63.1532 146.66 63.8518 146.927 64.7585H145.359C145.188 64.2465 144.895 63.8465 144.479 63.5585C144.063 63.2705 143.551 63.1265 142.943 63.1265C142.111 63.1265 141.439 63.4198 140.927 64.0065C140.425 64.5825 140.174 65.4038 140.174 66.4705C140.174 67.5265 140.425 68.3478 140.927 68.9345C141.439 69.5105 142.111 69.7985 142.943 69.7985C143.561 69.7985 144.073 69.6598 144.479 69.3825C144.884 69.1052 145.177 68.6998 145.359 68.1665H146.927C146.66 69.0305 146.185 69.7185 145.503 70.2305C144.831 70.7425 143.977 70.9985 142.943 70.9985C142.121 70.9985 141.385 70.8118 140.735 70.4385C140.095 70.0652 139.593 69.5372 139.231 68.8545C138.868 68.1612 138.687 67.3665 138.687 66.4705C138.687 65.5638 138.868 64.7692 139.231 64.0865C139.593 63.3932 140.095 62.8598 140.735 62.4865C141.375 62.1132 142.111 61.9265 142.943 61.9265ZM148.616 59.6705C148.616 59.3932 148.712 59.1585 148.904 58.9665C149.096 58.7745 149.326 58.6785 149.592 58.6785C149.87 58.6785 150.104 58.7745 150.296 58.9665C150.488 59.1585 150.584 59.3932 150.584 59.6705C150.584 59.9478 150.488 60.1825 150.296 60.3745C150.104 60.5665 149.87 60.6625 149.592 60.6625C149.315 60.6625 149.08 60.5665 148.888 60.3745C148.707 60.1825 148.616 59.9478 148.616 59.6705ZM150.312 62.0705V70.8545H148.856V62.0705H150.312ZM157.036 61.9265C157.665 61.9265 158.236 62.0705 158.748 62.3585C159.27 62.6358 159.681 63.0572 159.98 63.6225C160.289 64.1772 160.444 64.8545 160.444 65.6545V70.8545H159.004V65.8945C159.004 65.0092 158.79 64.3372 158.364 63.8785C157.937 63.4198 157.345 63.1905 156.588 63.1905C155.841 63.1905 155.249 63.4198 154.812 63.8785C154.385 64.3372 154.172 65.0092 154.172 65.8945V70.8545H152.716V62.0705H154.172V63.4945C154.46 62.9825 154.854 62.5932 155.356 62.3265C155.857 62.0598 156.417 61.9265 157.036 61.9265ZM166.379 61.9265C167.125 61.9265 167.776 62.1025 168.331 62.4545C168.896 62.8065 169.323 63.2652 169.611 63.8305V62.0705H171.083V71.0785C171.083 71.8785 170.907 72.5878 170.555 73.2065C170.203 73.8252 169.707 74.3052 169.067 74.6465C168.427 74.9985 167.685 75.1745 166.843 75.1745C166.107 75.1745 165.435 75.0465 164.827 74.7905C164.219 74.5452 163.723 74.1932 163.339 73.7345C162.955 73.2758 162.725 72.7532 162.651 72.1665H164.075C164.213 72.6678 164.539 73.0838 165.051 73.4145C165.563 73.7452 166.16 73.9105 166.843 73.9105C167.675 73.9105 168.341 73.6598 168.843 73.1585C169.355 72.6678 169.611 71.9745 169.611 71.0785V69.0625C169.323 69.6385 168.896 70.1078 168.331 70.4705C167.776 70.8225 167.125 70.9985 166.379 70.9985C165.589 70.9985 164.875 70.8065 164.235 70.4225C163.605 70.0278 163.104 69.4838 162.731 68.7905C162.368 68.0865 162.187 67.2918 162.187 66.4065C162.187 65.5212 162.368 64.7425 162.731 64.0705C163.104 63.3878 163.605 62.8598 164.235 62.4865C164.875 62.1132 165.589 61.9265 166.379 61.9265ZM166.635 63.1905C166.112 63.1905 165.621 63.3185 165.163 63.5745C164.715 63.8305 164.352 64.2038 164.075 64.6945C163.808 65.1745 163.674 65.7452 163.674 66.4065C163.674 67.0678 163.808 67.6545 164.075 68.1665C164.352 68.6678 164.715 69.0572 165.163 69.3345C165.621 69.6118 166.112 69.7505 166.635 69.7505C167.168 69.7505 167.659 69.6172 168.107 69.3505C168.565 69.0838 168.928 68.7052 169.195 68.2145C169.472 67.7132 169.611 67.1318 169.611 66.4705C169.611 65.8092 169.472 65.2332 169.195 64.7425C168.928 64.2412 168.565 63.8572 168.107 63.5905C167.659 63.3238 167.168 63.1905 166.635 63.1905ZM178.841 64.4065C178.841 65.7185 178.665 66.9772 178.313 68.1825C177.961 69.3878 177.465 70.4705 176.825 71.4305C176.196 72.3905 175.46 73.1798 174.617 73.7985H173.065V73.6545C174.527 72.5132 175.62 71.1318 176.345 69.5105C177.071 67.8892 177.433 66.1878 177.433 64.4065C177.433 62.6358 177.071 60.9452 176.345 59.3345C175.62 57.7132 174.527 56.3265 173.065 55.1745V55.0305H174.617C175.46 55.6492 176.196 56.4385 176.825 57.3985C177.465 58.3585 177.961 59.4412 178.313 60.6465C178.665 61.8412 178.841 63.0945 178.841 64.4065Z" fill="white"/>
</svg>
