<svg width="64" height="64" viewBox="0 0 64 64" fill="none" xmlns="http://www.w3.org/2000/svg">
<path fill-rule="evenodd" clip-rule="evenodd" d="M43.4005 10.5605C39.1612 10.5605 35.6926 13.973 35.6926 18.1731C35.6926 19.3581 36.1811 20.6813 36.8504 22.1167C37.5197 23.5524 38.3922 25.0774 39.2661 26.476C41.0136 29.2731 42.7615 31.5838 42.7615 31.5838V31.5842C42.9125 31.7842 43.149 31.9017 43.3997 31.9017C43.6504 31.9017 43.8868 31.7842 44.0379 31.5842C44.0379 31.5842 45.7793 29.2735 47.5268 26.4763C48.4004 25.0777 49.2797 23.5524 49.9486 22.117C50.6175 20.6813 51.1 19.3584 51.1 18.1734C51.1 13.9734 47.6393 10.5609 43.4 10.5609L43.4005 10.5605ZM43.4005 12.1605C46.7865 12.1605 49.5005 14.8495 49.5005 18.1731C49.5005 18.8688 49.1212 20.1034 48.4959 21.4448C47.8705 22.7863 47.0216 24.2619 46.1695 25.6259C44.7838 27.8441 43.8712 29.0501 43.4005 29.6884C42.9302 29.0502 42.0098 27.8441 40.6241 25.6259C39.772 24.2619 38.9227 22.7862 38.2977 21.4448C37.6724 20.1034 37.2945 18.8688 37.2945 18.1731C37.2945 14.8495 40.0149 12.1605 43.4005 12.1605H43.4005ZM43.4005 15.5981C41.7248 15.5981 40.3472 16.9695 40.3472 18.6448C40.3472 20.3202 41.7243 21.6981 43.4005 21.6981C45.0762 21.6981 46.4537 20.3203 46.4537 18.6448C46.4537 16.9695 45.0766 15.5981 43.4005 15.5981ZM43.4005 17.1981C44.213 17.1981 44.8519 17.8356 44.8519 18.6448C44.8519 19.4545 44.2126 20.0981 43.4005 20.0981C42.588 20.0981 41.9472 19.4545 41.9472 18.6448C41.9472 17.8352 42.5879 17.1981 43.4005 17.1981ZM21.0005 24.662V24.6624C20.9347 24.6627 20.869 24.671 20.8051 24.6874L9.60144 27.4921C9.24608 27.5831 8.99787 27.9046 9.00001 28.2717V52.6502C9.00109 52.8956 9.11466 53.127 9.30823 53.2781C9.5018 53.4288 9.75394 53.4827 9.99216 53.4238L21.0002 50.6659L32.0018 53.4238C32.13 53.4559 32.2643 53.4559 32.3925 53.4238L43.4005 50.6659L54.4021 53.4238C54.6414 53.4849 54.8953 53.4324 55.0906 53.2809C55.2856 53.1299 55.4003 52.897 55.4006 52.6502V28.2717C55.4017 27.9024 55.1499 27.5803 54.7913 27.4921L51.7446 26.7296C51.3171 26.6231 50.8839 26.8824 50.7756 27.3092C50.7231 27.516 50.7556 27.7349 50.8653 27.9178C50.9749 28.1003 51.1531 28.2317 51.3599 28.2828L53.7989 28.8921L53.7992 51.6221L44.1974 49.2161V35.7423C44.1985 35.5301 44.1149 35.3262 43.9652 35.1758C43.816 35.0251 43.6127 34.9401 43.4006 34.939C43.1874 34.9383 42.9827 35.0226 42.8317 35.1733C42.681 35.3244 42.5967 35.529 42.5974 35.7423V49.217L33.001 51.6217V28.8934L35.44 28.2827C35.6461 28.2302 35.8225 28.0984 35.9311 27.9156C36.0393 27.7331 36.0707 27.5149 36.0182 27.3092C35.91 26.882 35.4768 26.6231 35.0496 26.7295L32.1981 27.4452L21.1965 24.6874H21.1962C21.1322 24.671 21.0669 24.6624 21.0008 24.6624L21.0005 24.662ZM21.7972 26.487L31.4009 28.8931V51.6231L21.7972 49.2156V26.487ZM20.1972 26.4885V49.2167L10.6009 51.6214V28.8922L20.1972 26.4885Z" fill="white"/>
</svg>
