<svg width="70" height="59" viewBox="0 0 70 59" fill="none" xmlns="http://www.w3.org/2000/svg">
<g clip-path="url(#clip0_5918_58914)">
<path fill-rule="evenodd" clip-rule="evenodd" d="M0.00268555 19.4795V33.9368C0.00268555 35.3928 0.605083 36.7428 1.81038 37.9873C2.88584 38.9145 4.20823 39.3903 5.77738 39.4147C7.64564 39.3495 9.06901 38.7275 10.0476 37.548C10.9696 36.4177 11.4429 35.1569 11.4671 33.7661V19.5161L8.48272 19.5282V33.705C8.45035 34.6322 8.20374 35.2909 7.7426 35.6815C7.28162 36.0719 6.62235 36.2792 5.7653 36.3036C5.02098 36.385 4.34159 36.1837 3.72711 35.6997C3.11231 35.2159 2.82126 34.5347 2.85363 33.6562L2.89003 19.4917L0.00268555 19.4795ZM14.6805 19.4429L14.6684 39.2683H17.5193V33.1803H20.2732L23.0878 39.2439H26.5211L23.1241 32.1921C24.499 31.5172 25.4535 30.4028 25.9873 28.8493C26.2703 27.6618 26.3755 26.5395 26.3027 25.482C26.246 24.2541 25.7205 22.9851 24.7255 21.6754C23.3748 20.2685 21.8705 19.5244 20.2126 19.4429H14.6805ZM17.4829 30.3865L17.5073 22.4564H19.9821C20.7828 22.4889 21.632 22.9159 22.5298 23.7373C23.1199 24.4531 23.4232 25.3277 23.4397 26.3604C23.4476 27.3529 23.1806 28.1661 22.639 28.8006C21.8868 29.7115 20.9081 30.2401 19.703 30.3865H17.4829ZM29.1042 19.5039V39.2683H35.7524C37.8146 39.2683 39.4078 38.0686 40.5321 35.6692C40.7748 35.0512 40.8961 34.4574 40.8961 33.888C40.8961 33.7416 40.8879 33.5994 40.8718 33.4611C40.791 31.3381 39.8484 29.7847 38.0451 28.8006C39.0561 28.2881 39.6747 27.1412 39.9013 25.3601C39.9659 23.5056 39.5291 22.0823 38.591 21.0899C37.5315 20.0326 36.4275 19.5039 35.2791 19.5039H29.1042ZM31.8944 22.31H34.6725C35.2871 22.31 35.8289 22.5195 36.2982 22.9382C36.7671 23.3572 37.0421 23.9163 37.1232 24.6157C37.1796 25.177 36.9937 25.7626 36.5651 26.3726C36.1363 26.9826 35.5015 27.304 34.6604 27.3364H31.8944V22.31ZM31.8823 30.3378H35.4854C36.1566 30.4028 36.7572 30.7506 37.2869 31.3808C37.8165 32.0112 38.0289 32.7493 37.9238 33.5951C37.8833 34.1972 37.6548 34.7725 37.2385 35.3215C36.8218 35.8706 36.2172 36.1694 35.4247 36.2183H31.8823V30.3378ZM46.9977 19.5039L42.4485 39.2317H45.6269L46.5126 35.6936H51.9354L52.7483 39.2317H55.8782L51.3772 19.4795L46.9977 19.5039ZM49.1451 22.6761L51.3895 32.6436H46.9372L49.1451 22.6761ZM58.3036 19.4673V39.2806H61.1423V25.9701L66.4439 39.2683H69.4282V19.4673H66.6624V32.3019L61.5911 19.4673H58.3036Z" fill="#6E6E76"/>
<path fill-rule="evenodd" clip-rule="evenodd" d="M19.0424 44.9805L14.876 50.4179L16.705 51.8351C17.2723 52.275 17.9634 52.2846 18.7786 51.8642C18.9757 51.7457 19.1342 51.6082 19.2542 51.4516C19.2852 51.4113 19.3128 51.3705 19.3375 51.329C19.7627 50.7278 19.831 50.0996 19.5423 49.4443C19.9285 49.5187 20.3405 49.3352 20.7783 48.8935C21.1869 48.397 21.3669 47.9123 21.3179 47.4395C21.2493 46.9226 21.0572 46.5418 20.7412 46.297L19.0424 44.9805ZM19.2186 46.3473L19.9828 46.9396C20.1519 47.0707 20.2568 47.2438 20.2975 47.4591C20.3383 47.6743 20.296 47.8867 20.1709 48.0964C20.068 48.2629 19.8935 48.3844 19.647 48.4608C19.4004 48.5372 19.158 48.4904 18.9197 48.32L18.1588 47.7301L19.2186 46.3473ZM17.5229 48.5532L18.5142 49.3214C18.6851 49.4824 18.7768 49.7061 18.7898 49.9925C18.8027 50.2789 18.7054 50.5272 18.4982 50.7374C18.3601 50.8944 18.1762 51.0039 17.9458 51.0662C17.7155 51.1285 17.4861 51.0817 17.2579 50.9262L16.2832 50.171L17.5229 48.5532ZM23.7824 48.4139L19.5375 54.0038L20.5434 54.4608L21.3269 53.4683L23.0433 54.2481L22.7974 55.4848L23.7881 55.9348L25.1721 49.0359L23.7824 48.4139ZM24.011 49.7267L23.3042 53.2043L21.8948 52.5641L24.011 49.7267ZM27.1694 50.0564L25.8264 56.8083L26.7976 57.0029L27.2086 54.9293L28.1466 55.1173L28.6958 57.3749L29.8652 57.6092L29.1843 54.9755C29.6982 54.8394 30.0986 54.525 30.3852 54.0323C30.5619 53.6471 30.6735 53.2721 30.7201 52.9069C30.7837 52.4848 30.6903 52.0169 30.44 51.5028C30.0748 50.9313 29.6126 50.5751 29.0535 50.4341L27.1694 50.0564ZM27.3848 53.9752L27.9285 51.2757L28.7716 51.4448C29.0421 51.5105 29.3024 51.714 29.5527 52.0551C29.7056 52.3392 29.7498 52.6577 29.6856 53.0106C29.6213 53.3492 29.4754 53.608 29.2481 53.787C28.9304 54.0459 28.5613 54.1591 28.1411 54.1268L27.3848 53.9752ZM32.6735 51.0567L32.4711 57.9223L33.4271 57.9509L33.6295 51.0853L32.6735 51.0567ZM36.6726 57.7168C37.0239 57.8358 37.404 57.8663 37.8128 57.8086L37.9046 57.7956C38.4639 57.7168 38.9125 57.4868 39.2508 57.1053C39.6044 56.6105 39.7444 56.0975 39.6702 55.5659L39.6598 55.4904C39.6551 55.4568 39.6496 55.4276 39.6432 55.4028C39.5853 55.0686 39.4021 54.7408 39.0934 54.4191C38.8121 54.1708 38.4756 53.9957 38.0842 53.894L37.0664 53.5196C36.6636 53.3767 36.4269 53.2468 36.3567 53.1298C36.2866 53.0126 36.253 52.8627 36.2558 52.6797C36.2875 52.3986 36.4103 52.1903 36.624 52.0544C36.8781 51.9246 37.153 51.883 37.449 51.9296C37.7161 52.0147 37.8969 52.1518 37.9914 52.3411L38.9541 51.9529C38.7369 51.5956 38.4939 51.3375 38.225 51.1785C37.8771 50.9623 37.4411 50.8767 36.917 50.9221C36.3977 51.0011 35.9908 51.1953 35.6965 51.5048C35.37 51.8703 35.2174 52.3012 35.2383 52.7974C35.2758 53.1687 35.3866 53.4754 35.5708 53.7175C35.8554 54.0711 36.1677 54.3066 36.5074 54.4242C36.6117 54.4608 37.0815 54.6258 37.9165 54.9188C38.0376 54.953 38.1552 55.0035 38.2695 55.0702C38.4451 55.1708 38.5694 55.3296 38.642 55.546C38.7149 55.7625 38.7156 55.9728 38.6449 56.1768C38.4609 56.525 38.1578 56.7219 37.7358 56.7669C37.4092 56.8044 37.1313 56.7845 36.9022 56.7069C36.6728 56.6294 36.4819 56.4503 36.3294 56.1694L35.363 56.5623C35.6161 57.0771 36.0528 57.462 36.6726 57.7168ZM39.4971 50.6689L39.8294 51.589L41.0571 51.1405L43.0597 56.6842L44.0221 56.3327L42.0252 50.8049L43.2252 50.3664L42.887 49.4305L39.4971 50.6689ZM44.6726 48.6108L46.7995 55.3112L47.7482 54.7434L47.3875 53.5292L49.0059 52.5606L49.8736 53.4714L50.8076 52.9121L45.9753 47.8213L44.6726 48.6108ZM45.8739 49.1739L48.3042 51.7477L46.9755 52.5431L45.8739 49.1739ZM52.7437 51.1205C53.1017 51.0236 53.4349 50.8373 53.7436 50.5615L53.8129 50.4995C54.2347 50.1223 54.4815 49.6807 54.5529 49.1746C54.5746 48.5655 54.4082 48.0606 54.0536 47.6594L54.0033 47.6024C53.9808 47.577 53.9602 47.5558 53.9413 47.5387C53.7089 47.2929 53.3757 47.1221 52.9415 47.0263C52.5705 46.9764 52.1939 47.0182 51.8121 47.1515L50.7584 47.4074C50.3444 47.513 50.0758 47.5366 49.953 47.4783C49.8301 47.4201 49.7194 47.314 49.6209 47.16C49.4924 46.9084 49.4796 46.6665 49.5829 46.4344C49.7227 46.1845 49.9288 45.9967 50.2009 45.8707C50.4699 45.7926 50.696 45.8059 50.8789 45.9108L51.4664 45.0512C51.0888 44.8749 50.7442 44.7953 50.4328 44.813C50.024 44.8269 49.6141 44.9987 49.2029 45.3283C48.8141 45.6836 48.5824 46.0722 48.5079 46.4939C48.4376 46.98 48.548 47.4238 48.8389 47.8252C49.0747 48.1132 49.3361 48.3067 49.6227 48.4056C50.0543 48.5412 50.4442 48.5633 50.7916 48.4719C50.8989 48.4442 51.3806 48.3196 52.2371 48.0982C52.3569 48.0593 52.4826 48.0357 52.6145 48.0274C52.8162 48.0133 53.007 48.0761 53.1868 48.2158C53.3666 48.3555 53.4834 48.5301 53.5367 48.7393C53.5755 49.1319 53.4318 49.4645 53.1053 49.7373C52.8542 49.9506 52.6118 50.0887 52.3782 50.152C52.1448 50.2153 51.887 50.1725 51.6053 50.0237L51.0174 50.8894C51.512 51.1767 52.0874 51.2538 52.7437 51.1205Z" fill="#6E6E76"/>
<path fill-rule="evenodd" clip-rule="evenodd" d="M13.5063 9.36061C13.4438 9.41494 13.3871 9.4691 13.3362 9.52308C13.1608 9.70914 13.0278 9.91644 12.937 10.1451C12.7988 10.5602 12.7999 11.0077 12.9407 11.4872C13.0858 11.9825 13.5533 12.6123 14.3432 13.3767L14.388 13.4194C14.6885 13.7057 15.0334 13.9946 15.4231 14.2863C16.152 14.7911 16.8735 14.911 17.5876 14.6461C17.7815 14.5767 18.002 14.4109 18.249 14.1487C18.2998 14.0947 18.3525 14.0348 18.4071 13.9691C18.7062 13.4795 18.8164 12.9998 18.738 12.53C18.6805 12.0501 18.267 11.4051 17.497 10.5953L17.2073 10.3078L15.7904 11.8112L16.5098 12.5023L17.2167 11.7523C17.4972 12.0156 17.6735 12.3243 17.746 12.6781C17.8185 13.0321 17.7582 13.3032 17.5655 13.4916C17.3447 13.7178 17.083 13.8113 16.7805 13.7716C16.4781 13.732 16.2062 13.6268 15.9651 13.4558C15.724 13.2849 15.3759 12.9882 14.9207 12.5658C14.5047 12.1577 14.1955 11.7946 13.9932 11.4765C13.7184 10.9147 13.7438 10.4812 14.069 10.176C14.4592 9.83016 14.9504 9.85594 15.5425 10.2532L16.0051 9.3839C15.5352 9.06911 15.0675 8.92419 14.6019 8.94949C14.1363 8.97463 13.7713 9.11178 13.5063 9.36061ZM16.0755 7.00657L16.4374 8.44693L17.3264 7.7313L16.9517 6.30123L16.0755 7.00657ZM18.2095 5.34723L21.6246 11.1019L23.4215 10.0235C23.8781 9.68517 24.1228 9.27188 24.1555 8.78366C24.1881 8.29544 24.0608 7.77162 23.7735 7.21221C23.6056 6.83803 23.4256 6.48883 23.2329 6.16441C23.0379 5.83562 22.8303 5.53161 22.6105 5.25259C22.1338 4.65926 21.7111 4.29268 21.3426 4.15283C20.9738 4.01298 20.5508 4.03828 20.0734 4.22857L18.2095 5.34723ZM19.5123 5.66304L20.3842 5.13956C20.8556 4.98182 21.3116 5.18005 21.752 5.73423C22.2122 6.36973 22.5958 7.02681 22.903 7.70583C23.1191 8.16672 23.2028 8.50008 23.1542 8.70589C23.1054 8.91153 22.9898 9.08378 22.8072 9.22228L21.9352 9.74558L19.5123 5.66304ZM24.4876 2.14816L25.2599 8.96653L26.2748 8.604L26.1586 7.37315L27.8902 6.75469L28.5488 7.79171L29.5483 7.43473L25.8832 1.64071L24.4876 2.14816ZM25.531 2.91609L27.3719 5.84304L25.9502 6.35083L25.531 2.91609ZM30.5163 4.7087L30.8969 7.30162L31.8721 7.15114L31.4872 4.52954L32.7042 0.237793L31.6673 0.393504L30.8318 3.27778L29.0976 0.779153L28.0852 0.931153L30.5163 4.7087ZM36.7652 0.282836L36.0049 6.94499L36.981 7.05751L37.3105 4.17004L38.8421 4.34684L38.9505 3.39807L37.4188 3.22126L37.6283 1.38529L39.9278 1.65066L40.0407 0.660726L36.7652 0.282836ZM41.7813 1.00049L39.7623 7.40437L40.6834 7.69757L41.3022 5.73069L42.1917 6.01376L42.4849 8.26204L43.594 8.61495L43.2134 5.98745C43.7262 5.91069 44.1477 5.64887 44.4782 5.20181C44.6903 4.8472 44.8384 4.49546 44.9224 4.14625C45.0288 3.74373 44.9881 3.2798 44.7998 2.7543C44.5064 2.16098 44.096 1.76588 43.5686 1.56918L41.7813 1.00049ZM41.5743 4.82426L42.3882 2.26457L43.1879 2.51896C43.4433 2.61192 43.6742 2.83713 43.8807 3.19478C43.9987 3.4868 44.0079 3.80041 43.9081 4.13579C43.8097 4.45717 43.6409 4.69251 43.4015 4.8418C43.0658 5.05875 42.6959 5.1291 42.2916 5.05251L41.5743 4.82426ZM49.2485 3.99627L49.1841 3.95966C48.9907 3.84968 48.7902 3.77814 48.5819 3.74508C48.2557 3.69244 47.8852 3.7633 47.4703 3.95781C46.9573 4.16936 46.4163 4.7529 45.847 5.70842C45.8257 5.74064 45.8042 5.7759 45.7827 5.81436L45.7523 5.86818C45.7081 5.94122 45.667 6.0114 45.6292 6.07854C45.062 7.08586 44.84 7.89697 44.9632 8.51188C45.0681 9.12579 45.3343 9.57031 45.762 9.84547C45.8167 9.87668 45.8749 9.90503 45.9362 9.93052C46.5004 10.2262 47.0558 10.2495 47.6024 10.0002C48.1836 9.79572 48.7448 9.21267 49.2863 8.25091C49.3281 8.17651 49.3694 8.10025 49.4103 8.02214L49.4893 7.88179C49.8795 7.18876 50.1258 6.57199 50.2285 6.03181C50.3269 5.23588 50.087 4.61305 49.5087 4.16345C49.4258 4.10357 49.339 4.0479 49.2485 3.99627ZM45.9496 8.08997C46.0033 7.63919 46.2408 7.05077 46.6622 6.32451C47.0307 5.72039 47.3496 5.27958 47.6193 5.00224C48.0305 4.68542 48.412 4.62874 48.7638 4.83202C49.1327 5.05487 49.2837 5.37979 49.2164 5.80711C49.1544 6.3704 48.9448 6.91615 48.5875 7.44452C48.1773 8.1674 47.8363 8.63048 47.5646 8.8336C47.1356 9.20389 46.7314 9.2842 46.3519 9.0745C46.0298 8.86885 45.8958 8.54073 45.9496 8.08997ZM48.4627 11.3234L49.1575 11.9984L52.2104 8.81926L50.3021 13.1098L50.4794 13.2823L54.737 11.1637L51.6298 14.3994L52.3218 15.0715L56.9569 10.2448L56.049 9.36298L52.1529 11.367L54.0145 7.38716L53.0977 6.49675L48.4627 11.3234Z" fill="#6E6E76"/>
</g>
<defs>
<clipPath id="clip0_5918_58914">
<rect width="69.4493" height="58.033" fill="white" transform="translate(0 0.101562)"/>
</clipPath>
</defs>
</svg>
