<svg width="82" height="18" viewBox="0 0 82 18" fill="none" xmlns="http://www.w3.org/2000/svg">
<path d="M0.6968 17.548V15.218C0.716546 15.218 0.739582 15.218 0.76591 15.218C1.54257 15.218 2.06582 15.0996 2.33568 14.8626C2.6187 14.6257 2.76021 14.1287 2.76021 13.3718V0.803805H6.0972L6.08733 13.4903C6.07417 14.2011 6.00835 14.7968 5.88988 15.2773C5.7714 15.7578 5.56736 16.1757 5.27776 16.5311C4.99474 16.88 4.60971 17.1367 4.12265 17.3012C3.63559 17.4657 3.03006 17.548 2.30606 17.548H0.6968ZM12.0505 17.3703C10.7868 17.3703 9.81924 17.0313 9.14789 16.3534C8.47654 15.6689 8.14087 14.6882 8.14087 13.4113V9.24502C8.14087 7.97472 8.47654 7.00061 9.14789 6.32268C9.81924 5.63817 10.7868 5.29591 12.0505 5.29591C13.3208 5.29591 14.2949 5.63817 14.9728 6.32268C15.6573 7.00061 15.9996 7.97472 15.9996 9.24502V13.4113C15.9996 14.6816 15.6573 15.659 14.9728 16.3435C14.2949 17.0281 13.3208 17.3703 12.0505 17.3703ZM12.0604 15.2773C12.4224 15.2773 12.6659 15.1391 12.7909 14.8626C12.916 14.5796 12.9785 14.1682 12.9785 13.6285V9.03769C12.9785 8.4914 12.916 8.08003 12.7909 7.8036C12.6659 7.52058 12.4224 7.37907 12.0604 7.37907C11.7049 7.37907 11.4647 7.52387 11.3396 7.81347C11.2212 8.09649 11.1619 8.50456 11.1619 9.03769V13.6285C11.1619 14.1617 11.2212 14.5697 11.3396 14.8528C11.4647 15.1358 11.7049 15.2773 12.0604 15.2773ZM20.6694 10.0348H22.4564V8.8896C22.4564 8.38938 22.3807 8.03067 22.2293 7.81347C22.0845 7.59627 21.8541 7.48767 21.5382 7.48767C21.2223 7.48767 20.9985 7.61272 20.8669 7.86283C20.7352 8.10636 20.6694 8.53747 20.6694 9.15617V10.0348ZM21.558 17.3703C20.2482 17.3703 19.2675 17.0149 18.6159 16.304C17.9643 15.5866 17.6385 14.5599 17.6385 13.2237V9.44248C17.6385 8.10636 17.9676 7.08288 18.6257 6.37205C19.2839 5.65462 20.258 5.29591 21.5481 5.29591C22.871 5.29591 23.8287 5.65462 24.4211 6.37205C25.02 7.08288 25.3195 8.14256 25.3195 9.55108V11.5059H20.6694V13.4212C20.6694 14.0004 20.7286 14.4381 20.8471 14.7343C20.9656 15.0239 21.1992 15.1687 21.5481 15.1687C22.1536 15.1687 22.4564 14.731 22.4564 13.8556V12.7696H25.3096V13.7174C25.3096 14.9021 24.9871 15.8071 24.3421 16.4324C23.6971 17.0577 22.769 17.3703 21.558 17.3703ZM35.7352 7.71474H36.8015C37.5387 7.71474 38.0323 7.5502 38.2824 7.2211C38.5325 6.88543 38.6576 6.29965 38.6576 5.46375C38.6576 5.03593 38.6378 4.70026 38.5983 4.45673C38.5654 4.20662 38.4865 3.97296 38.3614 3.75576C38.2429 3.53198 38.0553 3.37402 37.7987 3.28187C37.5485 3.18972 37.2162 3.14365 36.8015 3.14365H35.7352V7.71474ZM32.4081 17.1729V0.803805H37.5222C40.3656 0.803805 41.7873 2.37028 41.7873 5.50324C41.7873 6.3523 41.6754 7.07959 41.4516 7.68512C41.2278 8.28407 40.9053 8.75467 40.484 9.09693C40.0628 9.4326 39.5856 9.67613 39.0525 9.82751C38.5194 9.97231 37.9073 10.0447 37.2162 10.0447H35.7352V17.1729H32.4081ZM45.223 17.3604C44.545 17.3604 44.035 17.1136 43.6927 16.62C43.3504 16.1198 43.1793 15.4912 43.1793 14.7343V5.4835H46.23V14.2604C46.2366 14.5829 46.2925 14.8231 46.3978 14.9811C46.5031 15.1391 46.6809 15.218 46.931 15.218C46.9441 15.218 46.954 15.218 46.9606 15.218C47.2633 15.2115 47.6122 15.0732 48.0071 14.8034V5.4835H51.0677V17.1729H48.0071V16.0868C47.1054 16.9359 46.1773 17.3604 45.223 17.3604ZM57.2974 15.297C57.304 15.297 57.3105 15.297 57.3171 15.297C57.633 15.297 57.8568 15.1456 57.9885 14.8429C58.1201 14.527 58.1826 14.1024 58.176 13.5693V8.781C58.176 7.7674 57.8864 7.26059 57.3072 7.26059C57.2875 7.26059 57.2677 7.26059 57.248 7.26059C56.9518 7.26718 56.6161 7.40539 56.241 7.67525V14.9712C56.5832 15.1818 56.9354 15.2904 57.2974 15.297ZM58.5808 17.3703C57.7976 17.3703 57.0176 17.0149 56.241 16.304V17.1729H53.1903V0.803805H56.241V6.3523C56.9979 5.64804 57.7943 5.29591 58.6302 5.29591C58.6499 5.29591 58.673 5.29591 58.6993 5.29591C59.1666 5.3025 59.5714 5.42097 59.9137 5.65133C60.2625 5.87512 60.5258 6.1713 60.7035 6.53988C60.8878 6.90847 61.0227 7.2935 61.1083 7.695C61.1938 8.09649 61.2366 8.52102 61.2366 8.96858V13.4409C61.2366 14.6125 61.0128 15.5603 60.5653 16.2843C60.1243 17.0083 59.4628 17.3703 58.5808 17.3703ZM63.2901 17.1729V0.803805H66.3507V17.1729H63.2901ZM68.5326 3.56818V1.24808H71.603V3.56818H68.5326ZM68.5424 17.1729V5.4835H71.5931V17.1729H68.5424ZM77.3884 17.3703C76.0918 17.3703 75.1177 17.0116 74.4661 16.2942C73.8211 15.5768 73.4986 14.5599 73.4986 13.2435V9.40298C73.4986 8.08662 73.8211 7.07301 74.4661 6.36217C75.1111 5.65133 76.0852 5.29591 77.3884 5.29591C79.9027 5.29591 81.1598 6.48065 81.1598 8.85011V9.95586H78.2474V8.781C78.2474 8.2742 78.1816 7.92207 78.0499 7.72461C77.9183 7.52058 77.7044 7.41856 77.4082 7.41856C77.0923 7.41856 76.8718 7.53703 76.7467 7.77398C76.6217 8.01092 76.5591 8.43874 76.5591 9.05744V13.6384C76.5591 14.2505 76.625 14.6685 76.7566 14.8922C76.8948 15.116 77.1153 15.2279 77.4181 15.2279C77.7208 15.2279 77.9347 15.1226 78.0598 14.912C78.1849 14.7014 78.2474 14.3657 78.2474 13.905V12.503H81.1598V13.7766C81.1598 14.9548 80.8406 15.8499 80.2022 16.462C79.5637 17.0675 78.6258 17.3703 77.3884 17.3703Z" fill="#707070"/>
</svg>
