<svg width="114" height="80" viewBox="0 0 114 80" fill="none" xmlns="http://www.w3.org/2000/svg">
<path d="M18.9432 32.4023L16.7347 36.2957C16.7347 36.2957 15.3117 36.216 13.8545 36.216C13.8545 36.216 13.752 40.7697 13.752 46.2682C13.752 51.7439 13.8545 57.9597 13.8545 57.9597H8.70886C8.70886 57.9597 8.81132 51.7439 8.81132 46.2682C8.81132 40.7924 8.70886 36.216 8.70886 36.216C6.42065 36.216 3.87061 36.3185 3.87061 36.3185L5.70345 32.3682H18.9432V32.4023Z" fill="#707070"/>
<path d="M31.4429 32.1968C31.4429 32.1968 32.8887 41.1106 34.3003 48.5672C35.1655 53.1777 36.1332 57.7883 36.1332 57.7883L30.9079 58.1412C30.9079 58.1412 30.2476 53.6331 29.7353 50.7301H25.7167C25.2386 53.6559 24.7946 57.7883 24.7946 57.7883L20.6963 58.1412C20.6963 58.1412 21.6412 53.7128 22.5519 48.5672C23.8269 41.2813 25.2499 32.3675 25.2499 32.3675L31.4429 32.1968ZM27.6292 38.3101L26.229 47.0986H29.1775L27.6292 38.3101Z" fill="#707070"/>
<path d="M44.2841 32.1968L45.5592 41.5659C46.1398 45.687 46.709 49.6828 46.709 49.6828C46.709 49.6828 47.3237 45.7097 47.9612 41.5659C48.6215 37.0578 49.2818 32.4017 49.2818 32.4017L53.4028 32.2195C53.4028 32.2195 52.31 37.6725 51.2398 43.4784C49.9876 50.3545 48.724 57.8111 48.724 57.8111L43.0205 58.164C43.0205 58.164 41.9504 50.4228 40.9031 43.4671C40.0379 37.6156 39.1499 32.3903 39.1499 32.3903L44.2841 32.1968Z" fill="#707070"/>
<path d="M69.3064 32.4023L66.9385 36.3185C66.9385 36.3185 65.2878 36.2388 63.3981 36.2388V43.0123C66.0961 43.0123 68.7714 42.9326 68.7714 42.9326L66.7678 46.7349C66.7678 46.7349 65.2423 46.6552 63.4095 46.6552V54.146C66.4946 54.146 69.5455 54.0663 69.5455 54.0663L67.5077 57.9825H58.4688C58.4688 57.9825 58.5712 51.5163 58.5712 45.1753C58.5712 38.7091 58.4688 32.3682 58.4688 32.3682H69.3178V32.4023H69.3064Z" fill="#707070"/>
<path d="M80.9752 32.1968C83.0585 32.1968 84.6978 32.5269 85.7566 33.21C86.9519 33.9727 88.2042 35.7031 88.2042 37.9685C88.2042 41.1789 86.2916 43.3646 84.584 44.355C84.584 44.355 85.4492 47.3832 86.7698 51.0717C87.8399 53.9974 89.3198 57.7655 89.3198 57.7655L83.7643 58.1184L80.1442 47.3491V52.1873C80.1442 54.965 80.2239 57.9704 80.2239 57.9704H75.0327C75.0327 57.9704 75.1352 51.8344 75.1352 45.0608C75.1352 38.9476 75.0327 32.3789 75.0327 32.3789C75.0327 32.3789 77.6397 32.1968 80.9752 32.1968ZM80.1556 44.3664C80.1556 44.3664 80.8159 44.2184 81.681 43.9566C82.1136 43.8541 83.2634 42.249 83.2634 40.0404C83.2634 36.7049 81.738 36.2495 80.6451 36.2495C80.4629 36.2495 80.3605 36.2495 80.167 36.2723L80.1556 44.3664Z" fill="#707070"/>
<path d="M109.743 32.4018C109.743 32.4018 109.641 39.0273 109.641 44.8218C109.641 51.6409 109.743 57.8111 109.743 57.8111L104.119 58.164C104.119 58.164 102.469 53.1209 100.909 48.3395C99.4859 43.9908 98.0857 39.8128 98.0857 39.8128C98.0857 48.7038 98.3134 57.9933 98.3134 57.9933H94.5908C94.5908 57.9933 94.7729 44.6283 94.7729 33.1417L94.5225 32.4018H100.659C100.659 32.4018 101.979 36.5228 103.357 40.7236C104.78 45.0723 106.305 49.4552 106.305 49.4552C106.305 40.2113 106.077 32.3904 106.077 32.3904L109.743 32.4018Z" fill="#707070"/>
<path d="M33.5374 16.0315C34.0497 16.9195 34.1977 17.8189 34.0156 18.7296C33.8107 19.6517 33.3553 20.3347 32.5698 20.7901C31.7843 21.2455 30.9874 21.3707 30.1222 21.143C29.257 20.8926 28.574 20.3234 28.0617 19.4354C27.5494 18.5474 27.3786 17.6253 27.5494 16.6804C27.7315 15.7356 28.2097 15.0525 28.9724 14.563C29.7351 14.1076 30.5776 14.0052 31.4428 14.2556C32.308 14.5516 33.0024 15.1322 33.5374 16.0315ZM32.8999 17.3521C32.4218 16.5097 31.7274 15.9519 30.8622 15.7469C29.9742 15.5193 29.0521 15.6673 28.1072 16.2592C28.1869 16.9423 28.3918 17.5342 28.6878 18.0693C29.1659 18.9117 29.8604 19.4695 30.7256 19.6972C31.6135 19.9249 32.5356 19.7769 33.4805 19.1849C33.4122 18.5019 33.2073 17.8872 32.8999 17.3521Z" fill="#707070"/>
<path d="M40.7661 16.6913L36.5881 18.4217L36.9752 17.2719L35.0854 12.5133L34.0381 11.9555L36.7361 10.8398L36.3491 11.9896L38.3868 17.1125L40.2424 15.4049L40.7661 16.6913Z" fill="#707070"/>
<path d="M46.9819 11.523C47.1869 12.4109 47.1072 13.2078 46.7315 13.9364C46.2989 14.7561 45.5817 15.2911 44.5685 15.5416L42.0754 16.1791L42.6104 15.109L41.4151 10.1455L40.4702 9.46245L42.8837 8.84771C43.8741 8.59726 44.7962 8.76802 45.5817 9.32584C46.2647 9.8609 46.7543 10.6009 46.9819 11.523ZM45.8549 12.4906C45.6728 11.7507 45.3199 11.1359 44.7848 10.6806C44.2042 10.2024 43.5098 9.94059 42.7243 9.96335L43.7375 14.1641L45.798 14.517C46.0143 13.8112 46.0143 13.1509 45.8549 12.4906Z" fill="#707070"/>
<path d="M57.5464 8.49492L55.5087 7.62973L55.6566 13.1283L56.4422 14.0162L53.5164 14.0959L54.2564 13.151L54.1084 7.65249L52.1276 8.62014L52.082 7.17436L57.5009 7.02637L57.5464 8.49492Z" fill="#707070"/>
<path d="M66.1303 11.4211C66.0051 12.4343 65.5725 13.2539 64.878 13.8345C64.1608 14.4151 63.3753 14.677 62.4874 14.5517C61.5994 14.4265 60.8822 14.0167 60.3471 13.2995C59.8121 12.5595 59.6072 11.6716 59.7324 10.6811C59.8576 9.66795 60.2902 8.82552 61.0074 8.21078C61.7246 7.59604 62.5101 7.34559 63.3981 7.47081C64.2861 7.59604 65.0033 8.02863 65.5383 8.7686C66.0734 9.50857 66.2555 10.3965 66.1303 11.4211ZM64.8325 12.0814C64.9577 11.1137 64.7528 10.2713 64.195 9.53134C63.6144 8.79137 62.7947 8.33601 61.7019 8.17663C61.3489 8.75722 61.144 9.34919 61.0643 9.96394C60.9391 10.9316 61.144 11.7968 61.7019 12.514C62.2824 13.2539 63.1021 13.7093 64.195 13.8687C64.5251 13.2767 64.7528 12.662 64.8325 12.0814Z" fill="#707070"/>
<path d="M78.3683 11.6484L73.143 17.3974L72.6876 13.0714L69.8074 16.259L69.1244 9.83832L68.7715 9.17804L70.4791 8.54053L71.0142 13.7317L72.5966 12.0013L72.4941 10.9881L72.1412 10.3278L73.826 9.71309L74.3611 14.9043L76.9111 12.1038L76.4785 10.9881L78.3683 11.6484Z" fill="#707070"/>
<path d="M85.8363 15.9517L84.7434 16.3615L82.4552 20.4598L82.6601 21.2226L81.0777 21.473L80.6679 15.3597L78.7326 18.7977L78.9603 19.9931L76.9453 18.8205L78.0382 18.4107L80.5541 13.9253L80.5085 12.8552L81.9543 13.6977L82.2845 19.014L84.0149 15.9631L83.7872 14.7678L85.8363 15.9517Z" fill="#707070"/>
<path d="M24.624 69.094H25.4095V71.792H26.6618V72.4751H24.624V69.094Z" fill="#707070"/>
<path d="M27.7773 70.8017C27.7773 69.8341 28.4376 69.0144 29.5874 69.0144C30.7372 69.0144 31.3975 69.8568 31.3975 70.8017C31.3975 71.7694 30.7372 72.589 29.5874 72.589C28.4376 72.5776 27.7773 71.7694 27.7773 70.8017ZM30.5778 70.8017C30.5778 70.2211 30.2249 69.7088 29.5874 69.7088C28.9271 69.7088 28.597 70.2211 28.597 70.8017C28.597 71.3823 28.9499 71.8946 29.5874 71.8946C30.2249 71.8946 30.5778 71.3823 30.5778 70.8017Z" fill="#707070"/>
<path d="M32.8208 69.094H33.6405L34.813 71.2797V69.094H35.5758V72.4751H34.7561L33.5835 70.2893V72.4751H32.8436V69.094H32.8208Z" fill="#707070"/>
<path d="M37.1807 69.094H38.4557C39.5486 69.094 40.1861 69.8795 40.1861 70.8016C40.1861 71.7237 39.5486 72.5092 38.4557 72.5092H37.1807V69.094ZM38.376 71.8376C39.0363 71.8376 39.3664 71.3253 39.3664 70.7902C39.3664 70.2552 39.0363 69.7429 38.376 69.7429H37.9434V71.8034H38.376V71.8376Z" fill="#707070"/>
<path d="M41.4268 70.8017C41.4268 69.8341 42.087 69.0144 43.2368 69.0144C44.3866 69.0144 45.0469 69.8568 45.0469 70.8017C45.0469 71.7694 44.3866 72.589 43.2368 72.589C42.087 72.5776 41.4268 71.7694 41.4268 70.8017ZM44.2273 70.8017C44.2273 70.2211 43.8743 69.7088 43.2368 69.7088C42.5766 69.7088 42.2464 70.2211 42.2464 70.8017C42.2464 71.3823 42.5993 71.8946 43.2368 71.8946C43.8743 71.8946 44.2273 71.3823 44.2273 70.8017Z" fill="#707070"/>
<path d="M46.4702 69.094H47.2899L48.4624 71.2797V69.094H49.2024V72.4751H48.3827L47.2102 70.2893V72.4751H46.4702V69.094Z" fill="#707070"/>
<path d="M54.0519 69.1958H56.1238V69.8561H54.826V70.7782H56.1238V71.4157H54.826V72.5769H54.0405V69.1958H54.0519Z" fill="#707070"/>
<path d="M59.6872 71.5068L60.2678 72.5769H59.3798L58.8448 71.632H58.4349V72.5769H57.6494V69.1958H59.0952C59.8124 69.1958 60.3133 69.7081 60.3133 70.4139C60.3247 70.9262 60.0628 71.3019 59.6872 71.5068ZM58.4349 71.0059H58.97C59.2773 71.0059 59.505 70.7554 59.505 70.4253C59.505 70.0951 59.2773 69.8447 58.97 69.8447H58.4349V71.0059Z" fill="#707070"/>
<path d="M61.7705 69.1958H63.831V69.8333H62.5332V70.596H63.831V71.2108H62.5332V71.9508H63.831V72.5883H61.7705V69.1958Z" fill="#707070"/>
<path d="M65.436 69.1958H67.4966V69.8333H66.1988V70.596H67.4966V71.2108H66.1988V71.9508H67.4966V72.5883H65.436V69.1958Z" fill="#707070"/>
<path d="M69.1016 69.1958H69.8871V70.5733H71.0596V69.1958H71.8451V72.5769H71.0596V71.2222H69.8985V72.5769H69.1016V69.1958Z" fill="#707070"/>
<path d="M73.2798 70.9025C73.2798 69.9349 73.9401 69.1152 75.0899 69.1152C76.2397 69.1152 76.8999 69.9577 76.8999 70.9025C76.8999 71.8702 76.2397 72.6899 75.0899 72.6899C73.9401 72.6899 73.2798 71.8702 73.2798 70.9025ZM76.0803 70.9025C76.0803 70.322 75.7274 69.8097 75.0899 69.8097C74.4296 69.8097 74.0994 70.322 74.0994 70.9025C74.0994 71.4831 74.4523 71.9954 75.0899 71.9954C75.7274 71.9954 76.0803 71.4831 76.0803 70.9025Z" fill="#707070"/>
<path d="M78.2432 71.4385V69.1958H79.0287V71.3816C79.0287 71.7686 79.2564 71.9963 79.6093 71.9963C79.9622 71.9963 80.1899 71.7686 80.1899 71.3816V69.1958H80.9754V71.4385C80.9754 72.224 80.4403 72.6907 79.5979 72.6907C78.7555 72.6907 78.2432 72.224 78.2432 71.4385Z" fill="#707070"/>
<path d="M82.3188 71.484H83.1044C83.1044 71.8369 83.3093 72.0646 83.6622 72.0646C83.9468 72.0646 84.1175 71.9394 84.1175 71.6775C84.1175 71.4726 84.0151 71.3702 83.7077 71.245L83.093 71.0173C82.6376 70.8351 82.4099 70.5391 82.4099 70.0952C82.4099 69.5146 82.8653 69.1047 83.6053 69.1047C84.3452 69.1047 84.8575 69.5373 84.8575 70.1748H84.072C84.072 69.8675 83.924 69.6967 83.6166 69.6967C83.3662 69.6967 83.2068 69.8219 83.2068 70.0268C83.2068 70.209 83.332 70.3342 83.6622 70.4595L84.22 70.6871C84.6754 70.8693 84.903 71.1994 84.903 71.632C84.903 72.2695 84.4249 72.6794 83.6508 72.6794C82.8084 72.6794 82.3188 72.2468 82.3188 71.484Z" fill="#707070"/>
<path d="M86.3145 69.1958H88.375V69.8333H87.0772V70.596H88.375V71.2108H87.0772V71.9508H88.375V72.5883H86.3145V69.1958Z" fill="#707070"/>
</svg>
