<svg width="111" height="80" viewBox="0 0 111 80" fill="none" xmlns="http://www.w3.org/2000/svg">
<g clip-path="url(#clip0_5918_58920)">
<path opacity="0.17" d="M52.4183 74.5156C72.7587 74.5156 89.2478 58.0265 89.2478 37.6861C89.2478 17.3458 72.7587 0.856689 52.4183 0.856689C32.078 0.856689 15.5889 17.3458 15.5889 37.6861C15.5889 58.0265 32.078 74.5156 52.4183 74.5156Z" fill="#A6A6A6"/>
<g opacity="0.17">
<path d="M69.2007 63.8208C77.2883 59.872 83.8888 53.4229 88.0242 45.4289C91.4009 38.9395 93.0969 31.4954 92.4165 24.2138C91.736 16.9322 88.5573 9.80801 83.2307 4.78097C81.9378 3.45625 80.3807 2.41823 78.6606 1.73427C77.7992 1.40267 76.8773 1.25746 75.9556 1.30822C75.0339 1.35899 74.1335 1.60458 73.3137 2.02879L72.2321 2.6889C69.6932 4.25795 67.6316 5.45124 64.458 6.36525C60.8273 7.41128 57.0291 7.70579 53.2868 8.2999L52.1595 8.48778L52.3728 8.5284L51.997 8.58934L52.1595 8.48778C46.1067 9.56428 40.1606 11.5192 34.9863 14.7894L34.9355 14.8198C34.6562 14.9925 34.382 15.1702 34.1078 15.353L33.3055 15.9116L33.1887 15.9979L32.3966 16.5971L32.3509 16.6326C27.5016 20.3902 23.6577 25.5442 22.1089 31.4599C20.3825 38.061 21.6011 45.2309 24.9373 51.1618C29.7714 59.7941 38.9521 65.5016 48.7523 67.0046L48.9858 67.1163C51.8757 67.5393 54.8086 67.582 57.7095 67.2433C61.6704 66.7559 65.5237 65.6184 69.1143 63.8767C69.1172 63.848 69.1172 63.8191 69.1143 63.7904H69.1499M86.3231 25.4376V25.534Z" fill="#A6A6A6"/>
</g>
<path opacity="0.6" d="M70.2111 53.8836C75.2128 52.3603 77.645 50.4967 81.9409 47.4297C84.0431 45.9064 83.3677 43.662 84.8606 41.5445C85.0688 41.2449 84.9114 39.4575 85.1044 39.1478L65.377 32.0896L62.3303 43.2608V56.2042C64.9962 55.4324 67.6011 54.6808 70.2111 53.8836Z" fill="#6E6E76"/>
<path opacity="0.8" d="M68.7589 33.5977V19.8875C68.7589 19.8875 68.6218 18.7095 70.0538 18.7095C70.4545 18.7123 70.8421 18.8532 71.1511 19.1085C71.46 19.3638 71.6715 19.7179 71.7497 20.111L72.1306 35.0398" fill="#6E6E76"/>
<path d="M84.9368 40.4934C85.277 39.879 84.8149 40.204 84.8555 40.143C85.0654 39.8417 85.2685 39.5371 85.4649 39.229L65.3821 32.0896L69.16 35.0347L84.9368 40.4934Z" fill="#6E6E76"/>
<path opacity="0.8" d="M62.3557 43.2454L65.4024 32.0742L69.1803 35.0143V58.6465H62.3557V43.2454Z" fill="#6E6E76"/>
<path d="M59.2734 30.0286L61.6143 30.7801L60.2433 32.8925L63.7977 52.8331L48.4932 62.024L34.2042 52.2085L35.4635 39.0062L34.2042 38.6101L36.3775 36.1525L33.1785 33.9284L37.8044 27.312V22.8587L35.4889 22.2291L42.5978 8.58496L58.7555 15.4349L56.963 17.8621L57.3895 23.9555L61.3401 25.357" fill="#ABABAB"/>
<path d="M43.324 12.5355V58.4746L34.1839 52.2035L35.4432 39.0011L34.1839 38.6051L36.3572 35.6091L33.1582 33.9233L37.8044 27.312V22.8587L35.4889 22.2291L42.5979 8.58496L43.324 12.5355Z" fill="#969696"/>
<path d="M33.1785 33.9334L36.3775 36.1626L43.329 24.9203V18.9539L37.8044 27.3069L33.1785 33.9334Z" fill="#8A8A8A"/>
<path d="M37.8045 22.8598L43.3241 12.1964L42.598 8.60132L35.489 22.2454L37.8045 22.8751" fill="#8A8A8A"/>
<path d="M43.3292 27.7083L35.4636 39.56L34.2043 38.6155L43.3444 24.7886L43.3292 27.7083Z" fill="#737373"/>
<path d="M39.3734 56.5002L35.3416 31.6697H35.9509C35.9509 31.6697 36.3978 24.0022 33.1124 24.0022C32.823 23.996 32.5359 24.0548 32.2723 24.1743C32.0086 24.2938 31.7752 24.471 31.5891 24.6927L26.2574 25.7895C26.2574 25.7895 24.0282 26.6832 24.5512 31.4259L27.3135 32.0353L25.5668 41.7085L23.5356 52.9559L30.7055 56.0026L39.3734 56.5002Z" fill="#6E6E76"/>
<path d="M36.8345 27.0423L42.024 14.693L35.8189 25.9607L23.5356 13.5505L34.9963 27.2607L27.1003 43.271L35.9662 28.4692L49.9606 41.9863L36.8345 27.0423Z" fill="#707070"/>
<path d="M69.2261 41.7578H66.0575V39.5744L64.0771 37.594L63.4424 15.9473H60.609L59.9743 37.594L57.9939 39.5744V41.7578H54.8406V58.2912L62.0409 57.2757L69.2362 58.2912L69.2261 41.7578Z" fill="#6E6E76"/>
<path opacity="0.6" d="M43.324 12.175L56.9631 17.8571L58.7606 15.4349L42.5979 8.58496L43.324 12.175Z" fill="#8A8A8A"/>
<path opacity="0.6" d="M43.324 24.7886L61.6041 30.7804L60.2331 32.8928L43.324 27.7032" fill="#696969"/>
<path opacity="0.6" d="M61.3401 25.3468L43.3291 18.9539V24.7883L59.2735 30.0286L61.3401 25.3468Z" fill="#8A8A8A"/>
<path d="M54.9875 24.6281C56.2465 23.0316 55.4696 20.3198 53.2521 18.571C51.0346 16.8223 48.2164 16.6989 46.9574 18.2953C45.6984 19.8918 46.4753 22.6037 48.6928 24.3524C50.9103 26.1011 53.7285 26.2245 54.9875 24.6281Z" fill="white"/>
<path d="M57.6891 18.2077L54.0737 16.6843L58.07 20.3099" fill="white"/>
<path d="M63.5286 18.9539H61.6143L64.0059 20.985" fill="white"/>
<path d="M33.671 42.7993C33.8379 42.7642 33.9946 42.6915 34.1292 42.5868C34.2639 42.4821 34.3728 42.3481 34.4479 42.195C34.783 41.54 34.5393 40.7732 33.5847 40.2807L31.4266 39.1635C31.4043 39.1527 31.3786 39.1508 31.355 39.1584C31.3313 39.166 31.3115 39.1824 31.2997 39.2042L29.2025 43.2664C29.1925 43.2897 29.1911 43.3157 29.1986 43.3399C29.206 43.3641 29.2218 43.3848 29.2431 43.3984L31.4266 44.5257C32.4422 45.0335 33.2648 44.8964 33.6812 44.089C33.7922 43.8987 33.8508 43.6823 33.8508 43.4619C33.8508 43.2415 33.7922 43.0251 33.6812 42.8348L33.671 42.7993ZM32.7418 43.5102C32.5691 43.8504 32.2695 43.9062 31.7262 43.632L30.5177 43.0074L31.0508 41.9919L32.2391 42.6063C32.7722 42.8907 32.9043 43.2207 32.7418 43.5102ZM33.4476 41.7583C33.3308 41.9817 33.082 42.1036 32.6605 41.8852L31.4418 41.2505L31.8836 40.3924L33.0363 40.9916C33.4831 41.2454 33.5745 41.54 33.4476 41.7786V41.7583Z" fill="white"/>
<path d="M36.1033 43.4699L36.4486 42.5711L38.9875 43.5562C39.0151 43.5618 39.0438 43.5585 39.0694 43.5466C39.095 43.5347 39.1161 43.5149 39.1297 43.4902L39.3785 42.8605C39.3837 42.8322 39.3802 42.8029 39.3684 42.7766C39.3566 42.7503 39.3371 42.7282 39.3125 42.7133L35.8595 41.3778C35.8359 41.3707 35.8105 41.3725 35.7881 41.3828C35.7657 41.393 35.7477 41.4111 35.7377 41.4337L34.0975 45.6838C34.0905 45.7074 34.0922 45.7328 34.1025 45.7553C34.1128 45.7777 34.1309 45.7956 34.1534 45.8057L37.6672 47.1614C37.6948 47.1663 37.7233 47.1626 37.7487 47.1508C37.7741 47.139 37.7953 47.1197 37.8094 47.0954L38.0532 46.4607C38.0578 46.4337 38.0545 46.4058 38.0437 46.3806C38.0329 46.3554 38.015 46.3338 37.9922 46.3185L35.3924 45.303L35.7783 44.2874L38.1141 45.1862C38.1412 45.1931 38.1698 45.1909 38.1955 45.1799C38.2212 45.1688 38.2426 45.1496 38.2563 45.1252L38.5 44.5261C38.5056 44.4984 38.5023 44.4697 38.4904 44.4441C38.4785 44.4185 38.4587 44.3974 38.434 44.3839L36.1033 43.4699Z" fill="white"/>
<path d="M39.4952 44.3585C39.7085 43.5664 40.5971 43.018 41.9478 43.3785C43.6174 43.8822 43.5812 44.8612 43.3544 45.2877L42.5318 45.044C42.5572 44.7647 42.3439 44.4398 41.6939 44.257C41.044 44.0741 40.6225 44.2468 40.5362 44.5819C40.4803 44.7901 40.5768 44.9831 40.9881 45.1253L42.1459 45.5416C43.2071 45.9072 43.4813 46.5572 43.3544 47.197C43.1614 47.9181 42.3287 48.5528 40.8459 48.1567C39.4495 47.786 38.8554 46.9127 39.0535 46.1561V46.0951C39.063 46.0588 39.0865 46.0278 39.1189 46.0088C39.1512 45.9898 39.1898 45.9843 39.2261 45.9936L39.9726 46.1916C39.9909 46.1928 40.0087 46.1978 40.025 46.2063C40.0413 46.2148 40.0556 46.2265 40.0671 46.2409C40.0786 46.2552 40.0869 46.2718 40.0916 46.2895C40.0963 46.3073 40.0973 46.3258 40.0944 46.3439C40.064 46.7705 40.3382 47.0904 41.0541 47.2783C41.7701 47.4661 42.1916 47.2884 42.2779 46.9584C42.3236 46.7451 42.217 46.5115 41.7701 46.349L40.6022 45.9326C39.6882 45.6076 39.3074 45.0491 39.4952 44.3585Z" fill="white"/>
<path d="M48.6963 44.7958L44.2582 44.0798C44.2303 44.0803 44.2031 44.0893 44.1805 44.1057C44.1578 44.122 44.1406 44.1449 44.1313 44.1712L44.0247 44.8415C44.0251 44.8695 44.0341 44.8966 44.0505 44.9193C44.0668 44.942 44.0897 44.9591 44.1161 44.9685L45.8019 45.2427L45.1926 48.9444C45.1908 48.969 45.1981 48.9934 45.2131 49.013C45.228 49.0326 45.2496 49.0461 45.2738 49.051L46.1472 49.1932C46.1718 49.1949 46.1962 49.1876 46.2158 49.1727C46.2354 49.1577 46.2489 49.1361 46.2538 49.112L46.853 45.4153L48.5388 45.6844C48.5672 45.6856 48.5951 45.6772 48.6181 45.6606C48.6411 45.644 48.6579 45.6202 48.6658 45.593L48.7775 44.9228C48.7778 44.896 48.7703 44.8697 48.7559 44.8471C48.7414 44.8246 48.7207 44.8067 48.6963 44.7958V44.7958Z" fill="white"/>
<path d="M53.3172 44.9327H53.1445C52.6274 44.9637 52.1311 45.1473 51.7183 45.4603C51.3055 45.7733 50.9947 46.2016 50.8253 46.6912C50.6558 47.1807 50.6353 47.7095 50.7663 48.2107C50.8973 48.7119 51.1739 49.163 51.5612 49.5071C51.9485 49.8511 52.4291 50.0726 52.9423 50.1436C53.4555 50.2146 53.9782 50.1319 54.4443 49.9059C54.9105 49.6799 55.2992 49.3208 55.5613 48.874C55.8234 48.4271 55.9472 47.9126 55.917 47.3954V47.2583C55.8803 46.6053 55.5859 45.9935 55.0984 45.5575C54.6109 45.1214 53.9702 44.8967 53.3172 44.9327V44.9327ZM53.3172 48.9188C52.9132 48.9188 52.5257 48.7583 52.24 48.4726C51.9543 48.1869 51.7938 47.7995 51.7938 47.3954V47.2837C51.8121 46.8922 51.9806 46.5227 52.2644 46.2522C52.5481 45.9818 52.9252 45.831 53.3172 45.8315C53.7266 45.8315 54.1192 45.9941 54.4087 46.2836C54.6982 46.5731 54.8608 46.9657 54.8608 47.3751C54.8608 47.7845 54.6982 48.1772 54.4087 48.4667C54.1192 48.7562 53.7266 48.9188 53.3172 48.9188V48.9188Z" fill="white"/>
<path d="M60.4668 45.3284L60.3957 44.6531C60.3878 44.6259 60.372 44.6018 60.3503 44.5837C60.3286 44.5656 60.302 44.5544 60.2739 44.5515L56.7194 44.9324C56.6956 44.9361 56.6741 44.9486 56.6591 44.9674C56.6441 44.9862 56.6366 45.0099 56.6381 45.0339L57.1459 49.5684C57.1508 49.5926 57.1643 49.6142 57.1839 49.6291C57.2036 49.6441 57.2279 49.6514 57.2526 49.6496L58.131 49.5582C58.1557 49.5535 58.1778 49.5402 58.1936 49.5207C58.2094 49.5011 58.2178 49.4767 58.2173 49.4516L58.0396 47.8013L60.3348 47.5525C60.3623 47.5452 60.3868 47.5296 60.405 47.5078C60.4232 47.4859 60.4341 47.459 60.4364 47.4306L60.3602 46.7553C60.3527 46.7284 60.3369 46.7045 60.315 46.6872C60.2931 46.6699 60.2662 46.6599 60.2383 46.6588L57.9431 46.9025L57.8162 45.7245L60.3551 45.4503C60.3841 45.4442 60.4105 45.4291 60.4305 45.4073C60.4505 45.3854 60.4632 45.3578 60.4668 45.3284V45.3284Z" fill="white"/>
<path d="M54.8405 74.5972C19.8543 74.5972 0.812452 54.1336 0 53.2703L15.8327 38.6614L15.7717 38.5904C15.8022 38.6259 19.2957 42.2362 25.8715 45.7653C34.5444 50.4217 44.2837 52.7829 54.8151 52.7829C64.8895 52.7829 74.3139 49.5889 82.8295 43.2873C86.7403 40.4408 90.2161 37.0402 93.1476 33.1926L93.112 33.2485L110.915 45.3845C110.113 46.5575 90.7762 74.5972 54.8405 74.5972Z" fill="white"/>
<path d="M18.6 57.2764L22.9568 59.8153C23.0096 59.858 23.0475 59.9166 23.0648 59.9823C23.0822 60.048 23.0781 60.1176 23.0533 60.1809L21.86 62.212C21.8172 62.2648 21.7587 62.3027 21.693 62.32C21.6272 62.3374 21.5577 62.3333 21.4944 62.3085L14.3854 58.1599C14.3359 58.1275 14.3002 58.0779 14.2852 58.0207C14.2701 57.9634 14.2769 57.9027 14.3042 57.8501L19.8035 48.3546C19.8374 48.3055 19.8876 48.2699 19.9452 48.2542C20.0028 48.2384 20.064 48.2434 20.1183 48.2683L22.6928 49.7663C22.7418 49.8003 22.777 49.8508 22.7919 49.9086C22.8068 49.9664 22.8005 50.0276 22.774 50.0811L18.6 57.2764Z" fill="#6E6E76"/>
<path d="M37.2051 62.2215C35.956 65.71 32.4269 66.7915 29.1517 65.6287C25.8765 64.4659 23.8403 61.3786 25.0895 57.8901C26.3386 54.4016 29.8728 53.3201 33.1429 54.4778C36.413 55.6355 38.4543 58.7432 37.2051 62.2215ZM28.324 59.0478C28.1282 59.6061 28.102 60.2099 28.2488 60.783C28.3956 61.3561 28.7088 61.873 29.1489 62.2684C29.589 62.6637 30.1363 62.92 30.7218 63.0047C31.3074 63.0895 31.9049 62.999 32.4391 62.7446C32.9732 62.4902 33.4201 62.0834 33.7234 61.5754C34.0266 61.0674 34.1727 60.481 34.1432 59.8901C34.1136 59.2992 33.9098 58.7303 33.5574 58.2551C33.205 57.7799 32.7197 57.4197 32.1629 57.2198C31.4437 56.9391 30.6425 56.9553 29.9351 57.2647C29.2278 57.5741 28.6721 58.1515 28.39 58.8701C28.3647 58.926 28.3443 58.9869 28.324 59.0478Z" fill="#6E6E76"/>
<path d="M43.6285 64.0811C43.1614 63.482 42.6536 62.6441 42.6536 62.6441H42.5825L41.8157 68.5344C41.8047 68.5936 41.7721 68.6465 41.7242 68.6831C41.6764 68.7196 41.6168 68.7372 41.5568 68.7324L38.5913 68.3414C38.5327 68.3293 38.4804 68.2965 38.444 68.2489C38.4076 68.2013 38.3896 68.1422 38.3933 68.0825L39.81 57.1753C39.822 57.1176 39.8541 57.0659 39.9006 57.0297C39.9471 56.9934 40.005 56.9748 40.0639 56.9773L42.6028 57.3124L46.8276 62.8675C47.1474 63.286 47.4441 63.7216 47.7162 64.1725H47.772L48.5337 58.3026C48.5468 58.2444 48.5799 58.1927 48.6272 58.1565C48.6746 58.1203 48.7331 58.1019 48.7927 58.1045L51.7429 58.4905C51.8016 58.5004 51.8545 58.532 51.8912 58.579C51.9278 58.626 51.9456 58.6849 51.9409 58.7443L50.5648 69.6617C50.5538 69.7199 50.522 69.7721 50.4752 69.8086C50.4285 69.845 50.3701 69.8632 50.3109 69.8597L47.772 69.5296L43.6285 64.0811Z" fill="#6E6E76"/>
<path d="M54.5256 69.9392C54.4666 69.9413 54.4088 69.9218 54.363 69.8845C54.3173 69.8471 54.2866 69.7944 54.2768 69.7361L53.2613 58.7883C53.2605 58.7288 53.281 58.671 53.3192 58.6253C53.3574 58.5797 53.4107 58.5492 53.4694 58.5395L58.4102 58.0724C62.1525 57.7169 65.0113 59.6871 65.3515 63.1502C65.6918 66.6133 63.6505 69.0659 59.5273 69.4569L54.5256 69.9392ZM56.9122 61.1241L57.42 66.7504L59.1871 66.5828C61.1827 66.3949 62.051 65.2219 61.8834 63.4904C61.7158 61.7589 60.4058 60.7941 58.6336 60.9515L56.9122 61.1241Z" fill="#6E6E76"/>
<path d="M78.9855 58.7437C80.1737 62.2525 78.0765 65.2992 74.7861 66.4113C71.4957 67.5233 67.9818 66.3757 66.7936 62.8568C65.6054 59.3379 67.6975 56.3013 70.993 55.1893C74.2885 54.0772 77.7973 55.2451 78.9855 58.7437ZM70.0739 61.7904C70.2673 62.3495 70.6219 62.8387 71.093 63.1965C71.5641 63.5543 72.1305 63.7646 72.7209 63.801C73.3113 63.8373 73.8993 63.6981 74.4107 63.4008C74.9221 63.1035 75.3341 62.6615 75.5947 62.1305C75.8552 61.5994 75.9528 61.0031 75.875 60.4167C75.7972 59.8303 75.5475 59.2801 75.1575 58.8353C74.7675 58.3906 74.2545 58.0713 73.6833 57.9176C73.1121 57.764 72.5081 57.7829 71.9476 57.9719C71.5815 58.0839 71.241 58.2669 70.9456 58.5104C70.6502 58.754 70.4057 59.0534 70.226 59.3915C70.0464 59.7296 69.9351 60.0998 69.8985 60.4809C69.862 60.862 69.9008 61.2466 70.013 61.6127L70.0739 61.7904Z" fill="#6E6E76"/>
<path d="M85.1651 56.2046C84.4339 56.0269 83.5148 55.6969 83.5148 55.6969L83.4488 55.7375L86.4955 60.8153C86.5215 60.8684 86.5281 60.929 86.5142 60.9864C86.5003 61.0439 86.4667 61.0947 86.4194 61.1301L83.8804 62.6535C83.8269 62.6799 83.7657 62.6863 83.7079 62.6714C83.6501 62.6565 83.5996 62.6213 83.5656 62.5722L77.8937 53.1579C77.8677 53.1048 77.8611 53.0443 77.875 52.9868C77.8889 52.9293 77.9225 52.8785 77.9699 52.8431L80.1787 51.5127L86.9424 53.229C87.4578 53.3607 87.9662 53.5183 88.4657 53.7013L88.5165 53.6708L85.4698 48.593C85.4438 48.5399 85.4373 48.4793 85.4512 48.4218C85.4651 48.3644 85.4986 48.3136 85.546 48.2782L88.0849 46.7548C88.1384 46.7283 88.1996 46.722 88.2574 46.7369C88.3152 46.7518 88.3657 46.787 88.3997 46.8361L94.0767 56.2503C94.1048 56.303 94.1125 56.3642 94.0985 56.4222C94.0844 56.4803 94.0496 56.5311 94.0005 56.5652L91.7917 57.8956L85.1651 56.2046Z" fill="#6E6E76"/>
<path d="M94.1784 40.6519C94.6735 40.6519 95.1575 40.7987 95.5692 41.0737C95.9809 41.3488 96.3018 41.7398 96.4912 42.1972C96.6807 42.6547 96.7303 43.158 96.6337 43.6436C96.5371 44.1292 96.2987 44.5753 95.9486 44.9254C95.5985 45.2755 95.1524 45.5139 94.6668 45.6105C94.1812 45.7071 93.6779 45.6575 93.2204 45.468C92.763 45.2786 92.372 44.9577 92.0969 44.546C91.8219 44.1343 91.6751 43.6503 91.6751 43.1552V43.1552C91.6744 42.8271 91.7384 42.5021 91.8633 42.1988C91.9882 41.8954 92.1717 41.6196 92.4032 41.3872C92.6347 41.1547 92.9098 40.9701 93.2126 40.844C93.5155 40.7178 93.8402 40.6525 94.1683 40.6519H94.1784ZM94.1784 45.1711C94.5801 45.1711 94.9728 45.052 95.3069 44.8288C95.6409 44.6056 95.9012 44.2884 96.0549 43.9173C96.2087 43.5461 96.2489 43.1377 96.1705 42.7437C96.0922 42.3497 95.8987 41.9878 95.6147 41.7038C95.3306 41.4197 94.9687 41.2263 94.5747 41.1479C94.1807 41.0695 93.7723 41.1097 93.4011 41.2635C93.03 41.4172 92.7128 41.6775 92.4896 42.0116C92.2664 42.3456 92.1473 42.7383 92.1473 43.14C92.1433 43.4036 92.1914 43.6654 92.2888 43.9103C92.3863 44.1552 92.5312 44.3785 92.7153 44.5672C92.8993 44.756 93.1188 44.9065 93.3612 45.0101C93.6036 45.1138 93.864 45.1685 94.1276 45.1711H94.1784ZM94.6862 43.5005C94.7562 43.5553 94.8193 43.6184 94.8741 43.6884L95.3209 44.2266V44.2622H94.7675L94.1835 43.5564H93.6757V44.2622H93.1933V41.9873H94.346C94.4554 41.9731 94.5665 41.9806 94.673 42.0094C94.7795 42.0382 94.8792 42.0878 94.9665 42.1553C95.0538 42.2227 95.1269 42.3068 95.1816 42.4026C95.2363 42.4983 95.2716 42.604 95.2854 42.7135C95.2876 42.7422 95.2876 42.771 95.2854 42.7998C95.28 42.9653 95.2205 43.1245 95.1159 43.2529C95.0113 43.3813 94.8675 43.4719 94.7065 43.5107L94.6862 43.5005ZM93.6706 42.3682V43.1806H94.28C94.61 43.1806 94.7878 43.0435 94.7878 42.7744C94.7878 42.5053 94.6202 42.3631 94.2444 42.3631L93.6706 42.3682Z" fill="#6E6E76"/>
<path d="M33.5391 75.6486C33.5583 75.6499 33.577 75.655 33.5941 75.6637C33.6112 75.6724 33.6264 75.6844 33.6388 75.6991C33.6511 75.7138 33.6603 75.7309 33.6659 75.7493C33.6715 75.7676 33.6733 75.787 33.6712 75.806C33.6712 76.2478 33.9301 76.5982 34.6867 76.7962C35.4433 76.9943 35.9003 76.7962 35.9917 76.4357C36.0476 76.2072 35.9359 75.9584 35.4535 75.7959L34.2043 75.3643C33.2243 75.0291 32.8079 74.435 32.9958 73.6937C33.2091 72.8406 34.1586 72.2465 35.6058 72.6121C37.053 72.9777 37.5862 73.8562 37.3831 74.6432C37.3735 74.6808 37.3494 74.7131 37.3161 74.7331C37.2828 74.7531 37.243 74.7591 37.2053 74.7499L36.3929 74.5467C36.3583 74.5429 36.3265 74.5261 36.3039 74.4997C36.2813 74.4733 36.2695 74.4393 36.271 74.4046V74.4046C36.271 74.105 36.0831 73.7546 35.3621 73.5718C34.641 73.389 34.2196 73.5718 34.1282 73.9425C34.0723 74.1608 34.1789 74.3639 34.636 74.5112L35.88 74.9377C37.0022 75.3287 37.3069 76.0193 37.1342 76.6997C36.9413 77.4665 36.0577 78.1622 34.4684 77.7559C32.945 77.3751 32.3205 76.4509 32.5236 75.6385V75.5775C32.5332 75.5386 32.5578 75.505 32.592 75.4841C32.6262 75.4632 32.6673 75.4566 32.7064 75.4658V75.4658L33.5391 75.6486Z" fill="#6E6E76"/>
<path d="M43.6287 76.8522C43.5776 77.4053 43.3633 77.9307 43.013 78.3618C42.6628 78.7928 42.1923 79.1101 41.6614 79.2734C41.1305 79.4366 40.5631 79.4385 40.0312 79.2787C39.4992 79.1189 39.0268 78.8046 38.6737 78.3758C38.3207 77.947 38.103 77.423 38.0483 76.8703C37.9936 76.3176 38.1043 75.7611 38.3665 75.2714C38.6286 74.7817 39.0303 74.3809 39.5206 74.12C40.0109 73.859 40.5676 73.7495 41.1202 73.8055H41.298C41.6449 73.8392 41.9818 73.9411 42.2892 74.1056C42.5965 74.2701 42.8682 74.4938 43.0887 74.7638C43.3092 75.0338 43.474 75.3448 43.5736 75.6789C43.6733 76.0129 43.7058 76.3634 43.6693 76.7101C43.6583 76.7582 43.6448 76.8056 43.6287 76.8522V76.8522ZM39.2414 76.1261C39.1892 76.4485 39.2339 76.7791 39.3697 77.0761C39.5054 77.3731 39.7263 77.6231 40.0042 77.7945C40.2822 77.966 40.6048 78.051 40.9311 78.0391C41.2575 78.0271 41.5729 77.9185 41.8375 77.7272C42.1022 77.5358 42.3041 77.2702 42.4177 76.9641C42.5313 76.6579 42.5516 76.3249 42.4758 76.0073C42.4001 75.6896 42.2319 75.4015 41.9924 75.1795C41.7529 74.9575 41.4529 74.8116 41.1304 74.7602C40.9246 74.7188 40.7128 74.7184 40.5069 74.7591C40.301 74.7997 40.1051 74.8806 39.9306 74.9972C39.756 75.1137 39.6062 75.2635 39.4897 75.4381C39.3732 75.6127 39.2923 75.8085 39.2516 76.0144C39.2487 76.0516 39.2487 76.0889 39.2516 76.1261H39.2414Z" fill="#6E6E76"/>
<path d="M48.7829 74.8363C48.7866 74.8107 48.7994 74.7873 48.819 74.7705C48.8386 74.7537 48.8637 74.7446 48.8895 74.7449L49.834 74.8159C49.8605 74.8185 49.885 74.8308 49.9029 74.8506C49.9207 74.8703 49.9306 74.896 49.9305 74.9226L49.7375 77.4615C49.6156 79.0966 48.5188 79.8887 46.9701 79.7719C45.4213 79.6551 44.4312 78.7106 44.5784 77.0705L44.7714 74.5316C44.7751 74.506 44.7879 74.4827 44.8075 74.4659C44.8271 74.449 44.8522 74.4399 44.878 74.4402L45.8225 74.5113C45.8486 74.5149 45.8725 74.5275 45.8902 74.547C45.9078 74.5665 45.918 74.5916 45.919 74.6179L45.726 77.1568C45.6448 78.2029 46.1221 78.7513 47.0412 78.8173C47.9603 78.8833 48.5137 78.4212 48.5645 77.3752L48.7829 74.8363Z" fill="#6E6E76"/>
<path d="M50.5599 75.7953C50.5307 75.7905 50.5037 75.7766 50.4828 75.7556C50.4619 75.7347 50.448 75.7078 50.4431 75.6786V74.9524C50.4477 74.9226 50.4614 74.8949 50.4823 74.8731C50.5032 74.8513 50.5303 74.8364 50.5599 74.8306L55.3635 74.8052C55.3927 74.8101 55.4197 74.8239 55.4406 74.8449C55.4616 74.8658 55.4754 74.8928 55.4803 74.922V75.6481C55.4757 75.6779 55.462 75.7056 55.4411 75.7274C55.4202 75.7492 55.3931 75.7641 55.3635 75.77H53.5355V79.7764C53.5332 79.8025 53.5218 79.8271 53.5032 79.8456C53.4846 79.8642 53.4601 79.8756 53.434 79.8779H52.4844C52.4579 79.8767 52.4327 79.8656 52.414 79.8468C52.3952 79.828 52.3841 79.8029 52.3828 79.7764V75.77L50.5599 75.7953Z" fill="#6E6E76"/>
<path d="M61.6349 79.2891C61.6353 79.3155 61.6264 79.3412 61.6096 79.3617C61.5929 79.3821 61.5695 79.396 61.5435 79.4008L60.599 79.482C60.5724 79.4821 60.5467 79.4723 60.527 79.4545C60.5072 79.4366 60.4949 79.412 60.4924 79.3855L60.34 77.5931L57.4304 77.8419L57.5828 79.6394C57.5842 79.6656 57.5755 79.6912 57.5585 79.7111C57.5414 79.731 57.5174 79.7435 57.4914 79.7461L56.5469 79.8273C56.5338 79.8287 56.5206 79.8274 56.508 79.8235C56.4955 79.8196 56.4838 79.8132 56.4738 79.8046C56.4639 79.7961 56.4557 79.7856 56.4499 79.7737C56.4442 79.7619 56.4409 79.749 56.4403 79.7359L56.0188 74.8866C56.0193 74.8604 56.0286 74.8352 56.0452 74.8149C56.0618 74.7947 56.0847 74.7806 56.1102 74.7749L57.0547 74.6936C57.0808 74.6941 57.1061 74.7034 57.1263 74.72C57.1466 74.7366 57.1607 74.7595 57.1664 74.785L57.3441 76.8822L60.2537 76.6334L60.0709 74.5362C60.0714 74.5101 60.0807 74.4848 60.0973 74.4646C60.1139 74.4443 60.1368 74.4302 60.1623 74.4245L61.1068 74.3433C61.1329 74.3438 61.1582 74.3531 61.1784 74.3696C61.1987 74.3862 61.2128 74.4091 61.2185 74.4347L61.6349 79.2891Z" fill="#6E6E76"/>
<path d="M70.7799 77.685L70.0995 77.8374L68.3578 75.3797C68.2714 75.2527 68.1597 75.0598 68.1597 75.0598C68.1597 75.0598 68.1597 75.2781 68.1242 75.4305L67.5352 78.401L66.8497 78.5533L63.5795 74.2372C63.5591 74.2079 63.5404 74.1774 63.5237 74.1458C63.5237 74.1204 63.5237 74.095 63.5795 74.0798L64.5951 73.8614C64.6967 73.836 64.7119 73.836 64.7881 73.9325L66.4231 76.05C66.5794 76.2606 66.7218 76.4811 66.8497 76.7101H66.8801C66.8913 76.5007 66.915 76.2921 66.9512 76.0855L67.459 73.2267L67.9668 73.1099L69.6425 75.4813C69.7604 75.653 69.8689 75.8309 69.9674 76.0144H70.003C70.0218 75.7537 70.0557 75.4943 70.1045 75.2375L70.6936 72.6224C70.724 72.5107 70.7393 72.5006 70.8357 72.4803L71.8259 72.2568C71.8767 72.2568 71.897 72.2568 71.9021 72.2924C71.9096 72.3275 71.9096 72.3639 71.9021 72.399L70.7799 77.685Z" fill="#6E6E76"/>
<path d="M74.4157 74.4406L74.7711 75.5323L77.5995 74.6081C77.6296 74.6035 77.6605 74.6083 77.6878 74.622C77.7151 74.6356 77.7374 74.6574 77.7518 74.6843L77.9752 75.3749C77.9795 75.4043 77.9745 75.4343 77.9608 75.4608C77.9472 75.4872 77.9256 75.5086 77.8991 75.5221L74.0755 76.7713C74.0505 76.7783 74.0239 76.776 74.0005 76.7648C73.9771 76.7535 73.9587 76.7342 73.9485 76.7104L72.4252 72.0794C72.4192 72.0544 72.422 72.0282 72.4331 72.0051C72.4442 71.982 72.4629 71.9634 72.4861 71.9524L76.264 70.7185C76.2942 70.7139 76.325 70.7187 76.3523 70.7323C76.3796 70.746 76.402 70.7678 76.4163 70.7947L76.6398 71.4853C76.6449 71.5148 76.6402 71.5451 76.6265 71.5717C76.6127 71.5983 76.5906 71.6197 76.5636 71.6325L73.786 72.5415L74.1059 73.5215L76.6448 72.6938C76.6743 72.6887 76.7047 72.6933 76.7313 72.7071C76.7579 72.7208 76.7792 72.7429 76.7921 72.77L77.0206 73.4605C77.0249 73.49 77.0199 73.52 77.0062 73.5464C76.9925 73.5728 76.9709 73.5943 76.9444 73.6078L74.4157 74.4406Z" fill="#6E6E76"/>
<path d="M79.1076 73.2311C79.1242 73.221 79.1427 73.2143 79.1619 73.2114C79.1812 73.2085 79.2008 73.2094 79.2197 73.2142C79.2386 73.2189 79.2564 73.2273 79.272 73.2389C79.2876 73.2506 79.3008 73.2652 79.3107 73.2819V73.2819C79.5493 73.6475 79.9911 73.7592 80.7325 73.4546C81.4738 73.1499 81.7023 72.7234 81.5652 72.3882C81.4738 72.1699 81.2352 72.0379 80.7528 72.1902L79.4884 72.5913C78.5033 72.9062 77.8127 72.6777 77.5233 71.9718C77.1932 71.1594 77.5944 70.1134 78.9806 69.5446C80.3669 68.9759 81.3063 69.3669 81.6211 70.1134C81.6345 70.1504 81.6329 70.1913 81.6168 70.2273C81.6007 70.2632 81.5713 70.2916 81.5348 70.3063V70.3063L80.7629 70.6262C80.7483 70.6356 80.7319 70.642 80.7148 70.645C80.6976 70.6481 80.6801 70.6477 80.6631 70.6439C80.6461 70.6402 80.63 70.6331 80.6158 70.623C80.6016 70.613 80.5894 70.6003 80.5801 70.5856V70.5856C80.4227 70.3317 80.047 70.1743 79.3615 70.4536C78.6759 70.7329 78.4474 71.1442 78.5845 71.4691C78.6709 71.6773 78.8791 71.7789 79.3208 71.6316L80.5751 71.2356C81.7074 70.8801 82.3625 71.2356 82.6316 71.8957C82.9362 72.632 82.6316 73.7135 81.1082 74.3381C79.6814 74.9271 78.6099 74.5717 78.29 73.7948V73.7339C78.2748 73.6968 78.2748 73.6552 78.29 73.6182C78.3052 73.5811 78.3344 73.5515 78.3713 73.5358V73.5358L79.1076 73.2311Z" fill="#6E6E76"/>
<path d="M81.8802 69.4843C81.852 69.4942 81.8213 69.4945 81.7929 69.4853C81.7645 69.4762 81.7399 69.458 81.7228 69.4335L81.3978 68.7836C81.3902 68.7552 81.3909 68.7253 81.3999 68.6974C81.4089 68.6695 81.4258 68.6447 81.4485 68.6262L85.7495 66.4884C85.7777 66.4794 85.8081 66.4795 85.8363 66.4886C85.8645 66.4977 85.8892 66.5154 85.9069 66.5392L86.2319 67.1942C86.2417 67.2224 86.242 67.253 86.2329 67.2815C86.2237 67.3099 86.2055 67.3345 86.1811 67.3516L84.546 68.1641L86.3283 71.749C86.3382 71.7736 86.339 71.8009 86.3306 71.826C86.3223 71.8511 86.3053 71.8724 86.2826 71.8861L85.4346 72.3076C85.4101 72.3175 85.3828 72.3183 85.3577 72.3099C85.3326 72.3015 85.3113 72.2845 85.2975 72.2619L83.5152 68.6719L81.8802 69.4843Z" fill="#6E6E76"/>
</g>
<defs>
<clipPath id="clip0_5918_58920">
<rect width="110.92" height="79.0363" fill="white" transform="translate(0 0.856934)"/>
</clipPath>
</defs>
</svg>
