<svg width="88" height="88" viewBox="0 0 88 88" fill="none" xmlns="http://www.w3.org/2000/svg">
<path d="M40.543 74.3597C40.543 74.8704 40.4008 75.371 40.1323 75.8054C39.8638 76.2399 39.4796 76.5909 39.0228 76.8193C38.566 77.0477 38.0547 77.1444 37.546 77.0986C37.0374 77.0527 36.5516 76.8661 36.143 76.5597C29.1305 71.2384 15.518 60.3484 9.60549 51.3972C2.73049 41.1672 0.351736 25.5334 9.05549 16.8296C13.2323 12.6566 18.895 10.3125 24.7992 10.3125C30.7035 10.3125 36.3662 12.6566 40.543 16.8296" stroke="#24323F" stroke-width="3" stroke-linecap="round" stroke-linejoin="round"/>
<path d="M78.9297 51.3971C72.9622 60.3346 59.4184 71.2384 52.3922 76.5596C51.9836 76.8661 51.4978 77.0527 50.9891 77.0985C50.4805 77.1444 49.9691 77.0477 49.5123 76.8193C49.0555 76.5909 48.6714 76.2398 48.4029 75.8054C48.1344 75.371 47.9922 74.8704 47.9922 74.3597V61.4896C49.3256 62.4071 50.9112 62.8876 52.5297 62.8646C53.7842 62.8831 55.0252 62.6032 56.1505 62.048C57.2757 61.4929 58.2529 60.6783 59.0016 59.6715C59.7503 58.6646 60.249 57.4943 60.4568 56.2569C60.6646 55.0195 60.5753 53.7505 60.1965 52.5543C59.8177 51.3581 59.1601 50.2691 58.2779 49.3769C57.3957 48.4847 56.3142 47.8149 55.1224 47.4226C53.9305 47.0303 52.6626 46.9267 51.4229 47.1205C50.1833 47.3143 49.0074 47.7998 47.9922 48.5371V39.5171C47.0357 40.1445 45.9544 40.5568 44.8231 40.7256C43.6917 40.8944 42.5372 40.8157 41.4393 40.495C40.3413 40.1742 39.326 39.619 38.4635 38.8677C37.6009 38.1165 36.9116 37.187 36.4432 36.1434C35.9749 35.0998 35.7385 33.967 35.7504 32.8232C35.7624 31.6794 36.0224 30.5519 36.5125 29.5183C37.0026 28.4848 37.7112 27.5699 38.5892 26.8368C39.4673 26.1037 40.494 25.5699 41.5984 25.2721C42.6797 24.9915 43.8079 24.942 44.9096 25.1268C46.0113 25.3116 47.0617 25.7266 47.9922 26.3446V16.8296C52.169 12.6566 57.8317 10.3125 63.7359 10.3125C69.6402 10.3125 75.3029 12.6566 79.4797 16.8296C88.1834 25.5334 85.7497 41.1671 78.9297 51.3971V51.3971Z" stroke="#24323F" stroke-width="3" stroke-linecap="round" stroke-linejoin="round"/>
</svg>
