<svg width="52" height="52" viewBox="0 0 52 52" fill="none" xmlns="http://www.w3.org/2000/svg">
<path d="M35.187 4.33331H16.8137C10.8337 4.33331 8.66699 6.49998 8.66699 12.5883V39.4116C8.66699 45.5 10.8337 47.6666 16.8137 47.6666H35.1653C41.167 47.6666 43.3337 45.5 43.3337 39.4116V12.5883C43.3337 6.49998 41.167 4.33331 35.187 4.33331ZM26.0003 41.8166C23.9203 41.8166 22.2087 40.105 22.2087 38.025C22.2087 35.945 23.9203 34.2333 26.0003 34.2333C28.0803 34.2333 29.792 35.945 29.792 38.025C29.792 40.105 28.0803 41.8166 26.0003 41.8166ZM30.3337 13.5416H21.667C20.7787 13.5416 20.042 12.805 20.042 11.9166C20.042 11.0283 20.7787 10.2916 21.667 10.2916H30.3337C31.222 10.2916 31.9587 11.0283 31.9587 11.9166C31.9587 12.805 31.222 13.5416 30.3337 13.5416Z" fill="#0C0507"/>
</svg>
