<svg width="88" height="88" viewBox="0 0 88 88" fill="none" xmlns="http://www.w3.org/2000/svg">
<path d="M26.2789 22.6519C27.9702 22.6519 29.5918 21.9806 30.7879 20.7844C31.9837 19.5886 32.6554 17.9671 32.6554 16.2759C32.6554 14.5847 31.9836 12.9627 30.7879 11.7669C29.5922 10.5711 27.9702 9.89941 26.2789 9.89941C24.5877 9.89941 22.9661 10.5712 21.77 11.7669C20.5742 12.9627 19.9025 14.5847 19.9025 16.2759C19.9044 17.9661 20.5767 19.5872 21.7725 20.7825C22.9677 21.9778 24.5882 22.6505 26.2791 22.652L26.2789 22.6519ZM26.2789 11.5625C27.5287 11.5625 28.7275 12.059 29.6114 12.9428C30.4953 13.8267 30.9922 15.0254 30.9922 16.2758C30.9922 17.5255 30.4953 18.7243 29.6114 19.6082C28.7279 20.4921 27.5288 20.9885 26.2789 20.9885C25.0292 20.9885 23.83 20.4921 22.946 19.6082C22.0626 18.7243 21.5657 17.5256 21.566 16.2758C21.567 15.026 22.064 13.8282 22.9479 12.9443C23.8313 12.0609 25.0291 11.564 26.2788 11.5625H26.2789Z" fill="black"/>
<path d="M35.2675 25.622L34.386 25.4757L34.3929 25.4315L28.3955 24.4818V24.4823C28.229 24.4553 28.0581 24.4803 27.9059 24.5535L26.278 25.3343L24.6501 24.5535C24.4979 24.4803 24.327 24.4553 24.1605 24.4823L18.1641 25.432L18.171 25.4762L17.29 25.6225L17.2905 25.622C15.5398 25.9078 13.9477 26.808 12.8011 28.1613C11.6539 29.5148 11.0264 31.232 11.0313 33.0063V46.772C11.0288 47.6387 11.3392 48.4774 11.9064 49.133C12.4735 49.7891 13.2583 50.2178 14.1167 50.3401C14.9751 50.4623 15.8486 50.2703 16.5759 49.7994V73.7907C16.5759 75.2841 17.3483 76.6718 18.6188 77.457C19.8891 78.2428 21.4754 78.3149 22.8116 77.6476C24.1478 76.9802 25.0435 75.6686 25.178 74.1811L26.279 62.0605L27.3805 74.1816C27.515 75.6691 28.4107 76.9808 29.7469 77.6481C31.0831 78.3154 32.6698 78.2438 33.9397 77.4575C35.2101 76.6718 35.9831 75.2846 35.9826 73.7907V49.7994C36.7099 50.2703 37.5834 50.4623 38.4418 50.3396C39.2997 50.2173 40.0849 49.7886 40.6516 49.133C41.2188 48.4774 41.5297 47.6386 41.5267 46.772V33.0063C41.5316 31.232 40.904 29.5148 39.7569 28.1613C38.6098 26.8079 37.0182 25.9078 35.2675 25.622H35.2675ZM39.8639 46.7722C39.8639 47.4656 39.4941 48.1059 38.8935 48.4526C38.2929 48.7993 37.5534 48.7993 36.9527 48.4526C36.3522 48.1059 35.9824 47.4656 35.9824 46.7722V34.0198H34.3187V73.7907C34.3187 74.7076 33.8438 75.559 33.064 76.0413C32.2842 76.5235 31.3104 76.5677 30.4902 76.1581C29.6697 75.7486 29.1202 74.9437 29.0367 74.0303L27.1073 52.7959C27.068 52.3677 26.7085 52.0401 26.2788 52.0401C25.8486 52.0401 25.4892 52.3677 25.4504 52.7959L23.5204 74.0303C23.4374 74.9437 22.8879 75.7491 22.0673 76.1592C21.2472 76.5687 20.273 76.5245 19.493 76.0423C18.7132 75.5601 18.2384 74.7081 18.2388 73.7912V34.0203H16.5751V46.7727C16.5791 47.2898 16.3763 47.7873 16.0119 48.1546C15.6475 48.5214 15.152 48.7281 14.6344 48.7281C14.1173 48.7281 13.6213 48.5214 13.257 48.1546C12.8926 47.7872 12.6903 47.2898 12.6937 46.7727V33.007C12.6903 31.627 13.1784 30.2909 14.0707 29.2385C14.9629 28.1861 16.2009 27.4859 17.5626 27.2634L24.1675 26.1673L25.9187 27.007L25.9192 27.0075C26.1461 27.1165 26.4108 27.1165 26.6382 27.0075L28.3894 26.1678L34.9943 27.2639V27.2634C36.356 27.4858 37.5945 28.1856 38.4867 29.2385C39.379 30.2908 39.8671 31.627 39.8637 33.007L39.8639 46.7722Z" fill="black"/>
<path d="M61.7656 22.6519C63.4569 22.6519 65.0788 21.9801 66.2746 20.7844C67.4704 19.5886 68.1421 17.9666 68.1421 16.2759C68.1421 14.5847 67.4703 12.9627 66.2746 11.7669C65.0789 10.5711 63.4569 9.89941 61.7656 9.89941C60.0744 9.89941 58.4528 10.5712 57.2571 11.7669C56.0609 12.9627 55.3892 14.5847 55.3892 16.2759C55.3911 17.9661 56.0634 19.5872 57.2592 20.7825C58.4544 21.9778 60.0754 22.6505 61.7658 22.652L61.7656 22.6519ZM61.7656 11.5625C63.0159 11.5625 64.2146 12.0594 65.0986 12.9428C65.9825 13.8268 66.4789 15.0254 66.4789 16.2758C66.4789 17.5255 65.982 18.7247 65.0986 19.6082C64.2147 20.4921 63.0155 20.9885 61.7656 20.9885C60.5159 20.9885 59.3167 20.4921 58.4332 19.6082C57.5493 18.7243 57.0529 17.5256 57.0529 16.2758C57.0543 15.026 57.5513 13.8282 58.4347 12.9443C59.3181 12.0609 60.5164 11.564 61.7656 11.5625Z" fill="black"/>
<path d="M70.7542 25.622L69.8732 25.4757L69.8801 25.4315L63.8827 24.4818L63.8832 24.4823C63.7162 24.4552 63.5453 24.4803 63.3936 24.5539L61.7657 25.3347L60.1378 24.5539C59.9856 24.4803 59.8147 24.4552 59.6482 24.4823L53.6508 25.432L53.6576 25.4762L52.7767 25.6225V25.622C51.026 25.9078 49.4344 26.8085 48.2873 28.1613C47.1401 29.5148 46.5131 31.2325 46.518 33.0062V46.772C46.515 47.6387 46.8259 48.4774 47.3926 49.133C47.9598 49.7891 48.745 50.2173 49.6029 50.3401C50.4613 50.4623 51.3348 50.2703 52.0621 49.7994V73.7907C52.0621 75.2841 52.8345 76.6718 54.105 77.457C55.3753 78.2427 56.9616 78.3149 58.2978 77.6476C59.634 76.9802 60.5297 75.6686 60.6642 74.1811L61.7657 62.0605L62.8672 74.1816C63.0017 75.6691 63.8974 76.9808 65.2336 77.6481C66.5698 78.3153 68.1565 78.2437 69.4268 77.4575C70.6968 76.6718 71.4697 75.2846 71.4692 73.7907V49.7994C72.1969 50.2703 73.0705 50.4623 73.9284 50.3401C74.7868 50.2178 75.5715 49.7891 76.1387 49.133C76.7059 48.4774 77.0167 47.6386 77.0138 46.772V33.0062C77.0187 31.232 76.3911 29.5148 75.244 28.1613C74.0968 26.8079 72.5053 25.9078 70.7541 25.622H70.7542ZM75.3506 46.7722C75.3545 47.2893 75.1517 47.7868 74.7873 48.1541C74.423 48.5209 73.9275 48.7276 73.4099 48.7276C72.8928 48.7276 72.3968 48.5209 72.0324 48.1541C71.668 47.7867 71.4652 47.2893 71.4692 46.7722V34.0197H69.8055V73.7907C69.805 74.7076 69.3306 75.5585 68.5508 76.0404C67.7714 76.5226 66.7977 76.5668 65.9775 76.1572C65.1574 75.7482 64.6075 74.9433 64.524 74.0304L62.594 52.796C62.5552 52.3678 62.1958 52.0403 61.7656 52.0403C61.3359 52.0403 60.9765 52.3678 60.9372 52.796L59.0077 74.0304C58.9242 74.9433 58.3747 75.7487 57.5546 76.1583C56.734 76.5678 55.7603 76.5236 54.9803 76.0414C54.2005 75.5592 53.7261 74.7082 53.7256 73.7913V34.0204H52.0624V46.7728C52.0624 47.4662 51.6927 48.1065 51.0921 48.4533C50.4915 48.8 49.752 48.8 49.1513 48.4533C48.5512 48.1066 48.1809 47.4662 48.1809 46.7728V33.0071C48.1775 31.6272 48.6656 30.2911 49.5579 29.2386C50.4502 28.1862 51.6881 27.486 53.0499 27.2635L59.6548 26.1674L61.406 27.0071V27.0076C61.6333 27.1167 61.898 27.1167 62.1249 27.0076L63.8761 26.1679L70.481 27.264L70.4815 27.2635C71.8432 27.4859 73.0813 28.1857 73.974 29.2386C74.8662 30.291 75.3543 31.6272 75.3504 33.0071L75.3506 46.7722Z" fill="black"/>
<path d="M42.4551 20.0547C42.2546 19.763 42.0951 19.4212 41.9766 19.0293C41.8672 18.6283 41.8125 18.2181 41.8125 17.7988C41.8125 17.498 41.8444 17.1973 41.9082 16.8965C41.972 16.5866 42.0768 16.2904 42.2227 16.0078C42.3776 15.7253 42.5736 15.4655 42.8105 15.2285C43.0475 14.9824 43.3392 14.7728 43.6855 14.5996C44.123 14.3809 44.4967 14.1165 44.8066 13.8066C45.1257 13.4967 45.3854 13.1595 45.5859 12.7949C45.7956 12.4303 45.9505 12.0521 46.0508 11.6602C46.151 11.2591 46.2012 10.8672 46.2012 10.4844C46.2012 9.97396 46.1328 9.48177 45.9961 9.00781C45.8594 8.52474 45.6725 8.10091 45.4355 7.73633C45.2077 7.36263 44.9342 7.06641 44.6152 6.84766C44.3053 6.61979 43.9681 6.50586 43.6035 6.50586C43.1478 6.50586 42.765 6.60612 42.4551 6.80664C42.1452 6.99805 41.8945 7.2487 41.7031 7.55859C41.5117 7.86849 41.3704 8.2194 41.2793 8.61133C41.1973 8.99414 41.1562 9.37695 41.1562 9.75977C41.1562 10.1973 41.1016 10.6074 40.9922 10.9902C40.8828 11.373 40.7324 11.7057 40.541 11.9883C40.3587 12.2708 40.1354 12.4941 39.8711 12.6582C39.6159 12.8132 39.3379 12.8906 39.0371 12.8906C38.7728 12.8906 38.5221 12.8451 38.2852 12.7539C38.0573 12.6628 37.8568 12.5306 37.6836 12.3574C37.5104 12.1751 37.3691 11.9473 37.2598 11.6738C37.1595 11.4004 37.1094 11.0859 37.1094 10.7305C37.1094 10.056 37.2734 9.4362 37.6016 8.87109C37.9297 8.30599 38.3809 7.81836 38.9551 7.4082C39.5293 6.98893 40.2083 6.65625 40.9922 6.41016C41.776 6.16406 42.6283 6.02734 43.5488 6C43.9134 6 44.3281 6.02734 44.793 6.08203C45.2578 6.13672 45.7318 6.23698 46.2148 6.38281C46.6979 6.52865 47.1719 6.72917 47.6367 6.98438C48.1016 7.23047 48.5163 7.55859 48.8809 7.96875C49.2454 8.36979 49.5371 8.85742 49.7559 9.43164C49.9837 9.99674 50.0977 10.6667 50.0977 11.4414C50.0977 12.1432 49.9746 12.804 49.7285 13.4238C49.4824 14.0436 49.1133 14.6133 48.6211 15.1328C48.138 15.6523 47.5319 16.1172 46.8027 16.5273C46.0827 16.9284 45.2487 17.2565 44.3008 17.5117C44.1549 17.5482 44 17.6576 43.8359 17.8398C43.6992 17.9948 43.5443 18.2409 43.3711 18.5781C43.207 18.9062 43.0475 19.3711 42.8926 19.9727L42.4551 20.0547ZM44.8887 23.5957C44.8158 23.8783 44.6927 24.1426 44.5195 24.3887C44.3555 24.6348 44.1595 24.8444 43.9316 25.0176C43.7129 25.1999 43.4668 25.3411 43.1934 25.4414C42.9199 25.5508 42.6465 25.6055 42.373 25.6055C42.0814 25.6055 41.8125 25.5417 41.5664 25.4141C41.3203 25.2956 41.1016 25.1315 40.9102 24.9219C40.7279 24.7214 40.582 24.4935 40.4727 24.2383C40.3724 23.974 40.3223 23.7005 40.3223 23.418C40.3223 23.0716 40.3906 22.7435 40.5273 22.4336C40.6732 22.1237 40.86 21.8548 41.0879 21.627C41.3249 21.39 41.5892 21.2077 41.8809 21.0801C42.1816 20.9434 42.4915 20.875 42.8105 20.875C43.1204 20.875 43.4076 20.9342 43.6719 21.0527C43.9362 21.1621 44.1595 21.3171 44.3418 21.5176C44.5332 21.709 44.679 21.9368 44.7793 22.2012C44.8887 22.4655 44.9434 22.7435 44.9434 23.0352C44.9434 23.1354 44.9388 23.2311 44.9297 23.3223C44.9206 23.4043 44.9069 23.4954 44.8887 23.5957Z" fill="black"/>
</svg>
