<svg width="52" height="52" viewBox="0 0 52 52" fill="none" xmlns="http://www.w3.org/2000/svg">
<path d="M38.9997 6.5H12.9997C8.21134 6.5 4.33301 10.3567 4.33301 15.1017V36.8983C4.33301 41.6433 8.21134 45.5 12.9997 45.5H38.9997C43.788 45.5 47.6663 41.6433 47.6663 36.8983V15.1017C47.6663 10.3567 43.788 6.5 38.9997 6.5ZM18.4163 15.535C21.168 15.535 23.4213 17.7883 23.4213 20.54C23.4213 23.2917 21.168 25.545 18.4163 25.545C15.6647 25.545 13.4113 23.2917 13.4113 20.54C13.4113 17.7883 15.6647 15.535 18.4163 15.535ZM26.8013 36.0967C26.6063 36.3133 26.303 36.4433 25.9997 36.4433H10.833C10.5297 36.4433 10.2263 36.3133 10.0313 36.0967C9.83634 35.88 9.72801 35.5767 9.74967 35.2733C10.118 31.6333 13.0213 28.7517 16.6613 28.405C17.8097 28.2967 19.0013 28.2967 20.1497 28.405C23.7897 28.7517 26.7147 31.6333 27.0613 35.2733C27.1047 35.5767 26.9963 35.88 26.8013 36.0967ZM41.1663 36.2917H36.833C35.9447 36.2917 35.208 35.555 35.208 34.6667C35.208 33.7783 35.9447 33.0417 36.833 33.0417H41.1663C42.0547 33.0417 42.7913 33.7783 42.7913 34.6667C42.7913 35.555 42.0547 36.2917 41.1663 36.2917ZM41.1663 27.625H32.4997C31.6113 27.625 30.8747 26.8883 30.8747 26C30.8747 25.1117 31.6113 24.375 32.4997 24.375H41.1663C42.0547 24.375 42.7913 25.1117 42.7913 26C42.7913 26.8883 42.0547 27.625 41.1663 27.625ZM41.1663 18.9583H30.333C29.4447 18.9583 28.708 18.2217 28.708 17.3333C28.708 16.445 29.4447 15.7083 30.333 15.7083H41.1663C42.0547 15.7083 42.7913 16.445 42.7913 17.3333C42.7913 18.2217 42.0547 18.9583 41.1663 18.9583Z" fill="#0C0507"/>
</svg>
