<svg width="88" height="88" viewBox="0 0 88 88" fill="none" xmlns="http://www.w3.org/2000/svg">
<path d="M36.5643 57.7373H37.8858C37.688 56.7943 37.5787 55.8343 37.5597 54.8699L37.5595 54.8592L37.5594 54.8486C37.5567 53.8506 37.7432 52.861 38.1092 51.9325C38.4743 50.9908 39.0289 50.1341 39.7386 49.4154C40.4602 48.6732 41.3262 48.0867 42.2833 47.6922C43.2695 47.2797 44.3293 47.0718 45.3982 47.0811C47.3025 47.0821 49.0029 47.5904 50.3412 48.628C51.6857 49.6705 52.5685 51.1733 52.9567 52.9848L52.9577 52.9895C53.1193 53.7584 52.9689 54.56 52.5396 55.218C52.1102 55.876 51.437 56.3364 50.6682 56.4981C49.8993 56.6597 49.0977 56.5093 48.4397 56.08C47.7817 55.6506 47.3213 54.9775 47.1596 54.2086L47.1579 54.2005C47.0742 53.7888 46.9587 53.5418 46.793 53.3833C46.6509 53.2475 46.3052 53.0186 45.4094 53.0186H45.4009V53.0186C45.1174 53.0166 44.8361 53.0674 44.5713 53.1684C44.355 53.261 44.1584 53.3943 43.9924 53.5612L43.9912 53.5624C43.8456 53.7083 43.7342 53.8847 43.665 54.0789L43.6566 54.1025L43.6472 54.1257C43.558 54.3475 43.5128 54.5846 43.514 54.8236C43.5339 55.5553 43.636 56.2825 43.8184 56.9915L43.8206 57L43.8227 57.0085C43.8825 57.2552 43.936 57.4979 43.9853 57.7373H46.3376C47.1249 57.7373 47.88 58.0501 48.4368 58.6069C48.9935 59.1636 49.3063 59.9187 49.3063 60.7061C49.3063 61.4935 48.9935 62.2486 48.4368 62.8053C47.88 63.362 47.1249 63.6748 46.3376 63.6748H44.4481C44.438 63.8803 44.4248 64.0878 44.4079 64.2978V64.2983V64.3483L44.4039 64.3983C44.3666 64.8622 44.2987 65.3226 44.2007 65.7763C45.223 65.911 46.2192 66.2189 47.1455 66.6907L47.1568 66.6964L47.1568 66.6965C47.5151 66.8836 47.9067 66.9983 48.3093 67.0339C48.712 67.0696 49.1177 67.0255 49.5032 66.9043L49.5102 66.9021L49.5172 66.9L50.5806 66.5792C50.9493 66.4565 51.3385 66.4073 51.7262 66.4344C52.1228 66.4622 52.5098 66.5694 52.8641 66.7496C53.2185 66.9298 53.5331 67.1793 53.7892 67.4834C54.0454 67.7874 54.2378 68.1398 54.3551 68.5197C54.4725 68.8996 54.5123 69.2991 54.4723 69.6947C54.4323 70.0902 54.3133 70.4737 54.1222 70.8224C53.9312 71.171 53.6721 71.4778 53.3603 71.7244C53.0529 71.9675 52.7006 72.1473 52.3235 72.2535L51.2588 72.5746C50.3926 72.8445 49.49 72.979 48.5827 72.9733C48.5822 72.9733 48.5816 72.9732 48.581 72.9732L48.5891 71.7233C47.3468 71.7186 46.1228 71.4244 45.0141 70.8639L36.5643 57.7373ZM36.5643 57.7373C36.1766 57.7338 35.7919 57.8068 35.4324 57.9521C35.0702 58.0985 34.7408 58.3155 34.4631 58.5903C34.1855 58.8651 33.9653 59.1924 33.8152 59.5531C33.6652 59.9138 33.5883 60.3007 33.5891 60.6914L33.5891 60.6925C33.5914 61.4782 33.9045 62.2311 34.4601 62.7867C35.0157 63.3423 35.7686 63.6554 36.5543 63.6576H36.5579H38.5035C38.4995 63.7289 38.4951 63.8001 38.4903 63.8714L38.4875 63.9129V63.952C38.4129 64.7595 38.1224 65.5325 37.6461 66.1896C37.6452 66.1909 37.6443 66.1921 37.6434 66.1934L36.825 67.3016L36.5643 57.7373ZM10.2628 31.0701H77.7373C78.7727 31.0736 79.7647 31.4865 80.4968 32.2187C81.2289 32.9507 81.6417 33.9425 81.6454 34.9777C81.6454 34.9785 81.6454 34.9793 81.6454 34.98V35.7462C81.6454 35.747 81.6454 35.7478 81.6454 35.7485C81.6417 36.7837 81.2289 37.7755 80.4968 38.5076C79.7647 39.2397 78.7727 39.6526 77.7373 39.6561H10.2628C9.22744 39.6526 8.23543 39.2397 7.50326 38.5076C6.77107 37.7754 6.35821 36.7833 6.35474 35.7479V34.9783C6.35821 33.9429 6.77107 32.9509 7.50326 32.2187C8.23543 31.4865 9.22744 31.0736 10.2628 31.0701ZM42.6172 71.6584C43.2471 71.5838 43.885 71.6958 44.4518 71.9803L36.8242 67.3026C36.479 67.7694 36.2782 68.3272 36.2466 68.9069C36.2151 69.484 36.3527 70.0577 36.6423 70.5576C36.9294 71.0635 37.3605 71.4725 37.8809 71.7327C38.4014 71.9929 38.9874 72.0924 39.5645 72.0185L42.6168 71.6584L42.6172 71.6584ZM19.1429 73.5914C18.4334 72.9799 17.9651 72.1355 17.822 71.2099C17.8218 71.2089 17.8216 71.2078 17.8215 71.2067L14.03 45.5936H73.971L70.1958 71.2067C70.1956 71.2078 70.1955 71.209 70.1953 71.2101C70.0521 72.1356 69.5838 72.9799 68.8744 73.5914C68.1646 74.2031 67.2601 74.5418 66.3232 74.5467H21.6941C20.7572 74.5418 19.8526 74.2031 19.1429 73.5914Z" stroke="#24323F" stroke-width="2.5"/>
</svg>
