<svg width="24" height="24" viewBox="0 0 24 24" fill="none" xmlns="http://www.w3.org/2000/svg">
<path d="M11.5 21.75C5.85 21.75 1.25 17.15 1.25 11.5C1.25 5.85 5.85 1.25 11.5 1.25C17.15 1.25 21.75 5.85 21.75 11.5C21.75 17.15 17.15 21.75 11.5 21.75ZM11.5 2.75C6.67 2.75 2.75 6.68 2.75 11.5C2.75 16.32 6.67 20.25 11.5 20.25C16.33 20.25 20.25 16.32 20.25 11.5C20.25 6.68 16.33 2.75 11.5 2.75Z" fill="#1B1B1B"/>
<path d="M22.0001 22.7507C21.8101 22.7507 21.6201 22.6807 21.4701 22.5307L17.9399 19.0607C17.6499 18.7707 17.6499 18.2907 17.9399 18.0007C18.2299 17.7107 18.7099 17.7107 18.9999 18.0007L22.5301 21.4707C22.8201 21.7607 22.8201 22.2407 22.5301 22.5307C22.3801 22.6807 22.1901 22.7507 22.0001 22.7507Z" fill="#1B1B1B"/>
</svg>
