<svg width="409" height="84" viewBox="0 0 409 84" fill="none" xmlns="http://www.w3.org/2000/svg">
<path d="M25.5256 82.9912C8.51265 82.9912 5.72612 76.3181 5.72607 70.1216H25.5256V82.9912Z" fill="#03A4F5"/>
<g filter="url(#filter0_d_5918_59082)">
<path d="M40.7846 5.76685H389.276C393.65 5.76685 397.196 9.31266 397.196 13.6866V46.3828C397.196 59.5047 386.657 70.1422 373.535 70.1422C312.272 70.1422 145.22 70.1422 30.042 70.1422C5.6986 70.1422 5.72704 72.1229 5.72704 72.1229C5.72704 72.1229 4.74468 37.0159 13.6295 20.1275C20.924 6.26204 40.7846 5.76685 40.7846 5.76685Z" fill="#03A4F5"/>
</g>
<path d="M57.2737 20.2734V33.8271C57.2737 35.5044 56.7597 36.83 55.7317 37.8039C54.7217 38.7779 53.387 39.2648 51.7278 39.2648C50.0685 39.2648 48.7249 38.7779 47.6968 37.8039C46.6868 36.83 46.1818 35.5044 46.1818 33.8271H49.293C49.311 34.6567 49.5184 35.315 49.9152 35.802C50.33 36.2889 50.9342 36.5324 51.7278 36.5324C52.5213 36.5324 53.1255 36.2889 53.5403 35.802C53.9552 35.297 54.1626 34.6387 54.1626 33.8271V20.2734H57.2737ZM68.8918 23.9256C70.3166 23.9256 71.6062 24.2412 72.7605 24.8724C73.9147 25.5037 74.8255 26.4055 75.4928 27.5778C76.1602 28.7501 76.4938 30.0937 76.4938 31.6087C76.4938 33.1237 76.1511 34.4674 75.4658 35.6397C74.7804 36.812 73.8426 37.7228 72.6522 38.3721C71.4799 39.0033 70.1814 39.3189 68.7566 39.3189C67.3498 39.3189 66.0783 39.0033 64.942 38.3721C63.8058 37.7228 62.9131 36.821 62.2638 35.6667C61.6145 34.4944 61.2899 33.1417 61.2899 31.6087C61.2899 30.0937 61.6235 28.7501 62.2908 27.5778C62.9581 26.4055 63.8689 25.5037 65.0232 24.8724C66.1775 24.2412 67.467 23.9256 68.8918 23.9256ZM68.8377 26.5227C68.0442 26.5227 67.3137 26.7211 66.6464 27.1179C65.9791 27.4966 65.438 28.0738 65.0232 28.8493C64.6264 29.6068 64.428 30.5266 64.428 31.6087C64.428 32.6909 64.6174 33.6197 64.9962 34.3952C65.3929 35.1707 65.916 35.7569 66.5652 36.1537C67.2326 36.5324 67.963 36.7218 68.7566 36.7218C69.5501 36.7218 70.2896 36.5234 70.9749 36.1266C71.6783 35.7298 72.2464 35.1527 72.6793 34.3952C73.1122 33.6197 73.3286 32.6909 73.3286 31.6087C73.3286 30.5266 73.1212 29.6068 72.7064 28.8493C72.2915 28.0738 71.7415 27.4966 71.0561 27.1179C70.3707 26.7211 69.6313 26.5227 68.8377 26.5227ZM87.3881 23.9256C88.4702 23.9256 89.4441 24.1691 90.3098 24.656C91.1936 25.143 91.8879 25.8644 92.3929 26.8203C92.916 27.7762 93.1775 28.9304 93.1775 30.2831V39.0754H90.1204V30.743C90.1204 29.4084 89.7868 28.3894 89.1195 27.686C88.4522 26.9646 87.5414 26.6039 86.3871 26.6039C85.2328 26.6039 84.313 26.9646 83.6276 27.686C82.9603 28.3894 82.6267 29.4084 82.6267 30.743V39.0754H79.5426V19.056H82.6267V26.5227C83.1136 25.675 83.7629 25.0348 84.5745 24.6019C85.4042 24.151 86.342 23.9256 87.3881 23.9256ZM104.957 23.9256C106.039 23.9256 107.013 24.1691 107.879 24.656C108.762 25.143 109.457 25.8644 109.962 26.8203C110.485 27.7762 110.746 28.9304 110.746 30.2831V39.0754H107.689V30.743C107.689 29.4084 107.356 28.3894 106.688 27.686C106.021 26.9646 105.11 26.6039 103.956 26.6039C102.802 26.6039 101.882 26.9646 101.196 27.686C100.529 28.3894 100.195 29.4084 100.195 30.743V39.0754H97.1114V24.1691H100.195V26.5227C100.682 25.675 101.332 25.0348 102.143 24.6019C102.973 24.151 103.911 23.9256 104.957 23.9256ZM132.476 39.0754L127.769 31.4464H125.875V39.0754H122.791V20.2734H129.284C130.727 20.2734 131.944 20.5259 132.936 21.0309C133.946 21.5178 134.694 22.1851 135.181 23.0328C135.686 23.8805 135.939 24.8274 135.939 25.8734C135.939 27.1359 135.551 28.2721 134.776 29.2821C134.018 30.2921 132.846 30.9504 131.259 31.257L136.236 39.0754H132.476ZM125.875 29.0387H129.284C130.456 29.0387 131.331 28.7591 131.908 28.2C132.485 27.6409 132.774 26.8654 132.774 25.8734C132.774 24.8634 132.485 24.0789 131.908 23.5198C131.331 22.9607 130.456 22.6811 129.284 22.6811H125.875V29.0387ZM139.478 20.2193C139.478 19.6602 139.668 19.1912 140.047 18.8125C140.425 18.4338 140.894 18.2444 141.453 18.2444C141.994 18.2444 142.454 18.4338 142.833 18.8125C143.212 19.1912 143.401 19.6602 143.401 20.2193C143.401 20.7784 143.212 21.2473 142.833 21.626C142.454 22.0048 141.994 22.1942 141.453 22.1942C140.894 22.1942 140.425 22.0048 140.047 21.626C139.668 21.2473 139.478 20.7784 139.478 20.2193ZM142.968 24.1691V39.0754H139.884V24.1691H142.968ZM153.294 23.9256C155.097 23.9256 156.585 24.3584 157.758 25.2241C158.948 26.0718 159.75 27.2892 160.165 28.8763H156.838C156.567 28.1369 156.134 27.5597 155.539 27.1449C154.944 26.7301 154.196 26.5227 153.294 26.5227C152.031 26.5227 151.021 26.9736 150.264 27.8754C149.524 28.7591 149.155 30.0036 149.155 31.6087C149.155 33.2139 149.524 34.4674 150.264 35.3691C151.021 36.2709 152.031 36.7218 153.294 36.7218C155.079 36.7218 156.261 35.9373 156.838 34.3682H160.165C159.732 35.8831 158.921 37.0915 157.73 37.9933C156.54 38.877 155.061 39.3189 153.294 39.3189C151.869 39.3189 150.606 39.0033 149.506 38.3721C148.406 37.7228 147.54 36.821 146.909 35.6667C146.296 34.4944 145.989 33.1417 145.989 31.6087C145.989 30.0757 146.296 28.7321 146.909 27.5778C147.54 26.4055 148.406 25.5037 149.506 24.8724C150.606 24.2412 151.869 23.9256 153.294 23.9256ZM171.084 23.9256C172.166 23.9256 173.14 24.1691 174.006 24.656C174.89 25.143 175.584 25.8644 176.089 26.8203C176.612 27.7762 176.874 28.9304 176.874 30.2831V39.0754H173.817V30.743C173.817 29.4084 173.483 28.3894 172.816 27.686C172.148 26.9646 171.238 26.6039 170.083 26.6039C168.929 26.6039 168.009 26.9646 167.324 27.686C166.657 28.3894 166.323 29.4084 166.323 30.743V39.0754H163.239V19.056H166.323V26.5227C166.81 25.675 167.459 25.0348 168.271 24.6019C169.1 24.151 170.038 23.9256 171.084 23.9256ZM186.813 23.9256C187.986 23.9256 189.014 24.1961 189.898 24.7372C190.799 25.2602 191.494 25.9546 191.981 26.8203V24.1691H195.092V39.0754H191.981V36.2889C191.476 37.2088 190.781 37.9482 189.898 38.5073C189.014 39.0484 187.986 39.3189 186.813 39.3189C185.515 39.3189 184.325 38.9943 183.242 38.345C182.178 37.6777 181.331 36.7579 180.699 35.5856C180.086 34.3952 179.78 33.0516 179.78 31.5546C179.78 30.0577 180.086 28.7321 180.699 27.5778C181.331 26.4235 182.178 25.5307 183.242 24.8995C184.325 24.2502 185.515 23.9256 186.813 23.9256ZM187.463 26.6039C186.669 26.6039 185.93 26.8022 185.244 27.199C184.559 27.5778 184 28.1459 183.567 28.9034C183.152 29.6428 182.945 30.5266 182.945 31.5546C182.945 32.5826 183.152 33.4844 183.567 34.2599C184 35.0355 184.559 35.6306 185.244 36.0455C185.948 36.4422 186.687 36.6406 187.463 36.6406C188.256 36.6406 188.996 36.4422 189.681 36.0455C190.366 35.6487 190.917 35.0715 191.331 34.3141C191.764 33.5385 191.981 32.6367 191.981 31.6087C191.981 30.5807 191.764 29.6879 191.331 28.9304C190.917 28.173 190.366 27.5958 189.681 27.199C188.996 26.8022 188.256 26.6039 187.463 26.6039ZM202.227 26.7662C202.678 25.8644 203.273 25.17 204.012 24.6831C204.77 24.1781 205.662 23.9256 206.69 23.9256V27.1179H205.906C204.698 27.1179 203.778 27.4245 203.146 28.0377C202.533 28.6509 202.227 29.715 202.227 31.23V39.0754H199.143V24.1691H202.227V26.7662ZM215.531 23.9256C216.703 23.9256 217.732 24.1961 218.615 24.7372C219.517 25.2602 220.211 25.9546 220.698 26.8203V19.056H223.809V39.0754H220.698V36.2889C220.193 37.2088 219.499 37.9482 218.615 38.5073C217.732 39.0484 216.703 39.3189 215.531 39.3189C214.233 39.3189 213.042 38.9943 211.96 38.345C210.896 37.6777 210.048 36.7579 209.417 35.5856C208.804 34.3952 208.497 33.0516 208.497 31.5546C208.497 30.0577 208.804 28.7321 209.417 27.5778C210.048 26.4235 210.896 25.5307 211.96 24.8995C213.042 24.2502 214.233 23.9256 215.531 23.9256ZM216.18 26.6039C215.387 26.6039 214.647 26.8022 213.962 27.199C213.277 27.5778 212.718 28.1459 212.285 28.9034C211.87 29.6428 211.663 30.5266 211.663 31.5546C211.663 32.5826 211.87 33.4844 212.285 34.2599C212.718 35.0355 213.277 35.6306 213.962 36.0455C214.665 36.4422 215.405 36.6406 216.18 36.6406C216.974 36.6406 217.713 36.4422 218.399 36.0455C219.084 35.6487 219.634 35.0715 220.049 34.3141C220.482 33.5385 220.698 32.6367 220.698 31.6087C220.698 30.5807 220.482 29.6879 220.049 28.9304C219.634 28.173 219.084 27.5958 218.399 27.199C217.713 26.8022 216.974 26.6039 216.18 26.6039ZM233.082 23.9256C234.741 23.9256 236.075 24.3584 237.085 25.2241C238.114 26.0718 238.664 27.2351 238.736 28.714H235.57C235.516 27.9746 235.255 27.3974 234.786 26.9826C234.335 26.5678 233.695 26.3604 232.865 26.3604C232.036 26.3604 231.386 26.5498 230.917 26.9285C230.448 27.2892 230.214 27.7581 230.214 28.3353C230.214 28.8042 230.367 29.1829 230.674 29.4715C230.98 29.7601 231.368 29.9855 231.837 30.1478C232.324 30.2921 232.973 30.4544 233.785 30.6348C234.885 30.8873 235.769 31.1398 236.436 31.3923C237.122 31.6448 237.708 32.0596 238.195 32.6367C238.682 33.1959 238.925 33.9624 238.925 34.9363C238.925 35.784 238.673 36.5414 238.168 37.2088C237.681 37.8761 236.995 38.3991 236.112 38.7779C235.228 39.1386 234.227 39.3189 233.109 39.3189C231.377 39.3189 229.979 38.9041 228.915 38.0745C227.851 37.2448 227.265 36.0635 227.157 34.5305H230.349C230.403 35.2699 230.674 35.8471 231.161 36.2619C231.648 36.6767 232.297 36.8841 233.109 36.8841C233.974 36.8841 234.651 36.7038 235.138 36.3431C235.643 35.9643 235.895 35.4773 235.895 34.8822C235.895 34.3952 235.733 34.0075 235.408 33.7189C235.102 33.4303 234.705 33.2139 234.218 33.0696C233.731 32.9073 233.073 32.7359 232.243 32.5556C231.161 32.3031 230.286 32.0596 229.619 31.8251C228.951 31.5727 228.374 31.1759 227.887 30.6348C227.418 30.0937 227.184 29.3633 227.184 28.4435C227.184 27.6138 227.418 26.8564 227.887 26.171C228.356 25.4857 229.033 24.9446 229.916 24.5478C230.818 24.133 231.873 23.9256 233.082 23.9256ZM248.913 23.9256C250.337 23.9256 251.627 24.2412 252.781 24.8724C253.936 25.5037 254.846 26.4055 255.514 27.5778C256.181 28.7501 256.515 30.0937 256.515 31.6087C256.515 33.1237 256.172 34.4674 255.487 35.6397C254.801 36.812 253.863 37.7228 252.673 38.3721C251.501 39.0033 250.202 39.3189 248.777 39.3189C247.371 39.3189 246.099 39.0033 244.963 38.3721C243.827 37.7228 242.934 36.821 242.285 35.6667C241.635 34.4944 241.311 33.1417 241.311 31.6087C241.311 30.0937 241.644 28.7501 242.312 27.5778C242.979 26.4055 243.89 25.5037 245.044 24.8724C246.198 24.2412 247.488 23.9256 248.913 23.9256ZM248.859 26.5227C248.065 26.5227 247.335 26.7211 246.667 27.1179C246 27.4966 245.459 28.0738 245.044 28.8493C244.647 29.6068 244.449 30.5266 244.449 31.6087C244.449 32.6909 244.638 33.6197 245.017 34.3952C245.414 35.1707 245.937 35.7569 246.586 36.1537C247.253 36.5324 247.984 36.7218 248.777 36.7218C249.571 36.7218 250.31 36.5234 250.996 36.1266C251.699 35.7298 252.267 35.1527 252.7 34.3952C253.133 33.6197 253.349 32.6909 253.349 31.6087C253.349 30.5266 253.142 29.6068 252.727 28.8493C252.312 28.0738 251.762 27.4966 251.077 27.1179C250.392 26.7211 249.652 26.5227 248.859 26.5227ZM267.409 23.9256C268.491 23.9256 269.465 24.1691 270.331 24.656C271.214 25.143 271.909 25.8644 272.414 26.8203C272.937 27.7762 273.198 28.9304 273.198 30.2831V39.0754H270.141V30.743C270.141 29.4084 269.808 28.3894 269.14 27.686C268.473 26.9646 267.562 26.6039 266.408 26.6039C265.254 26.6039 264.334 26.9646 263.648 27.686C262.981 28.3894 262.648 29.4084 262.648 30.743V39.0754H259.563V24.1691H262.648V26.5227C263.134 25.675 263.784 25.0348 264.595 24.6019C265.425 24.151 266.363 23.9256 267.409 23.9256Z" fill="white"/>
<path d="M50.9189 49.3356V50.7689H47.057V53.1975H50.0032V54.6308H47.057V58.5989H45.1858V49.3356H50.9189ZM57.01 49.2029C57.8859 49.2029 58.6822 49.4063 59.3988 49.8133C60.1243 50.2203 60.695 50.7866 61.1108 51.512C61.5355 52.2287 61.7478 53.0382 61.7478 53.9407C61.7478 54.852 61.5355 55.6704 61.1108 56.3959C60.695 57.1125 60.1243 57.6743 59.3988 58.0813C58.6733 58.4883 57.8771 58.6918 57.01 58.6918C56.143 58.6918 55.3467 58.4883 54.6212 58.0813C53.8957 57.6743 53.3206 57.1125 52.8959 56.3959C52.4801 55.6704 52.2722 54.852 52.2722 53.9407C52.2722 53.0382 52.4801 52.2287 52.8959 51.512C53.3206 50.7866 53.8957 50.2203 54.6212 49.8133C55.3467 49.4063 56.143 49.2029 57.01 49.2029ZM57.01 50.9148C56.4526 50.9148 55.9572 51.0387 55.5236 51.2864C55.099 51.5342 54.7672 51.8881 54.5283 52.3481C54.2894 52.8082 54.17 53.3391 54.17 53.9407C54.17 54.5423 54.2894 55.0732 54.5283 55.5332C54.7672 55.9933 55.099 56.3516 55.5236 56.6082C55.9572 56.8559 56.4526 56.9798 57.01 56.9798C57.5674 56.9798 58.0584 56.8559 58.4831 56.6082C58.9078 56.3516 59.2396 55.9977 59.4785 55.5465C59.7173 55.0864 59.8368 54.5512 59.8368 53.9407C59.8368 53.3302 59.7173 52.7994 59.4785 52.3481C59.2396 51.8881 58.9078 51.5342 58.4831 51.2864C58.0584 51.0387 57.5674 50.9148 57.01 50.9148ZM65.4655 49.3356V55.0422C65.4655 55.6792 65.6248 56.1614 65.9433 56.4888C66.2707 56.8161 66.7352 56.9798 67.3368 56.9798C67.9384 56.9798 68.4029 56.8161 68.7303 56.4888C69.0576 56.1614 69.2213 55.6792 69.2213 55.0422V49.3356H71.0793V55.0422C71.0793 55.8296 70.9023 56.4976 70.5484 57.0461C70.2034 57.5947 69.7433 58.0061 69.1682 58.2804C68.602 58.5546 67.9782 58.6918 67.297 58.6918C66.6246 58.6918 66.0052 58.5546 65.439 58.2804C64.8816 58.0061 64.4348 57.5947 64.0986 57.0461C63.7624 56.4976 63.5943 55.8296 63.5943 55.0422V49.3356H65.4655ZM81.3642 58.5989H79.493L75.2993 52.1756V58.5989H73.4281V49.309H75.2993L79.493 55.7323V49.309H81.3642V58.5989ZM91.8757 53.9805C91.8757 54.9095 91.6678 55.7234 91.2519 56.4224C90.8361 57.1125 90.2522 57.6478 89.5001 58.0282C88.7481 58.4087 87.881 58.5989 86.899 58.5989H83.7537V49.3356H86.899C87.881 49.3356 88.7481 49.5302 89.5001 49.9195C90.2522 50.2999 90.8361 50.8396 91.2519 51.5386C91.6678 52.2375 91.8757 53.0515 91.8757 53.9805ZM86.899 57.1789C87.8722 57.1789 88.6287 56.8913 89.1683 56.3162C89.708 55.7411 89.9779 54.9626 89.9779 53.9805C89.9779 52.9984 89.708 52.2198 89.1683 51.6448C88.6287 51.0697 87.8722 50.7821 86.899 50.7821H85.6249V57.1789H86.899ZM95.6136 50.7423V53.1709H98.6925V54.6042H95.6136V57.1656H99.0907V58.5989H93.7424V49.309H99.0907V50.7423H95.6136ZM106.096 58.5989L103.88 54.9095H103.269V58.5989H101.398V49.3356H104.809C105.526 49.3356 106.136 49.4639 106.64 49.7204C107.145 49.9682 107.521 50.3044 107.768 50.729C108.025 51.1449 108.153 51.6094 108.153 52.1225C108.153 52.7065 107.976 53.2506 107.622 53.7549C107.268 54.2592 106.711 54.6042 105.95 54.79L108.312 58.5989H106.096ZM103.269 53.4762H104.809C105.278 53.4762 105.636 53.3567 105.884 53.1179C106.132 52.8701 106.255 52.5384 106.255 52.1225C106.255 51.7067 106.132 51.3793 105.884 51.1405C105.636 50.8927 105.278 50.7689 104.809 50.7689H103.269V53.4762ZM120.671 58.5989L119.649 57.1921C119.419 57.6345 119.074 57.9972 118.614 58.2804C118.163 58.5546 117.667 58.6918 117.127 58.6918C116.597 58.6918 116.11 58.5679 115.668 58.3202C115.225 58.0636 114.876 57.7186 114.619 57.285C114.363 56.8427 114.234 56.3516 114.234 55.8119C114.234 55.3165 114.336 54.8652 114.54 54.4583C114.743 54.0513 115.017 53.7239 115.362 53.4762C115.716 53.2196 116.101 53.0604 116.517 52.9984C116.243 52.6003 116.044 52.2552 115.92 51.9633C115.796 51.6713 115.734 51.3793 115.734 51.0874C115.734 50.6804 115.831 50.3044 116.026 49.9593C116.229 49.6054 116.526 49.3223 116.915 49.11C117.313 48.8888 117.782 48.7782 118.322 48.7782C118.862 48.7782 119.326 48.8799 119.715 49.0834C120.114 49.2869 120.414 49.5523 120.618 49.8797C120.83 50.1982 120.936 50.5432 120.936 50.9148C120.936 51.2068 120.883 51.459 120.777 51.6713H118.985C119.065 51.5209 119.105 51.3484 119.105 51.1537C119.105 50.9237 119.03 50.7335 118.879 50.5831C118.738 50.4327 118.552 50.3575 118.322 50.3575C118.092 50.3575 117.906 50.4327 117.765 50.5831C117.623 50.7335 117.552 50.9148 117.552 51.1272C117.552 51.2776 117.579 51.4236 117.632 51.5651C117.694 51.6978 117.8 51.8659 117.95 52.0694L122.847 58.5989H120.671ZM117.141 57.1656C117.504 57.1656 117.813 57.0329 118.07 56.7674C118.335 56.4932 118.468 56.1658 118.468 55.7854C118.468 55.4049 118.335 55.0864 118.07 54.8299C117.813 54.5644 117.504 54.4317 117.141 54.4317C116.778 54.4317 116.468 54.5644 116.212 54.8299C115.955 55.0864 115.827 55.4049 115.827 55.7854C115.827 56.1658 115.955 56.4932 116.212 56.7674C116.468 57.0329 116.778 57.1656 117.141 57.1656ZM132.924 49.2029C133.933 49.2029 134.826 49.4594 135.605 49.9726C136.392 50.4857 136.954 51.2068 137.29 52.1358H135.047C134.632 51.3218 133.924 50.9148 132.924 50.9148C132.367 50.9148 131.871 51.0387 131.438 51.2864C131.013 51.5342 130.681 51.8881 130.442 52.3481C130.203 52.8082 130.084 53.3391 130.084 53.9407C130.084 54.5423 130.203 55.0732 130.442 55.5332C130.681 55.9933 131.013 56.3516 131.438 56.6082C131.871 56.8559 132.367 56.9798 132.924 56.9798C133.915 56.9798 134.623 56.5728 135.047 55.7588H137.29C136.954 56.6878 136.392 57.4089 135.605 57.922C134.826 58.4264 133.933 58.6785 132.924 58.6785C132.057 58.6785 131.261 58.4794 130.535 58.0813C129.81 57.6743 129.235 57.1125 128.81 56.3959C128.394 55.6704 128.186 54.852 128.186 53.9407C128.186 53.0382 128.394 52.2287 128.81 51.512C129.235 50.7866 129.81 50.2203 130.535 49.8133C131.261 49.4063 132.057 49.2029 132.924 49.2029ZM141.173 50.7423V53.1709H144.252V54.6042H141.173V57.1656H144.65V58.5989H139.302V49.309H144.65V50.7423H141.173ZM151.178 49.2029C152.053 49.2029 152.85 49.4063 153.566 49.8133C154.292 50.2203 154.863 50.7866 155.278 51.512C155.703 52.2287 155.915 53.0382 155.915 53.9407C155.915 54.852 155.703 55.6704 155.278 56.3959C154.863 57.1125 154.292 57.6743 153.566 58.0813C152.841 58.4883 152.045 58.6918 151.178 58.6918C150.311 58.6918 149.514 58.4883 148.789 58.0813C148.063 57.6743 147.488 57.1125 147.064 56.3959C146.648 55.6704 146.44 54.852 146.44 53.9407C146.44 53.0382 146.648 52.2287 147.064 51.512C147.488 50.7866 148.063 50.2203 148.789 49.8133C149.514 49.4063 150.311 49.2029 151.178 49.2029ZM151.178 50.9148C150.62 50.9148 150.125 51.0387 149.691 51.2864C149.267 51.5342 148.935 51.8881 148.696 52.3481C148.457 52.8082 148.338 53.3391 148.338 53.9407C148.338 54.5423 148.457 55.0732 148.696 55.5332C148.935 55.9933 149.267 56.3516 149.691 56.6082C150.125 56.8559 150.62 56.9798 151.178 56.9798C151.735 56.9798 152.226 56.8559 152.651 56.6082C153.075 56.3516 153.407 55.9977 153.646 55.5465C153.885 55.0864 154.004 54.5512 154.004 53.9407C154.004 53.3302 153.885 52.7994 153.646 52.3481C153.407 51.8881 153.075 51.5342 152.651 51.2864C152.226 51.0387 151.735 50.9148 151.178 50.9148ZM158.863 57.3912C159.076 57.9751 159.182 58.506 159.182 58.9837C159.182 59.5411 159.036 59.9879 158.744 60.3241C158.461 60.6603 158.023 60.8284 157.43 60.8284V60.0853C157.66 60.0853 157.828 60.0322 157.934 59.926C158.041 59.8198 158.094 59.634 158.094 59.3686V59.1165H157.231V57.3912H158.863ZM171.797 49.3356V50.7689H169.288V58.5989H167.43V50.7689H164.935V49.3356H171.797ZM181.352 49.3356V58.5989H179.48V54.6308H175.499V58.5989H173.628V49.3356H175.499V53.1975H179.48V49.3356H181.352ZM185.617 50.7423V53.1709H188.696V54.6042H185.617V57.1656H189.094V58.5989H183.746V49.309H189.094V50.7423H185.617ZM199.999 49.2029C201.008 49.2029 201.901 49.4594 202.68 49.9726C203.467 50.4857 204.029 51.2068 204.365 52.1358H202.122C201.707 51.3218 200.999 50.9148 199.999 50.9148C199.442 50.9148 198.946 51.0387 198.513 51.2864C198.088 51.5342 197.756 51.8881 197.517 52.3481C197.278 52.8082 197.159 53.3391 197.159 53.9407C197.159 54.5423 197.278 55.0732 197.517 55.5332C197.756 55.9933 198.088 56.3516 198.513 56.6082C198.946 56.8559 199.442 56.9798 199.999 56.9798C200.99 56.9798 201.698 56.5728 202.122 55.7588H204.365C204.029 56.6878 203.467 57.4089 202.68 57.922C201.901 58.4264 201.008 58.6785 199.999 58.6785C199.132 58.6785 198.336 58.4794 197.61 58.0813C196.885 57.6743 196.31 57.1125 195.885 56.3959C195.469 55.6704 195.261 54.852 195.261 53.9407C195.261 53.0382 195.469 52.2287 195.885 51.512C196.31 50.7866 196.885 50.2203 197.61 49.8133C198.336 49.4063 199.132 49.2029 199.999 49.2029ZM211.858 56.8603H208.248L207.651 58.5989H205.673L208.951 49.309H211.168L214.432 58.5989H212.455L211.858 56.8603ZM211.38 55.4271L210.053 51.5651L208.739 55.4271H211.38ZM221.865 49.3356V50.7689H218.003V53.1975H220.949V54.6308H218.003V58.5989H216.132V49.3356H221.865ZM225.607 50.7423V53.1709H228.686V54.6042H225.607V57.1656H229.084V58.5989H223.736V49.309H229.084V50.7423H225.607ZM237.64 50.7423V53.1709H240.719V54.6042H237.64V57.1656H241.117V58.5989H235.769V49.309H241.117V50.7423H237.64ZM248.109 53.9672L251.002 58.5989H248.892L246.981 55.5465L245.203 58.5989H243.093L245.999 53.9672L243.093 49.3356H245.203L247.114 52.3879L248.906 49.3356H251.002L248.109 53.9672ZM254.935 54.9095V58.5989H253.063V49.3356H256.474C257.191 49.3356 257.801 49.4639 258.305 49.7204C258.81 49.9682 259.186 50.3044 259.434 50.729C259.69 51.1449 259.818 51.6094 259.818 52.1225C259.818 52.5737 259.708 53.0117 259.487 53.4364C259.274 53.8522 258.916 54.2017 258.412 54.4848C257.916 54.7679 257.27 54.9095 256.474 54.9095H254.935ZM256.474 53.4762C256.943 53.4762 257.301 53.3567 257.549 53.1179C257.797 52.8701 257.921 52.5384 257.921 52.1225C257.921 51.7067 257.797 51.3793 257.549 51.1405C257.301 50.8927 256.943 50.7689 256.474 50.7689H254.935V53.4762H256.474ZM263.498 50.7423V53.1709H266.577V54.6042H263.498V57.1656H266.975V58.5989H261.626V49.309H266.975V50.7423H263.498ZM273.98 58.5989L271.764 54.9095H271.153V58.5989H269.282V49.3356H272.693C273.41 49.3356 274.02 49.4639 274.524 49.7204C275.029 49.9682 275.405 50.3044 275.652 50.729C275.909 51.1449 276.037 51.6094 276.037 52.1225C276.037 52.7065 275.86 53.2506 275.506 53.7549C275.153 54.2592 274.595 54.6042 273.834 54.79L276.197 58.5989H273.98ZM271.153 53.4762H272.693C273.162 53.4762 273.52 53.3567 273.768 53.1179C274.016 52.8701 274.139 52.5384 274.139 52.1225C274.139 51.7067 274.016 51.3793 273.768 51.1405C273.52 50.8927 273.162 50.7689 272.693 50.7689H271.153V53.4762ZM284.616 49.3356V50.7689H282.108V58.5989H280.25V50.7689H277.755V49.3356H284.616ZM292.937 55.9048C292.937 56.4003 292.8 56.8603 292.525 57.285C292.26 57.7097 291.875 58.0503 291.371 58.3069C290.875 58.5635 290.296 58.6918 289.632 58.6918C288.615 58.6918 287.796 58.4573 287.177 57.9884C286.558 57.5106 286.248 56.8427 286.248 55.9844H288.239C288.274 56.3826 288.407 56.6878 288.637 56.9002C288.876 57.1037 289.208 57.2054 289.632 57.2054C290.057 57.2054 290.393 57.0948 290.641 56.8736C290.889 56.6524 291.012 56.3649 291.012 56.011C291.012 55.7279 290.924 55.4978 290.747 55.3209C290.579 55.1439 290.367 55.0068 290.11 54.9095C289.862 54.8122 289.508 54.7016 289.048 54.5777C288.456 54.4273 287.973 54.2725 287.602 54.1132C287.23 53.954 286.912 53.7062 286.646 53.37C286.381 53.025 286.248 52.5605 286.248 51.9765C286.248 51.4191 286.385 50.9325 286.66 50.5167C286.943 50.092 287.332 49.7691 287.827 49.5479C288.323 49.3179 288.885 49.2029 289.513 49.2029C290.477 49.2029 291.251 49.424 291.835 49.8664C292.419 50.2999 292.738 50.9635 292.791 51.8571H290.747C290.712 51.5032 290.579 51.2245 290.349 51.021C290.119 50.8087 289.822 50.7025 289.46 50.7025C289.079 50.7025 288.77 50.7998 288.531 50.9945C288.301 51.1803 288.186 51.4678 288.186 51.8571C288.186 52.1491 288.27 52.3879 288.438 52.5737C288.615 52.7507 288.832 52.8878 289.088 52.9852C289.345 53.0825 289.699 53.1886 290.15 53.3037C290.743 53.4541 291.225 53.6089 291.596 53.7682C291.968 53.9274 292.282 54.1796 292.539 54.5246C292.804 54.8608 292.937 55.3209 292.937 55.9048Z" fill="white"/>
<defs>
<filter id="filter0_d_5918_59082" x="0.744955" y="0.816977" width="407.341" height="82.1958" filterUnits="userSpaceOnUse" color-interpolation-filters="sRGB">
<feFlood flood-opacity="0" result="BackgroundImageFix"/>
<feColorMatrix in="SourceAlpha" type="matrix" values="0 0 0 0 0 0 0 0 0 0 0 0 0 0 0 0 0 0 127 0" result="hardAlpha"/>
<feOffset dx="2.96992" dy="2.96992"/>
<feGaussianBlur stdDeviation="3.9599"/>
<feComposite in2="hardAlpha" operator="out"/>
<feColorMatrix type="matrix" values="0 0 0 0 0 0 0 0 0 0 0 0 0 0 0 0 0 0 0.25 0"/>
<feBlend mode="normal" in2="BackgroundImageFix" result="effect1_dropShadow_5918_59082"/>
<feBlend mode="normal" in="SourceGraphic" in2="effect1_dropShadow_5918_59082" result="shape"/>
</filter>
</defs>
</svg>
