<svg width="24" height="24" viewBox="0 0 24 24" fill="none" xmlns="http://www.w3.org/2000/svg">
<path d="M22.5527 14.4533C22.0859 16.8794 20.7637 19.0113 18.9063 20.5376C17.0371 22.0735 14.6309 22.9981 12.0059 22.9981C9.53906 22.9981 7.26367 22.1824 5.44922 20.8108C3.59375 19.4105 2.22266 17.4295 1.61523 15.1448L2.95508 14.8048C3.48242 16.7934 4.67773 18.5184 6.29297 19.7391C7.87109 20.9311 9.85156 21.6399 12.0039 21.6399C14.2949 21.6399 16.3926 20.8356 18.0156 19.5022C19.5684 18.2261 20.6914 16.4629 21.1367 14.4514H19.7051L21.8516 11.8935L23.998 14.4514H22.5527V14.4533ZM11.9707 15.1945V12.7971C11.1074 12.5831 10.4766 12.2603 10.0762 11.8285C9.67383 11.3949 9.4707 10.8696 9.4707 10.2506C9.4707 9.62403 9.69922 9.09679 10.1543 8.6727C10.6094 8.2467 11.2148 8.00218 11.9707 7.93723V7.37369H12.9355V7.93723C13.6426 8.00982 14.2031 8.21805 14.623 8.55999C15.0391 8.90194 15.3066 9.36041 15.4219 9.9335L13.7363 10.1207C13.6328 9.66988 13.3652 9.36423 12.9355 9.20377V11.4407C14.002 11.6872 14.7285 12.01 15.1133 12.4035C15.5 12.799 15.6934 13.3052 15.6934 13.9241C15.6934 14.6157 15.4512 15.1964 14.9648 15.6702C14.4785 16.1439 13.8027 16.4381 12.9355 16.5546V17.6244H11.9707V16.568C11.209 16.4878 10.5918 16.2452 10.1133 15.8364C9.63477 15.4275 9.33203 14.8487 9.19922 14.1018L10.9238 13.926C10.9941 14.2317 11.127 14.4934 11.3223 14.715C11.5176 14.9366 11.7324 15.0952 11.9707 15.1945ZM11.9707 9.18275C11.7109 9.26299 11.5059 9.3948 11.3555 9.57819C11.2031 9.76158 11.1289 9.96407 11.1289 10.1857C11.1289 10.3882 11.1973 10.5754 11.3359 10.7492C11.4746 10.9211 11.6875 11.0625 11.9727 11.1676V9.18275H11.9707ZM12.9355 15.29C13.2676 15.227 13.541 15.0894 13.748 14.8793C13.959 14.6672 14.0625 14.4189 14.0625 14.1304C14.0625 13.8764 13.9746 13.6548 13.7969 13.4714C13.623 13.2861 13.3359 13.1447 12.9336 13.0454V15.29H12.9355ZM1.45703 10.5467C1.91992 8.14164 3.22266 6.02693 5.05273 4.5025C6.92774 2.94178 9.35547 2 12.0039 2C14.334 2 16.4902 2.72592 18.25 3.95997C20.0566 5.22651 21.4434 7.02793 22.1719 9.12926L21.5156 9.34704L20.8594 9.56481C20.8418 9.51132 20.8223 9.45784 20.8027 9.40626C20.1563 7.64687 18.9707 6.13772 17.4434 5.06604C15.9121 3.99245 14.0352 3.36014 12.0059 3.36014C9.69336 3.36014 7.57813 4.17775 5.94922 5.53407C4.41797 6.80824 3.31445 8.55617 2.87109 10.5467H4.29492L2.14648 13.1046L0 10.5467H1.45703Z" fill="#14121F"/>
</svg>
