<svg width="257" height="65" viewBox="0 0 257 65" fill="none" xmlns="http://www.w3.org/2000/svg">
<path d="M7.03338 5.09114H0V0.402344H19.1517V5.09114H12.1185V23.5165H7.03338V5.09114Z" fill="white"/>
<path d="M22.1111 0.402344H27.1964V9.54891H36.5744V0.402344H41.6593V23.5165H36.5744V14.2377H27.1964V23.5165H22.1111V0.402344Z" fill="white"/>
<path d="M44.978 0.402344H62.4128V4.92624H50.0305V9.61503H60.9272V14.1389H50.0305V18.9926H62.5781V23.5165H44.978V0.402344Z" fill="white"/>
<path d="M138.852 12.0586C141.393 12.0586 142.879 10.5393 142.879 8.55834V8.49222C142.879 6.21394 141.295 4.99196 138.751 4.99196H134.822V12.0586H138.852ZM129.737 0.402344H139.18C144.695 0.402344 148.03 3.67099 148.03 8.39345V8.45916C148.03 13.8085 143.869 16.5825 138.686 16.5825H134.822V23.5165H129.737V0.402344Z" fill="white"/>
<path d="M150.808 13.6106V0.402344H155.894V13.4781C155.894 17.2427 157.777 19.1912 160.879 19.1912C163.984 19.1912 165.867 17.3088 165.867 13.6436V0.402344H170.952V13.4451C170.952 20.4458 167.022 23.8798 160.815 23.8798C154.606 23.8798 150.808 20.4128 150.808 13.6106Z" fill="white"/>
<path d="M185.144 19.0587C187.39 19.0587 188.744 18.2663 188.744 16.5494V16.4833C188.744 14.9314 187.587 13.9734 184.979 13.9734H179.103V19.0587H185.144ZM183.791 9.74686C186.035 9.74686 187.456 9.02057 187.456 7.30369V7.23758C187.456 5.71866 186.267 4.86013 184.12 4.86013H179.103V9.74686H183.791ZM174.148 0.402344H184.88C187.523 0.402344 189.603 1.12864 190.923 2.44941C191.98 3.5063 192.508 4.79401 192.508 6.37904V6.44516C192.508 9.05363 191.121 10.5068 189.47 11.4311C192.145 12.4547 193.796 14.0065 193.796 17.1108V17.1766C193.796 21.4031 190.361 23.5165 185.144 23.5165H174.148V0.402344Z" fill="white"/>
<path d="M202.401 12.0197V11.9536C202.401 5.38244 207.354 0 214.453 0C218.811 0 221.42 1.45321 223.567 3.56659L220.331 7.29786C218.547 5.67977 216.731 4.6894 214.419 4.6894C210.524 4.6894 207.716 7.92499 207.716 11.8875V11.9536C207.716 15.9161 210.458 19.2184 214.419 19.2184C217.062 19.2184 218.68 18.1617 220.495 16.5106L223.732 19.7792C221.353 22.3222 218.713 23.907 214.254 23.907C207.452 23.907 202.401 18.657 202.401 12.0197Z" fill="white"/>
<path d="M244.33 12.0197V11.9536C244.33 7.9911 241.423 4.6894 237.329 4.6894C233.235 4.6894 230.394 7.92499 230.394 11.8875V11.9536C230.394 15.9161 233.301 19.2184 237.395 19.2184C241.489 19.2184 244.33 15.9822 244.33 12.0197ZM225.079 12.0197V11.9536C225.079 5.38244 230.263 0 237.395 0C244.527 0 249.645 5.31632 249.645 11.8875V11.9536C249.645 18.5246 244.461 23.907 237.329 23.907C230.197 23.907 225.079 18.5907 225.079 12.0197Z" fill="white"/>
<path d="M256.317 18.2363H250.969V23.5196H256.317V18.2363Z" fill="white"/>
<path d="M111.684 6.87163L120.335 2.18062V0.354492H114.219L102.24 6.87405V8.30991H106.016C107.996 8.30991 109.944 7.81543 111.684 6.87163Z" fill="white"/>
<path d="M106.016 15.5908H102.24V17.0265L114.219 23.5461H120.335V21.7199L111.685 17.0289C109.944 16.0851 107.996 15.5908 106.016 15.5908Z" fill="white"/>
<path d="M100.882 9.63411V0.354492H96.0032V23.5537H100.882V14.2741H120.37V9.63411H100.882Z" fill="white"/>
<path d="M72.2859 13.6022L72.3254 0.354492H77.4105L77.3712 13.47C77.3712 17.2343 79.253 19.1828 82.3571 19.1828C85.4611 19.1828 87.3432 17.3005 87.3432 13.6353L87.3828 0.354492H92.4679L92.4283 13.4369C92.4283 20.4375 88.4991 23.8714 82.291 23.8714C76.0829 23.8714 72.2859 20.4044 72.2859 13.6022Z" fill="white"/>
<path d="M56.432 52.552C56.432 51.24 56.608 49.9867 56.96 48.792C57.312 47.5867 57.8027 46.504 58.432 45.544C59.072 44.584 59.8133 43.7947 60.656 43.176H62.208V43.32C60.736 44.472 59.6373 45.8587 58.912 47.48C58.1973 49.0907 57.84 50.7813 57.84 52.552C57.84 54.3333 58.1973 56.0347 58.912 57.656C59.6373 59.2773 60.736 60.6587 62.208 61.8V61.944H60.656C59.8133 61.3253 59.072 60.536 58.432 59.576C57.8027 58.616 57.312 57.5333 56.96 56.328C56.608 55.1227 56.432 53.864 56.432 52.552ZM70.9848 47.912V49.08H68.0568V59H66.6008V49.08H63.6728V47.912H70.9848ZM76.5191 50.072C77.2658 50.072 77.9165 50.248 78.4711 50.6C79.0365 50.952 79.4631 51.4107 79.7511 51.976V50.216H81.2231V59H79.7511V57.208C79.4631 57.784 79.0365 58.2533 78.4711 58.616C77.9165 58.968 77.2658 59.144 76.5191 59.144C75.7298 59.144 75.0151 58.952 74.3751 58.568C73.7458 58.1733 73.2445 57.6293 72.8711 56.936C72.5085 56.232 72.3271 55.4373 72.3271 54.552C72.3271 53.6667 72.5085 52.888 72.8711 52.216C73.2445 51.5333 73.7458 51.0053 74.3751 50.632C75.0151 50.2587 75.7298 50.072 76.5191 50.072ZM76.7751 51.336C76.2525 51.336 75.7618 51.464 75.3031 51.72C74.8551 51.976 74.4925 52.3493 74.2151 52.84C73.9485 53.32 73.8151 53.8907 73.8151 54.552C73.8151 55.2133 73.9485 55.8 74.2151 56.312C74.4925 56.8133 74.8551 57.2027 75.3031 57.48C75.7618 57.7573 76.2525 57.896 76.7751 57.896C77.3085 57.896 77.7991 57.7627 78.2471 57.496C78.7058 57.2293 79.0685 56.8507 79.3351 56.36C79.6125 55.8587 79.7511 55.2773 79.7511 54.616C79.7511 53.9547 79.6125 53.3787 79.3351 52.888C79.0685 52.3867 78.7058 52.0027 78.2471 51.736C77.7991 51.4693 77.3085 51.336 76.7751 51.336ZM85.0779 47.16V59H83.6219V47.16H85.0779ZM95.4493 54.248C95.4493 54.5573 95.4279 54.8453 95.3853 55.112H88.3932C88.4359 55.9867 88.7079 56.68 89.2093 57.192C89.7213 57.6933 90.3719 57.944 91.1613 57.944C91.7586 57.944 92.2599 57.8107 92.6653 57.544C93.0813 57.2773 93.3853 56.9253 93.5773 56.488H95.1453C94.8679 57.256 94.3879 57.8907 93.7053 58.392C93.0333 58.8933 92.1853 59.144 91.1613 59.144C90.3399 59.144 89.6039 58.9573 88.9533 58.584C88.3133 58.2107 87.8119 57.6827 87.4493 57C87.0866 56.3067 86.9053 55.512 86.9053 54.616C86.9053 53.7093 87.0866 52.9147 87.4493 52.232C87.8119 51.5387 88.3239 51.0053 88.9853 50.632C89.6466 50.2587 90.4093 50.072 91.2733 50.072C92.0946 50.072 92.8199 50.2533 93.4493 50.616C94.0786 50.9787 94.5693 51.4747 94.9213 52.104C95.2733 52.7333 95.4493 53.448 95.4493 54.248ZM93.9293 54.056C93.9293 53.4907 93.8066 53 93.5613 52.584C93.3159 52.1573 92.9799 51.832 92.5533 51.608C92.1373 51.384 91.6733 51.272 91.1613 51.272C90.4039 51.272 89.7693 51.5227 89.2573 52.024C88.7453 52.5147 88.4626 53.192 88.4093 54.056H93.9293ZM101.583 50.072C102.212 50.072 102.783 50.216 103.295 50.504C103.817 50.7813 104.228 51.2027 104.527 51.768C104.836 52.3227 104.991 53 104.991 53.8V59H103.551V54.04C103.551 53.1547 103.337 52.4827 102.911 52.024C102.484 51.5653 101.892 51.336 101.135 51.336C100.388 51.336 99.7958 51.5653 99.3585 52.024C98.9318 52.4827 98.7185 53.1547 98.7185 54.04V59H97.2625V50.216H98.7185V51.64C99.0065 51.128 99.4012 50.7387 99.9025 50.472C100.404 50.2053 100.964 50.072 101.583 50.072ZM111.389 57.816V59H109.917C109.171 59 108.6 58.8187 108.205 58.456C107.821 58.0933 107.629 57.5227 107.629 56.744V51.4H106.493V50.216H107.629V48.04H109.101V50.216H111.373V51.4H109.101V56.744C109.101 57.1387 109.181 57.416 109.341 57.576C109.501 57.736 109.784 57.816 110.189 57.816H111.389ZM120.818 50.072C121.767 50.072 122.519 50.3227 123.074 50.824C123.628 51.3147 123.932 51.992 123.986 52.856H122.482C122.46 52.3653 122.295 51.9707 121.986 51.672C121.676 51.3733 121.25 51.224 120.706 51.224C120.151 51.224 119.714 51.3573 119.394 51.624C119.084 51.88 118.93 52.2053 118.93 52.6C118.93 52.9307 119.026 53.1973 119.218 53.4C119.42 53.592 119.666 53.736 119.954 53.832C120.252 53.928 120.652 54.0293 121.154 54.136C121.794 54.2853 122.306 54.4347 122.69 54.584C123.084 54.7227 123.42 54.9627 123.698 55.304C123.975 55.6347 124.114 56.088 124.114 56.664C124.114 57.144 123.975 57.576 123.698 57.96C123.42 58.3333 123.031 58.6267 122.53 58.84C122.028 59.0427 121.452 59.144 120.802 59.144C119.82 59.144 119.031 58.8987 118.434 58.408C117.847 57.9173 117.527 57.24 117.474 56.376H118.978C118.999 56.8667 119.17 57.2613 119.49 57.56C119.82 57.848 120.258 57.992 120.802 57.992C121.399 57.992 121.858 57.8693 122.178 57.624C122.508 57.3787 122.674 57.0533 122.674 56.648C122.674 56.3173 122.572 56.056 122.37 55.864C122.178 55.6613 121.932 55.512 121.634 55.416C121.335 55.3093 120.924 55.1973 120.402 55.08C119.772 54.9413 119.26 54.8027 118.866 54.664C118.482 54.5147 118.151 54.2853 117.874 53.976C117.607 53.6667 117.474 53.24 117.474 52.696C117.474 52.216 117.607 51.7787 117.874 51.384C118.151 50.9787 118.54 50.6587 119.042 50.424C119.554 50.1893 120.146 50.072 120.818 50.072ZM130.072 50.072C130.904 50.072 131.656 50.2587 132.328 50.632C133 51.0053 133.528 51.5387 133.912 52.232C134.306 52.9253 134.504 53.72 134.504 54.616C134.504 55.5013 134.301 56.2907 133.896 56.984C133.49 57.6667 132.941 58.2 132.248 58.584C131.554 58.9573 130.786 59.144 129.944 59.144C129.122 59.144 128.381 58.9573 127.72 58.584C127.069 58.2107 126.557 57.6827 126.184 57C125.821 56.3067 125.64 55.512 125.64 54.616C125.64 53.7093 125.832 52.9147 126.216 52.232C126.61 51.5387 127.144 51.0053 127.816 50.632C128.488 50.2587 129.24 50.072 130.072 50.072ZM130.024 51.272C129.49 51.272 129.005 51.4 128.568 51.656C128.13 51.912 127.778 52.2907 127.512 52.792C127.256 53.2933 127.128 53.9013 127.128 54.616C127.128 55.32 127.25 55.9227 127.496 56.424C127.752 56.9253 128.093 57.304 128.52 57.56C128.946 57.816 129.421 57.944 129.944 57.944C130.477 57.944 130.973 57.816 131.432 57.56C131.901 57.2933 132.28 56.9093 132.568 56.408C132.856 55.9067 133 55.3093 133 54.616C133 53.912 132.861 53.3093 132.584 52.808C132.317 52.296 131.954 51.912 131.496 51.656C131.048 51.4 130.557 51.272 130.024 51.272ZM143.973 50.216V59H142.517V57.592C142.229 58.104 141.834 58.4933 141.333 58.76C140.832 59.016 140.272 59.144 139.653 59.144C139.024 59.144 138.448 59.0053 137.925 58.728C137.413 58.44 137.002 58.0187 136.693 57.464C136.394 56.9093 136.245 56.232 136.245 55.432V50.216H137.685V55.192C137.685 56.0667 137.898 56.7387 138.325 57.208C138.762 57.6667 139.354 57.896 140.101 57.896C140.848 57.896 141.434 57.6667 141.861 57.208C142.298 56.7387 142.517 56.0667 142.517 55.192V50.216H143.973ZM147.828 51.704C148.351 50.616 149.241 50.072 150.5 50.072V51.592H150.116C149.369 51.592 148.799 51.7893 148.404 52.184C148.02 52.568 147.828 53.24 147.828 54.2V59H146.372V50.216H147.828V51.704ZM155.943 50.072C156.999 50.072 157.857 50.3173 158.519 50.808C159.191 51.2987 159.66 51.9973 159.927 52.904H158.359C158.188 52.392 157.895 51.992 157.479 51.704C157.063 51.416 156.551 51.272 155.943 51.272C155.111 51.272 154.439 51.5653 153.927 52.152C153.425 52.728 153.174 53.5493 153.174 54.616C153.174 55.672 153.425 56.4933 153.927 57.08C154.439 57.656 155.111 57.944 155.943 57.944C156.561 57.944 157.073 57.8053 157.479 57.528C157.884 57.2507 158.177 56.8453 158.359 56.312H159.927C159.66 57.176 159.185 57.864 158.503 58.376C157.831 58.888 156.977 59.144 155.943 59.144C155.121 59.144 154.385 58.9573 153.735 58.584C153.095 58.2107 152.593 57.6827 152.231 57C151.868 56.3067 151.687 55.512 151.687 54.616C151.687 53.7093 151.868 52.9147 152.231 52.232C152.593 51.5387 153.095 51.0053 153.735 50.632C154.375 50.2587 155.111 50.072 155.943 50.072ZM161.616 47.816C161.616 47.5387 161.712 47.304 161.904 47.112C162.096 46.92 162.326 46.824 162.592 46.824C162.87 46.824 163.104 46.92 163.296 47.112C163.488 47.304 163.584 47.5387 163.584 47.816C163.584 48.0933 163.488 48.328 163.296 48.52C163.104 48.712 162.87 48.808 162.592 48.808C162.315 48.808 162.08 48.712 161.888 48.52C161.707 48.328 161.616 48.0933 161.616 47.816ZM163.312 50.216V59H161.856V50.216H163.312ZM170.036 50.072C170.665 50.072 171.236 50.216 171.748 50.504C172.27 50.7813 172.681 51.2027 172.98 51.768C173.289 52.3227 173.444 53 173.444 53.8V59H172.004V54.04C172.004 53.1547 171.79 52.4827 171.364 52.024C170.937 51.5653 170.345 51.336 169.588 51.336C168.841 51.336 168.249 51.5653 167.812 52.024C167.385 52.4827 167.172 53.1547 167.172 54.04V59H165.716V50.216H167.172V51.64C167.46 51.128 167.854 50.7387 168.356 50.472C168.857 50.2053 169.417 50.072 170.036 50.072ZM179.379 50.072C180.125 50.072 180.776 50.248 181.331 50.6C181.896 50.952 182.323 51.4107 182.611 51.976V50.216H184.083V59.224C184.083 60.024 183.907 60.7333 183.555 61.352C183.203 61.9707 182.707 62.4507 182.067 62.792C181.427 63.144 180.685 63.32 179.843 63.32C179.107 63.32 178.435 63.192 177.827 62.936C177.219 62.6907 176.723 62.3387 176.339 61.88C175.955 61.4213 175.725 60.8987 175.651 60.312H177.075C177.213 60.8133 177.539 61.2293 178.051 61.56C178.563 61.8907 179.16 62.056 179.843 62.056C180.675 62.056 181.341 61.8053 181.843 61.304C182.355 60.8133 182.611 60.12 182.611 59.224V57.208C182.323 57.784 181.896 58.2533 181.331 58.616C180.776 58.968 180.125 59.144 179.379 59.144C178.589 59.144 177.875 58.952 177.235 58.568C176.605 58.1733 176.104 57.6293 175.731 56.936C175.368 56.232 175.187 55.4373 175.187 54.552C175.187 53.6667 175.368 52.888 175.731 52.216C176.104 51.5333 176.605 51.0053 177.235 50.632C177.875 50.2587 178.589 50.072 179.379 50.072ZM179.635 51.336C179.112 51.336 178.621 51.464 178.163 51.72C177.715 51.976 177.352 52.3493 177.075 52.84C176.808 53.32 176.674 53.8907 176.674 54.552C176.674 55.2133 176.808 55.8 177.075 56.312C177.352 56.8133 177.715 57.2027 178.163 57.48C178.621 57.7573 179.112 57.896 179.635 57.896C180.168 57.896 180.659 57.7627 181.107 57.496C181.565 57.2293 181.928 56.8507 182.195 56.36C182.472 55.8587 182.611 55.2773 182.611 54.616C182.611 53.9547 182.472 53.3787 182.195 52.888C181.928 52.3867 181.565 52.0027 181.107 51.736C180.659 51.4693 180.168 51.336 179.635 51.336ZM191.841 52.552C191.841 53.864 191.665 55.1227 191.313 56.328C190.961 57.5333 190.465 58.616 189.825 59.576C189.196 60.536 188.46 61.3253 187.617 61.944H186.065V61.8C187.527 60.6587 188.62 59.2773 189.345 57.656C190.071 56.0347 190.433 54.3333 190.433 52.552C190.433 50.7813 190.071 49.0907 189.345 47.48C188.62 45.8587 187.527 44.472 186.065 43.32V43.176H187.617C188.46 43.7947 189.196 44.584 189.825 45.544C190.465 46.504 190.961 47.5867 191.313 48.792C191.665 49.9867 191.841 51.24 191.841 52.552Z" fill="white"/>
</svg>
