<svg width="405" height="84" viewBox="0 0 405 84" fill="none" xmlns="http://www.w3.org/2000/svg">
<path d="M24.882 83.0391C7.86909 83.0391 5.08256 76.3659 5.08252 70.1694H24.882V83.0391Z" fill="#03A4F5"/>
<g filter="url(#filter0_d_5918_59105)">
<path d="M40.1367 5.78711H388.628C393.002 5.78711 396.548 9.33292 396.548 13.7069V46.4031C396.548 59.525 386.009 70.1624 372.887 70.1624C311.624 70.1624 144.572 70.1624 29.3941 70.1624C5.05065 70.1624 5.07909 72.1432 5.07909 72.1432C5.07909 72.1432 4.09673 37.0362 12.9816 20.1478C20.2761 6.2823 40.1367 5.78711 40.1367 5.78711Z" fill="#03A4F5"/>
</g>
<path d="M59.7522 22.6719V28.3801H66.245V30.7608H59.7522V36.6855H67.0566V39.0933H56.6681V20.2641H67.0566V22.6719H59.7522ZM76.8611 23.9434C78.0334 23.9434 79.0614 24.2139 79.9452 24.755C80.847 25.278 81.5413 25.9724 82.0283 26.8381V19.0738H85.1394V39.0933H82.0283V36.3068C81.5233 37.2266 80.8289 37.966 79.9452 38.5251C79.0614 39.0662 78.0334 39.3367 76.8611 39.3367C75.5625 39.3367 74.3722 39.0121 73.2901 38.3628C72.226 37.6955 71.3783 36.7757 70.747 35.6034C70.1338 34.413 69.8272 33.0694 69.8272 31.5724C69.8272 30.0755 70.1338 28.7499 70.747 27.5956C71.3783 26.4413 72.226 25.5486 73.2901 24.9173C74.3722 24.268 75.5625 23.9434 76.8611 23.9434ZM77.5104 26.6217C76.7168 26.6217 75.9774 26.8201 75.292 27.2169C74.6067 27.5956 74.0476 28.1637 73.6147 28.9212C73.1999 29.6607 72.9925 30.5444 72.9925 31.5724C72.9925 32.6005 73.1999 33.5022 73.6147 34.2778C74.0476 35.0533 74.6067 35.6485 75.292 36.0633C75.9954 36.4601 76.7349 36.6585 77.5104 36.6585C78.3039 36.6585 79.0434 36.4601 79.7288 36.0633C80.4141 35.6665 80.9642 35.0894 81.379 34.3319C81.8119 33.5563 82.0283 32.6546 82.0283 31.6265C82.0283 30.5985 81.8119 29.7058 81.379 28.9483C80.9642 28.1908 80.4141 27.6136 79.7288 27.2169C79.0434 26.8201 78.3039 26.6217 77.5104 26.6217ZM95.1961 23.9434C96.3684 23.9434 97.3964 24.2139 98.2801 24.755C99.1819 25.278 99.8763 25.9724 100.363 26.8381V19.0738H103.474V39.0933H100.363V36.3068C99.8583 37.2266 99.1639 37.966 98.2801 38.5251C97.3964 39.0662 96.3684 39.3367 95.1961 39.3367C93.8975 39.3367 92.7072 39.0121 91.625 38.3628C90.5609 37.6955 89.7133 36.7757 89.082 35.6034C88.4688 34.413 88.1622 33.0694 88.1622 31.5724C88.1622 30.0755 88.4688 28.7499 89.082 27.5956C89.7133 26.4413 90.5609 25.5486 91.625 24.9173C92.7072 24.268 93.8975 23.9434 95.1961 23.9434ZM95.8453 26.6217C95.0518 26.6217 94.3123 26.8201 93.627 27.2169C92.9416 27.5956 92.3825 28.1637 91.9497 28.9212C91.5348 29.6607 91.3274 30.5444 91.3274 31.5724C91.3274 32.6005 91.5348 33.5022 91.9497 34.2778C92.3825 35.0533 92.9416 35.6485 93.627 36.0633C94.3304 36.4601 95.0698 36.6585 95.8453 36.6585C96.6389 36.6585 97.3784 36.4601 98.0637 36.0633C98.7491 35.6665 99.2992 35.0894 99.714 34.3319C100.147 33.5563 100.363 32.6546 100.363 31.6265C100.363 30.5985 100.147 29.7058 99.714 28.9483C99.2992 28.1908 98.7491 27.6136 98.0637 27.2169C97.3784 26.8201 96.6389 26.6217 95.8453 26.6217ZM107.119 20.2371C107.119 19.678 107.309 19.2091 107.688 18.8303C108.066 18.4516 108.535 18.2622 109.094 18.2622C109.635 18.2622 110.095 18.4516 110.474 18.8303C110.853 19.2091 111.042 19.678 111.042 20.2371C111.042 20.7962 110.853 21.2651 110.474 21.6439C110.095 22.0226 109.635 22.212 109.094 22.212C108.535 22.212 108.066 22.0226 107.688 21.6439C107.309 21.2651 107.119 20.7962 107.119 20.2371ZM110.609 24.1869V39.0933H107.525V24.1869H110.609ZM128.32 31.2207C128.32 31.7438 128.284 32.2307 128.212 32.6816H116.796C116.868 33.9261 117.283 34.918 118.04 35.6575C118.816 36.3789 119.78 36.7396 120.935 36.7396C122.612 36.7396 123.793 36.0453 124.479 34.6565H127.806C127.355 36.0272 126.535 37.1544 125.344 38.0382C124.154 38.9039 122.684 39.3367 120.935 39.3367C119.51 39.3367 118.247 39.0211 117.147 38.3899C116.047 37.7406 115.181 36.8388 114.55 35.6845C113.937 34.5122 113.63 33.1596 113.63 31.6265C113.63 30.0935 113.937 28.7499 114.55 27.5956C115.181 26.4233 116.056 25.5215 117.174 24.8903C118.311 24.259 119.609 23.9434 121.07 23.9434C122.477 23.9434 123.73 24.25 124.83 24.8632C125.931 25.4764 126.787 26.3331 127.401 27.4333C128.014 28.5334 128.32 29.7959 128.32 31.2207ZM125.101 30.5715C125.083 29.345 124.677 28.3711 123.884 27.6497C123.09 26.9102 122.107 26.5405 120.935 26.5405C119.835 26.5405 118.897 26.9102 118.121 27.6497C117.364 28.3711 116.931 29.345 116.823 30.5715H125.101ZM149.07 29.4352C150.296 29.6336 151.279 30.1837 152.019 31.0855C152.776 31.9692 153.155 32.9882 153.155 34.1425C153.155 35.0804 152.903 35.928 152.398 36.6855C151.911 37.425 151.198 38.0111 150.26 38.444C149.322 38.8768 148.231 39.0933 146.987 39.0933H139.466V20.2912H146.635C147.916 20.2912 149.016 20.5076 149.936 20.9405C150.856 21.3733 151.55 21.9685 152.019 22.726C152.488 23.4835 152.722 24.3312 152.722 25.269C152.722 26.3331 152.407 27.2169 151.775 27.9202C151.144 28.6056 150.242 29.1106 149.07 29.4352ZM142.55 28.2719H146.365C147.375 28.2719 148.159 28.0285 148.718 27.5415C149.295 27.0545 149.584 26.3782 149.584 25.5125C149.584 24.6288 149.295 23.9434 148.718 23.4564C148.159 22.9514 147.375 22.6989 146.365 22.6989H142.55V28.2719ZM146.716 36.6855C147.762 36.6855 148.583 36.424 149.178 35.901C149.773 35.3779 150.071 34.6475 150.071 33.7097C150.071 32.7898 149.755 32.0594 149.124 31.5183C148.493 30.9592 147.654 30.6797 146.608 30.6797H142.55V36.6855H146.716ZM163.108 23.9434C164.532 23.9434 165.822 24.259 166.976 24.8903C168.13 25.5215 169.041 26.4233 169.709 27.5956C170.376 28.7679 170.709 30.1116 170.709 31.6265C170.709 33.1415 170.367 34.4852 169.681 35.6575C168.996 36.8298 168.058 37.7406 166.868 38.3899C165.696 39.0211 164.397 39.3367 162.972 39.3367C161.565 39.3367 160.294 39.0211 159.158 38.3899C158.021 37.7406 157.129 36.8388 156.479 35.6845C155.83 34.5122 155.506 33.1596 155.506 31.6265C155.506 30.1116 155.839 28.7679 156.506 27.5956C157.174 26.4233 158.085 25.5215 159.239 24.8903C160.393 24.259 161.683 23.9434 163.108 23.9434ZM163.053 26.5405C162.26 26.5405 161.529 26.7389 160.862 27.1357C160.195 27.5144 159.654 28.0916 159.239 28.8671C158.842 29.6246 158.644 30.5444 158.644 31.6265C158.644 32.7087 158.833 33.6375 159.212 34.413C159.609 35.1886 160.132 35.7747 160.781 36.1715C161.448 36.5502 162.179 36.7396 162.972 36.7396C163.766 36.7396 164.505 36.5412 165.191 36.1444C165.894 35.7477 166.462 35.1705 166.895 34.413C167.328 33.6375 167.544 32.7087 167.544 31.6265C167.544 30.5444 167.337 29.6246 166.922 28.8671C166.507 28.0916 165.957 27.5144 165.272 27.1357C164.586 26.7389 163.847 26.5405 163.053 26.5405ZM181.604 23.9434C182.686 23.9434 183.66 24.1869 184.525 24.6738C185.409 25.1608 186.104 25.8822 186.609 26.8381C187.132 27.794 187.393 28.9483 187.393 30.3009V39.0933H184.336V30.7608C184.336 29.4262 184.002 28.4072 183.335 27.7038C182.668 26.9824 181.757 26.6217 180.603 26.6217C179.448 26.6217 178.529 26.9824 177.843 27.7038C177.176 28.4072 176.842 29.4262 176.842 30.7608V39.0933H173.758V24.1869H176.842V26.5405C177.329 25.6928 177.979 25.0526 178.79 24.6197C179.62 24.1688 180.558 23.9434 181.604 23.9434ZM204.989 31.2207C204.989 31.7438 204.953 32.2307 204.881 32.6816H193.464C193.536 33.9261 193.951 34.918 194.709 35.6575C195.484 36.3789 196.449 36.7396 197.603 36.7396C199.281 36.7396 200.462 36.0453 201.147 34.6565H204.475C204.024 36.0272 203.203 37.1544 202.013 38.0382C200.823 38.9039 199.353 39.3367 197.603 39.3367C196.179 39.3367 194.916 39.0211 193.816 38.3899C192.716 37.7406 191.85 36.8388 191.219 35.6845C190.606 34.5122 190.299 33.1596 190.299 31.6265C190.299 30.0935 190.606 28.7499 191.219 27.5956C191.85 26.4233 192.725 25.5215 193.843 24.8903C194.979 24.259 196.278 23.9434 197.739 23.9434C199.145 23.9434 200.399 24.25 201.499 24.8632C202.599 25.4764 203.456 26.3331 204.069 27.4333C204.682 28.5334 204.989 29.7959 204.989 31.2207ZM201.77 30.5715C201.752 29.345 201.346 28.3711 200.552 27.6497C199.759 26.9102 198.776 26.5405 197.603 26.5405C196.503 26.5405 195.565 26.9102 194.79 27.6497C194.032 28.3711 193.6 29.345 193.491 30.5715H201.77ZM211.108 19.0738V39.0933H208.024V19.0738H211.108ZM218.241 19.0738V39.0933H215.157V19.0738H218.241ZM228.891 23.9434C230.316 23.9434 231.606 24.259 232.76 24.8903C233.914 25.5215 234.825 26.4233 235.492 27.5956C236.16 28.7679 236.493 30.1116 236.493 31.6265C236.493 33.1415 236.151 34.4852 235.465 35.6575C234.78 36.8298 233.842 37.7406 232.652 38.3899C231.48 39.0211 230.181 39.3367 228.756 39.3367C227.349 39.3367 226.078 39.0211 224.942 38.3899C223.805 37.7406 222.913 36.8388 222.263 35.6845C221.614 34.5122 221.289 33.1596 221.289 31.6265C221.289 30.1116 221.623 28.7679 222.29 27.5956C222.958 26.4233 223.869 25.5215 225.023 24.8903C226.177 24.259 227.467 23.9434 228.891 23.9434ZM228.837 26.5405C228.044 26.5405 227.313 26.7389 226.646 27.1357C225.979 27.5144 225.438 28.0916 225.023 28.8671C224.626 29.6246 224.428 30.5444 224.428 31.6265C224.428 32.7087 224.617 33.6375 224.996 34.413C225.393 35.1886 225.916 35.7747 226.565 36.1715C227.232 36.5502 227.963 36.7396 228.756 36.7396C229.55 36.7396 230.289 36.5412 230.975 36.1444C231.678 35.7477 232.246 35.1705 232.679 34.413C233.112 33.6375 233.328 32.7087 233.328 31.6265C233.328 30.5444 233.121 29.6246 232.706 28.8671C232.291 28.0916 231.741 27.5144 231.056 27.1357C230.37 26.7389 229.631 26.5405 228.837 26.5405Z" fill="white"/>
<path d="M58.3135 50.6815V52.1148H54.4515V54.5434H57.3978V55.9767H54.4515V59.9448H52.5803V50.6815H58.3135ZM64.4045 50.5488C65.2804 50.5488 66.0767 50.7523 66.7934 51.1593C67.5189 51.5663 68.0895 52.1325 68.5053 52.858C68.93 53.5746 69.1424 54.3842 69.1424 55.2866C69.1424 56.1979 68.93 57.0163 68.5053 57.7418C68.0895 58.4584 67.5189 59.0203 66.7934 59.4272C66.0679 59.8342 65.2716 60.0377 64.4045 60.0377C63.5375 60.0377 62.7412 59.8342 62.0157 59.4272C61.2902 59.0203 60.7151 58.4584 60.2905 57.7418C59.8746 57.0163 59.6667 56.1979 59.6667 55.2866C59.6667 54.3842 59.8746 53.5746 60.2905 52.858C60.7151 52.1325 61.2902 51.5663 62.0157 51.1593C62.7412 50.7523 63.5375 50.5488 64.4045 50.5488ZM64.4045 52.2608C63.8472 52.2608 63.3517 52.3847 62.9182 52.6324C62.4935 52.8801 62.1617 53.234 61.9228 53.6941C61.6839 54.1541 61.5645 54.685 61.5645 55.2866C61.5645 55.8883 61.6839 56.4191 61.9228 56.8792C62.1617 57.3392 62.4935 57.6976 62.9182 57.9541C63.3517 58.2019 63.8472 58.3257 64.4045 58.3257C64.9619 58.3257 65.453 58.2019 65.8776 57.9541C66.3023 57.6976 66.6341 57.3437 66.873 56.8924C67.1119 56.4324 67.2313 55.8971 67.2313 55.2866C67.2313 54.6762 67.1119 54.1453 66.873 53.6941C66.6341 53.234 66.3023 52.8801 65.8776 52.6324C65.453 52.3847 64.9619 52.2608 64.4045 52.2608ZM72.8601 50.6815V56.3881C72.8601 57.0252 73.0193 57.5073 73.3378 57.8347C73.6652 58.1621 74.1297 58.3257 74.7313 58.3257C75.3329 58.3257 75.7974 58.1621 76.1248 57.8347C76.4521 57.5073 76.6158 57.0252 76.6158 56.3881V50.6815H78.4738V56.3881C78.4738 57.1756 78.2968 57.8435 77.9429 58.3921C77.5979 58.9406 77.1378 59.352 76.5627 59.6263C75.9965 59.9006 75.3728 60.0377 74.6915 60.0377C74.0191 60.0377 73.3998 59.9006 72.8335 59.6263C72.2761 59.352 71.8293 58.9406 71.4931 58.3921C71.1569 57.8435 70.9888 57.1756 70.9888 56.3881V50.6815H72.8601ZM88.7588 59.9448H86.8875L82.6938 53.5216V59.9448H80.8226V50.655H82.6938L86.8875 57.0782V50.655H88.7588V59.9448ZM99.2702 55.3264C99.2702 56.2554 99.0623 57.0694 98.6465 57.7683C98.2306 58.4584 97.6467 58.9937 96.8947 59.3742C96.1426 59.7546 95.2756 59.9448 94.2935 59.9448H91.1482V50.6815H94.2935C95.2756 50.6815 96.1426 50.8762 96.8947 51.2654C97.6467 51.6459 98.2306 52.1856 98.6465 52.8845C99.0623 53.5835 99.2702 54.3975 99.2702 55.3264ZM94.2935 58.5248C95.2667 58.5248 96.0232 58.2373 96.5629 57.6622C97.1026 57.0871 97.3724 56.3085 97.3724 55.3264C97.3724 54.3444 97.1026 53.5658 96.5629 52.9907C96.0232 52.4156 95.2667 52.1281 94.2935 52.1281H93.0195V58.5248H94.2935ZM103.008 52.0883V54.5169H106.087V55.9502H103.008V58.5115H106.485V59.9448H101.137V50.655H106.485V52.0883H103.008ZM113.491 59.9448L111.274 56.2554H110.664V59.9448H108.793V50.6815H112.203C112.92 50.6815 113.531 50.8098 114.035 51.0664C114.539 51.3141 114.915 51.6503 115.163 52.075C115.419 52.4908 115.548 52.9553 115.548 53.4685C115.548 54.0524 115.371 54.5965 115.017 55.1008C114.663 55.6051 114.106 55.9502 113.345 56.136L115.707 59.9448H113.491ZM110.664 54.8221H112.203C112.672 54.8221 113.031 54.7027 113.278 54.4638C113.526 54.2161 113.65 53.8843 113.65 53.4685C113.65 53.0526 113.526 52.7253 113.278 52.4864C113.031 52.2387 112.672 52.1148 112.203 52.1148H110.664V54.8221ZM128.065 59.9448L127.044 58.5381C126.814 58.9804 126.468 59.3432 126.008 59.6263C125.557 59.9006 125.062 60.0377 124.522 60.0377C123.991 60.0377 123.505 59.9139 123.062 59.6661C122.62 59.4096 122.27 59.0645 122.014 58.631C121.757 58.1886 121.629 57.6976 121.629 57.1579C121.629 56.6624 121.731 56.2112 121.934 55.8042C122.138 55.3972 122.412 55.0699 122.757 54.8221C123.111 54.5656 123.496 54.4063 123.912 54.3444C123.637 53.9462 123.438 53.6012 123.314 53.3092C123.19 53.0172 123.129 52.7253 123.129 52.4333C123.129 52.0263 123.226 51.6503 123.421 51.3053C123.624 50.9514 123.92 50.6682 124.31 50.4559C124.708 50.2347 125.177 50.1241 125.716 50.1241C126.256 50.1241 126.721 50.2259 127.11 50.4294C127.508 50.6329 127.809 50.8983 128.012 51.2256C128.225 51.5441 128.331 51.8892 128.331 52.2608C128.331 52.5528 128.278 52.8049 128.172 53.0172H126.38C126.46 52.8668 126.499 52.6943 126.499 52.4997C126.499 52.2696 126.424 52.0794 126.274 51.929C126.132 51.7786 125.946 51.7034 125.716 51.7034C125.486 51.7034 125.301 51.7786 125.159 51.929C125.017 52.0794 124.947 52.2608 124.947 52.4731C124.947 52.6235 124.973 52.7695 125.026 52.9111C125.088 53.0438 125.194 53.2119 125.345 53.4154L130.242 59.9448H128.065ZM124.535 58.5115C124.898 58.5115 125.208 58.3788 125.464 58.1134C125.73 57.8391 125.862 57.5118 125.862 57.1313C125.862 56.7509 125.73 56.4324 125.464 56.1758C125.208 55.9104 124.898 55.7777 124.535 55.7777C124.173 55.7777 123.863 55.9104 123.606 56.1758C123.35 56.4324 123.221 56.7509 123.221 57.1313C123.221 57.5118 123.35 57.8391 123.606 58.1134C123.863 58.3788 124.173 58.5115 124.535 58.5115ZM140.319 50.5488C141.327 50.5488 142.221 50.8054 142.999 51.3185C143.787 51.8317 144.349 52.5528 144.685 53.4817H142.442C142.026 52.6678 141.318 52.2608 140.319 52.2608C139.761 52.2608 139.266 52.3847 138.832 52.6324C138.407 52.8801 138.076 53.234 137.837 53.6941C137.598 54.1541 137.478 54.685 137.478 55.2866C137.478 55.8883 137.598 56.4191 137.837 56.8792C138.076 57.3392 138.407 57.6976 138.832 57.9541C139.266 58.2019 139.761 58.3257 140.319 58.3257C141.309 58.3257 142.017 57.9188 142.442 57.1048H144.685C144.349 58.0338 143.787 58.7548 142.999 59.268C142.221 59.7723 141.327 60.0245 140.319 60.0245C139.451 60.0245 138.655 59.8254 137.93 59.4272C137.204 59.0203 136.629 58.4584 136.204 57.7418C135.789 57.0163 135.581 56.1979 135.581 55.2866C135.581 54.3842 135.789 53.5746 136.204 52.858C136.629 52.1325 137.204 51.5663 137.93 51.1593C138.655 50.7523 139.451 50.5488 140.319 50.5488ZM148.567 52.0883V54.5169H151.646V55.9502H148.567V58.5115H152.044V59.9448H146.696V50.655H152.044V52.0883H148.567ZM158.572 50.5488C159.448 50.5488 160.244 50.7523 160.961 51.1593C161.686 51.5663 162.257 52.1325 162.673 52.858C163.098 53.5746 163.31 54.3842 163.31 55.2866C163.31 56.1979 163.098 57.0163 162.673 57.7418C162.257 58.4584 161.686 59.0203 160.961 59.4272C160.235 59.8342 159.439 60.0377 158.572 60.0377C157.705 60.0377 156.909 59.8342 156.183 59.4272C155.458 59.0203 154.883 58.4584 154.458 57.7418C154.042 57.0163 153.834 56.1979 153.834 55.2866C153.834 54.3842 154.042 53.5746 154.458 52.858C154.883 52.1325 155.458 51.5663 156.183 51.1593C156.909 50.7523 157.705 50.5488 158.572 50.5488ZM158.572 52.2608C158.015 52.2608 157.519 52.3847 157.086 52.6324C156.661 52.8801 156.329 53.234 156.09 53.6941C155.852 54.1541 155.732 54.685 155.732 55.2866C155.732 55.8883 155.852 56.4191 156.09 56.8792C156.329 57.3392 156.661 57.6976 157.086 57.9541C157.519 58.2019 158.015 58.3257 158.572 58.3257C159.13 58.3257 159.621 58.2019 160.045 57.9541C160.47 57.6976 160.802 57.3437 161.041 56.8924C161.279 56.4324 161.399 55.8971 161.399 55.2866C161.399 54.6762 161.279 54.1453 161.041 53.6941C160.802 53.234 160.47 52.8801 160.045 52.6324C159.621 52.3847 159.13 52.2608 158.572 52.2608ZM166.258 58.7371C166.47 59.3211 166.576 59.8519 166.576 60.3297C166.576 60.8871 166.43 61.3339 166.138 61.6701C165.855 62.0063 165.417 62.1744 164.825 62.1744V61.4312C165.055 61.4312 165.223 61.3781 165.329 61.2719C165.435 61.1658 165.488 60.98 165.488 60.7146V60.4624H164.626V58.7371H166.258ZM182.973 50.6815V59.9448H181.115V54.0922L178.594 59.9448H177.254L174.745 54.1188V59.9448H172.874V50.6815H174.958L177.93 57.5427L180.903 50.6815H182.973ZM189.584 50.5488C190.46 50.5488 191.256 50.7523 191.973 51.1593C192.699 51.5663 193.269 52.1325 193.685 52.858C194.11 53.5746 194.322 54.3842 194.322 55.2866C194.322 56.1979 194.11 57.0163 193.685 57.7418C193.269 58.4584 192.699 59.0203 191.973 59.4272C191.248 59.8342 190.451 60.0377 189.584 60.0377C188.717 60.0377 187.921 59.8342 187.195 59.4272C186.47 59.0203 185.895 58.4584 185.47 57.7418C185.054 57.0163 184.846 56.1979 184.846 55.2866C184.846 54.3842 185.054 53.5746 185.47 52.858C185.895 52.1325 186.47 51.5663 187.195 51.1593C187.921 50.7523 188.717 50.5488 189.584 50.5488ZM189.584 52.2608C189.027 52.2608 188.531 52.3847 188.098 52.6324C187.673 52.8801 187.341 53.234 187.103 53.6941C186.864 54.1541 186.744 54.685 186.744 55.2866C186.744 55.8883 186.864 56.4191 187.103 56.8792C187.341 57.3392 187.673 57.6976 188.098 57.9541C188.531 58.2019 189.027 58.3257 189.584 58.3257C190.142 58.3257 190.633 58.2019 191.057 57.9541C191.482 57.6976 191.814 57.3437 192.053 56.8924C192.292 56.4324 192.411 55.8971 192.411 55.2866C192.411 54.6762 192.292 54.1453 192.053 53.6941C191.814 53.234 191.482 52.8801 191.057 52.6324C190.633 52.3847 190.142 52.2608 189.584 52.2608ZM198.066 58.5248H201.039V59.9448H196.195V50.6815H198.066V58.5248ZM204.569 52.0883V54.5169H207.648V55.9502H204.569V58.5115H208.046V59.9448H202.697V50.655H208.046V52.0883H204.569ZM214.574 50.5488C215.582 50.5488 216.476 50.8054 217.254 51.3185C218.042 51.8317 218.604 52.5528 218.94 53.4817H216.697C216.281 52.6678 215.573 52.2608 214.574 52.2608C214.016 52.2608 213.521 52.3847 213.087 52.6324C212.662 52.8801 212.331 53.234 212.092 53.6941C211.853 54.1541 211.734 54.685 211.734 55.2866C211.734 55.8883 211.853 56.4191 212.092 56.8792C212.331 57.3392 212.662 57.6976 213.087 57.9541C213.521 58.2019 214.016 58.3257 214.574 58.3257C215.564 58.3257 216.272 57.9188 216.697 57.1048H218.94C218.604 58.0338 218.042 58.7548 217.254 59.268C216.476 59.7723 215.582 60.0245 214.574 60.0245C213.706 60.0245 212.91 59.8254 212.185 59.4272C211.459 59.0203 210.884 58.4584 210.459 57.7418C210.044 57.0163 209.836 56.1979 209.836 55.2866C209.836 54.3842 210.044 53.5746 210.459 52.858C210.884 52.1325 211.459 51.5663 212.185 51.1593C212.91 50.7523 213.706 50.5488 214.574 50.5488ZM222.796 50.6815V56.3881C222.796 57.0252 222.955 57.5073 223.274 57.8347C223.601 58.1621 224.065 58.3257 224.667 58.3257C225.269 58.3257 225.733 58.1621 226.061 57.8347C226.388 57.5073 226.552 57.0252 226.552 56.3881V50.6815H228.41V56.3881C228.41 57.1756 228.233 57.8435 227.879 58.3921C227.534 58.9406 227.074 59.352 226.498 59.6263C225.932 59.9006 225.308 60.0377 224.627 60.0377C223.955 60.0377 223.335 59.9006 222.769 59.6263C222.212 59.352 221.765 58.9406 221.429 58.3921C221.093 57.8435 220.925 57.1756 220.925 56.3881V50.6815H222.796ZM232.63 58.5248H235.602V59.9448H230.758V50.6815H232.63V58.5248ZM242.742 58.2063H239.132L238.535 59.9448H236.557L239.835 50.655H242.052L245.316 59.9448H243.339L242.742 58.2063ZM242.264 56.773L240.937 52.9111L239.623 56.773H242.264ZM251.714 59.9448L249.498 56.2554H248.887V59.9448H247.016V50.6815H250.427C251.143 50.6815 251.754 50.8098 252.258 51.0664C252.763 51.3141 253.139 51.6503 253.386 52.075C253.643 52.4908 253.771 52.9553 253.771 53.4685C253.771 54.0524 253.594 54.5965 253.24 55.1008C252.886 55.6051 252.329 55.9502 251.568 56.136L253.93 59.9448H251.714ZM248.887 54.8221H250.427C250.896 54.8221 251.254 54.7027 251.502 54.4638C251.749 54.2161 251.873 53.8843 251.873 53.4685C251.873 53.0526 251.749 52.7253 251.502 52.4864C251.254 52.2387 250.896 52.1148 250.427 52.1148H248.887V54.8221ZM266.143 50.6815V52.1148H262.281V54.5434H265.227V55.9767H262.281V59.9448H260.41V50.6815H266.143ZM269.858 50.6815V56.3881C269.858 57.0252 270.018 57.5073 270.336 57.8347C270.663 58.1621 271.128 58.3257 271.73 58.3257C272.331 58.3257 272.796 58.1621 273.123 57.8347C273.45 57.5073 273.614 57.0252 273.614 56.3881V50.6815H275.472V56.3881C275.472 57.1756 275.295 57.8435 274.941 58.3921C274.596 58.9406 274.136 59.352 273.561 59.6263C272.995 59.9006 272.371 60.0377 271.69 60.0377C271.017 60.0377 270.398 59.9006 269.832 59.6263C269.274 59.352 268.828 58.9406 268.491 58.3921C268.155 57.8435 267.987 57.1756 267.987 56.3881V50.6815H269.858ZM284.31 57.2508C284.31 57.7462 284.173 58.2063 283.899 58.631C283.634 59.0557 283.249 59.3963 282.744 59.6529C282.249 59.9094 281.67 60.0377 281.006 60.0377C279.988 60.0377 279.17 59.8033 278.551 59.3343C277.931 58.8566 277.622 58.1886 277.622 57.3304H279.612C279.648 57.7285 279.781 58.0338 280.011 58.2461C280.249 58.4496 280.581 58.5513 281.006 58.5513C281.431 58.5513 281.767 58.4408 282.015 58.2196C282.262 57.9984 282.386 57.7108 282.386 57.3569C282.386 57.0738 282.298 56.8438 282.121 56.6668C281.953 56.4899 281.74 56.3527 281.484 56.2554C281.236 56.1581 280.882 56.0475 280.422 55.9236C279.829 55.7732 279.347 55.6184 278.975 55.4592C278.604 55.2999 278.285 55.0522 278.02 54.716C277.755 54.3709 277.622 53.9064 277.622 53.3225C277.622 52.7651 277.759 52.2785 278.033 51.8627C278.316 51.438 278.706 51.115 279.201 50.8939C279.697 50.6638 280.258 50.5488 280.887 50.5488C281.851 50.5488 282.625 50.77 283.209 51.2124C283.793 51.6459 284.111 52.3095 284.164 53.203H282.121C282.085 52.8491 281.953 52.5705 281.723 52.367C281.493 52.1546 281.196 52.0484 280.833 52.0484C280.453 52.0484 280.143 52.1458 279.904 52.3404C279.674 52.5262 279.559 52.8138 279.559 53.203C279.559 53.495 279.643 53.7339 279.812 53.9197C279.988 54.0966 280.205 54.2338 280.462 54.3311C280.718 54.4284 281.072 54.5346 281.524 54.6496C282.116 54.8 282.598 54.9548 282.97 55.1141C283.342 55.2734 283.656 55.5255 283.912 55.8706C284.178 56.2068 284.31 56.6668 284.31 57.2508ZM288.372 50.6815V59.9448H286.501V50.6815H288.372ZM294.981 50.5488C295.857 50.5488 296.653 50.7523 297.37 51.1593C298.095 51.5663 298.666 52.1325 299.082 52.858C299.507 53.5746 299.719 54.3842 299.719 55.2866C299.719 56.1979 299.507 57.0163 299.082 57.7418C298.666 58.4584 298.095 59.0203 297.37 59.4272C296.644 59.8342 295.848 60.0377 294.981 60.0377C294.114 60.0377 293.318 59.8342 292.592 59.4272C291.867 59.0203 291.292 58.4584 290.867 57.7418C290.451 57.0163 290.243 56.1979 290.243 55.2866C290.243 54.3842 290.451 53.5746 290.867 52.858C291.292 52.1325 291.867 51.5663 292.592 51.1593C293.318 50.7523 294.114 50.5488 294.981 50.5488ZM294.981 52.2608C294.424 52.2608 293.928 52.3847 293.495 52.6324C293.07 52.8801 292.738 53.234 292.499 53.6941C292.26 54.1541 292.141 54.685 292.141 55.2866C292.141 55.8883 292.26 56.4191 292.499 56.8792C292.738 57.3392 293.07 57.6976 293.495 57.9541C293.928 58.2019 294.424 58.3257 294.981 58.3257C295.538 58.3257 296.029 58.2019 296.454 57.9541C296.879 57.6976 297.211 57.3437 297.45 56.8924C297.688 56.4324 297.808 55.8971 297.808 55.2866C297.808 54.6762 297.688 54.1453 297.45 53.6941C297.211 53.234 296.879 52.8801 296.454 52.6324C296.029 52.3847 295.538 52.2608 294.981 52.2608ZM309.528 59.9448H307.657L303.463 53.5216V59.9448H301.592V50.655H303.463L307.657 57.0782V50.655H309.528V59.9448Z" fill="white"/>
<defs>
<filter id="filter0_d_5918_59105" x="0.0970061" y="0.83724" width="407.341" height="82.1958" filterUnits="userSpaceOnUse" color-interpolation-filters="sRGB">
<feFlood flood-opacity="0" result="BackgroundImageFix"/>
<feColorMatrix in="SourceAlpha" type="matrix" values="0 0 0 0 0 0 0 0 0 0 0 0 0 0 0 0 0 0 127 0" result="hardAlpha"/>
<feOffset dx="2.96992" dy="2.96992"/>
<feGaussianBlur stdDeviation="3.9599"/>
<feComposite in2="hardAlpha" operator="out"/>
<feColorMatrix type="matrix" values="0 0 0 0 0 0 0 0 0 0 0 0 0 0 0 0 0 0 0.25 0"/>
<feBlend mode="normal" in2="BackgroundImageFix" result="effect1_dropShadow_5918_59105"/>
<feBlend mode="normal" in="SourceGraphic" in2="effect1_dropShadow_5918_59105" result="shape"/>
</filter>
</defs>
</svg>
