<svg width="88" height="88" viewBox="0 0 88 88" fill="none" xmlns="http://www.w3.org/2000/svg">
<path d="M44 85.25C21.2547 85.25 2.75 66.7453 2.75 44C2.75 33.9735 6.38825 24.31 12.9993 16.7887C13.5025 16.2195 14.3715 16.1672 14.9408 16.665C15.51 17.1655 15.565 18.0372 15.0673 18.6065C8.89625 25.6217 5.5 34.6418 5.5 44C5.5 65.23 22.77 82.5 44 82.5C65.23 82.5 82.5 65.23 82.5 44C82.5 22.77 65.23 5.5 44 5.5C37.114 5.5 30.36 7.337 24.4668 10.8158C23.8205 11.1925 22.9735 10.9835 22.5858 10.329C22.198 9.67725 22.4153 8.833 23.0725 8.44525C29.3865 4.719 36.6217 2.75 44 2.75C66.7453 2.75 85.25 21.2547 85.25 44C85.25 66.7453 66.7453 85.25 44 85.25Z" fill="#24323F"/>
<path d="M44 78.375C25.0442 78.375 9.625 62.9557 9.625 44C9.625 25.0442 25.0442 9.625 44 9.625C62.9557 9.625 78.375 25.0442 78.375 44C78.375 62.9557 62.9557 78.375 44 78.375ZM44 12.375C26.5623 12.375 12.375 26.5623 12.375 44C12.375 61.4378 26.5623 75.625 44 75.625C61.4378 75.625 75.625 61.4378 75.625 44C75.625 26.5623 61.4378 12.375 44 12.375Z" fill="#24323F"/>
<path d="M57.0625 22.7427C56.705 22.7427 56.3475 22.6052 56.0973 22.3577C55.8223 22.0827 55.6875 21.7252 55.6875 21.3677C55.6875 21.0102 55.825 20.6527 56.0973 20.4052C56.6198 19.8827 57.53 19.8827 58.0223 20.4052C58.3 20.6527 58.4348 21.0102 58.4348 21.3677C58.4348 21.7252 58.3 22.0827 58.025 22.3302C57.7775 22.6052 57.42 22.7427 57.0625 22.7427ZM30.9375 68.005C30.58 68.005 30.2225 67.84 29.9722 67.5952C29.6973 67.3175 29.5625 66.9627 29.5625 66.63C29.5625 66.2725 29.7 65.915 29.9475 65.6427C30.47 65.145 31.405 65.145 31.9 65.6427C32.1778 65.9177 32.3125 66.2725 32.3125 66.63C32.3125 66.96 32.175 67.3175 31.9248 67.5952C31.6525 67.8427 31.295 68.005 30.9375 68.005ZM66.6297 32.3127C66.2723 32.3127 65.9147 32.1752 65.6672 31.925C65.3923 31.65 65.2547 31.2952 65.2547 30.9377C65.2547 30.5802 65.395 30.2227 65.6425 29.9725C66.1898 29.4252 67.0972 29.4527 67.595 29.9725C67.8425 30.2227 68.0047 30.5802 68.0047 30.9377C68.0047 31.2952 67.8672 31.6527 67.595 31.9002C67.3475 32.1752 66.9873 32.3127 66.6297 32.3127ZM21.3675 58.4377C21.01 58.4377 20.68 58.3002 20.405 58.05C20.1273 57.7502 19.9925 57.3927 19.9925 57.0627C19.9925 56.7052 20.13 56.3752 20.3802 56.0975C20.9852 55.5502 21.835 55.5777 22.3602 56.0975C22.6077 56.3477 22.7452 56.7052 22.7452 57.0627C22.7452 57.4202 22.6077 57.7777 22.3602 58.0252C22.0825 58.3002 21.7525 58.4377 21.3675 58.4377ZM70.125 45.3752C69.7675 45.3752 69.41 45.2377 69.1598 44.9627C68.8875 44.7152 68.75 44.3577 68.75 44.0002C68.75 43.6427 68.8875 43.2852 69.1598 43.035C69.6575 42.5152 70.565 42.5152 71.0848 43.0075C71.3625 43.2852 71.5 43.6427 71.5 44.0002C71.5 44.3577 71.3625 44.7152 71.1122 44.9627C70.84 45.2377 70.4825 45.3752 70.125 45.3752ZM17.875 45.3752C17.5175 45.3752 17.16 45.2377 16.9098 44.9627C16.6375 44.7152 16.5 44.3577 16.5 44.0002C16.5 43.6427 16.6375 43.2852 16.9098 43.035C17.4075 42.5152 18.315 42.5152 18.8347 43.0075C19.1125 43.2852 19.25 43.6427 19.25 44.0002C19.25 44.3577 19.1125 44.7152 18.8623 44.9627C18.59 45.2377 18.2325 45.3752 17.875 45.3752ZM66.6297 58.4377C66.2723 58.4377 65.9148 58.3002 65.6425 58.05C65.395 57.775 65.2547 57.4202 65.2547 57.0627C65.2547 56.7052 65.395 56.3477 65.6425 56.0975C66.1898 55.5502 67.0972 55.5777 67.595 56.0975C67.8425 56.3477 68.0047 56.7052 68.0047 57.0627C68.0047 57.4202 67.8672 57.7777 67.595 58.0252C67.3475 58.3002 66.9873 58.4377 66.6297 58.4377ZM21.3675 32.3127C21.01 32.3127 20.68 32.1752 20.405 31.925C20.1273 31.6252 19.9925 31.2677 19.9925 30.9377C19.9925 30.5802 20.13 30.2502 20.3802 29.9725C20.9852 29.4252 21.835 29.4527 22.3602 29.9725C22.6077 30.2227 22.7452 30.5802 22.7452 30.9377C22.7452 31.2952 22.6077 31.6527 22.3602 31.9002C22.0825 32.1752 21.7222 32.3127 21.3675 32.3127ZM57.0625 68.005C56.705 68.005 56.3475 67.8675 56.0973 67.62C55.8223 67.3175 55.6875 66.9875 55.6875 66.63C55.6875 66.2725 55.825 65.915 56.0725 65.6427C56.6225 65.1202 57.5053 65.145 58.025 65.6427C58.3027 65.9177 58.4375 66.2725 58.4375 66.63C58.4375 66.96 58.3 67.3175 58.0497 67.5952C57.7775 67.8702 57.42 68.005 57.0625 68.005ZM30.9375 22.7427C30.58 22.7427 30.2225 22.6052 29.9722 22.333C29.7 22.0827 29.5625 21.7225 29.5625 21.3677C29.5625 21.013 29.7 20.6527 29.9722 20.4052C30.47 19.8827 31.3775 19.8827 31.8973 20.3777C32.175 20.6527 32.3097 21.0075 32.3097 21.365C32.3097 21.7225 32.175 22.0827 31.9 22.3302C31.625 22.6052 31.295 22.7427 30.9375 22.7427ZM44 71.5002C43.6425 71.5002 43.3125 71.3627 43.0347 71.1125C42.7625 70.8127 42.625 70.4827 42.625 70.1252C42.625 69.7677 42.7625 69.4102 43.01 69.16C43.5875 68.6127 44.4675 68.6402 44.9625 69.16C45.2375 69.4102 45.375 69.7677 45.375 70.1252C45.375 70.4827 45.2375 70.8402 44.9625 71.0877C44.715 71.3627 44.3575 71.5002 44 71.5002ZM44 19.2502C43.6425 19.2502 43.3125 19.1127 43.0347 18.8625C42.7625 18.5902 42.625 18.2327 42.625 17.8752C42.625 17.4875 42.7625 17.1602 43.01 16.91C43.5875 16.3627 44.4675 16.3902 44.9625 16.91C45.2375 17.1602 45.375 17.5177 45.375 17.8752C45.375 18.2327 45.2375 18.5902 44.9872 18.8377C44.715 19.1127 44.3575 19.2502 44 19.2502ZM61.501 26.4992C60.9648 25.963 60.093 25.963 59.5567 26.4992L44.671 41.385C45.6362 41.6352 46.365 42.364 46.6152 43.3292L61.501 28.4435C62.04 27.9045 62.04 27.0355 61.501 26.4992ZM43.329 41.385L26.499 24.555C25.9627 24.0187 25.091 24.0187 24.5547 24.555C24.0185 25.0912 24.0185 25.963 24.5547 26.4992L41.3848 43.3292C41.635 42.364 42.3637 41.6352 43.329 41.385Z" fill="#24323F"/>
<path d="M44 48.125C41.7257 48.125 39.875 46.2743 39.875 44C39.875 41.7257 41.7257 39.875 44 39.875C46.2743 39.875 48.125 41.7257 48.125 44C48.125 46.2743 46.2743 48.125 44 48.125ZM44 42.625C43.2438 42.625 42.625 43.2438 42.625 44C42.625 44.7562 43.2438 45.375 44 45.375C44.7562 45.375 45.375 44.7562 45.375 44C45.375 43.2438 44.7562 42.625 44 42.625Z" fill="#24323F"/>
<path d="M20.625 12.375C20.625 13.1312 20.0062 13.75 19.25 13.75C18.4937 13.75 17.875 13.1312 17.875 12.375C17.875 11.6187 18.4937 11 19.25 11C20.0062 11 20.625 11.6187 20.625 12.375Z" fill="#24323F"/>
</svg>
