<svg width="48" height="48" viewBox="0 0 48 48" fill="none" xmlns="http://www.w3.org/2000/svg">
<circle cx="24" cy="24" r="24" fill="#121212"/>
<path d="M24 24.75C20.83 24.75 18.25 22.17 18.25 19C18.25 15.83 20.83 13.25 24 13.25C27.17 13.25 29.75 15.83 29.75 19C29.75 22.17 27.17 24.75 24 24.75ZM24 14.75C21.66 14.75 19.75 16.66 19.75 19C19.75 21.34 21.66 23.25 24 23.25C26.34 23.25 28.25 21.34 28.25 19C28.25 16.66 26.34 14.75 24 14.75Z" fill="white"/>
<path d="M15.4102 34.75C15.0002 34.75 14.6602 34.41 14.6602 34C14.6602 29.73 18.8502 26.25 24.0002 26.25C24.4102 26.25 24.7502 26.59 24.7502 27C24.7502 27.41 24.4102 27.75 24.0002 27.75C19.6802 27.75 16.1602 30.55 16.1602 34C16.1602 34.41 15.8202 34.75 15.4102 34.75Z" fill="white"/>
<path d="M30.2 34.15C28.02 34.15 26.25 32.38 26.25 30.2C26.25 28.02 28.02 26.25 30.2 26.25C32.38 26.25 34.15 28.02 34.15 30.2C34.15 32.38 32.38 34.15 30.2 34.15ZM30.2 27.75C28.85 27.75 27.75 28.85 27.75 30.2C27.75 31.55 28.85 32.65 30.2 32.65C31.55 32.65 32.65 31.55 32.65 30.2C32.65 28.85 31.55 27.75 30.2 27.75Z" fill="white"/>
<path d="M34 34.75C33.81 34.75 33.6199 34.68 33.4699 34.53L32.4699 33.53C32.1799 33.24 32.1799 32.7599 32.4699 32.4699C32.7599 32.1799 33.24 32.1799 33.53 32.4699L34.53 33.4699C34.82 33.7599 34.82 34.24 34.53 34.53C34.38 34.68 34.19 34.75 34 34.75Z" fill="white"/>
</svg>
