<svg width="1120" height="354" viewBox="0 0 1120 354" fill="none" xmlns="http://www.w3.org/2000/svg">
<path d="M29 389C19.5 378 -23 310.5 -23 259C-23 207.5 3.5 159.5 69.5 142C135.5 124.5 163 199 209 267.5C255 336 349 382 432.5 381.5C516 381 539.499 313.5 496.499 249.5C453.499 185.5 357.5 175.5 299 142C240.5 108.5 210.5 66.5003 240 29.0003C269.5 -8.49966 396.501 -11.9996 446.5 45.0003C496.499 102 578.5 243.501 670.5 275C762.5 306.5 838 319.5 879 238C920 156.5 877.5 45 1010.5 62C1143.5 79 1175.83 169.667 1182 206.5" stroke="white" stroke-dasharray="6 6"/>
</svg>
