<svg width="46" height="46" viewBox="0 0 46 46" fill="none" xmlns="http://www.w3.org/2000/svg">
<circle cx="23" cy="23" r="23" fill="#EAEAEA"/>
<path d="M19.0125 31.1677C18.985 31.1677 18.9483 31.186 18.9208 31.186C17.1425 30.306 15.6942 28.8485 14.805 27.0702C14.805 27.0427 14.8233 27.006 14.8233 26.9785C15.9417 27.3085 17.0967 27.556 18.2425 27.7485C18.4442 28.9035 18.6825 30.0493 19.0125 31.1677Z" fill="#1B1B1B"/>
<path d="M31.195 27.0793C30.2875 28.9035 28.775 30.3793 26.9325 31.2685C27.2808 30.1043 27.5742 28.931 27.7667 27.7485C28.9217 27.556 30.0583 27.3085 31.1767 26.9785C31.1675 27.0152 31.195 27.0518 31.195 27.0793Z" fill="#1B1B1B"/>
<path d="M31.2683 19.0683C30.1133 18.7199 28.9492 18.4358 27.7667 18.2341C27.5742 17.0516 27.29 15.8783 26.9325 14.7324C28.83 15.6399 30.3608 17.1708 31.2683 19.0683Z" fill="#1B1B1B"/>
<path d="M19.0125 14.8322C18.6825 15.9505 18.4442 17.0872 18.2517 18.2422C17.0692 18.4255 15.8959 18.7189 14.7317 19.0672C15.6209 17.2247 17.0967 15.7122 18.9209 14.8047C18.9484 14.8047 18.985 14.8322 19.0125 14.8322Z" fill="#1B1B1B"/>
<path d="M26.1992 18.0415C24.0725 17.8032 21.9275 17.8032 19.8008 18.0415C20.03 16.7857 20.3233 15.5298 20.7358 14.3198C20.7542 14.2465 20.745 14.1915 20.7542 14.1182C21.4783 13.944 22.2208 13.834 23 13.834C23.77 13.834 24.5217 13.944 25.2367 14.1182C25.2458 14.1915 25.2458 14.2465 25.2642 14.3198C25.6767 15.539 25.97 16.7857 26.1992 18.0415Z" fill="#1B1B1B"/>
<path d="M18.0408 26.1991C16.7758 25.9699 15.5291 25.6766 14.3191 25.2641C14.2458 25.2458 14.1908 25.2549 14.1175 25.2458C13.9433 24.5216 13.8333 23.7791 13.8333 22.9999C13.8333 22.2299 13.9433 21.4783 14.1175 20.7633C14.1908 20.7541 14.2458 20.7541 14.3191 20.7358C15.5383 20.3324 16.7758 20.0299 18.0408 19.8008C17.8116 21.9274 17.8116 24.0724 18.0408 26.1991Z" fill="#1B1B1B"/>
<path d="M32.1667 22.9999C32.1667 23.7791 32.0567 24.5216 31.8825 25.2458C31.8092 25.2549 31.7542 25.2458 31.6808 25.2641C30.4617 25.6674 29.215 25.9699 27.9592 26.1991C28.1975 24.0724 28.1975 21.9274 27.9592 19.8008C29.215 20.0299 30.4708 20.3233 31.6808 20.7358C31.7542 20.7541 31.8092 20.7633 31.8825 20.7633C32.0567 21.4874 32.1667 22.2299 32.1667 22.9999Z" fill="#1B1B1B"/>
<path d="M26.1992 27.959C25.97 29.224 25.6767 30.4707 25.2642 31.6807C25.2458 31.754 25.2458 31.809 25.2367 31.8823C24.5217 32.0565 23.77 32.1665 23 32.1665C22.2208 32.1665 21.4783 32.0565 20.7542 31.8823C20.745 31.809 20.7542 31.754 20.7358 31.6807C20.3325 30.4615 20.03 29.224 19.8008 27.959C20.8642 28.0782 21.9275 28.1607 23 28.1607C24.0725 28.1607 25.145 28.0782 26.1992 27.959Z" fill="#1B1B1B"/>
<path d="M26.4497 26.4504C24.157 26.7396 21.8429 26.7396 19.5503 26.4504C19.261 24.1577 19.261 21.8436 19.5503 19.5509C21.8429 19.2617 24.157 19.2617 26.4497 19.5509C26.739 21.8436 26.739 24.1577 26.4497 26.4504Z" fill="#1B1B1B"/>
</svg>
