<svg width="761" height="108" viewBox="0 0 761 108" fill="none" xmlns="http://www.w3.org/2000/svg">
<path d="M9.89865 105.368C6.58155 80.5392 3.29955 55.9038 0 31.1807H15.7957C17.8843 50.166 19.9728 69.1865 22.0965 88.4176C37.1024 72.1519 44.9125 52.6401 48.8263 31.1807H62.5159C65.5347 50.2362 68.5359 69.2918 71.5722 88.4877C85.38 72.3801 93.746 52.3237 95.4763 31.1807H111.851C111.167 35.1988 110.658 39.1819 109.833 43.0948C105.831 61.7771 97.4051 79.227 85.2617 93.9798C82.1904 97.7523 78.7153 101.209 75.3982 104.788C75.1138 105.084 74.735 105.27 74.3276 105.315H60.9364C60.7927 105.304 60.6511 105.275 60.5151 105.227C58.1809 91.4882 55.8466 77.7492 53.4948 63.6769C53.214 64.2735 53.0385 64.6244 52.8981 64.9753C46.6349 80.0759 37.1259 93.6143 25.045 104.631C24.5561 105.051 23.935 105.287 23.2899 105.297C19.2532 105.297 15.199 105.297 11.1623 105.297L9.89865 105.368Z" fill="#121212"/>
<path d="M302.243 0.263933C298.153 22.9692 294.064 45.5867 289.957 68.5025C292.291 67.5374 294.573 66.7478 296.714 65.7301C310.218 59.3975 320.976 48.3985 327.007 34.7605C327.182 34.3744 327.358 33.9709 327.498 33.5849C328.464 31.1108 328.464 31.1108 331.184 31.1108H345.453C340.549 45.5044 331.752 58.2586 320.039 67.9586C326.516 80.2411 332.974 92.5238 339.521 104.929C339.047 104.929 338.766 104.929 338.468 104.929C333.536 104.929 328.604 104.929 323.672 104.929C323.358 104.96 323.043 104.885 322.776 104.717C322.509 104.548 322.306 104.296 322.198 103.999C317.799 95.2259 313.37 86.4526 308.912 77.6794L308.193 76.2932C306.279 77.2933 304.437 78.311 302.576 79.241C297.876 81.6136 292.964 83.5405 287.904 84.9963C287.627 85.0372 287.374 85.1738 287.188 85.3822C287.002 85.5906 286.895 85.8576 286.886 86.1368C285.921 92.1904 284.903 98.2439 283.902 104.298C283.902 104.438 283.902 104.578 283.762 104.789H268.44C268.773 102.788 269.107 100.788 269.458 98.8054L274.934 67.7831L280.199 38.34C281.849 28.9818 283.493 19.6236 285.131 10.2655C285.692 7.12463 286.236 4.00134 286.763 0.86051C286.868 0.281473 287.061 -0.0168147 287.711 0.000731869H301.751C301.925 0.0254294 302.095 0.0665564 302.26 0.123557" fill="#121212"/>
<path d="M182.265 65.2735C182.16 64.0979 182.125 62.8872 181.949 61.7642C181.603 58.6569 180.554 55.6691 178.882 53.0273C177.209 50.3854 174.957 48.1588 172.296 46.5163C169.126 44.5049 165.508 43.3069 161.764 43.0284C158.02 42.7498 154.265 43.3994 150.832 44.9195C145.854 46.7083 141.497 49.8944 138.285 54.0958C135.072 58.2972 133.14 63.3357 132.719 68.6074C132.288 71.6047 132.499 74.6593 133.337 77.5692C134.175 80.4791 135.621 83.178 137.581 85.4872C142.846 91.8039 149.989 93.9446 158.01 92.8743C164.678 91.9286 170.787 88.6302 175.235 83.575C179.684 78.5198 182.177 72.0409 182.265 65.3086V65.2735ZM160.958 28.4609C178.018 28.3029 192.55 38.8835 196.341 55.1843C200.009 70.7481 195.955 84.487 184.547 95.787C177.749 102.43 168.904 106.58 159.449 107.561C151.664 108.744 143.702 107.52 136.633 104.051C131.557 101.669 127.164 98.0452 123.86 93.5153C120.556 88.9853 118.448 83.6955 117.731 78.1352C116.463 71.0984 117.046 63.8529 119.425 57.1098C121.803 50.3668 125.895 44.3579 131.298 39.6731C138.022 33.5025 146.573 29.6897 155.658 28.8118C157.413 28.6188 159.168 28.5486 160.923 28.4082" fill="#121212"/>
<path d="M203.238 104.754C207.579 80.1884 211.908 55.6583 216.225 31.1633H230.722C230.02 35.936 229.318 40.6385 228.616 45.3234L228.844 45.4638L229.564 44.4461C234.175 37.5642 240.979 32.4439 248.87 29.9175C252.411 28.827 256.145 28.5071 259.82 28.9792C263.495 29.4514 267.026 30.7046 270.177 32.6548L262.665 47.5168C261.529 46.8661 260.357 46.2802 259.155 45.7621C256.215 44.6249 253.045 44.2098 249.912 44.5518C246.778 44.8938 243.773 45.9828 241.148 47.7273C234.757 51.6659 229.567 57.2792 226.142 63.9579C225.513 65.6009 225.129 67.3271 225.001 69.0815C222.912 80.785 220.841 92.4886 218.718 104.175C218.661 104.346 218.562 104.5 218.43 104.622C218.298 104.745 218.138 104.832 217.963 104.876C213.136 104.876 208.328 104.876 203.519 104.876C203.519 104.876 203.378 104.876 203.238 104.754Z" fill="#121212"/>
<path d="M398.333 29.4258C391.327 31.1254 385.041 35.0017 380.378 40.4977C378.974 42.0594 377.746 43.7614 376.236 45.6388C376.974 40.6556 377.676 35.9356 378.378 31.1629H363.881C359.54 55.7281 355.205 80.2933 350.875 104.858C355.913 104.858 360.827 104.858 365.759 104.858C365.969 104.858 366.338 104.42 366.39 104.139C368.496 92.4355 370.568 80.732 372.674 69.046C372.791 67.2901 373.176 65.5624 373.814 63.9224C377.22 57.2761 382.379 51.6876 388.733 47.762C392.918 45.0062 397.975 43.8939 402.931 44.6387C405.553 45.0422 408.042 46.0582 410.197 47.6041L417.674 32.8299C417.626 32.7312 417.56 32.6421 417.481 32.5667L417.007 32.2508C413.117 29.98 408.699 28.7699 404.195 28.7415C402.221 28.7468 400.255 28.9764 398.333 29.4258ZM526.138 52.2364C528.793 49.1489 532.092 46.6803 535.803 45.004C539.514 43.3276 543.548 42.4843 547.62 42.5331C552.758 42.362 557.78 44.0886 561.726 47.3833C565.672 50.678 568.267 55.3101 569.014 60.3955C569.102 60.957 569.014 61.5185 569.12 62.1502H520.732C521.778 58.4603 523.624 55.0457 526.138 52.1486V52.2364ZM536.387 29.9522C514.238 35.8303 500.672 56.8862 505.129 78.9773C507.955 93.0146 516.537 102.209 530.368 106.315C534.108 107.4 537.986 107.937 541.881 107.912C545.557 107.88 549.222 107.516 552.833 106.824C558.861 105.791 564.645 103.649 569.892 100.507C570.103 100.382 570.285 100.215 570.427 100.015C570.569 99.8157 570.668 99.5888 570.717 99.3489C570.717 94.5411 570.506 89.7334 570.366 84.9432C570.343 84.7409 570.302 84.5412 570.243 84.3465C569.892 84.5571 569.629 84.6975 569.383 84.873C563.42 88.9901 556.636 91.7675 549.498 93.0146C544.428 94.0931 539.17 93.9003 534.194 92.4531C530.343 91.1857 526.941 88.8345 524.394 85.6817C521.848 82.5288 520.265 78.7082 519.837 74.6784H581.177C582.16 74.6784 582.546 74.4152 582.757 73.4326C584.041 68.0397 584.244 62.4457 583.353 56.9739C582.557 51.6938 580.482 46.6881 577.31 42.3917C574.138 38.0954 569.965 34.6383 565.153 32.321C559.963 29.7009 554.224 28.3536 548.41 28.3906C544.35 28.4203 540.311 28.9627 536.387 30.0049V29.9522ZM434.365 55.8159C436.661 51.9681 439.874 48.7481 443.717 46.4428C447.56 44.1374 451.914 42.8184 456.391 42.6033C459.384 42.2707 462.413 42.5671 465.284 43.4737C468.155 44.3802 470.805 45.8767 473.064 47.8673C475.117 49.6754 476.786 51.8777 477.971 54.3434C479.156 56.8091 479.833 59.4879 479.962 62.2204H431.293C432.204 60.0391 433.23 57.9071 434.365 55.8334V55.8159ZM444.737 30.7418C434.462 33.8979 425.791 40.8754 420.511 50.2354C415.23 59.5954 413.744 70.6243 416.358 81.0478C420.306 96.5765 433.119 106.525 448.879 107.736C453.572 108.073 458.288 107.825 462.92 106.999C469.307 105.987 475.439 103.753 480.98 100.419C481.153 100.299 481.298 100.143 481.404 99.9611C481.51 99.7791 481.575 99.5762 481.594 99.3664C481.506 94.5938 481.366 89.8387 481.243 85.0835C481.243 84.873 481.155 84.6624 481.102 84.3465C480.453 84.7677 479.927 85.1537 479.347 85.4871C471.692 90.6295 462.732 93.4897 453.513 93.734C448.801 93.9525 444.136 92.7281 440.139 90.2247C437.543 88.5022 435.353 86.2347 433.722 83.5802C432.092 80.9257 431.059 77.9479 430.697 74.8539H493.283C493.388 74.5205 493.511 74.2924 493.563 74.0292C494.968 68.5068 495.213 62.7536 494.283 57.1318C493.419 51.357 491.027 45.9179 487.355 41.377C483.683 36.8361 478.864 33.3583 473.398 31.3033C468.859 29.4442 463.999 28.4962 459.094 28.5134C454.239 28.5578 449.42 29.3509 444.807 30.8646L444.737 30.7418ZM606.398 1.2285C604.256 13.3181 602.08 25.3901 599.974 37.4797C597.224 52.7569 594.527 68.116 591.883 83.557C591.179 86.945 591.06 90.4287 591.532 93.8568C591.792 96.3021 592.729 98.6262 594.239 100.567C595.75 102.508 597.772 103.988 600.079 104.841C603.329 105.967 606.803 106.292 610.206 105.788C612.277 105.543 614.348 105.069 616.437 104.701C616.121 100.7 615.84 96.9099 615.542 93.1374C614.102 93.2251 612.768 93.4006 611.435 93.3655C610.416 93.3772 609.426 93.033 608.634 92.3922C607.843 91.7515 607.3 90.8545 607.1 89.8562C606.811 88.6621 606.74 87.4259 606.889 86.2065C607.749 80.7144 608.732 75.2399 609.697 69.7654L614.646 41.7962L619.596 13.7217L622 0.280987C621.88 0.21428 621.749 0.166922 621.614 0.140625H607.17C606.468 0.140625 606.398 0.561731 606.31 1.08813" fill="url(#paint0_linear_3243_26592)"/>
<g clip-path="url(#clip0_3243_26592)">
<mask id="mask0_3243_26592" style="mask-type:alpha" maskUnits="userSpaceOnUse" x="673" y="4" width="89" height="100">
<path d="M727.063 63.2229L719.56 67.5655L703.276 47.8988C704.744 58.1763 703.843 68.6539 700.642 78.5284L693.138 82.871L673.843 57.8155V98.871C673.852 99.7409 674.088 100.593 674.527 101.344C674.966 102.094 675.594 102.716 676.347 103.149C677.13 103.595 678.015 103.831 678.916 103.834C679.794 103.833 680.657 103.603 681.42 103.167L758.66 58.3062C759.427 57.8817 760.068 57.2599 760.517 56.5048C760.965 55.7497 761.204 54.8885 761.21 54.0099C761.206 53.138 760.971 52.2828 760.529 51.5313C760.088 50.7799 759.455 50.1591 758.697 49.7322L729.448 32.7784C730.755 42.9828 729.943 53.3476 727.063 63.2229V63.2229ZM676.356 4.88956C675.592 5.31004 674.951 5.92534 674.5 6.67323C674.049 7.42112 673.803 8.2751 673.787 9.14882V42.3803L691.743 66.7599L694.201 70.4636C697.436 59.2414 695.43 43.2322 691.004 32.334L698.203 28.1673L717.434 51.8803L720.206 55.584C722.11 45.9261 721.593 35.9459 718.7 26.5377L681.411 4.93586C680.64 4.49846 679.77 4.26855 678.884 4.26855C677.998 4.26855 677.127 4.49846 676.356 4.93586" fill="#C4C4C4"/>
</mask>
<g mask="url(#mask0_3243_26592)">
<path d="M727.063 63.2229L719.56 67.5655L703.276 47.8988C704.744 58.1763 703.843 68.6539 700.642 78.5284L693.138 82.871L673.843 57.8155V98.871C673.852 99.7409 674.088 100.593 674.527 101.344C674.966 102.094 675.594 102.716 676.347 103.149C677.13 103.595 678.015 103.831 678.916 103.834C679.794 103.833 680.657 103.603 681.42 103.167L758.66 58.3062C759.427 57.8817 760.068 57.2599 760.517 56.5048C760.965 55.7497 761.204 54.8885 761.21 54.0099C761.206 53.138 760.971 52.2828 760.529 51.5313C760.088 50.7799 759.455 50.1591 758.697 49.7322L729.448 32.7784C730.755 42.9828 729.943 53.3476 727.063 63.2229V63.2229ZM676.356 4.88956C675.592 5.31004 674.951 5.92534 674.5 6.67323C674.049 7.42112 673.803 8.2751 673.787 9.14882V42.3803L691.743 66.7599L694.201 70.4636C697.436 59.2414 695.43 43.2322 691.004 32.334L698.203 28.1673L717.434 51.8803L720.206 55.584C722.11 45.9261 721.593 35.9459 718.7 26.5377L681.411 4.93586C680.64 4.49846 679.77 4.26855 678.884 4.26855C677.998 4.26855 677.127 4.49846 676.356 4.93586" fill="#C4C4C4"/>
<path d="M717.502 -39.513L624.103 54.0674L717.502 147.648L810.902 54.0674L717.502 -39.513Z" fill="url(#paint1_linear_3243_26592)"/>
</g>
</g>
<defs>
<linearGradient id="paint0_linear_3243_26592" x1="350.875" y1="54.0086" x2="622.018" y2="54.0086" gradientUnits="userSpaceOnUse">
<stop stop-color="#00F0D1"/>
<stop offset="1" stop-color="#02B3EE"/>
</linearGradient>
<linearGradient id="paint1_linear_3243_26592" x1="670.769" y1="6.5415" x2="764.35" y2="99.9407" gradientUnits="userSpaceOnUse">
<stop stop-color="#00F0D1"/>
<stop offset="0.02" stop-color="#00F0D1"/>
<stop offset="0.2" stop-color="#00ECD3"/>
<stop offset="0.36" stop-color="#01E1D8"/>
<stop offset="0.53" stop-color="#01CEE1"/>
<stop offset="0.69" stop-color="#02B4EE"/>
<stop offset="0.76" stop-color="#03A4F5"/>
<stop offset="1" stop-color="#03A4F5"/>
</linearGradient>
<clipPath id="clip0_3243_26592">
<rect width="86.8687" height="100" fill="white" transform="translate(674 4)"/>
</clipPath>
</defs>
</svg>
