<svg width="87" height="100" viewBox="0 0 87 100" fill="none" xmlns="http://www.w3.org/2000/svg">
<mask id="mask0_3243_26602" style="mask-type:alpha" maskUnits="userSpaceOnUse" x="-1" y="0" width="89" height="100">
<path d="M53.0635 59.2229L45.5595 63.5655L29.2763 43.8988C30.7435 54.1763 29.8426 64.6539 26.6425 74.5284L19.1385 78.871L-0.157445 53.8155V94.871C-0.148315 95.7409 0.0875943 96.5933 0.526892 97.3437C0.966191 98.094 1.59362 98.7163 2.34696 99.1488C3.13029 99.5947 4.01514 99.8307 4.91605 99.834C5.79438 99.8327 6.65733 99.603 7.42046 99.1673L84.6597 54.3062C85.4274 53.8817 86.0685 53.2599 86.5168 52.5048C86.9651 51.7497 87.2044 50.8885 87.2103 50.0099C87.2058 49.138 86.9709 48.2828 86.5293 47.5313C86.0878 46.7799 85.4554 46.1591 84.6966 45.7322L55.4478 28.7784C56.7546 38.9828 55.9428 49.3476 53.0635 59.2229ZM2.3562 0.889563C1.59163 1.31004 0.951426 1.92534 0.500312 2.67323C0.0491975 3.42112 -0.196828 4.2751 -0.212891 5.14882V38.3803L17.7431 62.7599L20.2012 66.4636C23.4357 55.2414 21.4303 39.2322 17.0037 28.334L24.2028 24.1673L43.434 47.8803L46.2064 51.584C48.1103 41.9261 47.5927 31.9459 44.7001 22.5377L7.41122 0.935858C6.64037 0.498456 5.7696 0.268555 4.88371 0.268555C3.99783 0.268555 3.12705 0.498456 2.3562 0.935858" fill="#C4C4C4"/>
</mask>
<g mask="url(#mask0_3243_26602)">
<path d="M53.0635 59.2229L45.5595 63.5655L29.2763 43.8988C30.7435 54.1763 29.8426 64.6539 26.6425 74.5284L19.1385 78.871L-0.157445 53.8155V94.871C-0.148315 95.7409 0.0875943 96.5933 0.526892 97.3437C0.966191 98.094 1.59362 98.7163 2.34696 99.1488C3.13029 99.5947 4.01514 99.8307 4.91605 99.834C5.79438 99.8327 6.65733 99.603 7.42046 99.1673L84.6597 54.3062C85.4274 53.8817 86.0685 53.2599 86.5168 52.5048C86.9651 51.7497 87.2044 50.8885 87.2103 50.0099C87.2058 49.138 86.9709 48.2828 86.5293 47.5313C86.0878 46.7799 85.4554 46.1591 84.6966 45.7322L55.4478 28.7784C56.7546 38.9828 55.9428 49.3476 53.0635 59.2229ZM2.3562 0.889563C1.59163 1.31004 0.951426 1.92534 0.500312 2.67323C0.0491975 3.42112 -0.196828 4.2751 -0.212891 5.14882V38.3803L17.7431 62.7599L20.2012 66.4636C23.4357 55.2414 21.4303 39.2322 17.0037 28.334L24.2028 24.1673L43.434 47.8803L46.2064 51.584C48.1103 41.9261 47.5927 31.9459 44.7001 22.5377L7.41122 0.935858C6.64037 0.498456 5.7696 0.268555 4.88371 0.268555C3.99783 0.268555 3.12705 0.498456 2.3562 0.935858" fill="#C4C4C4"/>
<path d="M43.5024 -43.513L-49.897 50.0674L43.5024 143.648L136.902 50.0674L43.5024 -43.513Z" fill="url(#paint0_linear_3243_26602)"/>
</g>
<defs>
<linearGradient id="paint0_linear_3243_26602" x1="-3.23056" y1="2.5415" x2="90.3496" y2="95.9407" gradientUnits="userSpaceOnUse">
<stop stop-color="#00F0D1"/>
<stop offset="0.02" stop-color="#00F0D1"/>
<stop offset="0.2" stop-color="#00ECD3"/>
<stop offset="0.36" stop-color="#01E1D8"/>
<stop offset="0.53" stop-color="#01CEE1"/>
<stop offset="0.69" stop-color="#02B4EE"/>
<stop offset="0.76" stop-color="#03A4F5"/>
<stop offset="1" stop-color="#03A4F5"/>
</linearGradient>
</defs>
</svg>
