<svg width="720" height="125" viewBox="0 0 720 125" fill="none" xmlns="http://www.w3.org/2000/svg">
<path d="M11.4568 121.953C7.61753 93.2167 3.81892 64.7036 0 36.0889H18.2821C20.6994 58.0627 23.1167 80.0771 25.5746 102.335C42.9426 83.5093 51.982 60.9262 56.5119 36.0889H72.3564C75.8503 58.1439 79.3239 80.199 82.8381 102.416C98.8194 83.7734 108.502 60.56 110.505 36.0889H129.457C128.665 40.7395 128.076 45.3496 127.121 49.8784C122.49 71.5014 112.737 91.6981 98.6826 108.773C95.1277 113.139 91.1057 117.14 87.2665 121.283C86.9372 121.625 86.4989 121.84 86.0273 121.892H70.5282C70.3619 121.88 70.198 121.846 70.0407 121.791C67.339 105.889 64.6373 89.9877 61.9153 73.7003C61.5903 74.3907 61.3872 74.7969 61.2246 75.2031C53.9756 92.6806 42.9697 108.35 28.9873 121.1C28.4214 121.587 27.7025 121.86 26.9559 121.872C22.2838 121.872 17.5914 121.872 12.9193 121.872L11.4568 121.953Z" fill="#121212"/>
<path d="M349.818 0.305478C345.085 26.5847 340.352 52.7624 335.599 79.2853C338.3 78.1683 340.941 77.2545 343.419 76.0766C359.048 68.7472 371.5 56.0168 378.48 40.232C378.683 39.7852 378.887 39.3181 379.049 38.8714C380.166 36.0079 380.166 36.0078 383.315 36.0078H399.83C394.153 52.6672 383.972 67.4289 370.416 78.6557C377.911 92.8717 385.387 107.088 392.964 121.446C392.415 121.446 392.09 121.446 391.745 121.446C386.037 121.446 380.329 121.446 374.621 121.446C374.257 121.481 373.892 121.395 373.583 121.2C373.274 121.005 373.039 120.713 372.914 120.369C367.822 110.215 362.697 100.061 357.537 89.9067L356.704 88.3023C354.49 89.4599 352.357 90.6378 350.204 91.7141C344.764 94.4602 339.078 96.6904 333.222 98.3753C332.902 98.4227 332.609 98.5807 332.394 98.822C332.178 99.0632 332.055 99.3723 332.044 99.6954C330.926 106.702 329.748 113.708 328.59 120.715C328.59 120.877 328.59 121.04 328.428 121.283H310.694C311.08 118.968 311.466 116.653 311.873 114.358L318.21 78.4527L324.304 44.375C326.214 33.5438 328.116 22.7125 330.012 11.8813C330.662 8.2461 331.292 4.63119 331.902 0.99596C332.023 0.325779 332.247 -0.0194614 332.998 0.000847071H349.249C349.45 0.0294321 349.647 0.0770329 349.838 0.143006" fill="#121212"/>
<path d="M210.955 75.5481C210.833 74.1874 210.792 72.7861 210.589 71.4864C210.189 67.89 208.974 64.4319 207.039 61.3742C205.103 58.3165 202.497 55.7394 199.417 53.8383C195.748 51.5104 191.56 50.1238 187.227 49.8014C182.893 49.479 178.547 50.2308 174.573 51.9902C168.812 54.0606 163.77 57.7481 160.052 62.6109C156.334 67.4736 154.097 73.3053 153.61 79.4067C153.111 82.8758 153.355 86.4113 154.325 89.7792C155.295 93.1472 156.969 96.2708 159.237 98.9435C165.331 106.255 173.598 108.732 182.882 107.493C190.599 106.399 197.67 102.581 202.819 96.7303C207.967 90.8794 210.853 83.3807 210.955 75.5887V75.5481ZM186.294 32.9408C206.039 32.758 222.858 45.0041 227.246 63.8707C231.492 81.8843 226.799 97.7859 213.596 110.865C205.728 118.554 195.491 123.356 184.547 124.492C175.537 125.862 166.322 124.444 158.14 120.43C152.265 117.672 147.18 113.478 143.356 108.235C139.532 102.992 137.092 96.8698 136.262 90.4342C134.795 82.2898 135.47 73.9039 138.223 66.0994C140.976 58.2949 145.711 51.3402 151.965 45.918C159.747 38.776 169.645 34.363 180.16 33.347C182.191 33.1236 184.222 33.0424 186.254 32.8799" fill="#121212"/>
<path d="M235.229 121.243C240.253 92.8108 245.264 64.4195 250.261 36.0688H267.04C266.227 41.5927 265.415 47.0354 264.602 52.4578L264.866 52.6202L265.699 51.4423C271.036 43.4772 278.911 37.5509 288.044 34.6269C292.142 33.3647 296.464 32.9944 300.717 33.5409C304.971 34.0873 309.058 35.5379 312.704 37.795L304.01 54.9963C302.695 54.2432 301.339 53.5652 299.948 52.9655C296.545 51.6493 292.876 51.1689 289.25 51.5647C285.623 51.9605 282.144 53.2209 279.106 55.24C271.709 59.7986 265.703 66.2954 261.738 74.0254C261.011 75.9271 260.566 77.925 260.418 79.9555C258 93.5013 255.603 107.047 253.145 120.573C253.08 120.77 252.966 120.949 252.813 121.091C252.66 121.233 252.474 121.334 252.272 121.385C246.686 121.385 241.12 121.385 235.554 121.385C235.554 121.385 235.392 121.385 235.229 121.243" fill="#121212"/>
<path d="M461.033 34.058C452.925 36.0251 445.65 40.5116 440.253 46.8727C438.628 48.6801 437.206 50.6501 435.459 52.8231C436.312 47.0554 437.125 41.5925 437.937 36.0685H421.158C416.134 64.5005 411.117 92.9324 406.106 121.364C411.936 121.364 417.624 121.364 423.332 121.364C423.576 121.364 424.002 120.857 424.063 120.532C426.501 106.986 428.898 93.4401 431.335 79.9146C431.471 77.8824 431.917 75.8827 432.656 73.9846C436.597 66.2921 442.568 59.8239 449.922 55.2804C454.767 52.0909 460.619 50.8035 466.356 51.6655C469.39 52.1325 472.271 53.3084 474.765 55.0976L483.419 37.9979C483.363 37.8837 483.288 37.7805 483.195 37.6932L482.647 37.3277C478.145 34.6994 473.031 33.2988 467.818 33.266C465.534 33.2721 463.258 33.5378 461.033 34.058ZM608.956 60.4591C612.029 56.8857 615.847 54.0285 620.142 52.0883C624.438 50.1481 629.106 49.1719 633.819 49.2285C639.767 49.0305 645.579 51.0288 650.146 54.8421C654.713 58.6555 657.716 64.0167 658.582 69.9025C658.683 70.5524 658.581 71.2023 658.703 71.9334H602.699C603.91 67.6627 606.046 63.7107 608.956 60.3575V60.4591ZM620.819 34.6673C595.183 41.4706 579.481 65.8408 584.641 91.4093C587.911 107.656 597.844 118.298 613.851 123.05C618.181 124.305 622.669 124.928 627.177 124.898C631.431 124.861 635.674 124.44 639.853 123.639C646.83 122.443 653.524 119.964 659.597 116.328C659.841 116.183 660.052 115.989 660.216 115.759C660.381 115.528 660.495 115.265 660.552 114.987C660.552 109.423 660.308 103.858 660.146 98.3142C660.12 98.0801 660.072 97.8489 660.003 97.6237C659.597 97.8674 659.292 98.0298 659.008 98.2329C652.107 102.998 644.255 106.213 635.993 107.656C630.125 108.904 624.04 108.681 618.28 107.006C613.824 105.539 609.885 102.818 606.938 99.1689C603.991 95.5198 602.159 91.0978 601.663 86.4337H672.659C673.796 86.4337 674.243 86.129 674.487 84.9918C675.974 78.75 676.209 72.2754 675.178 65.9424C674.255 59.8311 671.854 54.0375 668.183 49.0648C664.512 44.0922 659.682 40.091 654.113 37.4089C648.106 34.3763 641.463 32.817 634.734 32.8598C630.035 32.8942 625.36 33.522 620.819 34.7282V34.6673ZM502.737 64.602C505.395 60.1486 509.114 56.4217 513.562 53.7535C518.01 51.0853 523.049 49.5587 528.23 49.3097C531.694 48.9247 535.2 49.2679 538.523 50.3171C541.846 51.3663 544.914 53.0984 547.528 55.4023C549.905 57.495 551.836 60.044 553.207 62.8978C554.579 65.7517 555.362 68.852 555.511 72.0146H499.182C500.237 69.49 501.423 67.0225 502.737 64.6223V64.602ZM514.742 35.5811C502.85 39.234 492.814 47.3098 486.702 58.1431C480.591 68.9765 478.87 81.7414 481.895 93.8057C486.466 111.779 501.295 123.294 519.536 124.695C524.967 125.084 530.426 124.798 535.787 123.842C543.179 122.67 550.276 120.085 556.689 116.226C556.89 116.088 557.057 115.907 557.18 115.696C557.303 115.485 557.378 115.251 557.4 115.008C557.299 109.484 557.136 103.98 556.994 98.4766C556.994 98.2329 556.893 97.9892 556.832 97.6237C556.08 98.1111 555.471 98.5579 554.8 98.9437C545.94 104.896 535.57 108.206 524.899 108.489C519.446 108.742 514.046 107.325 509.42 104.427C506.415 102.433 503.881 99.8091 501.994 96.7367C500.106 93.6644 498.911 90.2178 498.491 86.6368H570.929C571.051 86.2509 571.193 85.9869 571.254 85.6823C572.879 79.2906 573.163 72.6318 572.087 66.1252C571.086 59.4413 568.318 53.1461 564.068 47.8904C559.818 42.6347 554.241 38.6095 547.914 36.231C542.661 34.0793 537.035 32.9821 531.359 33.002C525.74 33.0534 520.162 33.9713 514.823 35.7233L514.742 35.5811ZM701.849 1.4222C699.371 15.4148 696.852 29.387 694.414 43.3796C691.232 61.0616 688.11 78.8383 685.05 96.7098C684.235 100.631 684.097 104.663 684.644 108.631C684.944 111.461 686.029 114.151 687.777 116.397C689.525 118.644 691.866 120.357 694.536 121.344C698.298 122.648 702.319 123.024 706.257 122.441C708.654 122.156 711.051 121.608 713.468 121.182C713.103 116.551 712.778 112.165 712.432 107.798C710.767 107.9 709.223 108.103 707.679 108.062C706.5 108.076 705.354 107.677 704.438 106.936C703.522 106.194 702.894 105.156 702.662 104.001C702.328 102.618 702.245 101.188 702.418 99.7764C703.413 93.4198 704.551 87.0835 705.668 80.7473L711.396 48.3755L717.125 15.8819L719.908 0.325542C719.768 0.248335 719.617 0.193523 719.461 0.163086H702.743C701.93 0.163086 701.849 0.650477 701.748 1.25973" fill="url(#paint0_linear_3243_26518)"/>
<defs>
<linearGradient id="paint0_linear_3243_26518" x1="406.106" y1="62.5102" x2="719.928" y2="62.5102" gradientUnits="userSpaceOnUse">
<stop stop-color="#00F0D1"/>
<stop offset="1" stop-color="#02B3EE"/>
</linearGradient>
</defs>
</svg>
