<svg width="107" height="123" viewBox="0 0 107 123" fill="none" xmlns="http://www.w3.org/2000/svg">
<g clip-path="url(#clip0_6455_63155)">
<mask id="mask0_6455_63155" style="mask-type:alpha" maskUnits="userSpaceOnUse" x="0" y="1" width="108" height="122">
<path d="M65.4605 73.1263L56.2965 78.4193L36.4111 54.4485C38.203 66.9752 37.1027 79.7459 33.1947 91.7816L24.0307 97.0746L0.466149 66.5355V116.576C0.477298 117.637 0.765395 118.675 1.30187 119.59C1.83835 120.505 2.60458 121.263 3.52457 121.79C4.48119 122.334 5.56178 122.621 6.66199 122.625C7.73462 122.624 8.78846 122.344 9.72042 121.813L104.046 67.1336C104.984 66.6162 105.767 65.8584 106.314 64.938C106.862 64.0176 107.154 62.9679 107.161 61.8971C107.156 60.8343 106.869 59.7919 106.33 58.876C105.79 57.9601 105.018 57.2035 104.091 56.6831L68.3722 36.019C69.9681 48.4566 68.9768 61.0898 65.4605 73.1263V73.1263ZM3.53586 2.02645C2.60215 2.53896 1.82032 3.28891 1.26941 4.20048C0.718504 5.11206 0.418053 6.15293 0.398438 7.21787V47.7222L22.3265 77.4375L25.3285 81.9518C29.2785 68.2735 26.8295 48.7605 21.4237 35.4773L30.2152 30.3987L53.7008 59.3014L57.0865 63.8156C59.4115 52.0441 58.7794 39.8796 55.2469 28.4124L9.70914 2.08288C8.76776 1.54975 7.70435 1.26953 6.6225 1.26953C5.54064 1.26953 4.47723 1.54975 3.53586 2.08288" fill="#C4C4C4"/>
</mask>
<g mask="url(#mask0_6455_63155)">
<path d="M65.4605 73.1263L56.2965 78.4193L36.4111 54.4485C38.203 66.9752 37.1027 79.7459 33.1947 91.7816L24.0307 97.0746L0.466149 66.5355V116.576C0.477298 117.637 0.765395 118.675 1.30187 119.59C1.83835 120.505 2.60458 121.263 3.52457 121.79C4.48119 122.334 5.56178 122.621 6.66199 122.625C7.73462 122.624 8.78846 122.344 9.72042 121.813L104.046 67.1336C104.984 66.6162 105.767 65.8584 106.314 64.938C106.862 64.0176 107.154 62.9679 107.161 61.8971C107.156 60.8343 106.869 59.7919 106.33 58.876C105.79 57.9601 105.018 57.2035 104.091 56.6831L68.3722 36.019C69.9681 48.4566 68.9768 61.0898 65.4605 73.1263V73.1263ZM3.53586 2.02645C2.60215 2.53896 1.82032 3.28891 1.26941 4.20048C0.718504 5.11206 0.418053 6.15293 0.398438 7.21787V47.7222L22.3265 77.4375L25.3285 81.9518C29.2785 68.2735 26.8295 48.7605 21.4237 35.4773L30.2152 30.3987L53.7008 59.3014L57.0865 63.8156C59.4115 52.0441 58.7794 39.8796 55.2469 28.4124L9.70914 2.08288C8.76776 1.54975 7.70435 1.26953 6.6225 1.26953C5.54064 1.26953 4.47723 1.54975 3.53586 2.08288" fill="#C4C4C4"/>
<path d="M53.7845 -52.0921L-60.2764 61.9688L53.7845 176.03L167.845 61.9688L53.7845 -52.0921Z" fill="url(#paint0_linear_6455_63155)"/>
</g>
</g>
<defs>
<linearGradient id="paint0_linear_6455_63155" x1="-3.28655" y1="4.04158" x2="110.774" y2="118.102" gradientUnits="userSpaceOnUse">
<stop stop-color="#00F0D1"/>
<stop offset="0.02" stop-color="#00F0D1"/>
<stop offset="0.2" stop-color="#00ECD3"/>
<stop offset="0.36" stop-color="#01E1D8"/>
<stop offset="0.53" stop-color="#01CEE1"/>
<stop offset="0.69" stop-color="#02B4EE"/>
<stop offset="0.76" stop-color="#03A4F5"/>
<stop offset="1" stop-color="#03A4F5"/>
</linearGradient>
<clipPath id="clip0_6455_63155">
<rect width="106.086" height="121.886" fill="white" transform="translate(0.657227 0.942383)"/>
</clipPath>
</defs>
</svg>
