<svg width="22" height="22" viewBox="0 0 22 22" fill="none" xmlns="http://www.w3.org/2000/svg">
<path d="M4.74847 13.2275C4.74847 13.0533 4.81264 12.8792 4.95014 12.7417C5.21597 12.4758 5.65597 12.4758 5.9218 12.7417L11.0001 17.82L16.0785 12.7417C16.3443 12.4758 16.7843 12.4758 17.0501 12.7417C17.316 13.0075 17.316 13.4475 17.0501 13.7133L11.486 19.2775C11.2201 19.5433 10.7801 19.5433 10.5143 19.2775L4.95014 13.7133C4.81264 13.5758 4.74847 13.4017 4.74847 13.2275Z" fill="#1B1B1B"/>
<path d="M10.3125 18.6358L10.3125 3.20831C10.3125 2.83248 10.6242 2.52081 11 2.52081C11.3758 2.52081 11.6875 2.83248 11.6875 3.20831L11.6875 18.6358C11.6875 19.0116 11.3758 19.3233 11 19.3233C10.6242 19.3233 10.3125 19.0116 10.3125 18.6358Z" fill="#1B1B1B"/>
</svg>
