<svg width="72" height="72" viewBox="0 0 72 72" fill="none" xmlns="http://www.w3.org/2000/svg">
<g filter="url(#filter0_d_1245_36905)">
<rect x="15" y="11" width="42" height="42" rx="21" fill="white"/>
</g>
<path d="M36.0001 43.75C30.8001 43.75 26.5801 39.52 26.5801 34.33C26.5801 32.46 27.1301 30.65 28.1701 29.09C28.4001 28.75 28.8701 28.65 29.2101 28.88C29.5501 29.11 29.6501 29.58 29.4201 29.92C28.5501 31.22 28.0901 32.75 28.0901 34.32C28.0901 38.69 31.6401 42.24 36.0101 42.24C40.3801 42.24 43.9301 38.69 43.9301 34.32C43.9301 29.95 40.3701 26.4 36.0001 26.4C35.0801 26.4 34.1801 26.53 33.3301 26.79C32.9301 26.91 32.5101 26.69 32.3901 26.29C32.2701 25.89 32.4901 25.47 32.8901 25.35C33.8901 25.05 34.9301 24.89 36.0001 24.89C41.2001 24.89 45.4201 29.12 45.4201 34.31C45.4201 39.5 41.2001 43.75 36.0001 43.75Z" fill="#1B1B1B"/>
<path d="M31.8699 27.07C31.6999 27.07 31.5199 27.01 31.3799 26.89C31.0599 26.61 31.0299 26.14 31.2999 25.83L34.1899 22.51C34.4599 22.2 34.9399 22.16 35.2499 22.44C35.5599 22.71 35.5899 23.19 35.3199 23.5L32.4299 26.81C32.2799 26.98 32.0699 27.07 31.8699 27.07Z" fill="#1B1B1B"/>
<path d="M35.2401 29.53C35.0901 29.53 34.9301 29.48 34.8001 29.39L31.4201 26.92C31.0901 26.68 31.0201 26.21 31.2601 25.88C31.5001 25.54 31.9701 25.47 32.3101 25.71L35.6801 28.17C36.0101 28.41 36.0901 28.88 35.8401 29.22C35.7001 29.43 35.4701 29.53 35.2401 29.53Z" fill="#1B1B1B"/>
<defs>
<filter id="filter0_d_1245_36905" x="0" y="0" width="72" height="72" filterUnits="userSpaceOnUse" color-interpolation-filters="sRGB">
<feFlood flood-opacity="0" result="BackgroundImageFix"/>
<feColorMatrix in="SourceAlpha" type="matrix" values="0 0 0 0 0 0 0 0 0 0 0 0 0 0 0 0 0 0 127 0" result="hardAlpha"/>
<feOffset dy="4"/>
<feGaussianBlur stdDeviation="7.5"/>
<feComposite in2="hardAlpha" operator="out"/>
<feColorMatrix type="matrix" values="0 0 0 0 0.396111 0 0 0 0 0.408167 0 0 0 0 0.516667 0 0 0 0.1 0"/>
<feBlend mode="normal" in2="BackgroundImageFix" result="effect1_dropShadow_1245_36905"/>
<feBlend mode="normal" in="SourceGraphic" in2="effect1_dropShadow_1245_36905" result="shape"/>
</filter>
</defs>
</svg>
