<svg width="44" height="44" viewBox="0 0 44 44" fill="none" xmlns="http://www.w3.org/2000/svg">
<path d="M20.625 33.4583H16.5C14.4833 33.4583 12.8333 35.1083 12.8333 37.125V37.5833H11C10.2483 37.5833 9.625 38.2067 9.625 38.9583C9.625 39.71 10.2483 40.3333 11 40.3333H33C33.7517 40.3333 34.375 39.71 34.375 38.9583C34.375 38.2067 33.7517 37.5833 33 37.5833H31.1667V37.125C31.1667 35.1083 29.5167 33.4583 27.5 33.4583H23.375V29.26C22.9167 29.315 22.4583 29.3333 22 29.3333C21.5417 29.3333 21.0833 29.315 20.625 29.26V33.4583Z" fill="#1B1B1B"/>
<path d="M33.8797 21.34C35.0897 20.8816 36.153 20.13 36.9964 19.2866C38.7014 17.3983 39.8197 15.1433 39.8197 12.5033C39.8197 9.86329 37.748 7.79163 35.108 7.79163H34.0814C32.8897 5.35329 30.3964 3.66663 27.4997 3.66663H16.4997C13.603 3.66663 11.1097 5.35329 9.91802 7.79163H8.89135C6.25135 7.79163 4.17969 9.86329 4.17969 12.5033C4.17969 15.1433 5.29802 17.3983 7.00302 19.2866C7.84635 20.13 8.90969 20.8816 10.1197 21.34C12.0264 26.0333 16.6097 29.3333 21.9997 29.3333C27.3897 29.3333 31.973 26.0333 33.8797 21.34ZM27.2064 15.4916L26.0697 16.885C25.8864 17.0866 25.758 17.49 25.7764 17.765L25.8864 19.5616C25.9597 20.6616 25.1714 21.23 24.1447 20.8266L22.4764 20.1666C22.2197 20.075 21.7797 20.075 21.523 20.1666L19.8547 20.8266C18.828 21.23 18.0397 20.6616 18.113 19.5616L18.223 17.765C18.2414 17.49 18.113 17.0866 17.9297 16.885L16.793 15.4916C16.078 14.6483 16.3897 13.7133 17.453 13.4383L19.1947 12.9983C19.4697 12.925 19.7997 12.6683 19.9464 12.43L20.918 10.9266C21.523 9.99163 22.4764 9.99163 23.0814 10.9266L24.053 12.43C24.1997 12.6683 24.5297 12.925 24.8047 12.9983L26.5464 13.4383C27.6097 13.7133 27.9214 14.6483 27.2064 15.4916Z" fill="#1B1B1B"/>
</svg>
