<svg width="32" height="32" viewBox="0 0 32 32" fill="none" xmlns="http://www.w3.org/2000/svg">
<path d="M9.76007 29.8667H22.3467C23.7867 29.8667 24.9067 28.6933 24.9067 27.3067V9.97333H26.0267C26.3467 9.97333 26.5601 9.76 26.5601 9.44V8.21333C26.5601 7.09333 25.6534 6.24 24.5867 6.24H20.0534V4.85333C20.0534 3.94666 19.3067 3.2 18.4001 3.2H13.6534C12.7467 3.2 12.0001 3.94666 12.0001 4.85333V6.24H7.46674C6.34674 6.24 5.49341 7.14666 5.49341 8.21333V9.44C5.49341 9.76 5.70674 9.97333 6.02674 9.97333H7.14674V27.3067C7.14674 28.6933 8.32007 29.8667 9.76007 29.8667ZM23.8401 27.3067C23.8401 28.16 23.1467 28.8 22.3467 28.8H9.76007C8.90674 28.8 8.26674 28.1067 8.26674 27.3067V9.97333H23.8934V27.3067H23.8401ZM13.0667 4.85333C13.0667 4.53333 13.3334 4.26666 13.6534 4.26666H18.4001C18.7201 4.26666 18.9867 4.53333 18.9867 4.85333V6.24H13.1201V4.85333H13.0667ZM6.56007 8.21333C6.56007 7.68 6.98674 7.30666 7.46674 7.30666H24.5334C25.0667 7.30666 25.4401 7.73333 25.4401 8.21333V8.90666H6.56007V8.21333Z" fill="#FF5454"/>
<path d="M20.2133 26.24C20.5333 26.24 20.7466 26.0267 20.7466 25.7067V13.0133C20.7466 12.6933 20.5333 12.48 20.2133 12.48C19.8933 12.48 19.68 12.6933 19.68 13.0133V25.7067C19.68 26.0267 19.9466 26.24 20.2133 26.24ZM16.0533 26.24C16.3733 26.24 16.5866 26.0267 16.5866 25.7067V13.0133C16.5866 12.6933 16.3733 12.48 16.0533 12.48C15.7333 12.48 15.52 12.6933 15.52 13.0133V25.7067C15.52 26.0267 15.7333 26.24 16.0533 26.24ZM11.84 26.24C12.16 26.24 12.3733 26.0267 12.3733 25.7067V13.0133C12.3733 12.6933 12.16 12.48 11.84 12.48C11.52 12.48 11.3066 12.6933 11.3066 13.0133V25.7067C11.3066 26.0267 11.52 26.24 11.84 26.24Z" fill="#FF5454"/>
</svg>
