<svg width="24" height="24" viewBox="0 0 24 24" fill="none" xmlns="http://www.w3.org/2000/svg">
<path d="M24 12C24 18.6274 18.6274 24 12 24C5.37258 24 0 18.6274 0 12C0 5.37258 5.37258 0 12 0C18.6274 0 24 5.37258 24 12ZM1.44368 12C1.44368 17.8301 6.16991 22.5563 12 22.5563C17.8301 22.5563 22.5563 17.8301 22.5563 12C22.5563 6.16991 17.8301 1.44368 12 1.44368C6.16991 1.44368 1.44368 6.16991 1.44368 12Z" fill="#1B1B1B"/>
<path d="M12 4.72729C7.99275 4.72729 4.72729 7.99275 4.72729 12C4.72729 16.0073 7.99275 19.2727 12 19.2727C16.0073 19.2727 19.2727 16.0073 19.2727 12C19.2727 7.99275 16.0073 4.72729 12 4.72729ZM15.1637 14.5964C15.0618 14.7709 14.88 14.8655 14.6909 14.8655C14.5964 14.8655 14.5018 14.8437 14.4146 14.7855L12.16 13.44C11.6 13.1055 11.1855 12.3709 11.1855 11.7237V8.74184C11.1855 8.44366 11.4327 8.19639 11.7309 8.19639C12.0291 8.19639 12.2764 8.44366 12.2764 8.74184V11.7237C12.2764 11.9855 12.4946 12.3709 12.72 12.5018L14.9746 13.8473C15.2364 14 15.3237 14.3346 15.1637 14.5964Z" fill="#1B1B1B"/>
</svg>
