<svg width="40" height="40" viewBox="0 0 40 40" fill="none" xmlns="http://www.w3.org/2000/svg">
<circle cx="20" cy="20" r="20" fill="#444444" fill-opacity="0.4"/>
<path d="M31 20C31 26.0751 26.0751 31 20 31C13.9249 31 9 26.0751 9 20C9 13.9249 13.9249 9 20 9C26.0751 9 31 13.9249 31 20ZM10.3234 20C10.3234 25.3443 14.6557 29.6766 20 29.6766C25.3443 29.6766 29.6766 25.3443 29.6766 20C29.6766 14.6557 25.3443 10.3234 20 10.3234C14.6557 10.3234 10.3234 14.6557 10.3234 20Z" fill="white"/>
<path d="M20.0002 13.3333C16.3268 13.3333 13.3335 16.3266 13.3335 20C13.3335 23.6733 16.3268 26.6666 20.0002 26.6666C23.6735 26.6666 26.6668 23.6733 26.6668 20C26.6668 16.3266 23.6735 13.3333 20.0002 13.3333ZM22.9002 22.38C22.8068 22.54 22.6402 22.6266 22.4668 22.6266C22.3802 22.6266 22.2935 22.6066 22.2135 22.5533L20.1468 21.32C19.6335 21.0133 19.2535 20.34 19.2535 19.7466V17.0133C19.2535 16.74 19.4802 16.5133 19.7535 16.5133C20.0268 16.5133 20.2535 16.74 20.2535 17.0133V19.7466C20.2535 19.9866 20.4535 20.34 20.6602 20.46L22.7268 21.6933C22.9668 21.8333 23.0468 22.14 22.9002 22.38Z" fill="white"/>
</svg>
