<svg width="24" height="24" viewBox="0 0 24 24" fill="none" xmlns="http://www.w3.org/2000/svg">
<path d="M0.721845 12C0.323182 12 -0.00225913 11.6765 0.0217067 11.2786C0.101756 9.94942 0.402595 8.64111 0.91345 7.4078C1.51651 5.95189 2.40042 4.62902 3.51472 3.51472C4.62902 2.40042 5.95189 1.5165 7.4078 0.913445C8.64111 0.402592 9.94943 0.101754 11.2786 0.0217045C11.6765 -0.00226129 12 0.32318 12 0.721843C12 1.1205 11.6764 1.44111 11.2787 1.46835C10.1393 1.54639 9.01839 1.80895 7.96028 2.24723C6.67953 2.77774 5.5158 3.55531 4.53556 4.53556C3.55531 5.5158 2.77774 6.67952 2.24724 7.96027C1.80895 9.01839 1.54639 10.1393 1.46836 11.2787C1.44112 11.6764 1.12051 12 0.721845 12Z" fill="#1B1B1B"/>
<path d="M12 4.72729C7.99275 4.72729 4.72729 7.99275 4.72729 12C4.72729 16.0073 7.99275 19.2727 12 19.2727C16.0073 19.2727 19.2727 16.0073 19.2727 12C19.2727 7.99275 16.0073 4.72729 12 4.72729ZM15.1637 14.5964C15.0618 14.7709 14.88 14.8655 14.6909 14.8655C14.5964 14.8655 14.5018 14.8437 14.4146 14.7855L12.16 13.44C11.6 13.1055 11.1855 12.3709 11.1855 11.7237V8.74184C11.1855 8.44366 11.4327 8.19639 11.7309 8.19639C12.0291 8.19639 12.2764 8.44366 12.2764 8.74184V11.7237C12.2764 11.9855 12.4946 12.3709 12.72 12.5018L14.9746 13.8473C15.2364 14 15.3237 14.3346 15.1637 14.5964Z" fill="#1B1B1B"/>
</svg>
