<svg width="40" height="40" viewBox="0 0 40 40" fill="none" xmlns="http://www.w3.org/2000/svg">
<circle cx="20" cy="20" r="20" fill="#444444" fill-opacity="0.4"/>
<path d="M9.66169 20C9.29625 20 8.99793 19.7035 9.0199 19.3387C9.09328 18.1203 9.36905 16.921 9.83733 15.7905C10.3901 14.4559 11.2004 13.2433 12.2218 12.2218C13.2433 11.2004 14.4559 10.3901 15.7905 9.83733C16.921 9.36904 18.1203 9.09328 19.3387 9.0199C19.7035 8.99793 20 9.29625 20 9.66169V9.66169C20 10.0271 19.7034 10.321 19.3388 10.346C18.2943 10.4175 17.2669 10.6582 16.2969 11.06C15.1229 11.5463 14.0562 12.259 13.1576 13.1576C12.259 14.0562 11.5463 15.1229 11.06 16.2969C10.6582 17.2669 10.4175 18.2943 10.346 19.3388C10.321 19.7034 10.0271 20 9.66169 20V20Z" fill="white"/>
<path d="M20.0002 13.3334C16.3268 13.3334 13.3335 16.3267 13.3335 20C13.3335 23.6734 16.3268 26.6667 20.0002 26.6667C23.6735 26.6667 26.6668 23.6734 26.6668 20C26.6668 16.3267 23.6735 13.3334 20.0002 13.3334ZM22.9002 22.38C22.8068 22.54 22.6402 22.6267 22.4668 22.6267C22.3802 22.6267 22.2935 22.6067 22.2135 22.5534L20.1468 21.32C19.6335 21.0134 19.2535 20.34 19.2535 19.7467V17.0134C19.2535 16.74 19.4802 16.5134 19.7535 16.5134C20.0268 16.5134 20.2535 16.74 20.2535 17.0134V19.7467C20.2535 19.9867 20.4535 20.34 20.6602 20.46L22.7268 21.6934C22.9668 21.8334 23.0468 22.14 22.9002 22.38Z" fill="white"/>
</svg>
