<svg width="29" height="29" viewBox="0 0 29 29" fill="none" xmlns="http://www.w3.org/2000/svg">
<path d="M27.1877 10.8751V25.9792C27.192 26.5737 27.0149 27.1554 26.6802 27.6467C26.5727 27.8168 26.447 27.9748 26.3056 28.118L14.3189 16.1313L13.896 15.7084L22.1489 7.45544L22.6685 7.78169L26.8977 10.3554C27.0776 10.467 27.1873 10.6634 27.1877 10.8751Z" fill="#CFD8DC"/>
<path d="M22.1486 7.45543L13.4728 16.1312L1.48614 28.1179C1.34466 27.9748 1.21908 27.8167 1.11158 27.6466C0.776834 27.1553 0.599776 26.5736 0.604081 25.9791V6.64581C0.604081 4.97746 1.95654 3.625 3.62489 3.625H15.7082C15.818 3.62874 15.9255 3.65768 16.0224 3.70956L21.629 7.12912L22.1486 7.45543Z" fill="#4CAF50"/>
<path d="M26.3055 28.1178C26.1624 28.2594 26.0044 28.385 25.8342 28.4924C25.3429 28.8272 24.7612 29.0043 24.1667 28.9999H3.62507C3.03058 29.0043 2.44888 28.8272 1.95758 28.4924C1.78737 28.385 1.6294 28.2594 1.48633 28.1178L13.473 16.1312L13.8959 15.7083L14.3189 16.1312L26.3055 28.1178Z" fill="#2196F3"/>
<path d="M26.6802 27.6467C26.4664 27.9893 26.1771 28.2787 25.8344 28.4925L13.4732 16.1313C13.242 15.8953 13.2458 15.5166 13.4817 15.2854C13.7143 15.0575 14.0864 15.0575 14.319 15.2854L26.6802 27.6467Z" fill="#FAFAFA"/>
<path d="M22.6685 7.78165L14.3189 16.1312L1.95763 28.4924C1.61495 28.2786 1.32563 27.9893 1.11182 27.6466L21.6293 7.12915L22.6685 7.78165Z" fill="#FFC107"/>
<path d="M6.04168 10.875C4.707 10.875 3.625 9.79298 3.625 8.45831C3.625 7.12363 4.707 6.04163 6.04168 6.04163C7.37636 6.04163 8.45836 7.12363 8.45836 8.45831C8.45836 9.79298 7.37636 10.875 6.04168 10.875ZM6.04168 7.24999C5.37434 7.24999 4.83337 7.79097 4.83337 8.45831C4.83337 9.12564 5.37434 9.66662 6.04168 9.66662C6.70902 9.66662 7.24999 9.12564 7.24999 8.45831C7.24999 7.79097 6.70902 7.24999 6.04168 7.24999Z" fill="#FAFAFA"/>
<path d="M8.45837 7.24999H6.04168C5.70802 7.24999 5.4375 6.97948 5.4375 6.64581C5.4375 6.31214 5.70802 6.04163 6.04168 6.04163H8.45837C8.79204 6.04163 9.06255 6.31214 9.06255 6.64581C9.06255 6.97948 8.79204 7.24999 8.45837 7.24999Z" fill="#FAFAFA"/>
<path d="M6.04186 15.7082C4.54984 15.8827 3.1989 14.8146 3.02445 13.3225C3.02326 13.3122 3.02207 13.3019 3.021 13.2916C3.021 12.1618 4.09399 11.3994 6.21343 11.0176C6.1002 10.7849 6.04152 10.5295 6.04186 10.2708C6.04186 9.93714 6.31238 9.66663 6.64605 9.66663C6.97972 9.66663 7.25023 9.93714 7.25023 10.2708C7.25023 10.5451 7.50036 10.8049 7.91117 11.2024C8.57692 11.7014 8.99635 12.4623 9.06273 13.2916C9.06267 15.4159 7.61267 15.7082 6.04186 15.7082ZM7.10517 12.105C4.98818 12.3721 4.22937 12.9061 4.22937 13.2916C4.22937 13.5332 4.55199 14.4999 6.04186 14.4999C7.77342 14.4999 7.85436 14.0854 7.85436 13.2916C7.85436 12.8687 7.5728 12.5581 7.10517 12.105Z" fill="#FAFAFA"/>
<path d="M21.7498 0C18.0814 0.00464452 15.1086 2.97737 15.104 6.6458C15.106 7.01085 15.142 7.37493 15.2116 7.7333C15.3572 8.67008 15.7065 9.56347 16.235 10.3505C16.5153 10.8339 16.8392 11.3365 17.1811 11.873C19.1458 14.6935 20.5001 17.8929 21.1577 21.2666C21.2241 21.5936 21.5431 21.8048 21.8701 21.7385C22.1078 21.6902 22.2936 21.5044 22.3419 21.2666C22.999 17.8925 24.353 14.6927 26.3174 11.8718C26.6617 11.3365 26.9832 10.8375 27.2393 10.3892C27.7777 9.59479 28.1348 8.69183 28.2857 7.74412C28.3563 7.38218 28.3931 7.01447 28.3957 6.64574C28.391 2.97737 25.4183 0.00464452 21.7498 0Z" fill="#F44336"/>
<path d="M21.7498 9.66662C23.4182 9.66662 24.7706 8.31415 24.7706 6.64581C24.7706 4.97746 23.4182 3.625 21.7498 3.625C20.0815 3.625 18.729 4.97746 18.729 6.64581C18.729 8.31415 20.0815 9.66662 21.7498 9.66662Z" fill="#C62828"/>
</svg>
