<svg width="46" height="46" viewBox="0 0 46 46" fill="none" xmlns="http://www.w3.org/2000/svg">
<circle cx="23" cy="23" r="23" fill="#EAEAEA"/>
<path d="M23 25.75C24.5188 25.75 25.75 24.5188 25.75 23C25.75 21.4812 24.5188 20.25 23 20.25C21.4812 20.25 20.25 21.4812 20.25 23C20.25 24.5188 21.4812 25.75 23 25.75Z" fill="#1B1B1B"/>
<path d="M26.7812 14.4062H19.2188C17.9428 14.4077 16.7196 14.9152 15.8174 15.8174C14.9152 16.7196 14.4077 17.9428 14.4062 19.2188V26.7812C14.4077 28.0572 14.9152 29.2804 15.8174 30.1826C16.7196 31.0848 17.9428 31.5923 19.2188 31.5938H26.7812C28.0572 31.5923 29.2804 31.0848 30.1826 30.1826C31.0848 29.2804 31.5923 28.0572 31.5938 26.7812V19.2188C31.5923 17.9428 31.0848 16.7196 30.1826 15.8174C29.2804 14.9152 28.0572 14.4077 26.7812 14.4062ZM23 27.125C22.1842 27.125 21.3866 26.8831 20.7083 26.4298C20.0299 25.9766 19.5012 25.3323 19.189 24.5786C18.8768 23.8248 18.7951 22.9954 18.9543 22.1953C19.1134 21.3951 19.5063 20.6601 20.0832 20.0832C20.6601 19.5063 21.3951 19.1134 22.1953 18.9543C22.9954 18.7951 23.8248 18.8768 24.5786 19.189C25.3323 19.5012 25.9766 20.0299 26.4298 20.7083C26.8831 21.3866 27.125 22.1842 27.125 23C27.1238 24.0936 26.6888 25.1421 25.9154 25.9154C25.1421 26.6888 24.0936 27.1238 23 27.125ZM27.4688 19.5625C27.2648 19.5625 27.0654 19.502 26.8958 19.3887C26.7262 19.2754 26.5941 19.1143 26.516 18.9259C26.4379 18.7375 26.4175 18.5301 26.4573 18.3301C26.4971 18.13 26.5953 17.9463 26.7395 17.802C26.8838 17.6578 27.0675 17.5596 27.2676 17.5198C27.4676 17.48 27.675 17.5004 27.8634 17.5785C28.0518 17.6566 28.2129 17.7887 28.3262 17.9583C28.4395 18.1279 28.5 18.3273 28.5 18.5312C28.5 18.8048 28.3913 19.0671 28.198 19.2605C28.0046 19.4539 27.7423 19.5625 27.4688 19.5625Z" fill="#1B1B1B"/>
</svg>
