<svg width="40" height="40" viewBox="0 0 40 40" fill="none" xmlns="http://www.w3.org/2000/svg">
<circle cx="20" cy="20.0001" r="20" fill="#444444" fill-opacity="0.4"/>
<path d="M17.1402 13.2167C16.4069 10.0451 11.631 10.0359 10.8977 13.2167C10.4669 15.0776 11.6494 16.6542 12.676 17.6351C13.4277 18.3409 14.6102 18.3409 15.3619 17.6351C16.3885 16.6542 17.5619 15.0776 17.1402 13.2167ZM14.051 14.6834C13.5469 14.6834 13.1344 14.2709 13.1344 13.7667C13.1344 13.2626 13.5377 12.8501 14.0419 12.8501H14.051C14.5644 12.8501 14.9677 13.2626 14.9677 13.7667C14.9677 14.2709 14.5644 14.6834 14.051 14.6834Z" fill="white"/>
<path d="M29.0842 24.2167C28.3508 21.0451 23.5567 21.0359 22.8142 24.2167C22.3833 26.0776 23.5658 27.6542 24.6017 28.6351C25.3533 29.3409 26.545 29.3409 27.2967 28.6351C28.3325 27.6542 29.515 26.0776 29.0842 24.2167ZM25.9858 25.6834C25.4817 25.6834 25.0692 25.2709 25.0692 24.7667C25.0692 24.2626 25.4725 23.8501 25.9767 23.8501H25.9858C26.49 23.8501 26.9025 24.2626 26.9025 24.7667C26.9025 25.2709 26.49 25.6834 25.9858 25.6834Z" fill="white"/>
<path d="M20 27.1042H17.5433C16.48 27.1042 15.5542 26.4626 15.1875 25.4726C14.8117 24.4826 15.0867 23.3917 15.8842 22.6859L23.2083 16.2784C23.6483 15.8934 23.6575 15.3709 23.5292 15.0134C23.3917 14.6559 23.0433 14.2709 22.4567 14.2709H20C19.6242 14.2709 19.3125 13.9592 19.3125 13.5834C19.3125 13.2076 19.6242 12.8959 20 12.8959H22.4567C23.52 12.8959 24.4458 13.5376 24.8125 14.5276C25.1883 15.5176 24.9133 16.6084 24.1158 17.3142L16.7917 23.7217C16.3517 24.1067 16.3425 24.6292 16.4708 24.9867C16.6083 25.3442 16.9567 25.7292 17.5433 25.7292H20C20.3758 25.7292 20.6875 26.0409 20.6875 26.4167C20.6875 26.7926 20.3758 27.1042 20 27.1042Z" fill="white"/>
</svg>
