<svg width="52" height="52" viewBox="0 0 52 52" fill="none" xmlns="http://www.w3.org/2000/svg">
<path d="M43.3333 14.625C46.624 14.625 49.2917 11.9573 49.2917 8.66665C49.2917 5.37595 46.624 2.70831 43.3333 2.70831C40.0426 2.70831 37.375 5.37595 37.375 8.66665C37.375 11.9573 40.0426 14.625 43.3333 14.625Z" fill="#1B1B1B"/>
<path d="M41.253 17.6583C37.8513 16.9216 35.078 14.1483 34.3413 10.7466C34.0597 9.42498 34.038 8.14665 34.2763 6.93331C34.558 5.58998 33.5613 4.33331 32.1747 4.33331H15.1663C9.18634 4.33331 4.33301 9.18665 4.33301 15.1666V30.225C4.33301 36.205 9.18634 41.0583 15.1663 41.0583H18.4163C19.023 41.0583 19.803 41.4483 20.1497 41.925L23.3997 46.2366C24.8297 48.1433 27.1697 48.1433 28.5997 46.2366L31.8497 41.925C32.2613 41.3833 32.8897 41.0583 33.583 41.0583H36.8547C42.8347 41.0583 47.6663 36.2266 47.6663 30.2466V19.825C47.6663 18.46 46.4097 17.4633 45.0663 17.7233C43.853 17.94 42.5747 17.94 41.253 17.6583ZM17.333 26C16.1197 26 15.1663 25.025 15.1663 23.8333C15.1663 22.6416 16.1197 21.6666 17.333 21.6666C18.5247 21.6666 19.4997 22.6416 19.4997 23.8333C19.4997 25.025 18.5463 26 17.333 26ZM25.9997 26C24.7863 26 23.833 25.025 23.833 23.8333C23.833 22.6416 24.7863 21.6666 25.9997 21.6666C27.1913 21.6666 28.1663 22.6416 28.1663 23.8333C28.1663 25.025 27.213 26 25.9997 26ZM34.6663 26C33.453 26 32.4997 25.025 32.4997 23.8333C32.4997 22.6416 33.453 21.6666 34.6663 21.6666C35.858 21.6666 36.833 22.6416 36.833 23.8333C36.833 25.025 35.8797 26 34.6663 26Z" fill="#1B1B1B"/>
</svg>
