<svg width="44" height="44" viewBox="0 0 44 44" fill="none" xmlns="http://www.w3.org/2000/svg">
<path d="M24.182 11H12.4487C11.972 11 11.5137 11.0183 11.0737 11.0733C6.14199 11.495 3.66699 14.41 3.66699 19.7817V27.115C3.66699 34.4483 6.60033 35.8967 12.4487 35.8967H13.182C13.5853 35.8967 14.117 36.1717 14.3553 36.4833L16.5553 39.4167C17.527 40.7183 19.1037 40.7183 20.0753 39.4167L22.2753 36.4833C22.5503 36.1167 22.9903 35.8967 23.4487 35.8967H24.182C29.5537 35.8967 32.4687 33.44 32.8903 28.49C32.9453 28.05 32.9637 27.5917 32.9637 27.115V19.7817C32.9637 13.9333 30.0303 11 24.182 11ZM11.917 25.6667C10.8903 25.6667 10.0837 24.8417 10.0837 23.8333C10.0837 22.825 10.9087 22 11.917 22C12.9253 22 13.7503 22.825 13.7503 23.8333C13.7503 24.8417 12.9253 25.6667 11.917 25.6667ZM18.3153 25.6667C17.2887 25.6667 16.482 24.8417 16.482 23.8333C16.482 22.825 17.307 22 18.3153 22C19.3237 22 20.1487 22.825 20.1487 23.8333C20.1487 24.8417 19.342 25.6667 18.3153 25.6667ZM24.732 25.6667C23.7053 25.6667 22.8987 24.8417 22.8987 23.8333C22.8987 22.825 23.7237 22 24.732 22C25.7403 22 26.5653 22.825 26.5653 23.8333C26.5653 24.8417 25.7403 25.6667 24.732 25.6667Z" fill="#1B1B1B"/>
<path d="M40.2965 12.4483V19.7816C40.2965 23.4483 39.1598 25.9416 36.8865 27.3166C36.3365 27.6466 35.6948 27.2066 35.6948 26.565L35.7131 19.7816C35.7131 12.4483 31.5148 8.24996 24.1815 8.24996L13.0165 8.26829C12.3748 8.26829 11.9348 7.62663 12.2648 7.07663C13.6398 4.80329 16.1331 3.66663 19.7815 3.66663H31.5148C37.3631 3.66663 40.2965 6.59996 40.2965 12.4483Z" fill="#1B1B1B"/>
</svg>
