<svg width="40" height="40" viewBox="0 0 40 40" fill="none" xmlns="http://www.w3.org/2000/svg">
<circle cx="20" cy="20" r="20" fill="#444444" fill-opacity="0.4"/>
<path d="M20 30.3383C20 30.7038 19.7034 31.0021 19.3386 30.9801C16.6625 30.819 14.1283 29.6846 12.2218 27.7782C10.1589 25.7153 9 22.9174 9 20C9 17.0826 10.1589 14.2847 12.2218 12.2218C14.1283 10.3154 16.6625 9.18097 19.3386 9.01988C19.7034 8.99792 20 9.29625 20 9.66169C20 10.0271 19.7034 10.321 19.3388 10.346C17.0139 10.5051 14.8158 11.4994 13.1576 13.1576C11.3429 14.9723 10.3234 17.4336 10.3234 20C10.3234 22.5664 11.3429 25.0277 13.1576 26.8424C14.8158 28.5006 17.0139 29.4949 19.3388 29.654C19.7034 29.679 20 29.9729 20 30.3383Z" fill="white"/>
<path d="M20.0002 13.3333C16.3268 13.3333 13.3335 16.3266 13.3335 20C13.3335 23.6733 16.3268 26.6666 20.0002 26.6666C23.6735 26.6666 26.6668 23.6733 26.6668 20C26.6668 16.3266 23.6735 13.3333 20.0002 13.3333ZM22.9002 22.38C22.8068 22.54 22.6402 22.6266 22.4668 22.6266C22.3802 22.6266 22.2935 22.6066 22.2135 22.5533L20.1468 21.32C19.6335 21.0133 19.2535 20.34 19.2535 19.7466V17.0133C19.2535 16.74 19.4802 16.5133 19.7535 16.5133C20.0268 16.5133 20.2535 16.74 20.2535 17.0133V19.7466C20.2535 19.9866 20.4535 20.34 20.6602 20.46L22.7268 21.6933C22.9668 21.8333 23.0468 22.14 22.9002 22.38Z" fill="white"/>
</svg>
