<svg width="24" height="24" viewBox="0 0 24 24" fill="none" xmlns="http://www.w3.org/2000/svg">
<path d="M12 23.2782C12 23.6768 11.6764 24.0023 11.2785 23.9783C8.35909 23.8026 5.5945 22.5651 3.51472 20.4853C1.26428 18.2348 1.2437e-06 15.1826 1.38281e-06 12C1.52193e-06 8.8174 1.26428 5.76515 3.51472 3.51472C5.5945 1.43494 8.35909 0.197421 11.2785 0.0216899C11.6764 -0.00226383 12 0.323179 12 0.721841C12 1.1205 11.6764 1.44111 11.2787 1.46834C8.74246 1.64195 6.34453 2.72658 4.53556 4.53556C2.55586 6.51525 1.44368 9.20029 1.44369 12C1.44368 14.7997 2.55586 17.4847 4.53556 19.4644C6.34453 21.2734 8.74246 22.3581 11.2787 22.5317C11.6764 22.5589 12 22.8795 12 23.2782Z" fill="#1B1B1B"/>
<path d="M12 4.72729C7.99275 4.72729 4.72729 7.99275 4.72729 12C4.72729 16.0073 7.99275 19.2727 12 19.2727C16.0073 19.2727 19.2727 16.0073 19.2727 12C19.2727 7.99275 16.0073 4.72729 12 4.72729ZM15.1637 14.5964C15.0618 14.7709 14.88 14.8655 14.6909 14.8655C14.5964 14.8655 14.5018 14.8437 14.4146 14.7855L12.16 13.44C11.6 13.1055 11.1855 12.3709 11.1855 11.7237V8.74184C11.1855 8.44366 11.4327 8.19639 11.7309 8.19639C12.0291 8.19639 12.2764 8.44366 12.2764 8.74184V11.7237C12.2764 11.9855 12.4946 12.3709 12.72 12.5018L14.9746 13.8473C15.2364 14 15.3237 14.3346 15.1637 14.5964Z" fill="#1B1B1B"/>
</svg>
