<svg width="32" height="32" viewBox="0 0 32 32" fill="none" xmlns="http://www.w3.org/2000/svg">
<g filter="url(#filter0_b_1245_36902)">
<rect width="32" height="32" rx="16" fill="#444444" fill-opacity="0.4"/>
</g>
<path d="M20.1519 24.1905C19.291 24.1905 18.3843 23.9847 17.4472 23.5886C16.5329 23.2 15.611 22.6667 14.7119 22.019C13.8205 21.3638 12.9596 20.6324 12.1443 19.8324C11.3367 19.0171 10.6053 18.1562 9.95765 17.2724C9.30242 16.3581 8.7767 15.4438 8.40337 14.56C8.00718 13.6152 7.80908 12.7009 7.80908 11.84C7.80908 11.2457 7.91575 10.6819 8.12146 10.1562C8.3348 9.61522 8.67765 9.11237 9.14242 8.67808C9.72908 8.09903 10.3996 7.80951 11.1157 7.80951C11.4129 7.80951 11.7177 7.87808 11.9767 7.99999C12.2738 8.13713 12.5253 8.34284 12.7081 8.61713L14.4757 11.1086C14.6357 11.3295 14.7577 11.5428 14.8415 11.7562C14.9405 11.9847 14.9938 12.2133 14.9938 12.4343C14.9938 12.7238 14.91 13.0057 14.75 13.2724C14.6357 13.4781 14.4605 13.699 14.2396 13.92L13.7215 14.4609C13.7291 14.4838 13.7367 14.499 13.7443 14.5143C13.8357 14.6743 14.0186 14.9486 14.3691 15.36C14.7424 15.7867 15.0929 16.1752 15.4434 16.5333C15.8929 16.9752 16.2662 17.3257 16.6167 17.6152C17.051 17.9809 17.3329 18.1638 17.5005 18.2476L17.4853 18.2857L18.0415 17.7371C18.2777 17.5009 18.5062 17.3257 18.7272 17.2114C19.1462 16.9524 19.6796 16.9067 20.2129 17.1276C20.411 17.2114 20.6243 17.3257 20.8529 17.4857L23.3824 19.2838C23.6643 19.4743 23.87 19.7181 23.9919 20.0076C24.1062 20.2971 24.1596 20.5638 24.1596 20.8305C24.1596 21.1962 24.0757 21.5619 23.9157 21.9047C23.7557 22.2476 23.5577 22.5447 23.3062 22.819C22.8719 23.299 22.3996 23.6419 21.851 23.8628C21.3253 24.0762 20.7538 24.1905 20.1519 24.1905ZM11.1157 8.95237C10.6967 8.95237 10.3081 9.13522 9.9348 9.50094C9.58432 9.82856 9.34051 10.1867 9.18813 10.5752C9.02813 10.9714 8.95194 11.3905 8.95194 11.84C8.95194 12.5486 9.11956 13.3181 9.4548 14.1105C9.79765 14.9181 10.2777 15.7562 10.8872 16.5943C11.4967 17.4324 12.19 18.2476 12.9519 19.0171C13.7138 19.7714 14.5367 20.4724 15.3824 21.0895C16.2053 21.6914 17.051 22.179 17.8891 22.5295C19.1919 23.0857 20.411 23.2152 21.4167 22.7962C21.8053 22.6362 22.1481 22.3924 22.4605 22.0419C22.6357 21.8514 22.7729 21.6457 22.8872 21.4019C22.9786 21.2114 23.0243 21.0133 23.0243 20.8152C23.0243 20.6933 23.0015 20.5714 22.9405 20.4343C22.9177 20.3886 22.8719 20.3047 22.7272 20.2057L20.1977 18.4076C20.0453 18.3009 19.9081 18.2247 19.7786 18.1714C19.611 18.1028 19.5424 18.0343 19.2834 18.1943C19.131 18.2705 18.9938 18.3847 18.8415 18.5371L18.2624 19.1086C17.9653 19.3981 17.5081 19.4667 17.1577 19.3371L16.9519 19.2457C16.6396 19.0781 16.2738 18.819 15.87 18.4762C15.5043 18.1638 15.1081 17.7981 14.6281 17.3257C14.2548 16.9447 13.8815 16.5409 13.4929 16.0914C13.1348 15.6724 12.8757 15.3143 12.7157 15.0171L12.6243 14.7886C12.5786 14.6133 12.5634 14.5143 12.5634 14.4076C12.5634 14.1333 12.6624 13.8895 12.8529 13.699L13.4243 13.1047C13.5767 12.9524 13.691 12.8076 13.7672 12.6781C13.8281 12.579 13.851 12.4952 13.851 12.419C13.851 12.3581 13.8281 12.2667 13.79 12.1752C13.7367 12.0533 13.6529 11.9162 13.5462 11.7714L11.7786 9.27237C11.7024 9.1657 11.611 9.08951 11.4967 9.03618C11.3748 8.98284 11.2453 8.95237 11.1157 8.95237ZM17.4853 18.2933L17.3634 18.8114L17.5691 18.2781C17.531 18.2705 17.5005 18.2781 17.4853 18.2933Z" fill="white"/>
<defs>
<filter id="filter0_b_1245_36902" x="-6" y="-6" width="44" height="44" filterUnits="userSpaceOnUse" color-interpolation-filters="sRGB">
<feFlood flood-opacity="0" result="BackgroundImageFix"/>
<feGaussianBlur in="BackgroundImage" stdDeviation="3"/>
<feComposite in2="SourceAlpha" operator="in" result="effect1_backgroundBlur_1245_36902"/>
<feBlend mode="normal" in="SourceGraphic" in2="effect1_backgroundBlur_1245_36902" result="shape"/>
</filter>
</defs>
</svg>
