<svg width="44" height="44" viewBox="0 0 44 44" fill="none" xmlns="http://www.w3.org/2000/svg">
<path d="M32.0647 17.6L10.2663 30.745C8.98301 31.515 7.33301 30.5983 7.33301 29.095V14.4283C7.33301 8.02996 14.2447 4.0333 19.7997 7.2233L28.2147 12.0633L32.0463 14.2633C33.3113 15.015 33.3297 16.8483 32.0647 17.6Z" fill="#1B1B1B"/>
<path d="M33.1648 28.3434L25.7398 32.6334L18.3331 36.905C15.6748 38.4267 12.6681 38.115 10.4865 36.575C9.42315 35.8417 9.55148 34.21 10.6698 33.55L33.9715 19.58C35.0715 18.92 36.5198 19.5434 36.7215 20.8084C37.1798 23.65 36.0065 26.7117 33.1648 28.3434Z" fill="#1B1B1B"/>
</svg>
