<svg width="52" height="52" viewBox="0 0 52 52" fill="none" xmlns="http://www.w3.org/2000/svg">
<path d="M19.4997 4.33331C13.823 4.33331 9.20801 8.94831 9.20801 14.625C9.20801 20.1933 13.563 24.7 19.2397 24.895C19.413 24.8733 19.5863 24.8733 19.7163 24.895C19.7597 24.895 19.7813 24.895 19.8247 24.895C19.8463 24.895 19.8463 24.895 19.868 24.895C25.4147 24.7 29.7697 20.1933 29.7913 14.625C29.7913 8.94831 25.1763 4.33331 19.4997 4.33331Z" fill="#1B1B1B"/>
<path d="M30.5071 30.6583C24.4621 26.6283 14.6037 26.6283 8.5154 30.6583C5.76374 32.5 4.24707 34.9916 4.24707 37.6566C4.24707 40.3216 5.76374 42.7916 8.49374 44.6116C11.5271 46.6483 15.5137 47.6666 19.5004 47.6666C23.4871 47.6666 27.4737 46.6483 30.5071 44.6116C33.2371 42.77 34.7537 40.3 34.7537 37.6133C34.7321 34.9483 33.2371 32.4783 30.5071 30.6583Z" fill="#1B1B1B"/>
<path d="M43.3113 15.9033C43.658 20.1067 40.668 23.79 36.5296 24.2883C36.508 24.2883 36.508 24.2883 36.4863 24.2883H36.4213C36.2913 24.2883 36.1613 24.2883 36.053 24.3317C33.9513 24.44 32.023 23.7683 30.5713 22.5333C32.803 20.54 34.0813 17.55 33.8213 14.3C33.6696 12.545 33.063 10.9417 32.153 9.57668C32.9763 9.16501 33.9296 8.90501 34.9046 8.81835C39.1513 8.45001 42.943 11.6133 43.3113 15.9033Z" fill="#1B1B1B"/>
<path d="M47.6449 35.945C47.4715 38.0467 46.1282 39.8666 43.8749 41.1016C41.7082 42.2933 38.9782 42.8567 36.2699 42.7917C37.8299 41.3833 38.7399 39.6283 38.9132 37.765C39.1299 35.0783 37.8515 32.5 35.2949 30.4417C33.8432 29.2933 32.1532 28.3833 30.3115 27.7117C35.0999 26.325 41.1232 27.2567 44.8282 30.2467C46.8215 31.85 47.8399 33.865 47.6449 35.945Z" fill="#1B1B1B"/>
</svg>
