<svg width="44" height="44" viewBox="0 0 44 44" fill="none" xmlns="http://www.w3.org/2000/svg">
<path d="M29.682 3.66663H14.3187C7.64533 3.66663 3.66699 7.64496 3.66699 14.3183V29.6633C3.66699 36.355 7.64533 40.3333 14.3187 40.3333H29.6637C36.337 40.3333 40.3153 36.355 40.3153 29.6816V14.3183C40.3337 7.64496 36.3553 3.66663 29.682 3.66663ZM31.8087 16.5916L27.5187 30.415C26.492 33.6966 21.8903 33.7516 20.8087 30.4883L19.5253 26.6933C19.177 25.6483 18.352 24.805 17.307 24.475L13.4937 23.1916C10.267 22.11 10.3037 17.4716 13.5853 16.4816L27.4087 12.1733C30.122 11.3483 32.6703 13.8966 31.8087 16.5916Z" fill="#1B1B1B"/>
</svg>
