<svg width="12" height="13" viewBox="0 0 12 13" fill="none" xmlns="http://www.w3.org/2000/svg">
<path d="M8.95919 7.66C8.82969 7.7855 8.77019 7.967 8.79969 8.145L9.24419 10.605C9.28169 10.8135 9.19369 11.0245 9.01919 11.145C8.84819 11.27 8.62069 11.285 8.43419 11.185L6.21969 10.03C6.14269 9.989 6.05719 9.967 5.96969 9.9645H5.83419C5.78719 9.9715 5.74119 9.9865 5.69919 10.0095L3.48419 11.17C3.37469 11.225 3.25069 11.2445 3.12919 11.225C2.83319 11.169 2.63569 10.887 2.68419 10.5895L3.12919 8.1295C3.15869 7.95 3.09919 7.7675 2.96969 7.64L1.16419 5.89C1.01319 5.7435 0.960694 5.5235 1.02969 5.325C1.09669 5.127 1.26769 4.9825 1.47419 4.95L3.95919 4.5895C4.14819 4.57 4.31419 4.455 4.39919 4.285L5.49419 2.04C5.52019 1.99 5.55369 1.944 5.59419 1.905L5.63919 1.87C5.66269 1.844 5.68969 1.8225 5.71969 1.805L5.77419 1.785L5.85919 1.75H6.06969C6.25769 1.7695 6.42319 1.882 6.50969 2.05L7.61919 4.285C7.69919 4.4485 7.85469 4.562 8.03419 4.5895L10.5192 4.95C10.7292 4.98 10.9047 5.125 10.9742 5.325C11.0397 5.5255 10.9832 5.7455 10.8292 5.89L8.95919 7.66Z" fill="white"/>
</svg>
