<svg width="22" height="22" viewBox="0 0 22 22" fill="none" xmlns="http://www.w3.org/2000/svg">
<path d="M20.6245 16.5V18.2188C20.6245 19.1668 19.8531 19.9375 18.9058 19.9375H4.12451C2.60789 19.9375 1.37451 18.7041 1.37451 17.1875C1.37451 17.1875 1.37451 5.51031 1.37451 5.5C1.37451 3.98338 2.60789 2.75 4.12451 2.75H16.8433C17.4132 2.75 17.8745 3.212 17.8745 3.78125C17.8745 4.3505 17.4132 4.8125 16.8433 4.8125H4.12451C3.7457 4.8125 3.43701 5.1205 3.43701 5.5C3.43701 5.8795 3.7457 6.1875 4.12451 6.1875H18.9058C19.8531 6.1875 20.6245 6.95819 20.6245 7.90625V9.625H17.187C15.2916 9.625 13.7495 11.1671 13.7495 13.0625C13.7495 14.9579 15.2916 16.5 17.187 16.5H20.6245Z" fill="#1B1B1B"/>
<path d="M20.6252 11V15.125H17.1877C16.0486 15.125 15.1252 14.2017 15.1252 13.0625C15.1252 11.9233 16.0486 11 17.1877 11H20.6252Z" fill="#1B1B1B"/>
</svg>
