<svg width="40" height="40" viewBox="0 0 40 40" fill="none" xmlns="http://www.w3.org/2000/svg">
<circle cx="20" cy="20" r="20" fill="#444444" fill-opacity="0.4"/>
<path d="M29.6245 25.5V27.2188C29.6245 28.1668 28.8531 28.9375 27.9058 28.9375H13.1245C11.6079 28.9375 10.3745 27.7041 10.3745 26.1875C10.3745 26.1875 10.3745 14.5103 10.3745 14.5C10.3745 12.9834 11.6079 11.75 13.1245 11.75H25.8433C26.4132 11.75 26.8745 12.212 26.8745 12.7813C26.8745 13.3505 26.4132 13.8125 25.8433 13.8125H13.1245C12.7457 13.8125 12.437 14.1205 12.437 14.5C12.437 14.8795 12.7457 15.1875 13.1245 15.1875H27.9058C28.8531 15.1875 29.6245 15.9582 29.6245 16.9063V18.625H26.187C24.2916 18.625 22.7495 20.1671 22.7495 22.0625C22.7495 23.9579 24.2916 25.5 26.187 25.5H29.6245Z" fill="white"/>
<path d="M29.625 20V24.125H26.1875C25.0483 24.125 24.125 23.2017 24.125 22.0625C24.125 20.9233 25.0483 20 26.1875 20H29.625Z" fill="white"/>
</svg>
