<svg width="46" height="46" viewBox="0 0 46 46" fill="none" xmlns="http://www.w3.org/2000/svg">
<circle cx="23" cy="23" r="23" fill="#EAEAEA"/>
<path d="M19.0127 31.1675C18.9852 31.1675 18.9485 31.1858 18.921 31.1858C17.1427 30.3058 15.6943 28.8483 14.8052 27.07C14.8052 27.0425 14.8235 27.0058 14.8235 26.9783C15.9418 27.3083 17.0968 27.5558 18.2427 27.7483C18.4443 28.9033 18.6827 30.0492 19.0127 31.1675Z" fill="#1B1B1B"/>
<path d="M31.1951 27.0792C30.2876 28.9033 28.7751 30.3792 26.9326 31.2683C27.281 30.1042 27.5743 28.9308 27.7668 27.7483C28.9218 27.5558 30.0584 27.3083 31.1768 26.9783C31.1676 27.015 31.1951 27.0517 31.1951 27.0792Z" fill="#1B1B1B"/>
<path d="M31.2684 19.0675C30.1135 18.7192 28.9493 18.435 27.7668 18.2334C27.5743 17.0509 27.2901 15.8775 26.9326 14.7317C28.8301 15.6392 30.3609 17.17 31.2684 19.0675Z" fill="#1B1B1B"/>
<path d="M19.0123 14.8325C18.6823 15.9508 18.4439 17.0875 18.2514 18.2425C17.0689 18.4258 15.8956 18.7192 14.7314 19.0675C15.6206 17.225 17.0964 15.7125 18.9206 14.805C18.9481 14.805 18.9848 14.8325 19.0123 14.8325Z" fill="#1B1B1B"/>
<path d="M26.1991 18.0408C24.0724 17.8025 21.9274 17.8025 19.8008 18.0408C20.0299 16.785 20.3233 15.5291 20.7358 14.3191C20.7541 14.2458 20.7449 14.1908 20.7541 14.1175C21.4783 13.9433 22.2208 13.8333 22.9999 13.8333C23.7699 13.8333 24.5216 13.9433 25.2366 14.1175C25.2458 14.1908 25.2458 14.2458 25.2641 14.3191C25.6766 15.5383 25.9699 16.785 26.1991 18.0408Z" fill="#1B1B1B"/>
<path d="M18.041 26.1992C16.776 25.97 15.5293 25.6767 14.3193 25.2642C14.246 25.2458 14.191 25.255 14.1177 25.2458C13.9435 24.5217 13.8335 23.7792 13.8335 23C13.8335 22.23 13.9435 21.4783 14.1177 20.7633C14.191 20.7542 14.246 20.7542 14.3193 20.7358C15.5385 20.3325 16.776 20.03 18.041 19.8008C17.8118 21.9275 17.8118 24.0725 18.041 26.1992Z" fill="#1B1B1B"/>
<path d="M32.1665 23C32.1665 23.7792 32.0565 24.5217 31.8823 25.2458C31.809 25.255 31.754 25.2458 31.6807 25.2642C30.4615 25.6675 29.2148 25.97 27.959 26.1992C28.1973 24.0725 28.1973 21.9275 27.959 19.8008C29.2148 20.03 30.4707 20.3233 31.6807 20.7358C31.754 20.7542 31.809 20.7633 31.8823 20.7633C32.0565 21.4875 32.1665 22.23 32.1665 23Z" fill="#1B1B1B"/>
<path d="M26.1991 27.9592C25.9699 29.2242 25.6766 30.4708 25.2641 31.6808C25.2458 31.7542 25.2458 31.8092 25.2366 31.8825C24.5216 32.0567 23.7699 32.1667 22.9999 32.1667C22.2208 32.1667 21.4783 32.0567 20.7541 31.8825C20.7449 31.8092 20.7541 31.7542 20.7358 31.6808C20.3324 30.4617 20.0299 29.2242 19.8008 27.9592C20.8641 28.0783 21.9274 28.1608 22.9999 28.1608C24.0724 28.1608 25.1449 28.0783 26.1991 27.9592Z" fill="#1B1B1B"/>
<path d="M26.4499 26.4497C24.1572 26.739 21.8431 26.739 19.5504 26.4497C19.2612 24.157 19.2612 21.8429 19.5504 19.5503C21.8431 19.261 24.1572 19.261 26.4499 19.5503C26.7391 21.8429 26.7391 24.157 26.4499 26.4497Z" fill="#1B1B1B"/>
</svg>
